<?xml version="1.0" encoding="utf-8"?>
<!-- Generator: Adobe Illustrator 24.1.0, SVG Export Plug-In . SVG Version: 6.00 Build 0)  -->
<svg version="1.1" id="Layer_1" xmlns="http://www.w3.org/2000/svg" xmlns:xlink="http://www.w3.org/1999/xlink" x="0px" y="0px"
	 viewBox="0 0 177.1 37.6" style="enable-background:new 0 0 177.1 37.6;" xml:space="preserve">
<style type="text/css">
	.st0{fill:url(#SVGID_1_);}
	.st1{fill:url(#SVGID_2_);}
	.st2{fill:url(#SVGID_3_);}
	.st3{fill:url(#SVGID_4_);}
	.st4{enable-background:new    ;}
	.st5{fill:#0087B0;}
</style>
<g>
	<g>
		<g>
			
				<linearGradient id="SVGID_1_" gradientUnits="userSpaceOnUse" x1="0.98" y1="25.535" x2="17.93" y2="25.535" gradientTransform="matrix(1 0 0 -1 0 40)">
				<stop  offset="0" style="stop-color:#2FAFCC"/>
				<stop  offset="1" style="stop-color:#1FB584"/>
			</linearGradient>
			<path class="st0" d="M17.9,13.2C13.1,9.7,7.3,7.4,1,6.9l8.6,15C11.8,18.6,14.7,15.6,17.9,13.2z"/>
			
				<linearGradient id="SVGID_2_" gradientUnits="userSpaceOnUse" x1="17.93" y1="25.535" x2="34.88" y2="25.535" gradientTransform="matrix(1 0 0 -1 0 40)">
				<stop  offset="0" style="stop-color:#2FAFCC"/>
				<stop  offset="1" style="stop-color:#80D2EB"/>
			</linearGradient>
			<path class="st1" d="M26.2,22l8.7-15c-6.3,0.5-12.1,2.7-17,6.3C21.2,15.6,24,18.6,26.2,22z"/>
			
				<linearGradient id="SVGID_3_" gradientUnits="userSpaceOnUse" x1="17.92" y1="25.3391" x2="17.92" y2="3.1198" gradientTransform="matrix(1 0 0 -1 0 40)">
				<stop  offset="1.198948e-03" style="stop-color:#0077BF"/>
				<stop  offset="1" style="stop-color:#191057"/>
			</linearGradient>
			<path class="st2" d="M9.6,22l8.3,14.4L26.2,22c-2.2-3.4-5-6.4-8.3-8.8C14.7,15.6,11.8,18.6,9.6,22z"/>
		</g>
		
			<linearGradient id="SVGID_4_" gradientUnits="userSpaceOnUse" x1="14.69" y1="35.13" x2="21.17" y2="35.13" gradientTransform="matrix(1 0 0 -1 0 40)">
			<stop  offset="0" style="stop-color:#2FAFCC"/>
			<stop  offset="1" style="stop-color:#80D2EB"/>
		</linearGradient>
		<ellipse class="st3" cx="17.9" cy="4.9" rx="3.2" ry="4.4"/>
	</g>
</g>
<g>
	<g class="st4">
		<path class="st5" d="M52.5,19.5c-0.1-1.9-0.1-4.3-0.1-6.6h-0.1c-0.5,2.1-1.2,4.3-1.8,6.2l-2,6.3h-2.8L44,19.1
			c-0.5-1.9-1.1-4.2-1.5-6.3h0c-0.1,2.2-0.2,4.7-0.3,6.7l-0.3,6.1h-3.4l1-16.1h4.8l1.6,5.4c0.5,1.9,1,3.9,1.4,5.8h0.1
			c0.5-1.9,1-4,1.5-5.8l1.7-5.3h4.8l0.9,16.1h-3.6L52.5,19.5z"/>
		<path class="st5" d="M68.7,18.8h-5.9v3.8h6.6v3H59.1V9.5h9.9v3h-6.3v3.3h5.9V18.8z"/>
		<path class="st5" d="M71.9,9.7c1.3-0.2,3.1-0.3,4.9-0.3c3.1,0,5,0.5,6.6,1.7c1.7,1.2,2.7,3.2,2.7,6.1c0,3.1-1.1,5.2-2.7,6.5
			c-1.7,1.4-4.3,2.1-7.4,2.1c-1.9,0-3.2-0.1-4.1-0.2V9.7z M75.5,22.9c0.3,0.1,0.8,0.1,1.3,0.1c3.3,0,5.4-1.8,5.4-5.6
			c0-3.3-1.9-5.1-5.1-5.1c-0.8,0-1.3,0.1-1.6,0.1V22.9z"/>
		<path class="st5" d="M92.2,9.5v16.1h-3.7V9.5H92.2z"/>
		<path class="st5" d="M99.1,25.6L94,9.5h4l2,6.8c0.5,1.9,1.1,3.7,1.4,5.8h0.1c0.4-1.9,0.9-3.8,1.5-5.7l2.1-6.9h3.9l-5.4,16.1H99.1z
			"/>
		<path class="st5" d="M120.1,18.8h-5.9v3.8h6.6v3h-10.3V9.5h9.9v3h-6.3v3.3h5.9V18.8z"/>
		<path class="st5" d="M123.3,9.7c1.2-0.2,2.9-0.3,4.8-0.3c2.4,0,4.1,0.4,5.2,1.3c1,0.8,1.5,1.9,1.5,3.4c0,2.1-1.5,3.5-2.8,4v0.1
			c1.1,0.5,1.7,1.5,2.1,3c0.5,1.8,1,3.9,1.3,4.5h-3.7c-0.3-0.5-0.6-1.8-1.1-3.7c-0.4-2-1.1-2.6-2.6-2.6h-1.1v6.3h-3.6V9.7z
			 M126.9,16.7h1.4c1.8,0,2.9-0.9,2.9-2.3c0-1.5-1-2.2-2.7-2.2c-0.9,0-1.4,0.1-1.6,0.1V16.7z"/>
		<path class="st5" d="M137.5,21.9c1,0.5,2.5,1,4,1c1.7,0,2.6-0.7,2.6-1.7c0-1-0.8-1.6-2.7-2.3c-2.7-0.9-4.4-2.4-4.4-4.8
			c0-2.7,2.3-4.8,6.1-4.8c1.8,0,3.2,0.4,4.1,0.8l-0.8,2.9c-0.6-0.3-1.8-0.8-3.4-0.8s-2.3,0.7-2.3,1.6c0,1,0.9,1.5,3,2.3
			c2.8,1.1,4.2,2.5,4.2,4.8c0,2.7-2.1,5-6.5,5c-1.8,0-3.7-0.5-4.6-1L137.5,21.9z"/>
		<path class="st5" d="M154.1,21.5l-1.1,4.1h-3.8l4.9-16.1h4.8l5,16.1h-3.9l-1.2-4.1H154.1z M158.1,18.8l-1-3.4
			c-0.3-1-0.6-2.1-0.8-3.1h0c-0.2,1-0.5,2.2-0.7,3.1l-1,3.4H158.1z"/>
		<path class="st5" d="M166,9.5h3.7v13h6.4v3.1H166V9.5z"/>
	</g>
	<g>
		<g class="st4">
			<path class="st5" d="M57.3,34.1h-1.2l1-4.8h-1.7l0.2-1h4.5l-0.2,1h-1.7L57.3,34.1z"/>
			<path class="st5" d="M60.3,29.9h1.1l-0.2,0.8c0.4-0.6,0.8-0.9,1.3-0.9c0.2,0,0.3,0,0.5,0.1l-0.4,0.9c-0.1,0-0.2-0.1-0.3-0.1
				c-0.2,0-0.4,0.1-0.6,0.2s-0.4,0.3-0.5,0.6c-0.1,0.2-0.2,0.6-0.3,1.2l-0.3,1.3h-1.1L60.3,29.9z"/>
			<path class="st5" d="M63.5,29.9h1.1l-0.5,2.5C64.1,32.7,64,32.9,64,33c0,0.1,0,0.2,0.1,0.3c0.1,0.1,0.2,0.1,0.3,0.1
				c0.1,0,0.2,0,0.3-0.1s0.2-0.1,0.3-0.2s0.2-0.2,0.3-0.3c0.1-0.1,0.2-0.2,0.2-0.4c0-0.1,0.1-0.3,0.2-0.6l0.4-2h1.1l-0.9,4.2h-1.1
				l0.1-0.6c-0.5,0.4-1,0.7-1.5,0.7c-0.3,0-0.6-0.1-0.8-0.3s-0.3-0.5-0.3-0.8c0-0.1,0-0.4,0.1-0.9L63.5,29.9z"/>
			<path class="st5" d="M67.4,33l1.1-0.2c0.1,0.2,0.2,0.4,0.4,0.5c0.1,0.1,0.3,0.1,0.6,0.1c0.3,0,0.5-0.1,0.6-0.2
				c0.1-0.1,0.2-0.2,0.2-0.3c0-0.1,0-0.1-0.1-0.2c-0.1-0.1-0.2-0.1-0.5-0.2c-0.7-0.2-1.1-0.4-1.3-0.5c-0.3-0.2-0.4-0.5-0.4-0.8
				c0-0.3,0.1-0.6,0.4-0.9c0.3-0.3,0.9-0.5,1.5-0.5c0.5,0,0.9,0.1,1.2,0.3c0.3,0.2,0.4,0.5,0.5,0.8l-1,0.2c-0.1-0.2-0.1-0.3-0.3-0.3
				c-0.2-0.1-0.4-0.2-0.6-0.2c-0.2,0-0.4,0-0.5,0.1s-0.2,0.2-0.2,0.3c0,0.1,0.1,0.2,0.2,0.3c0.1,0,0.3,0.1,0.6,0.2
				c0.5,0.2,0.9,0.3,1.1,0.5c0.3,0.2,0.4,0.5,0.4,0.8c0,0.4-0.2,0.7-0.5,1c-0.3,0.3-0.8,0.4-1.4,0.4c-0.6,0-1.1-0.1-1.4-0.3
				C67.8,33.7,67.5,33.4,67.4,33z"/>
			<path class="st5" d="M72.3,30.8l0.2-0.8H73l0.1-0.7l1.3-0.8l-0.3,1.4h0.7l-0.2,0.8H74l-0.4,1.7c-0.1,0.3-0.1,0.5-0.1,0.5
				c0,0.1,0,0.2,0.1,0.2c0.1,0,0.2,0.1,0.3,0.1c0,0,0.2,0,0.4,0l-0.2,0.8c-0.2,0-0.4,0.1-0.6,0.1c-0.4,0-0.7-0.1-0.9-0.2
				c-0.2-0.2-0.3-0.4-0.3-0.6c0-0.1,0-0.4,0.1-0.9l0.3-1.7H72.3z"/>
			<path class="st5" d="M79.6,31.3c0,0.3-0.1,0.6-0.3,0.8c-0.2,0.2-0.5,0.3-0.8,0.3c-0.3,0-0.6-0.1-0.8-0.3s-0.3-0.5-0.3-0.8
				s0.1-0.6,0.3-0.8c0.2-0.2,0.5-0.3,0.8-0.3c0.3,0,0.6,0.1,0.8,0.3C79.5,30.7,79.6,31,79.6,31.3z"/>
			<path class="st5" d="M84.5,34.1h-1.2l1-4.8h-1.7l0.2-1h4.5l-0.2,1h-1.7L84.5,34.1z"/>
			<path class="st5" d="M87.6,29.9h1.1l-0.2,0.8c0.4-0.6,0.8-0.9,1.3-0.9c0.2,0,0.3,0,0.5,0.1l-0.4,0.9c-0.1,0-0.2-0.1-0.3-0.1
				c-0.2,0-0.4,0.1-0.6,0.2s-0.4,0.3-0.5,0.6c-0.1,0.2-0.2,0.6-0.3,1.2l-0.3,1.3h-1.1L87.6,29.9z"/>
			<path class="st5" d="M91.5,31.1L90.4,31c0.1-0.4,0.3-0.7,0.7-0.9c0.3-0.2,0.7-0.3,1.2-0.3c0.5,0,0.9,0.1,1.2,0.3
				c0.3,0.2,0.4,0.5,0.4,0.8c0,0.1,0,0.3,0,0.4s-0.1,0.5-0.2,1.1c-0.1,0.5-0.2,0.8-0.2,1c0,0.2,0,0.4,0.1,0.6h-1.1
				c0-0.2-0.1-0.3-0.1-0.5c-0.2,0.2-0.4,0.3-0.6,0.4c-0.2,0.1-0.4,0.1-0.6,0.1c-0.3,0-0.6-0.1-0.9-0.3c-0.2-0.2-0.3-0.5-0.3-0.9
				c0-0.4,0.1-0.7,0.4-1c0.2-0.2,0.7-0.4,1.3-0.4c0.5,0,0.9-0.1,1.1-0.2c0-0.2,0.1-0.3,0.1-0.4c0-0.1,0-0.2-0.1-0.3
				s-0.2-0.1-0.4-0.1c-0.2,0-0.4,0-0.5,0.1C91.6,30.9,91.5,31,91.5,31.1z M92.5,32.2c-0.1,0-0.2,0-0.3,0.1c-0.6,0.1-0.9,0.2-1.1,0.3
				C91,32.6,91,32.7,91,32.9c0,0.1,0,0.2,0.1,0.3c0.1,0.1,0.2,0.1,0.4,0.1c0.2,0,0.3,0,0.5-0.1c0.2-0.1,0.3-0.2,0.3-0.3
				c0.1-0.1,0.1-0.3,0.2-0.6L92.5,32.2z"/>
			<path class="st5" d="M95.2,29.9h1.1l-0.1,0.5c0.3-0.2,0.5-0.4,0.7-0.5c0.2-0.1,0.5-0.1,0.7-0.1c0.3,0,0.6,0.1,0.8,0.3
				c0.2,0.2,0.3,0.5,0.3,0.8c0,0.1,0,0.4-0.1,0.8l-0.5,2.4H97l0.5-2.4c0.1-0.4,0.1-0.6,0.1-0.6c0-0.1,0-0.3-0.1-0.3
				c-0.1-0.1-0.2-0.1-0.4-0.1c-0.2,0-0.3,0.1-0.5,0.2c-0.2,0.1-0.4,0.3-0.5,0.5c-0.1,0.2-0.2,0.5-0.3,1l-0.4,1.7h-1.1L95.2,29.9z"/>
			<path class="st5" d="M99.1,33l1.1-0.2c0.1,0.2,0.2,0.4,0.4,0.5c0.1,0.1,0.3,0.1,0.6,0.1c0.3,0,0.5-0.1,0.6-0.2
				c0.1-0.1,0.2-0.2,0.2-0.3c0-0.1,0-0.1-0.1-0.2c-0.1-0.1-0.2-0.1-0.5-0.2c-0.7-0.2-1.1-0.4-1.3-0.5c-0.3-0.2-0.4-0.5-0.4-0.8
				c0-0.3,0.1-0.6,0.4-0.9c0.3-0.3,0.9-0.5,1.5-0.5c0.5,0,0.9,0.1,1.2,0.3s0.4,0.5,0.5,0.8l-1,0.2c-0.1-0.2-0.1-0.3-0.3-0.3
				c-0.2-0.1-0.4-0.2-0.6-0.2s-0.4,0-0.5,0.1s-0.2,0.2-0.2,0.3c0,0.1,0.1,0.2,0.2,0.3c0.1,0,0.3,0.1,0.6,0.2
				c0.5,0.2,0.9,0.3,1.1,0.5c0.3,0.2,0.4,0.5,0.4,0.8c0,0.4-0.2,0.7-0.5,1c-0.3,0.3-0.8,0.4-1.4,0.4c-0.6,0-1.1-0.1-1.4-0.3
				C99.5,33.7,99.2,33.4,99.1,33z"/>
			<path class="st5" d="M104.6,29.9h1.1l-0.1,0.4c0.2-0.2,0.4-0.3,0.6-0.4c0.2-0.1,0.4-0.1,0.6-0.1c0.4,0,0.8,0.2,1.1,0.5
				s0.4,0.8,0.4,1.3c0,0.8-0.2,1.4-0.7,1.9c-0.4,0.4-0.9,0.7-1.4,0.7c-0.6,0-1-0.2-1.3-0.7l-0.5,2.2h-1.1L104.6,29.9z M105.3,32.3
				c0,0.3,0.1,0.6,0.2,0.8c0.2,0.2,0.3,0.3,0.6,0.3c0.2,0,0.4-0.1,0.5-0.2s0.3-0.4,0.4-0.7c0.1-0.3,0.2-0.6,0.2-0.9
				c0-0.3-0.1-0.5-0.2-0.7c-0.1-0.2-0.3-0.2-0.6-0.2c-0.2,0-0.4,0.1-0.6,0.2s-0.3,0.4-0.4,0.7S105.3,32.1,105.3,32.3z"/>
			<path class="st5" d="M110.2,31.1l-1.1-0.1c0.1-0.4,0.3-0.7,0.7-0.9c0.3-0.2,0.7-0.3,1.2-0.3c0.5,0,0.9,0.1,1.2,0.3
				c0.3,0.2,0.4,0.5,0.4,0.8c0,0.1,0,0.3,0,0.4c0,0.1-0.1,0.5-0.2,1.1c-0.1,0.5-0.2,0.8-0.2,1c0,0.2,0,0.4,0.1,0.6h-1.1
				c0-0.2-0.1-0.3-0.1-0.5c-0.2,0.2-0.4,0.3-0.6,0.4c-0.2,0.1-0.4,0.1-0.6,0.1c-0.3,0-0.6-0.1-0.9-0.3c-0.2-0.2-0.3-0.5-0.3-0.9
				c0-0.4,0.1-0.7,0.4-1c0.2-0.2,0.7-0.4,1.3-0.4c0.5,0,0.9-0.1,1.1-0.2c0-0.2,0.1-0.3,0.1-0.4c0-0.1,0-0.2-0.1-0.3
				c-0.1-0.1-0.2-0.1-0.4-0.1c-0.2,0-0.4,0-0.5,0.1C110.4,30.9,110.3,31,110.2,31.1z M111.3,32.2c-0.1,0-0.2,0-0.3,0.1
				c-0.6,0.1-0.9,0.2-1.1,0.3c-0.1,0.1-0.2,0.2-0.2,0.4c0,0.1,0,0.2,0.1,0.3c0.1,0.1,0.2,0.1,0.4,0.1c0.2,0,0.3,0,0.5-0.1
				c0.2-0.1,0.3-0.2,0.3-0.3s0.1-0.3,0.2-0.6L111.3,32.2z"/>
			<path class="st5" d="M113.9,29.9h1.1l-0.2,0.8c0.4-0.6,0.8-0.9,1.3-0.9c0.2,0,0.3,0,0.5,0.1l-0.4,0.9c-0.1,0-0.2-0.1-0.3-0.1
				c-0.2,0-0.4,0.1-0.6,0.2s-0.4,0.3-0.5,0.6c-0.1,0.2-0.2,0.6-0.3,1.2l-0.3,1.3h-1.1L113.9,29.9z"/>
			<path class="st5" d="M120.3,32.4h-2.8c0,0,0,0.1,0,0.1c0,0.3,0.1,0.5,0.2,0.7s0.4,0.3,0.6,0.3c0.4,0,0.7-0.2,0.9-0.6l1,0.2
				c-0.2,0.4-0.5,0.7-0.8,0.9s-0.7,0.3-1.1,0.3c-0.6,0-1-0.2-1.4-0.5s-0.5-0.8-0.5-1.4c0-0.6,0.2-1.1,0.5-1.5c0.4-0.6,1-0.9,1.8-0.9
				c0.5,0,0.9,0.2,1.2,0.5s0.5,0.8,0.5,1.3C120.4,31.9,120.4,32.2,120.3,32.4z M119.4,31.7c0,0,0-0.1,0-0.1c0-0.3-0.1-0.5-0.2-0.7
				s-0.3-0.2-0.6-0.2c-0.2,0-0.4,0.1-0.6,0.3c-0.2,0.2-0.3,0.4-0.4,0.8H119.4z"/>
			<path class="st5" d="M121.6,29.9h1.1l-0.1,0.5c0.3-0.2,0.5-0.4,0.7-0.5c0.2-0.1,0.5-0.1,0.7-0.1c0.3,0,0.6,0.1,0.8,0.3
				c0.2,0.2,0.3,0.5,0.3,0.8c0,0.1,0,0.4-0.1,0.8l-0.5,2.4h-1.1l0.5-2.4c0.1-0.4,0.1-0.6,0.1-0.6c0-0.1,0-0.3-0.1-0.3
				c-0.1-0.1-0.2-0.1-0.4-0.1c-0.2,0-0.3,0.1-0.5,0.2c-0.2,0.1-0.4,0.3-0.5,0.5c-0.1,0.2-0.2,0.5-0.3,1l-0.4,1.7h-1.1L121.6,29.9z"
				/>
			<path class="st5" d="M128.5,32.5l1.1,0.2c-0.2,0.5-0.4,0.9-0.8,1.1s-0.8,0.4-1.2,0.4c-0.5,0-1-0.2-1.3-0.5
				c-0.3-0.3-0.5-0.8-0.5-1.3c0-0.5,0.1-0.9,0.3-1.3s0.5-0.7,0.9-1c0.4-0.2,0.8-0.3,1.2-0.3c0.5,0,0.9,0.1,1.2,0.4
				c0.3,0.3,0.5,0.6,0.5,1l-1.1,0.1c0-0.2-0.1-0.4-0.2-0.5c-0.1-0.1-0.3-0.2-0.5-0.2c-0.2,0-0.4,0.1-0.6,0.2s-0.3,0.4-0.4,0.7
				c-0.1,0.3-0.2,0.6-0.2,0.9c0,0.2,0.1,0.4,0.2,0.6c0.1,0.1,0.3,0.2,0.5,0.2s0.4-0.1,0.5-0.2C128.2,33,128.4,32.8,128.5,32.5z"/>
			<path class="st5" d="M130.5,29.9h1.1l0.3,2.1c0.1,0.5,0.1,0.9,0.1,1.1c0.1-0.4,0.3-0.9,0.6-1.4l1-1.8h1.2l-2.6,4.6
				c-0.2,0.4-0.4,0.6-0.5,0.8c-0.1,0.2-0.3,0.3-0.4,0.4c-0.2,0.1-0.4,0.1-0.6,0.1c-0.2,0-0.5,0-0.8-0.1l0.1-0.8
				c0.1,0,0.3,0.1,0.4,0.1c0.3,0,0.6-0.3,0.9-0.8L130.5,29.9z"/>
			<path class="st5" d="M139.5,31.3c0,0.3-0.1,0.6-0.3,0.8s-0.5,0.3-0.8,0.3c-0.3,0-0.6-0.1-0.8-0.3s-0.3-0.5-0.3-0.8
				s0.1-0.6,0.3-0.8c0.2-0.2,0.5-0.3,0.8-0.3c0.3,0,0.6,0.1,0.8,0.3C139.3,30.7,139.5,31,139.5,31.3z"/>
			<path class="st5" d="M146,32l1.2,0.2c-0.2,0.6-0.6,1.1-1,1.5s-1,0.5-1.6,0.5c-0.7,0-1.3-0.2-1.7-0.6s-0.6-1-0.6-1.8
				c0-0.7,0.1-1.3,0.4-1.8s0.6-1,1.1-1.2c0.5-0.3,1-0.4,1.5-0.4c0.6,0,1.1,0.2,1.5,0.5s0.6,0.8,0.7,1.4l-1.1,0.1
				c-0.1-0.3-0.2-0.6-0.4-0.7c-0.2-0.2-0.4-0.2-0.7-0.2c-0.3,0-0.6,0.1-0.9,0.3c-0.3,0.2-0.5,0.5-0.7,0.9s-0.3,0.8-0.3,1.3
				c0,0.5,0.1,0.8,0.3,1.1c0.2,0.3,0.5,0.4,0.8,0.4c0.3,0,0.6-0.1,0.8-0.3S145.9,32.4,146,32z"/>
			<path class="st5" d="M149.3,31.1l-1.1-0.1c0.1-0.4,0.3-0.7,0.7-0.9c0.3-0.2,0.7-0.3,1.2-0.3c0.5,0,0.9,0.1,1.2,0.3
				c0.3,0.2,0.4,0.5,0.4,0.8c0,0.1,0,0.3,0,0.4s-0.1,0.5-0.2,1.1c-0.1,0.5-0.2,0.8-0.2,1c0,0.2,0,0.4,0.1,0.6h-1.1
				c0-0.2-0.1-0.3-0.1-0.5c-0.2,0.2-0.4,0.3-0.6,0.4c-0.2,0.1-0.4,0.1-0.6,0.1c-0.3,0-0.6-0.1-0.9-0.3c-0.2-0.2-0.3-0.5-0.3-0.9
				c0-0.4,0.1-0.7,0.4-1c0.2-0.2,0.7-0.4,1.3-0.4c0.5,0,0.9-0.1,1.1-0.2c0-0.2,0.1-0.3,0.1-0.4c0-0.1,0-0.2-0.1-0.3
				s-0.2-0.1-0.4-0.1c-0.2,0-0.4,0-0.5,0.1C149.4,30.9,149.3,31,149.3,31.1z M150.3,32.2c-0.1,0-0.2,0-0.3,0.1
				c-0.6,0.1-0.9,0.2-1.1,0.3c-0.1,0.1-0.2,0.2-0.2,0.4c0,0.1,0,0.2,0.1,0.3c0.1,0.1,0.2,0.1,0.4,0.1c0.2,0,0.3,0,0.5-0.1
				c0.2-0.1,0.3-0.2,0.3-0.3c0.1-0.1,0.1-0.3,0.2-0.6L150.3,32.2z"/>
			<path class="st5" d="M152.9,29.9h1.1l-0.2,0.8c0.4-0.6,0.8-0.9,1.3-0.9c0.2,0,0.3,0,0.5,0.1l-0.4,0.9c-0.1,0-0.2-0.1-0.3-0.1
				c-0.2,0-0.4,0.1-0.6,0.2s-0.4,0.3-0.5,0.6c-0.1,0.2-0.2,0.6-0.3,1.2l-0.3,1.3h-1.1L152.9,29.9z"/>
			<path class="st5" d="M159.3,32.4h-2.8c0,0,0,0.1,0,0.1c0,0.3,0.1,0.5,0.2,0.7s0.4,0.3,0.6,0.3c0.4,0,0.7-0.2,0.9-0.6l1,0.2
				c-0.2,0.4-0.5,0.7-0.8,0.9s-0.7,0.3-1.1,0.3c-0.6,0-1-0.2-1.4-0.5s-0.5-0.8-0.5-1.4c0-0.6,0.2-1.1,0.5-1.5c0.4-0.6,1-0.9,1.8-0.9
				c0.5,0,0.9,0.2,1.2,0.5s0.5,0.8,0.5,1.3C159.4,31.9,159.4,32.2,159.3,32.4z M158.4,31.7c0,0,0-0.1,0-0.1c0-0.3-0.1-0.5-0.2-0.7
				s-0.3-0.2-0.6-0.2c-0.2,0-0.4,0.1-0.6,0.3c-0.2,0.2-0.3,0.4-0.4,0.8H158.4z"/>
		</g>
	</g>
</g>
</svg>
