<?xml version="1.0" encoding="utf-8"?>
<!-- Generator: Adobe Illustrator 24.1.0, SVG Export Plug-In . SVG Version: 6.00 Build 0)  -->
<svg version="1.1" id="Layer_1" xmlns="http://www.w3.org/2000/svg" xmlns:xlink="http://www.w3.org/1999/xlink" x="0px" y="0px"
	 viewBox="0 0 365.66 335.35" style="enable-background:new 0 0 365.66 335.35;" xml:space="preserve">
<style type="text/css">
	.st0{fill:none;}
	.st1{fill:#FFFFFF;}
	.st2{fill:#3A3A3A;}
	.st3{fill:#EAEAEA;}
	.st4{fill:#1FB584;}
	.st5{font-family:'OpenSans-Bold';}
	.st6{font-size:7.0038px;}
	.st7{letter-spacing:1;}
	.st8{fill:#001933;}
	.st9{fill:#FFDDC9;}
	.st10{fill:#959696;}
	.st11{fill:#0077BF;}
	.st12{fill:#FFE1BD;}
</style>
<g>
	<rect x="-82.72" y="-7.83" class="st0" width="289" height="361"/>
	<path class="st1" d="M70.46,121.78C37.49,151.07,2.48,184.53,1.73,228.07c-0.63,36.31,26.18,73.76,63.83,89.15
		s83.42,7.62,108.97-18.5c13.09-13.38,21.3-30.96,37.28-41.48c31.89-20.97,81.44-6.25,116.58-22.76
		c39.36-18.49,44.87-70.82,24.13-109.51c-19.08-35.59-78.73-99.7-124.51-107.38C166.92,7.37,106.57,89.71,70.46,121.78z"/>
	<g>
		<g>
			<path class="st2" d="M247.24,26.26v282.62c0,4.46-1.24,8.61-3.4,12.17c-0.6,0.97-1.25,1.89-1.96,2.75
				c-1.47,1.77-3.19,3.33-5.11,4.62h-0.01c-0.58,0.4-1.19,0.76-1.81,1.09c-0.34,0.19-0.67,0.36-1.02,0.53
				c-0.02,0.01-0.06,0.02-0.09,0.05c-0.3,0.14-0.63,0.28-0.95,0.42c-0.35,0.15-0.7,0.29-1.06,0.42c-0.36,0.13-0.72,0.26-1.1,0.37
				c-0.41,0.12-0.82,0.23-1.24,0.34c-0.7,0.2-1.42,0.34-2.16,0.44c-0.4,0.06-0.78,0.11-1.18,0.15c-0.79,0.08-1.6,0.13-2.4,0.13
				H107.83c-0.81,0-1.61-0.05-2.4-0.13c-0.79-0.07-1.58-0.2-2.33-0.36c-0.37-0.08-0.76-0.16-1.13-0.26
				c-0.37-0.11-0.75-0.21-1.12-0.32c-0.36-0.12-0.72-0.25-1.09-0.37c-0.36-0.13-0.71-0.27-1.06-0.42c-0.35-0.15-0.7-0.3-1.04-0.46
				c0,0,0-0.01-0.01-0.01c-0.68-0.33-1.34-0.69-1.98-1.07c0,0,0-0.01-0.01-0.01c-0.27-0.15-0.53-0.33-0.78-0.49h-0.01
				c-0.05-0.05-0.11-0.08-0.15-0.12c-0.32-0.21-0.62-0.43-0.92-0.65c-1.2-0.91-2.32-1.93-3.33-3.04c-0.77-0.83-1.47-1.72-2.09-2.66
				c-0.21-0.3-0.41-0.63-0.61-0.95c-0.2-0.33-0.39-0.64-0.57-0.98c-0.36-0.68-0.7-1.38-0.99-2.09c-0.15-0.34-0.28-0.69-0.41-1.04
				c-0.13-0.34-0.25-0.68-0.35-1.03c-0.04-0.09-0.06-0.18-0.08-0.27c-0.43-1.4-0.72-2.86-0.88-4.37c-0.08-0.78-0.13-1.59-0.13-2.4
				V26.26c0-12.96,10.52-23.49,23.49-23.49h115.92C236.74,2.78,247.24,13.31,247.24,26.26z"/>
			<path class="st2" d="M247.24,26.26v3.9H84.35v-3.9c0-12.96,10.51-23.48,23.48-23.48h115.93C236.73,2.78,247.24,13.3,247.24,26.26
				z"/>
			<path class="st2" d="M247.24,304.97v3.91c0,12.96-10.51,23.48-23.49,23.48H107.83c-12.98,0-23.48-10.51-23.48-23.48v-3.91H247.24
				z"/>
			<circle class="st1" cx="137.8" cy="16.47" r="4.64"/>
			<path class="st1" d="M152.49,16.47c0,1.24-1,2.24-2.24,2.24c-1.24,0-2.24-1-2.24-2.24c0-1.24,1-2.24,2.24-2.24
				C151.49,14.23,152.49,15.23,152.49,16.47z"/>
			<path class="st1" d="M199.63,19.24h-40.28c-0.71,0-1.28-0.57-1.28-1.28v-2.99c0-0.71,0.57-1.28,1.28-1.28h40.28
				c0.71,0,1.28,0.57,1.28,1.28v2.99C200.91,18.67,200.34,19.24,199.63,19.24z"/>
			<path class="st1" d="M174.7,317.78c0.43,5.51-4.13,10.07-9.63,9.63c-4.33-0.34-7.84-3.85-8.18-8.18
				c-0.43-5.51,4.13-10.07,9.64-9.64C170.85,309.94,174.36,313.45,174.7,317.78z"/>
			<rect x="87.94" y="30.16" class="st3" width="154.43" height="274.82"/>
		</g>
		<g>
			<g>
				<path class="st2" d="M220.32,86.68h-16.29c-0.22,0-0.39-0.18-0.39-0.39s0.18-0.39,0.39-0.39h16.29c0.22,0,0.39,0.18,0.39,0.39
					S220.53,86.68,220.32,86.68z"/>
			</g>
			<g>
				<path class="st2" d="M171.5,79.84h-11.02c-0.22,0-0.39-0.18-0.39-0.39s0.18-0.39,0.39-0.39h11.02c0.22,0,0.39,0.18,0.39,0.39
					S171.72,79.84,171.5,79.84z"/>
			</g>
			<g>
				<path class="st2" d="M220.32,79.84h-44.04c-0.22,0-0.39-0.18-0.39-0.39s0.18-0.39,0.39-0.39h44.04c0.22,0,0.39,0.18,0.39,0.39
					S220.53,79.84,220.32,79.84z"/>
			</g>
			<g>
				<path class="st2" d="M220.32,73.01h-59.84c-0.22,0-0.39-0.18-0.39-0.39s0.18-0.39,0.39-0.39h59.84c0.22,0,0.39,0.18,0.39,0.39
					S220.53,73.01,220.32,73.01z"/>
			</g>
			<g>
				<path class="st2" d="M178.93,66.17h-18.45c-0.22,0-0.39-0.18-0.39-0.39s0.18-0.39,0.39-0.39h18.45c0.22,0,0.39,0.18,0.39,0.39
					S179.15,66.17,178.93,66.17z"/>
			</g>
			<g>
				<path class="st2" d="M220.32,66.17h-36.79c-0.22,0-0.39-0.18-0.39-0.39s0.18-0.39,0.39-0.39h36.79c0.22,0,0.39,0.18,0.39,0.39
					S220.53,66.17,220.32,66.17z"/>
			</g>
			<g>
				<path class="st2" d="M199.27,86.68h-38.8c-0.22,0-0.39-0.18-0.39-0.39s0.18-0.39,0.39-0.39h38.8c0.22,0,0.39,0.18,0.39,0.39
					S199.49,86.68,199.27,86.68z"/>
			</g>
		</g>
		<g>
			<path class="st4" d="M213.21,114.94h-46.91c-4.42,0-7.99-3.58-7.99-7.99l0,0c0-4.42,3.58-7.99,7.99-7.99h46.91
				c4.42,0,7.99,3.58,7.99,7.99l0,0C221.2,111.36,217.62,114.94,213.21,114.94z"/>
			<text transform="matrix(1 0 0 1 176.9504 110.1084)" class="st1 st5 st6 st7">BOOK</text>
		</g>
		<g>
			<g>
				<path class="st2" d="M220.32,172.01h-16.29c-0.22,0-0.39-0.18-0.39-0.39s0.18-0.39,0.39-0.39h16.29c0.22,0,0.39,0.18,0.39,0.39
					S220.53,172.01,220.32,172.01z"/>
			</g>
			<g>
				<path class="st2" d="M171.5,165.17h-11.02c-0.22,0-0.39-0.18-0.39-0.39s0.18-0.39,0.39-0.39h11.02c0.22,0,0.39,0.18,0.39,0.39
					S171.72,165.17,171.5,165.17z"/>
			</g>
			<g>
				<path class="st2" d="M220.32,165.17h-44.04c-0.22,0-0.39-0.18-0.39-0.39s0.18-0.39,0.39-0.39h44.04c0.22,0,0.39,0.18,0.39,0.39
					S220.53,165.17,220.32,165.17z"/>
			</g>
			<g>
				<path class="st2" d="M220.32,158.34h-59.84c-0.22,0-0.39-0.18-0.39-0.39s0.18-0.39,0.39-0.39h59.84c0.22,0,0.39,0.18,0.39,0.39
					S220.53,158.34,220.32,158.34z"/>
			</g>
			<g>
				<path class="st2" d="M178.93,151.5h-18.45c-0.22,0-0.39-0.18-0.39-0.39s0.18-0.39,0.39-0.39h18.45c0.22,0,0.39,0.18,0.39,0.39
					S179.15,151.5,178.93,151.5z"/>
			</g>
			<g>
				<path class="st2" d="M220.32,151.5h-36.79c-0.22,0-0.39-0.18-0.39-0.39s0.18-0.39,0.39-0.39h36.79c0.22,0,0.39,0.18,0.39,0.39
					S220.53,151.5,220.32,151.5z"/>
			</g>
			<g>
				<path class="st2" d="M199.27,172.01h-38.8c-0.22,0-0.39-0.18-0.39-0.39s0.18-0.39,0.39-0.39h38.8c0.22,0,0.39,0.18,0.39,0.39
					S199.49,172.01,199.27,172.01z"/>
			</g>
		</g>
		<g>
			<path class="st4" d="M213.21,200.27h-46.91c-4.42,0-7.99-3.58-7.99-7.99l0,0c0-4.42,3.58-7.99,7.99-7.99h46.91
				c4.42,0,7.99,3.58,7.99,7.99v0C221.2,196.69,217.62,200.27,213.21,200.27z"/>
			<text transform="matrix(1 0 0 1 176.9504 195.4395)" class="st1 st5 st6 st7">BOOK</text>
		</g>
		<g>
			<g>
				<path class="st2" d="M220.32,257.39h-16.29c-0.22,0-0.39-0.18-0.39-0.39c0-0.22,0.18-0.39,0.39-0.39h16.29
					c0.22,0,0.39,0.18,0.39,0.39C220.71,257.22,220.53,257.39,220.32,257.39z"/>
			</g>
			<g>
				<path class="st2" d="M171.5,250.55h-11.02c-0.22,0-0.39-0.18-0.39-0.39s0.18-0.39,0.39-0.39h11.02c0.22,0,0.39,0.18,0.39,0.39
					S171.72,250.55,171.5,250.55z"/>
			</g>
			<g>
				<path class="st2" d="M220.32,250.55h-44.04c-0.22,0-0.39-0.18-0.39-0.39s0.18-0.39,0.39-0.39h44.04c0.22,0,0.39,0.18,0.39,0.39
					S220.53,250.55,220.32,250.55z"/>
			</g>
			<g>
				<path class="st2" d="M220.32,243.72h-59.84c-0.22,0-0.39-0.18-0.39-0.39s0.18-0.39,0.39-0.39h59.84c0.22,0,0.39,0.18,0.39,0.39
					S220.53,243.72,220.32,243.72z"/>
			</g>
			<g>
				<path class="st2" d="M178.93,236.88h-18.45c-0.22,0-0.39-0.18-0.39-0.39s0.18-0.39,0.39-0.39h18.45c0.22,0,0.39,0.18,0.39,0.39
					S179.15,236.88,178.93,236.88z"/>
			</g>
			<g>
				<path class="st2" d="M220.32,236.88h-36.79c-0.22,0-0.39-0.18-0.39-0.39s0.18-0.39,0.39-0.39h36.79c0.22,0,0.39,0.18,0.39,0.39
					S220.53,236.88,220.32,236.88z"/>
			</g>
			<g>
				<path class="st2" d="M199.27,257.39h-38.8c-0.22,0-0.39-0.18-0.39-0.39c0-0.22,0.18-0.39,0.39-0.39h38.8
					c0.22,0,0.39,0.18,0.39,0.39C199.67,257.22,199.49,257.39,199.27,257.39z"/>
			</g>
		</g>
		<g>
			<path class="st4" d="M213.21,285.65h-46.91c-4.42,0-7.99-3.58-7.99-7.99l0,0c0-4.42,3.58-7.99,7.99-7.99h46.91
				c4.42,0,7.99,3.58,7.99,7.99l0,0C221.2,282.07,217.62,285.65,213.21,285.65z"/>
			<text transform="matrix(1 0 0 1 176.9504 280.8179)" class="st1 st5 st6 st7">BOOK</text>
		</g>
		<rect x="99.22" y="49.42" class="st1" width="51.08" height="65.58"/>
		<rect x="99.22" y="134.66" class="st1" width="51.08" height="65.58"/>
		<rect x="99.22" y="220.26" class="st1" width="51.08" height="65.58"/>
	</g>
	<g>
		<g>
			<g>
				<path class="st8" d="M287.27,236.13c0,1.37-1.19,2.48-2.67,2.48c-1.47,0-2.67-1.11-2.67-2.48c0-1.37,1.19-2.48,2.67-2.48
					C286.08,233.65,287.27,234.76,287.27,236.13z"/>
			</g>
			<g>
				<g>
					<path class="st9" d="M275.72,319.72c0,0,0.13,5.17,0.22,6.48c0.1,1.32,4.29,1.41,4.78,0.73c0.49-0.68,0.73-6.73,0.73-6.73"/>
					<path class="st2" d="M281.83,328.1c0,1.37-0.38,3.61-0.38,3.61h-4.83l-0.24-0.81c0,0-1.57,0.81-2.8,0.81h-4.08
						c-2.99,0-4.68-0.38-4.76-0.91c-0.32-2.2,3.25-2.1,4.18-2.1c2.67,0,5.56-1.25,6.19-2.6c0.46-0.98,0.25-1.23,0.81-1.05
						c0,0,0.5,0.11,0.83,0.72c0.51,0.93,1.47,1.56,2.52,1.37c0.6-0.11,1.2-0.33,1.63-0.79C280.89,326.36,281.83,326.72,281.83,328.1
						z"/>
				</g>
				<g>
					<path class="st9" d="M258.75,318.33c0,0,0.89,3.54,1.47,4.73c0.58,1.19,4.51-0.28,4.71-1.09c0.2-0.81-1.81-6.52-1.81-6.52"/>
					<path class="st2" d="M266.4,322.63c0.51,1.28,1.26,3.75,1.26,3.75l-3.66,2.18l-0.72-0.54c0,0-0.81,1.31-1.93,2.01
						c-0.83,0.52-2.67,1.28-3.63,1.5c-3.35,0.76-5.93,0.39-6.2-0.07c-1.11-1.92,3.33-2.98,4.19-3.32c2.48-0.99,3.61-3.39,3.7-4.88
						c0.06-1.08-0.22-1.24,0.36-1.27c0,0,0.5-0.08,1.03,0.36c0.82,0.68,1.95,0.9,2.85,0.34c0.52-0.32,0.99-0.75,1.23-1.34
						C264.88,321.36,265.89,321.36,266.4,322.63z"/>
				</g>
				<path class="st10" d="M284.56,200.97c1.74-1.28,3.63-2.72,5.43-4.22c4.1-3.44,7.76-7.18,8.21-9.9c1-6.1,0.22-24.24-0.27-32.79
					c-0.02-0.52-0.05-1-0.08-1.46c-0.49-8.09-4.83-11.67-7.01-12.99c-1.11,10.51-3.61,34.25-3.82,35.47
					C286.77,176.64,284.56,200.97,284.56,200.97z"/>
				<path class="st11" d="M268.5,256.32c0.38,7.47,1.02,15.18,2.07,20.55c0.89,4.56,15.22,5.4,13.38,1.88
					c-2.66-5.1,1.98-21.1,4.26-48.37c0.33-4.13,2.19-4.6,3.42-13.09c1.22-8.5-3.46-15.88-3.46-15.88l-19.89-1.85l-0.26,24.77
					l-0.08,8.38C267.95,232.71,267.9,244.21,268.5,256.32z"/>
				<path class="st11" d="M282.2,275.57c0,0,3.89,4.77,3.35,13.51c-0.54,8.74-3.59,34.83-3.59,34.83s-4.56,0.67-6.92-0.19
					c0,0-4.92-48.39-4.94-53.88C270.09,264.34,282.2,275.57,282.2,275.57z"/>
				<path class="st11" d="M244.92,253.06c0,0-4.51,14.84-3.79,19.49c0.72,4.65,17.21,48.17,17.21,48.17s3.04,0.04,6.62-1.64
					c0,0-0.36-19.16-3.59-31.14c-3.23-11.99-6.99-19.32-10.21-20.39C247.93,266.47,245.82,255.55,244.92,253.06z"/>
				<path class="st11" d="M254.57,199.96c0,0-10.46,48.44-11.83,61.49c-0.58,5.53,5.24,14.68,10.6,9.67
					c6.41-5.97,16.78-33.32,20-38.15c3.22-4.83,15.27-9.26,7.04-33.77"/>
				<path class="st9" d="M280.4,134.9c0,0-1.43-4.85-0.81-8.43c0.63-3.58,2.77-10.02,1.97-14.85c-0.81-4.83-6.89-8.86-13.33-8.23
					c-6.44,0.63-8.32,6.8-9.39,10.38c-1.07,3.58-0.89,9.03-0.63,11.99c0.27,2.95,1.88,5.28,2.95,5.9c1.07,0.63,5.11-0.2,5.82,0.57
					c0.71,0.77,1.25,5.33,1.25,5.33"/>
				<path class="st10" d="M283.44,138.73c0,0-0.36-2.83-1.43-3.83c-1.07-1-8.23-1-10.38-0.73c-2.15,0.27-7.44,2.74-8.14,3.26
					c-0.7,0.52,0.68,3.24,0.68,3.24L283.44,138.73z"/>
				<path class="st9" d="M208.65,110.66c0.05-0.51,0.71-0.27,0.88,0.15c0.02,0.06,0.06,0.19,0.09,0.36
					c-0.06-0.84-0.11-1.52-0.09-1.68c0.05-0.48,0.65-0.31,0.86,0.07c-0.02-0.34-0.02-0.59-0.01-0.7c0.05-0.62,0.71-0.37,0.88,0.14
					c0.04,0.11,0.09,0.43,0.15,0.85c-0.01-0.22-0.01-0.39-0.01-0.47c0.05-0.51,0.64-0.38,0.81,0.04c0.06,0.14,0.09,0.39,0.18,0.98
					c0.08,0.51,0.23,1.06,0.3,1.57c0.1,0.71,0.32,1.44,0.33,1.45c1.15,3.19,2.98,1.92,2.35,0.27c-0.1-0.54,1.45,1.08,1.45,1.08
					s0.39,2.2,0.28,2.95c-0.09,0.75-0.64,1.69-0.58,2.14c0.06,0.45,0.58,1.66,0.58,1.66l-3.85,1.6c0,0-0.52-2.3-1.03-2.83
					c-0.53-0.52-2.41-2.74-2.63-3.16c-0.09-0.17-0.33-0.97-0.58-1.91l-0.27-1.43l-0.12-1.4
					C208.63,112.38,208.63,110.82,208.65,110.66z"/>
				<path class="st10" d="M212.59,122.25c0,0,1.3,7.53,2.58,13.55c1.02,4.65,2.28,9.5,4.49,13.88c0.02,0.03,0.02,0.08,0.03,0.11
					c1.27,2.75,3.63,6.12,5.24,6.46c1.61,0.34,7.26-0.03,7.26-0.03c3.5,0.2,12.31-0.95,19.81-1.96c0.13-0.02,0.23-0.03,0.34-0.05
					c3.49-0.47,6.68-0.89,8.87-1.13c1.03-0.09,1.99-0.53,2.71-1.2c0.66-0.58,1.13-1.36,1.31-2.27c0.02-0.02,0.02-0.02,0.02-0.03
					c0.5-2.42-1.1-4.36-3.16-5.79c-0.09-0.08-0.2-0.13-0.3-0.19c2.55-2.53,5.16-5.3,5.16-5.3s-7.2,0.34-11.22,0.61
					c-2.74,0.19-21.42,5.18-23.66,5.88c-0.17,0.06-0.33,0.13-0.49,0.17c0,0-0.28,0.03-0.7,0.13c-0.13,0.03-0.28,0.09-0.44,0.14
					c-0.63-1.64-1.5-3.4-2.72-5.12c-4.01-5.63-10.51-19.28-10.51-19.28l-3.63,1.08l-0.05,0.02l-0.02,0.02L212.59,122.25z"/>
				<path class="st2" d="M280.13,128.8c0,0-8.95,0.76-10.64,0c-1.7-0.76-4.16-2.42-4.38-5.46c-0.22-3.04,0.4-3.98-0.76-5.68
					c-1.16-1.7-2.19-1.12-2.37,0.49c-0.18,1.61-0.25,4.52-0.67,4.73c-0.57,0.29-1.25-1.76-1.03-4.87c0.19-2.69,0.49-4.79,1.3-6.57
					c0.8-1.79,1.24-1.69,1.97-2.01c-0.78-0.38-1.63-0.43-3.18-2.84c-1.79-2.8-0.81-7.15,3.94-7.13c8.28,0.03,17.09,1.65,17.26,7.78
					c0,0,2.91-0.45,3,5.14c0.09,5.59-3.49,12.34-3.76,14.09C280.53,128.22,281.03,128.4,280.13,128.8z"/>
				<path class="st10" d="M255.27,194.52c-0.33,2.8-2.78,7.13-1.11,7.74c0.67,0.23,3.41,0.08,6.76-0.2h0.09
					c0.06,0,0.11-0.02,0.16-0.02c2.97-0.25,6.37-0.58,9.22-0.8c11.37-0.49,17.18,1.78,18.32,1.14c0.55-0.33,0.56-1.31,0.39-2.33
					c-0.39-2.5-0.52-5.02-0.19-7.54c0.28-2.11,0.67-4.63,1.22-7.51c1.88-9.97,5.55-25.19,6.1-34.34
					c0.88-14.35-14.49-12.99-14.49-12.99c-19.56-1.22-28.74,4.41-29.81,12.81c-0.08,0.59-0.13,1.24-0.17,1.91
					c-0.5,8.67,2.14,22.66,3.4,33.11C255.5,188.39,255.44,191.72,255.27,194.52z"/>
			</g>
		</g>
		<path class="st12" d="M214.78,112.48c0,0,0.97,1.27,0.55,2.74c-0.42,1.47,0.99,0.45,1.5-0.45c0-0.36-0.33-2.01-1.32-2.68
			C214.53,111.41,214.48,112.1,214.78,112.48z"/>
	</g>
</g>
</svg>
