<?xml version="1.0" encoding="utf-8"?>
<!-- Generator: Adobe Illustrator 24.1.0, SVG Export Plug-In . SVG Version: 6.00 Build 0)  -->
<svg version="1.1" id="Layer_1" xmlns="http://www.w3.org/2000/svg" xmlns:xlink="http://www.w3.org/1999/xlink" x="0px" y="0px"
	 viewBox="0 0 425.66 335.35" style="enable-background:new 0 0 425.66 335.35;" xml:space="preserve">
<style type="text/css">
	.st0{fill:#FFDDC9;}
	.st1{fill:#3A3A3A;}
	.st2{fill:#FFFFFF;}
	.st3{fill:#EAEAEA;}
	.st4{fill:#80D2EB;}
	.st5{fill:#B38469;}
	.st6{fill:#FCF2ED;}
	.st7{fill:#4DE2AC;}
	.st8{fill:#1FB584;}
	.st9{fill:#959696;}
	.st10{fill:#2FAFCC;}
	.st11{fill:#DBF2F7;}
	.st12{fill:#0087B0;}
</style>
<g>
	<g>
		<path class="st0" d="M423.02,244.16c-3.42,22.47-19,43.47-38.98,48.77c-2.7,0.72-5.49,1.16-8.33,1.26
			c-22.07,0.82-40.9-16.39-61.98-23.52c-20.91-7.09-44.63-3.7-63.12,9.02c-16.47,11.33-28.43,29.2-44.97,40.4
			c-24.97,16.91-56.75,16.31-85.78,10.87c-12.42-2.33-26.13-6.52-32.37-18.4c-5.1-9.72-3.72-22.1-8.09-32.23
			c-4.86-11.25-15.95-17.75-26.89-21.52c-10.93-3.77-22.53-5.67-32.69-11.44c-10.16-5.77-18.95-16.9-17.97-29.28
			c1.31-16.52,18.16-26.11,25.15-40.71c0.76-1.56,1.39-3.18,1.89-4.89c3.12-10.77-0.23-22.51-4.99-32.56
			c-4.75-10.05-10.95-19.41-14.06-30.19c-4.26-14.73-2.17-31.46,5.56-44.43S36.38,43.4,50.53,41.57c18.48-2.4,36.89,6.72,55.43,5.04
			c27.98-2.52,49.03-28.27,75.1-39.54c26.48-11.45,58.43-6.49,80.89,12.55c12.79,10.85,22.28,25.5,33.1,38.64
			c10.82,13.13,23.95,25.33,39.92,28.59c14.55,2.97,30-1.8,44.14,2.91c12.25,4.08,21.98,15.68,25.09,29.09
			c0.58,2.49,0.93,5.05,1.02,7.63c0.37,10.06-2.64,19.77-3.09,29.76c-0.48,11.05,4.22,18.03,8.7,27.46
			C419.76,202.48,426.29,222.77,423.02,244.16z"/>
	</g>
	<g>
		<g>
			<g>
				<g>
					
						<rect x="263.23" y="54.2" transform="matrix(-1 -1.224647e-16 1.224647e-16 -1 631.0011 175.1866)" class="st1" width="104.55" height="66.78"/>
					<rect x="265.58" y="57.18" class="st2" width="99.84" height="60.83"/>
				</g>
				<g>
					
						<rect x="317.67" y="68.85" transform="matrix(4.148855e-03 -1 1 4.148855e-03 251.3272 427.9389)" class="st1" width="45.71" height="37.86"/>
					
						<rect x="319.91" y="70.71" transform="matrix(4.149181e-03 -1 1 4.149181e-03 251.3271 427.9389)" class="st3" width="41.22" height="34.14"/>
					<g>
						<g>
							<path class="st2" d="M333.31,94.21c-0.88-0.44-1.8-0.92-2.78-0.86c-1.44,0.09-2.59,1.41-2.82,2.83
								c-0.24,1.42,0.29,2.87,1.07,4.08c2.85,4.4,8.29,5.24,13.1,4.35c3.32-0.62,6.76-2.17,8.3-5.18c0.88-1.71,0.96-3.98-0.31-5.42
								c-0.47-0.54-1-0.89-1.56-1.11c-1.7-0.65-3.7,0.01-5.45,0.75C339.42,95.12,336.82,95.96,333.31,94.21z M336.27,97.74
								c1.73,1.42,0.26,3.02,0.26,3.02c-1.4,2.1-8.83-2.29-5.32-4.64C332.85,95.02,334.96,96.68,336.27,97.74z M348.05,97.44
								c0.99,2.32-6.76,6.12-6.8,1.9c-0.02-1.98,2.53-2.83,4.13-3.34C347.52,95.33,348.05,97.44,348.05,97.44z"/>
						</g>
						<g>
							<g>
								<path class="st2" d="M341.96,89.98c0.92,1.34-0.32,2.18-1.5,2.42c-0.6,0.27-1.41,0.27-2,0.14c-1.38-0.3-1.7-1.93-0.45-2.69
									C338.91,89.29,341.23,88.91,341.96,89.98z"/>
							</g>
							<g>
								<path class="st2" d="M342.08,85.14c0.92,1.34-0.32,2.18-1.5,2.42c-0.6,0.27-1.41,0.27-2,0.14c-1.38-0.3-1.7-1.93-0.45-2.69
									C339.04,84.46,341.35,84.08,342.08,85.14z"/>
							</g>
							<g>
								<path class="st2" d="M342.21,80.31c0.92,1.34-0.32,2.18-1.5,2.42c-0.6,0.27-1.41,0.27-2,0.14c-1.38-0.3-1.7-1.93-0.45-2.69
									C339.16,79.63,341.48,79.25,342.21,80.31z"/>
							</g>
							<g>
								<path class="st2" d="M342.33,75.48c0.92,1.34-0.32,2.18-1.5,2.42c-0.6,0.27-1.41,0.27-2,0.14c-1.38-0.3-1.7-1.93-0.45-2.69
									C339.29,74.8,341.6,74.42,342.33,75.48z"/>
							</g>
							<g>
								<path class="st2" d="M342.46,70.65c0.92,1.34-0.32,2.18-1.5,2.42c-0.6,0.27-1.41,0.27-2,0.14c-1.38-0.3-1.7-1.93-0.45-2.69
									C339.42,69.96,341.73,69.58,342.46,70.65z"/>
							</g>
						</g>
						<g>
							<g>
								<path class="st2" d="M348.22,90.24c-1.21,0.45-3.5,0.74-4.65,0.22l0.35-0.11c-1.04,0.29-0.66-0.91-0.09-1.26
									c0.56-0.34,1.56-0.16,2.19-0.2c0.69-0.05,1.36-0.1,2.03-0.26c0.75-0.19,1.75-1.1,2.48-1.11
									C352.88,87.5,348.94,89.97,348.22,90.24z"/>
							</g>
							<g>
								<path class="st2" d="M348.33,85.96c-1.21,0.45-3.5,0.74-4.65,0.22l0.35-0.11c-1.04,0.29-0.66-0.91-0.09-1.26
									c0.56-0.34,1.56-0.16,2.19-0.2c0.69-0.05,1.36-0.1,2.03-0.26c0.75-0.19,1.75-1.1,2.48-1.11
									C352.99,83.23,349.05,85.7,348.33,85.96z"/>
							</g>
							<g>
								<path class="st2" d="M348.45,81.69c-1.21,0.45-3.5,0.74-4.65,0.22l0.35-0.11c-1.04,0.29-0.66-0.91-0.09-1.26
									c0.56-0.34,1.56-0.16,2.19-0.2c0.69-0.05,1.36-0.1,2.03-0.26c0.75-0.19,1.75-1.1,2.48-1.11
									C353.1,78.96,349.16,81.43,348.45,81.69z"/>
							</g>
							<g>
								<path class="st2" d="M348.56,77.42c-1.21,0.45-3.5,0.74-4.65,0.22l0.35-0.11c-1.04,0.29-0.66-0.91-0.09-1.26
									c0.56-0.34,1.56-0.16,2.19-0.2c0.69-0.05,1.36-0.1,2.03-0.26c0.75-0.19,1.75-1.1,2.48-1.11
									C353.21,74.68,349.27,77.16,348.56,77.42z"/>
							</g>
						</g>
						<g>
							<g>
								<path class="st2" d="M330.82,89.78c1.19,0.51,3.46,0.93,4.63,0.47l-0.35-0.13c1.03,0.34,0.71-0.87,0.15-1.25
									c-0.54-0.37-1.55-0.24-2.18-0.32c-0.68-0.08-1.35-0.17-2.01-0.37c-0.74-0.22-1.69-1.19-2.42-1.23
									C326.32,86.81,330.12,89.48,330.82,89.78z"/>
							</g>
							<g>
								<path class="st2" d="M330.93,85.51c1.19,0.51,3.46,0.93,4.63,0.47l-0.35-0.13c1.03,0.34,0.71-0.87,0.15-1.25
									c-0.54-0.37-1.55-0.24-2.18-0.32c-0.68-0.08-1.35-0.17-2.01-0.37c-0.74-0.22-1.69-1.19-2.42-1.23
									C326.43,82.54,330.23,85.21,330.93,85.51z"/>
							</g>
							<g>
								<path class="st2" d="M331.04,81.24c1.19,0.51,3.46,0.93,4.63,0.47l-0.35-0.13c1.03,0.34,0.71-0.87,0.15-1.25
									c-0.54-0.37-1.55-0.24-2.18-0.32c-0.68-0.08-1.35-0.17-2.01-0.37c-0.74-0.22-1.69-1.19-2.42-1.23
									C326.54,78.26,330.35,80.94,331.04,81.24z"/>
							</g>
							<g>
								<path class="st2" d="M331.16,76.97c1.19,0.51,3.46,0.93,4.63,0.47l-0.35-0.13c1.03,0.34,0.71-0.87,0.15-1.25
									c-0.54-0.37-1.55-0.24-2.18-0.32c-0.68-0.08-1.35-0.17-2.01-0.37c-0.74-0.22-1.7-1.19-2.42-1.23
									C326.65,73.99,330.46,76.67,331.16,76.97z"/>
							</g>
						</g>
					</g>
				</g>
			</g>
		</g>
		<g>
			<polygon class="st1" points="118.46,29.93 115.23,29.93 55.21,29.93 55.21,120.88 115.23,120.88 118.46,120.88 178.48,120.88 
				178.48,29.93 			"/>
			<g>
				<g>
					<rect x="118.18" y="33.46" class="st4" width="26.52" height="25.61"/>
					<rect x="118.18" y="62.75" class="st4" width="26.52" height="25.61"/>
					<rect x="118.18" y="92.04" class="st4" width="26.52" height="25.61"/>
				</g>
				<g>
					<rect x="148.64" y="33.46" class="st4" width="26.52" height="25.61"/>
					<rect x="148.64" y="62.75" class="st4" width="26.52" height="25.61"/>
					<rect x="148.64" y="92.04" class="st4" width="26.52" height="25.61"/>
				</g>
				<polygon class="st2" points="148.64,33.46 175.15,53.87 175.15,50 153.66,33.46 				"/>
				<polygon class="st2" points="173.39,59.07 148.64,40.02 148.64,43.89 168.36,59.07 				"/>
				<polygon class="st2" points="121.54,33.46 144.71,51.29 144.71,47.42 126.57,33.46 				"/>
				<polygon class="st2" points="151.07,62.75 148.64,62.75 148.64,64.75 175.15,85.16 175.15,81.29 				"/>
				<polygon class="st2" points="118.18,37.44 118.18,41.31 141.26,59.07 144.71,59.07 144.71,57.85 				"/>
				<polygon class="st2" points="170.79,88.36 148.64,71.31 148.64,75.18 165.76,88.36 				"/>
				<polygon class="st2" points="118.94,62.75 144.71,82.58 144.71,78.71 123.97,62.75 				"/>
				<polygon class="st2" points="118.18,58.3 118.18,59.07 119.19,59.07 				"/>
				<polygon class="st2" points="175.15,112.58 148.64,92.17 148.64,96.04 175.15,116.45 				"/>
				<polygon class="st2" points="144.71,92.04 143.44,92.04 144.71,93.02 				"/>
				<polygon class="st2" points="118.18,68.73 118.18,72.6 138.66,88.36 143.69,88.36 				"/>
				<polygon class="st2" points="168.18,117.65 148.64,102.6 148.64,106.47 163.16,117.65 				"/>
				<polygon class="st2" points="118.18,92.04 118.18,93.46 144.71,113.88 144.71,110 121.37,92.04 				"/>
				<polygon class="st2" points="118.18,100.02 118.18,103.89 136.06,117.65 141.09,117.65 				"/>
			</g>
			<g>
				<g>
					<rect x="58.17" y="33.46" class="st4" width="26.52" height="25.61"/>
					<rect x="58.17" y="62.75" class="st4" width="26.52" height="25.61"/>
					<rect x="58.17" y="92.04" class="st4" width="26.52" height="25.61"/>
				</g>
				<g>
					<rect x="88.62" y="33.46" class="st4" width="26.52" height="25.61"/>
					<rect x="88.62" y="62.75" class="st4" width="26.52" height="25.61"/>
					<rect x="88.62" y="92.04" class="st4" width="26.52" height="25.61"/>
				</g>
				<polygon class="st2" points="88.62,33.46 115.13,53.87 115.13,50 93.64,33.46 				"/>
				<polygon class="st2" points="113.37,59.07 88.62,40.02 88.62,43.89 108.34,59.07 				"/>
				<polygon class="st2" points="61.52,33.46 84.69,51.29 84.69,47.42 66.55,33.46 				"/>
				<polygon class="st2" points="91.05,62.75 88.62,62.75 88.62,64.75 115.13,85.16 115.13,81.29 				"/>
				<polygon class="st2" points="58.17,37.44 58.17,41.31 81.25,59.07 84.69,59.07 84.69,57.85 				"/>
				<polygon class="st2" points="110.77,88.36 88.62,71.31 88.62,75.18 105.74,88.36 				"/>
				<polygon class="st2" points="58.92,62.75 84.69,82.58 84.69,78.71 63.95,62.75 				"/>
				<polygon class="st2" points="58.17,58.3 58.17,59.07 59.17,59.07 				"/>
				<polygon class="st2" points="115.13,112.58 88.62,92.17 88.62,96.04 115.13,116.45 				"/>
				<polygon class="st2" points="84.69,92.04 83.42,92.04 84.69,93.02 				"/>
				<polygon class="st2" points="58.17,68.73 58.17,72.6 78.64,88.36 83.67,88.36 				"/>
				<polygon class="st2" points="108.17,117.65 88.62,102.6 88.62,106.47 103.14,117.65 				"/>
				<polygon class="st2" points="58.17,92.04 58.17,93.46 84.69,113.88 84.69,110 61.35,92.04 				"/>
				<polygon class="st2" points="58.17,100.02 58.17,103.89 76.04,117.65 81.07,117.65 				"/>
			</g>
		</g>
		<g>
			<g>
				<path class="st5" d="M254.16,59.78c1.73-3.49,5.08-6.86,8.8-8.04c1.9-0.6,3.9-0.24,5.36,0.88c0.01,0,0.02,0,0.03,0
					c4.17,0.94,5.59,7.03,4.59,10.52c-0.69,2.39-2.08,4.44-2.78,6.85c-0.64,2.24-0.67,5.01,0.38,7.13
					c2.2,4.42,10.24,10.27,5.49,15.45c-1.23,1.34-2.1,2.46-1.98,4.37c0.14,2.14,1.55,3.1,3.11,4.19c-1.31,0.76-3.59,0.46-5.06,0.46
					c-2.68,0-5.29-0.5-7.63-1.94c-8.16-5.02-14.03-13.42-14.83-23.09C249.17,70.75,251.63,64.89,254.16,59.78z"/>
			</g>
			<g>
				<path class="st5" d="M248.93,52.49c2.43-2.14,5.94-1.72,8.75-0.56c3.86,1.6,7.04,4.52,8.33,8.59c1.33,4.22,0.35,8.84-2.25,12.36
					c-3.02,4.08-9.56,6.43-14.36,3.99c-3.81-1.94-6.97-4.75-8.06-8.96c-0.73-2.81-1.06-5.98,0.1-8.66c1.34-3.13,3.2-6.06,7.13-5.93"
					/>
			</g>
			<g>
				<path class="st5" d="M230.9,90.83c0.28-3.97,2.7-6.98,5.44-9.67c2.18-2.14,2.97-4.68,2.74-7.73c-0.16-2.12-1-3.81-1.92-5.71
					c-0.74-1.53-1.59-2.92-1.19-4.67c0.48-2.13,3.79-8.46,8.09-8.89l0.21,4.36c1.39,0.53,0.87,3.03,0.56,4.06
					c-0.55,1.83-1.81,3.17-1.79,5.16c0.03,2.02,1.54,3.58,1.94,5.51c0.37,1.82-0.15,4.08-0.99,5.7c-1.6,3.09-4.36,5.04-6.18,7.91
					c-0.93,1.46-0.91,2.67-1.29,4.33c-0.28,1.22-0.99,2.32-1.41,3.49c-0.72,2-0.13,5.34,1.29,6.96c-0.59-0.32-1.03-1.04-1.52-1.5
					c-0.76-0.7-1.25-1.45-1.84-2.29C231.47,95.62,230.71,93.59,230.9,90.83z"/>
			</g>
			<path class="st6" d="M195.29,129.36c2.32-3.55,3.31-2.86,5.96-2.52c-0.07-0.15-0.13-0.28-0.21-0.43
				c-0.21-0.46-1.55-2.27-1.38-2.75c0.36-0.77,2.23,0.23,4.23,2.87l17.19-6.38l6.63-2.47l2.31-14.64
				c1.48-17.43,11.71-19.88,11.71-19.88l1.95,14.13l-9.21,24.25c-1.03,2.71-3.38,4.69-6.23,5.22l-2.31,0.43l-21.09,4.01l-5.18,1.75
				c-2.55,0.61-1.85-0.13-2.97-0.32C195.14,132.38,194.44,130.66,195.29,129.36z"/>
			<path class="st7" d="M240.23,114.58l-14.01-6.95c0,0,5.55-23.89,15.49-24.47C241.71,83.15,252.08,86.52,240.23,114.58z"/>
			<path class="st8" d="M226.22,209.33c0.06-4.47,5.59-62.38,5.59-62.38l17.73-0.99l-8.78,66.8c9.48,7.72,21.76,36.24,28.92,58.91
				l-4.16,3.37l-35.16-51.96C227.61,219.03,226.16,214.24,226.22,209.33z"/>
			<path class="st8" d="M241.52,224.35c0.54-2.9,1.37-27.25,2.17-43.2l1.93-40.21l16.32,0.29c0,0,6.6,17.41,3.51,25.72
				c-1.92,5.18-3.6,14.4-3.6,14.4l-7.68,46.61c3.83,13.09-4.32,50.84-4.32,50.84l-5.79,0.31
				C246.31,260.05,240.72,228.65,241.52,224.35z"/>
			<path class="st1" d="M232.55,286.05c14.49-0.08,20.71,2.94,17.33-7.18c0-0.02-0.02-0.05-0.03-0.07c0,0-3.83-0.01-5.77,0.08
				l-11.86,3.98C228.92,284.27,230.33,286.06,232.55,286.05z"/>
			<path class="st1" d="M258.19,283.16l5.21-2.1l2.12-6c0,0,3.16-2.52,4.16-3.37c0,0,3.08,2.06,3.4,3.34
				c0.57,2.26-1.22,5.21-4.62,8.99c-0.43,0.47-0.99,0.8-1.61,0.94c-1.84,0.42-8.21,1.1-8.21,1.1l0,0
				C257.05,285.94,256.71,283.76,258.19,283.16z"/>
			<path class="st8" d="M234.24,130.39l-3.11,21.3l33.62-2.27c-1.95-6.35-4.35-15.7-5.81-21.42c-0.79-3.17-0.78-6.47,0.08-9.63
				c1.99-7.38,5.25-22.01,2.76-31.22c-0.31-1.16-1.19-2.09-2.33-2.49c-0.93-0.33-1.93-0.65-2.51-0.84
				c-0.6,0.08-14.11,7.52-14.11,7.52s-2.69-3.87-0.19-8.17c0.04-0.07,0.09-0.15,0.13-0.22c-0.18,0.01-0.34,0.03-0.49,0.04h-0.05
				c-2.07,0.2-3.9,1.4-4.92,3.2l-7.2,12.57c-2.03,3.56-1.61,8.01,1.07,11.11l2.24,2.95l0.95,8.72
				C234.71,124.47,234.66,127.45,234.24,130.39z"/>
			<path class="st7" d="M256.29,113.95l12.35-3.81c0,0-1.73-19.69-7.11-24.43c-2.07-1.82-7.4,0.81-7.69,3.65
				C252.26,105.17,251.34,99.85,256.29,113.95z"/>
			<path class="st6" d="M263.79,137.36c5.37,14.7,10.99,25.83,11.47,26.77c-0.88,2.87-0.94,7.02-0.94,7.02
				c0.05,1.28,0.71,1.09,0.71,1.09c1.05-0.48,1.86-4.35,1.86-4.35l2.31,4.72c0.24,0.51,0.49,0.96,0.75,1.35
				c1.72,2.61,5.84,1.08,5.59-2.03c0-0.04-0.01-0.07-0.01-0.11c-0.2-2.27-1.09-4.43-2.54-6.2l-2.86-3.51l-0.04,0.03l-14.36-48.91
				l-0.57-2.05l-8.87,2.77C256.66,115.01,263.41,136.34,263.79,137.36z"/>
			<path class="st6" d="M254.07,75.04l-7.62,0.42l0.1,7.68l-2.66,0.07c-1.88-0.13-2.19,7.27-0.91,7.36l13.31-6.91
				c0.01,0-2.08-0.52-2.08-0.52L254.07,75.04z"/>
			<path class="st7" d="M257.23,83.9l-2.33-0.58l-11.24,6.27c0,0-0.86-4.76,0.49-6.44l-1.37-0.22c0,0-3.04,3.93,0.06,8.39
				L257.23,83.9z"/>
			<path class="st6" d="M263.61,69.81c0.65-1.97,0.35-4.67-1.31-4.97c-0.5-0.09-1.08,0.04-1.67,0.32c-0.71-5.83-4.35-12.6-8.5-13.36
				c-5.43-0.99-10.42,1.26-12.58,15.35c-0.86,5.58,2.39,11.84,7.67,13.29c3.97,1.09,9.09-2.81,11.74-7.18
				C260.79,72.93,262.78,72.31,263.61,69.81z"/>
			<g>
				<g>
					<path class="st5" d="M252.47,105.86c0.87-0.23,1.45-0.96,2.16-1.51c0.75-0.58,1.55-1.09,2.31-1.64c1.35-0.96,2.3-1.83,2.9-3.37
						c0.53-1.36,0.13-2.12-0.11-3.51c-0.26-1.53,0.99-2.66,2-3.68c1.64-1.66,2.59-3.83,2.02-6.17c-0.35-1.44-1.15-2.73-2.07-3.89
						c-0.59-0.74-1.24-1.46-1.58-2.34c-0.49-1.28-0.21-2.67,0.2-3.93c0.41-1.25,0.68-2.46,0.96-3.76c0.09-0.44,0.23-0.84,0.36-1.27
						c0.65-2.06,0.7-4.14,0.53-6.26c-0.65-7.89-7.37-16.95-16.16-15.15c-3.79,0.78-4.81,5.47-2.72,8.4c0.7,0.98,1.82,2.37,2.97,2.89
						c-0.29-0.92-0.45-2.8-0.24-3.7c1.06,1.3,1.72,2.58,3.13,3.63c1.45,1.07,2.99,1.97,4.23,3.28c2.72,2.85,3.33,6.34,2.43,10.08
						c-0.45,1.87-1.85,3.53-1.69,5.54c0.23,2.85,2.88,4.86,2.51,7.91c-0.29,2.4-2.22,4.13-3.23,6.22c-0.48,0.99-0.91,2.29-0.67,3.39
						c0.27,1.24,1.29,2.17,1.77,3.32c0.46,1.09,0.7,2.18,0.07,3.25C254.03,104.51,253.09,105.06,252.47,105.86z M243.72,50.36
						c0.01,0.04-0.04,0.14-0.11,0.27L243.72,50.36z"/>
				</g>
			</g>
			<polygon class="st7" points="264.75,149.42 265.43,151.67 230.87,153.51 231.12,151.69 			"/>
		</g>
		<g>
			<path class="st1" d="M179.24,76.65v-9.17h-5.86v-2.12h5.86v-6.22h1.89v6.22h16.66V42.61h2.8v22.75h17.88v-6.22h1.89v6.22h4.64
				v2.12h-4.64v9.17h-1.89v-9.17h-17.88v214.39h14.98c2.44,0,4.41,1.98,4.41,4.41H178.4c0-2.44,1.98-4.41,4.41-4.41h14.98V67.48
				h-16.66v9.17H179.24z"/>
			<g>
				<path class="st5" d="M175.27,102.42h9.84c3.09,0,5.59-2.5,5.59-5.59V82.24c0-3.09-2.5-5.59-5.59-5.59h-9.84
					c-3.09,0-5.59,2.5-5.59,5.59v14.59C169.68,99.92,172.18,102.42,175.27,102.42z"/>
				<path class="st2" d="M176.02,100.44h8.33c2.61,0,4.73-2.12,4.73-4.73V83.36c0-2.61-2.12-4.73-4.73-4.73h-8.33
					c-2.61,0-4.73,2.12-4.73,4.73v12.35C171.29,98.32,173.41,100.44,176.02,100.44z"/>
				
					<rect x="182.06" y="72.33" transform="matrix(-1 -1.224647e-16 1.224647e-16 -1 367.143 150.1363)" class="st5" width="3.02" height="5.47"/>
				
					<rect x="175.29" y="72.33" transform="matrix(-1 -1.224647e-16 1.224647e-16 -1 353.6118 150.1363)" class="st5" width="3.02" height="5.47"/>
				
					<rect x="182.06" y="101.27" transform="matrix(-1 -1.224647e-16 1.224647e-16 -1 367.143 208.0037)" class="st5" width="3.02" height="5.47"/>
				
					<rect x="175.29" y="101.27" transform="matrix(-1 -1.224647e-16 1.224647e-16 -1 353.6118 208.0037)" class="st5" width="3.02" height="5.47"/>
				<path class="st5" d="M176.81,89.75c0,1.87,1.51,3.38,3.38,3.38c1.87,0,3.38-1.51,3.38-3.38c0-1.14-1.26-4.33-2.24-6.66
					c-0.43-1.01-1.86-1.01-2.29,0C178.06,85.42,176.81,88.61,176.81,89.75z"/>
				
					<rect x="174.29" y="95.08" transform="matrix(-1 -1.224647e-16 1.224647e-16 -1 360.6654 190.8738)" class="st5" width="12.09" height="0.72"/>
				
					<rect x="174.29" y="97.29" transform="matrix(-1 -1.224647e-16 1.224647e-16 -1 360.6654 195.2933)" class="st5" width="12.09" height="0.72"/>
			</g>
		</g>
		<g>
			<path class="st9" d="M75.07,245.49h79.07l7.69,25.36l3.88-1.25l-8.05-26.53v-26.3H71.55v26.3l-8.11,26.52l3.88,1.26L75.07,245.49
				z M75.61,220.96h77.99v20.33H75.61V220.96z"/>
			<path class="st9" d="M256.84,245.49h79.07l7.69,25.36l3.88-1.25l-8.05-26.53v-26.3h-86.13v26.3l-8.11,26.52l3.88,1.26
				L256.84,245.49z M257.38,220.96h77.99v20.33h-77.99V220.96z"/>
			<g>
				
					<ellipse transform="matrix(0.973 -0.2308 0.2308 0.973 -62.8969 22.7197)" class="st9" cx="65.65" cy="280.17" rx="9.05" ry="9.05"/>
			</g>
			<g>
				
					<ellipse transform="matrix(0.9731 -0.2305 0.2305 0.9731 -62.8216 22.6821)" class="st3" cx="65.65" cy="280.17" rx="6.64" ry="6.64"/>
			</g>
			<path class="st1" d="M176.48,217.38H57.21v-69.95c0-5.2,4.22-9.42,9.42-9.42h100.43c5.2,0,9.42,4.22,9.42,9.42V217.38z"/>
			<path class="st9" d="M182.36,217.38H63.08v-69.95c0-5.2,4.22-9.42,9.42-9.42h100.43c5.2,0,9.42,4.22,9.42,9.42V217.38z"/>
			<g>
				<path class="st10" d="M83.38,152.04c0.12-1.77-0.08-3.46-0.41-5.2c-0.26-1.37-2.4-3.21-2.22-4.44c0.27-1.83,3.55-0.25,4.52,0.03
					c1.61,0.47,3.13,0.42,4.8,0.16c1.15-0.18,2.17-0.59,3.19-1.08c0.31-0.15,0.61-0.3,0.92-0.46c2.23-1.12,4.4-1.93,6.8-2.58
					c5.91-1.61,12.6-1.5,18.63-0.86c4.22,0.45,8.79,1.32,13.02,0.87c1.62-0.17,3.16-0.14,4.55-1.02c1.33-0.85,3.69-2.93,5.29-1.69
					c2.09,1.61,1.22,7.04,1.48,9.44l0.22-0.43c0.14,1.35,0.23,2.72,0.55,4.01c0.74,2.94,2.64,5.8,3.73,8.66
					c1.27,3.34,1.38,7.48,1.01,10.97c-0.18,1.66-0.52,3.47-0.98,5.08c-0.48,1.67-1.33,3.38-0.1,4.84c0.65,0.76,1.47,0.9,1.44,2.06
					c-0.02,0.92-0.72,1.64-1.55,1.96c-1.65,0.64-3.57-0.26-5.21-0.38c-2.06-0.15-4.04,0.35-5.99,0.9c-1.16,0.33-2.31,0.68-3.47,0.93
					c-3.94,0.85-7.73,2.21-11.72,2.99c-7.14,1.39-14.35,0.74-21.47,0.5c-3.5-0.12-7.04,0.16-10.51-0.51
					c-1.83-0.35-2.63-1.11-4.19,0.08c-0.7,0.54-0.72,0.94-1.8,0.76c-1.16-0.2-1.34-0.57-1.08-1.78c0.47-2.19,1.86-3.2,1.34-5.67
					c-0.36-1.72-1.11-3.45-1.62-5.15c-1.02-3.42-1.54-7.72-1.45-11.31C81.23,159.7,83.11,156.02,83.38,152.04z"/>
			</g>
			
				<rect x="63.08" y="198.32" transform="matrix(-1 -1.224647e-16 1.224647e-16 -1 245.4396 415.088)" class="st1" width="119.27" height="18.45"/>
			<path class="st10" d="M255.62,198.32H70.39v-11c0-1.8,1.46-3.26,3.26-3.26h181.97V198.32z"/>
			<g>
				<g>
					<path class="st3" d="M88.73,185.5c1.08,0.18,1.1-0.22,1.8-0.76c1.56-1.19,2.36-0.43,4.19-0.08c3.47,0.67,7.01,0.39,10.51,0.51
						c7.13,0.24,14.33,0.89,21.47-0.5c3.99-0.78,7.78-2.14,11.72-2.99c1.15-0.25,2.31-0.6,3.47-0.93c1.95-0.55,3.92-1.05,5.98-0.9
						c1.65,0.12,3.56,1.02,5.21,0.38c0.83-0.32,1.53-1.04,1.55-1.96c0.03-1.16-0.79-1.3-1.44-2.06c-1.24-1.46-0.39-3.17,0.1-4.84
						c0.47-1.61,0.8-3.42,0.98-5.08c0.37-3.49,0.26-7.62-1.01-10.97c-1.09-2.86-3-5.72-3.73-8.66c-0.32-1.28-0.41-2.66-0.55-4.01
						l-0.22,0.43c-0.25-2.4,0.61-7.84-1.48-9.44c-1.61-1.24-3.96,0.84-5.29,1.69c-1.39,0.88-2.93,0.85-4.55,1.02
						c-4.23,0.45-8.8-0.42-13.02-0.87c-6.03-0.64-12.73-0.76-18.63,0.86c-2.4,0.65-4.57,1.46-6.8,2.58
						c-0.31,0.16-0.62,0.31-0.92,0.46c-1.02,0.49-2.04,0.91-3.19,1.08c-1.67,0.26-3.19,0.31-4.8-0.16
						c-0.97-0.28-4.25-1.86-4.52-0.03c-0.18,1.22,1.96,3.07,2.22,4.44c0.33,1.74,0.54,3.43,0.41,5.2
						c-0.27,3.98-2.15,7.67-2.26,11.66c-0.1,3.6,0.43,7.89,1.45,11.31c0.51,1.7,1.26,3.44,1.62,5.15c0.52,2.47-0.86,3.48-1.34,5.67
						C87.39,184.93,87.58,185.3,88.73,185.5z"/>
				</g>
				<g>
					<g>
						<g>
							<path class="st2" d="M143.65,146.92c-2.58,2.61-7.62,1.23-10.76,0.65c-4.2-0.77-8.72-1.5-12.57-3.36
								c4.93,3.45,23.4,12.52,24.8,1.61c-0.57,0.57-0.97,1.18-1.75,1.46"/>
						</g>
						<g>
							<path class="st2" d="M144.94,155.95c-5.83,4.28-15.03,0.35-21.08-1.39c2.35,1.55,22.43,9.33,21.27,1.7"/>
						</g>
						<g>
							<path class="st2" d="M133.91,163.18c1.89,0.8,3.91,1.77,5.78,2.74c1.25,0.65,4.48,1.76,4.82,3.15
								c-2.53,0.15-11.69-2.86-11.71-5.76c0.93-0.25,2.8,0.31,3.37,1.1"/>
						</g>
					</g>
				</g>
			</g>
			<path class="st1" d="M255.62,216.77H73.15c-1.52,0-2.76-1.23-2.76-2.76v-15.69h185.23V216.77z"/>
			<g>
				<g>
					<path class="st5" d="M123.64,86.94c2.12-2.24,5.05-3.73,8.12-3.94c2.89-0.2,5.8,0.7,8.21,2.3c2.41,1.6,4.33,3.88,5.72,6.42
						c2.1,3.83,3.32,8.93,1.89,13.19c-1.44,4.29-5.26,7.4-9.75,8.01c-4.62,0.62-9.37-1.33-12.7-4.59c-2.62-2.56-4.47-5.95-5.01-9.57
						c-0.54-3.63,0.28-7.47,2.4-10.46C122.86,87.82,123.24,87.37,123.64,86.94z"/>
				</g>
				<path class="st6" d="M153.67,160.07l31.68-2.91c3.98,2.53,6.93,2.4,7.7,2.25c0.47-0.09,0.51-0.63,0.07-0.79l-2.65-0.95
					c6.45,0.58,8.9-0.36,9.83-1.14c0.48-0.4,0.68-1.1,0.23-1.53c-7.16-6.8-15.59-1.13-15.59-1.13l-37.79-1.72
					C149.56,154.65,151.82,157.23,153.67,160.07z"/>
				<polygon class="st11" points="175.39,153.46 173.66,155.19 166.27,154.75 168.32,153.11 				"/>
				<g>
					<g>
						<path class="st4" d="M116.99,125.04c1.14,3.6,4.97,15.63,5.82,18.77c3.48,12.97,8.08,40.26,8.08,40.26h36.37l-6.36-17.95
							c0,0-1.82-14.75-1.95-16.32l-0.12-1.32c-0.65-7.59-3.54-14.81-8.32-20.74c-1.39-1.72-2.84-3.45-4.21-4.94
							c-1.35-1.46-2.6-2.7-3.66-3.51c-0.65-0.49-1.53-0.88-2.57-1.16c-4.24-1.12-11.26-0.59-16.51,0.96
							c-2.47,0.73-4.55,1.69-5.76,2.79C116.93,122.67,116.63,123.91,116.99,125.04z"/>
					</g>
					<path class="st10" d="M123.57,119.08L123.57,119.08c0,0.01,17.29,6.89,22.72,10.67c0,0,0.25-5.8-6.21-11.62
						C135.83,117,128.82,117.54,123.57,119.08z"/>
					<g>
						<g>
							<path class="st12" d="M138.79,208.86c7.74,2.37,16.94,0.19,24.94,2.1c5.23,1.25,8.06,4.14,12.29,7.27
								c5.59,4.13,10.2,0.63,15.81-1.68c5.06-2.08,11.48-3.93,16.85-1.68c2.44,1.02,3.85,3.3,6.18,4.47
								c1.99,0.99,3.82,0.78,6.04,0.78c8.75,0.01,15.98-9.35,25.2-6.15c4.02,1.39,9.19,5.22,10.79-0.84
								c0.89-3.36,0.83-7.08,0.74-10.68c-0.02-1.12-0.04-2.21-0.05-3.3c-0.02-4.44-1.98-9.58-0.34-13.92
								c0.91-2.42,3.41-2.88,6.03-2.83c1.51,0.03,3.05,0.23,4.36,0.32c15.19,1.01,31.85,8.85,46.7,1.89
								c1.93-0.91,4.64-2.33,4.65-4.76c-3.9-3.16-11.36-2.12-16.14-2.62c-7.2-0.77-14.2-3.71-20.46-7.05
								c-0.06-0.03-0.13-0.07-0.18-0.1c-4.91-2.62-9.35-1.46-14.56-2.73c-4.95-1.2-9.53-3.51-14.51-4.8
								c-9.11-2.37-18.92-2.1-28.25-2.52c-9.79-0.44-19.64-1.39-29.34-2.25c-8.33-0.73-16.68-1.71-25.02-2.47
								c-4.79-0.43-9.65,0.25-14.04,2.21c-0.6,0.28-1.2,0.57-1.76,0.9c-3.66,2.13-7.05,4.74-10.77,6.81
								c-3.12,1.74-5.41,2.97-7.28,5.34c-0.6,0.75-1.14,1.6-1.67,2.62c-1.97,3.86-3.43,7.81-4.48,11.99
								C128.6,192.85,130.04,206.19,138.79,208.86z"/>
						</g>
					</g>
					<g>
						<g>
							<path class="st10" d="M144.7,195.13c7.74,2.36,16.94,0.18,24.94,2.1c5.23,1.25,8.06,4.13,12.29,7.26
								c5.59,4.13,10.2,0.63,15.81-1.68c5.06-2.08,11.48-3.93,16.85-1.68c2.43,1.02,3.84,3.3,6.17,4.47
								c1.99,0.99,3.82,0.78,6.05,0.78c8.75,0.01,15.98-9.35,25.19-6.15c1.78,0.62,3.79,1.71,5.62,2.21
								c2.28,0.63,4.28,0.32,5.17-3.05c1.17-4.4,0.71-9.42,0.7-13.98c0-0.97-0.1-1.98-0.23-3.01c-0.47-3.65-1.38-7.52-0.12-10.91
								c1.43-3.82,6.82-2.75,10.39-2.51c2.9,0.19,5.86,0.64,8.85,1.18c-0.06-0.03-0.13-0.07-0.18-0.1
								c-4.91-2.62-9.35-1.46-14.56-2.73c-4.95-1.2-9.53-3.51-14.51-4.8c-9.11-2.37-18.92-2.1-28.25-2.52
								c-9.79-0.44-19.64-1.39-29.34-2.25c-8.33-0.73-16.68-1.71-25.02-2.47c-4.79-0.43-9.65,0.25-14.04,2.21
								c-0.6,0.28-1.2,0.57-1.76,0.9c-3.66,2.13-7.05,4.74-10.77,6.81c-3.12,1.74-5.41,2.97-7.28,5.34
								c-0.08,0.29-0.16,0.59-0.23,0.88C134.51,179.11,135.95,192.45,144.7,195.13z"/>
						</g>
					</g>
				</g>
				<path class="st6" d="M115.24,132.26l12.31,31.25c0.76,1.92,2.57,3.19,4.61,3.23l41.19-0.65c0,0,12.12,4.3,16.94-0.83
					c0.51-0.54,0.32-1.48-0.17-2.04c-0.97-1.08-3.58-2.43-10.59-1.94l2.92-1.15c0.48-0.19,0.47-0.91-0.03-1.05
					c-0.83-0.23-4.01-0.54-8.46,2.65l-38.67-5.91l-5.54-28.69c-1-4.89-6.18-7.6-10.7-5.59l0,0
					C115,123.35,113.26,128.24,115.24,132.26z"/>
				<path class="st6" d="M128.7,117L128.7,117c0,0,0.71-10.36,0.71-10.36l7.88,4.08l-0.01,7.34c6.4,5.22,7.13,9.14,7.13,9.14
					c-3.35-2.9-18.71-8.67-18.71-8.67C127.3,118.4,128.56,118.05,128.7,117z"/>
				<g>
					<g>
						<path class="st6" d="M122.19,103.6c1.05,2.67,3.27,3.23,5.29,3.49c0.1,0.15,0.2,0.29,0.32,0.44c1.38,1.88,3.17,3.62,5.09,4.89
							c2.62,1.74,5.48,2.61,7.86,1.82c3.9-1.31,6.62-5.04,7.53-9.2c0.04-0.21,0.09-0.42,0.12-0.62c0.3-1.7,0.3-3.48-0.07-5.17
							c-3.2-15.27-8.8-17.43-14.67-16.02c-4.49,1.07-8.06,8.69-8.49,15.11c-0.67-0.27-1.3-0.38-1.85-0.26
							C121.53,98.51,121.37,101.48,122.19,103.6z"/>
					</g>
				</g>
				<path class="st10" d="M134.52,142.47l-14.92,5.66c0,0-10.11-20.55-1.91-26.36c0,0,10.11-6.8,14.04,8.57L134.52,142.47z"/>
				<g>
					<g>
						<path class="st5" d="M123.42,91.86c-0.01,1.51,0.06,2.97,0.34,4.45c0.21,1.11,0.71,2.02,1.16,3.04
							c0.63,1.43,1.02,3.66,2.34,4.58c0.06-1.89-0.72-4.42,0.06-6.2c0.4,1.18,0.52,2.73,1.38,3.69c1.45-2.66,2.76-5.08,5.7-6.4
							c1.34-0.6,2.57-1.16,4-1.58c1.3-0.38,2.72-1.18,3.35-2.44c-0.2,0.57-0.03,1.24-0.08,1.84c-0.04,0.53-0.29,1.05-0.21,1.58
							c0.4-0.17,0.81-0.41,1.22-0.69c0.35-0.03,0.7-0.07,1.04-0.2c0.99-0.39,1.93-1.24,2.62-2.05c0.99-1.16,1.79-2.9,1.65-4.45
							c-0.18-2.1-2.12-3.51-3.71-4.62c-2.1-1.46-3.7-2.51-6.34-2.78c-1.99-0.2-4.5-0.23-6.34,0.61c-1.27,0.58-2.37,1.49-3.52,2.28
							C125.21,84.5,123.45,88.38,123.42,91.86z"/>
					</g>
				</g>
			</g>
			<g>
				<path class="st2" d="M183.36,106.74c0.15,2.17,0.49,4.31,1.55,6.28c1.46,2.71,3.78,4.82,5.48,7.37c2.4,3.6,5.27,9.56,2.27,13.64
					c-2.29,3.11-6.03,2.41-7.25,7.04c-0.76,2.87,0.71,5.19-1.26,7.88c-2.9,3.96-8.44,3.83-12.65,5.53c-0.26,0.1-0.55,0.04-0.73-0.17
					l-0.13-0.15c-0.3-0.35-0.16-0.89,0.27-1.04c4.34-1.57,11.29-1.93,12.78-6.91c0.92-3.09-0.87-6.27,1.39-9.03
					c1.19-1.45,2.94-1.81,4.46-2.76c7.41-4.65-1.67-14.2-4.77-18.53c-2.1-2.93-2.77-5.83-3.04-9.15L183.36,106.74z"/>
			</g>
			<path class="st9" d="M247.7,198.32h126.08v-37.79c0-6.06-4.92-10.98-10.98-10.98H258.68c-6.06,0-10.98,4.92-10.98,10.98V198.32z"
				/>
			
				<rect x="288.11" y="149.55" transform="matrix(-1 -1.224647e-16 1.224647e-16 -1 624.4562 321.7544)" class="st1" width="48.24" height="22.65"/>
			<g>
				
					<rect x="290.83" y="146.92" transform="matrix(-1 -1.224647e-16 1.224647e-16 -1 629.9056 316.4896)" class="st3" width="48.24" height="22.65"/>
				
					<rect x="304.95" y="146.92" transform="matrix(-1 -1.224647e-16 1.224647e-16 -1 629.9057 300.0867)" class="st1" width="20.01" height="6.25"/>
			</g>
			
				<rect x="247.7" y="198.32" transform="matrix(-1 -1.224647e-16 1.224647e-16 -1 621.4874 415.088)" class="st1" width="126.08" height="18.45"/>
			<path class="st9" d="M65.58,283.03L65.58,283.03c2.07,0,3.75-1.68,3.75-3.75v-11.86h-7.49v11.86
				C61.84,281.35,63.51,283.03,65.58,283.03z"/>
			<g>
				
					<ellipse transform="matrix(0.9851 -0.1717 0.1717 0.9851 -45.6852 32.208)" class="st9" cx="163.33" cy="280.17" rx="9.05" ry="9.05"/>
			</g>
			<g>
				
					<ellipse transform="matrix(0.3808 -0.9246 0.9246 0.3808 -157.935 324.4898)" class="st3" cx="163.33" cy="280.17" rx="6.64" ry="6.64"/>
			</g>
			<path class="st9" d="M163.26,283.03L163.26,283.03c2.07,0,3.75-1.68,3.75-3.75v-11.86h-7.49v11.86
				C159.51,281.35,161.19,283.03,163.26,283.03z"/>
			<g>
				
					<ellipse transform="matrix(0.987 -0.1607 0.1607 0.987 -41.8101 43.4536)" class="st9" cx="247.7" cy="280.17" rx="9.05" ry="9.05"/>
			</g>
			<g>
				
					<ellipse transform="matrix(0.3808 -0.9246 0.9246 0.3808 -105.6935 402.5063)" class="st3" cx="247.7" cy="280.17" rx="6.64" ry="6.64"/>
			</g>
			<path class="st9" d="M247.63,283.03L247.63,283.03c2.07,0,3.75-1.68,3.75-3.75v-11.86h-7.49v11.86
				C243.88,281.35,245.56,283.03,247.63,283.03z"/>
			<g>
				
					<ellipse transform="matrix(0.7071 -0.7071 0.7071 0.7071 -97.2333 325.6054)" class="st9" cx="344.42" cy="280.17" rx="9.05" ry="9.05"/>
			</g>
			<g>
				
					<ellipse transform="matrix(0.7071 -0.7071 0.7071 0.7071 -97.2333 325.6054)" class="st3" cx="344.42" cy="280.17" rx="6.64" ry="6.64"/>
			</g>
			<path class="st9" d="M344.35,283.03L344.35,283.03c2.07,0,3.75-1.68,3.75-3.75v-11.86h-7.49v11.86
				C340.61,281.35,342.28,283.03,344.35,283.03z"/>
		</g>
		<g>
			<path class="st6" d="M200.7,127.84c-0.66-1.29-2.08-2.12-3.42-1.87c-0.9,0.16-1.7,0.78-2.24,1.58c-1.2,1.82-1.15,4.38,0.52,5.84
				c0.82,0.72,1.97,1,2.98,0.67c0.91-0.3,1.66-1.07,2.11-1.99C201.29,130.78,201.36,129.14,200.7,127.84z"/>
		</g>
	</g>
</g>
</svg>
