<?xml version="1.0" encoding="utf-8"?>
<!-- Generator: Adobe Illustrator 24.1.0, SVG Export Plug-In . SVG Version: 6.00 Build 0)  -->
<svg version="1.1" id="Layer_1" xmlns="http://www.w3.org/2000/svg" xmlns:xlink="http://www.w3.org/1999/xlink" x="0px" y="0px"
	 viewBox="0 0 429.66 335.35" style="enable-background:new 0 0 429.66 335.35;" xml:space="preserve">
<style type="text/css">
	.st0{fill:#FFFFFF;}
	.st1{fill:#F9FBFC;}
	.st2{fill:#EAEAEA;}
	.st3{fill:#80D2EB;}
	.st4{fill:#D0E0FC;}
	.st5{fill:#FFDDC9;}
	.st6{fill:#BDDDFF;}
	.st7{fill:#32CC98;}
	.st8{fill:#B38469;}
	.st9{fill:none;stroke:#32CC98;stroke-width:0.75;stroke-linecap:round;stroke-linejoin:round;stroke-miterlimit:10;}
	.st10{fill:#7BB3B2;}
	.st11{fill:none;stroke:#2F497E;stroke-width:0.75;stroke-linecap:round;stroke-linejoin:round;stroke-miterlimit:10;}
	.st12{fill:#4DE2AC;}
	.st13{fill:#3A3A3A;}
	.st14{fill:#5D6F70;}
	.st15{fill:#959696;}
	.st16{fill:#FFFFFF;stroke:#FFFFFF;stroke-width:0.5;stroke-miterlimit:10;}
</style>
<g>
	<g>
		<g>
			<path class="st0" d="M342.83,244.13c-22.11,24.07-57.04,48.07-96.21,65.21c-80.59,35.28-179.11,41.46-220.87-40.8
				c-23.08-45.46,15.22-68.47,27.58-108.56c12.38-40.08-26.6-76.81-11.94-118.56c4.1-11.7,11.46-21.43,20.79-28.37
				C74.6,3.79,90.5-0.51,106.78,2.11c13.39,2.14,26.03,7.46,38.5,12.76c20.44,8.7,40.54,16.86,61.34,23.2
				c36.64,11.16,73.16,8.77,109.95,17c19.74,4.43,39.03,13.2,52.75,28.06C416.01,133.63,382.29,201.2,342.83,244.13z"/>
		</g>
	</g>
	<g>
		<g>
			<rect x="184.94" y="44.71" class="st1" width="13.45" height="53.39"/>
			<rect x="184.94" y="44.71" class="st2" width="13.45" height="53.39"/>
			<polygon class="st3" points="184.94,44.71 198.39,44.71 202.51,41.58 180.82,41.58 			"/>
			<rect x="187.39" y="29.42" class="st4" width="8.56" height="12.16"/>
			<rect x="187.39" y="29.42" class="st5" width="8.56" height="12.16"/>
			<path class="st3" d="M184.23,29.42h14.88c0.62,0,1.12-0.5,1.12-1.12l0,0c0-0.62-0.5-1.12-1.12-1.12h-14.88
				c-0.62,0-1.12,0.5-1.12,1.12l0,0C183.11,28.92,183.61,29.42,184.23,29.42z"/>
			<rect x="187.18" y="44.71" class="st6" width="8.97" height="31.18"/>
			<rect x="187.18" y="44.71" class="st0" width="8.97" height="31.18"/>
			<path class="st1" d="M193.65,120.31h-3.97c-0.91,0-1.65-0.74-1.65-1.65v-9.15h7.27v9.15
				C195.3,119.57,194.56,120.31,193.65,120.31z"/>
			<polygon class="st1" points="195.3,109.51 188.03,109.51 184.94,98.09 198.39,98.09 			"/>
			<path class="st7" d="M187.18,75.88h8.97v15.08c0,2.48-2.01,4.48-4.48,4.48l0,0c-2.48,0-4.48-2.01-4.48-4.48V75.88z"/>
			<path class="st8" d="M187.18,75.88h8.97v15.08c0,2.48-2.01,4.48-4.48,4.48l0,0c-2.48,0-4.48-2.01-4.48-4.48V75.88z"/>
			<polygon class="st3" points="195.3,109.51 188.03,109.51 184.94,98.09 198.39,98.09 			"/>
			<path class="st5" d="M193.65,120.31h-3.97c-0.91,0-1.65-0.74-1.65-1.65v-9.15h7.27v9.15
				C195.3,119.57,194.56,120.31,193.65,120.31z"/>
			<line class="st9" x1="191.66" y1="120.31" x2="191.66" y2="133.6"/>
			<polygon class="st10" points="191.05,133.6 192.28,133.6 192.89,120.31 190.44,120.31 			"/>
			<path class="st0" d="M191.66,133.6h-0.61l0.26,36.75c0,0.19,0.16,0.35,0.35,0.35l0,0c0.19,0,0.35-0.16,0.35-0.35l0.26-36.75
				H191.66z"/>
			<path class="st11" d="M191.46,95.45"/>
		</g>
	</g>
	<g>
		<g>
			<path class="st12" d="M273.11,166.36h-37.03c-4.71,0-8.54-3.82-8.54-8.54V82.4h54.1v75.42
				C281.65,162.53,277.82,166.36,273.11,166.36z"/>
		</g>
		<g>
			<path class="st13" d="M227.08,82.38h55.04c0.93,0,1.69-0.76,1.69-1.69V67.93c0-0.93-0.76-1.69-1.69-1.69h-55.04
				c-0.93,0-1.69,0.76-1.69,1.69v12.76C225.39,81.62,226.14,82.38,227.08,82.38z"/>
		</g>
		<g>
			<rect x="238" y="110.46" class="st0" width="43.65" height="25.26"/>
			<rect x="268.6" y="110.46" class="st14" width="13.05" height="25.26"/>
			<rect x="255.55" y="117.77" class="st14" width="26.1" height="5.32"/>
		</g>
	</g>
	<g>
		<path class="st12" d="M155.8,197.6h-29.13c-3.34,0-6.05-2.71-6.05-6.05v-68.74h41.23v68.74
			C161.85,194.89,159.14,197.6,155.8,197.6z"/>
		<g>
			<path class="st1" d="M129.88,137.82h10.99c1.56,0,2.83-1.27,2.83-2.83l0,0c0-1.56-1.27-2.83-2.83-2.83h-10.99
				c-1.56,0-2.83,1.27-2.83,2.83l0,0C127.05,136.56,128.32,137.82,129.88,137.82z"/>
			<path class="st5" d="M129.88,137.82h5.61v-5.66h-5.61c-1.56,0-2.83,1.27-2.83,2.83l0,0
				C127.05,136.56,128.32,137.82,129.88,137.82z"/>
		</g>
		<g>
			<path class="st1" d="M147.12,172.87l-7.77-7.77c-1.1-1.1-2.9-1.1-4,0l0,0c-1.1,1.1-1.1,2.9,0,4l7.77,7.77c1.1,1.1,2.9,1.1,4,0
				l0,0C148.22,175.77,148.23,173.98,147.12,172.87z"/>
			<path class="st5" d="M147.12,172.87l-3.96-3.96l-4,4l3.96,3.96c1.1,1.1,2.9,1.1,4,0l0,0
				C148.22,175.77,148.23,173.98,147.12,172.87z"/>
		</g>
		<g>
			<path class="st1" d="M129.32,178.32v10.99c0,1.56,1.27,2.83,2.83,2.83l0,0c1.56,0,2.83-1.27,2.83-2.83v-10.99
				c0-1.56-1.27-2.83-2.83-2.83l0,0C130.59,175.49,129.32,176.76,129.32,178.32z"/>
			<path class="st3" d="M129.32,178.32v5.61h5.66v-5.61c0-1.56-1.27-2.83-2.83-2.83l0,0C130.59,175.49,129.32,176.76,129.32,178.32z
				"/>
		</g>
		<g>
			<path class="st1" d="M157.98,174.87v-10.99c0-1.56-1.27-2.83-2.83-2.83l0,0c-1.56,0-2.83,1.27-2.83,2.83v10.99
				c0,1.56,1.27,2.83,2.83,2.83l0,0C156.71,177.7,157.98,176.43,157.98,174.87z"/>
			<path class="st3" d="M157.98,174.87v-5.61h-5.66v5.61c0,1.56,1.27,2.83,2.83,2.83l0,0C156.71,177.7,157.98,176.43,157.98,174.87z
				"/>
		</g>
		<g>
			<path class="st1" d="M151.89,135.82l-7.77,7.77c-1.1,1.1-1.1,2.9,0,4l0,0c1.1,1.1,2.9,1.1,4,0l7.77-7.77c1.1-1.1,1.1-2.9,0-4l0,0
				C154.78,134.72,152.99,134.72,151.89,135.82z"/>
			<path class="st3" d="M151.89,135.82l-3.96,3.96l4,4l3.96-3.96c1.1-1.1,1.1-2.9,0-4l0,0
				C154.78,134.72,152.99,134.72,151.89,135.82z"/>
		</g>
		<g>
			<path class="st1" d="M150.94,181.04l-7.77,7.77c-1.1,1.1-1.1,2.9,0,4l0,0c1.1,1.1,2.9,1.1,4,0l7.77-7.77c1.1-1.1,1.1-2.9,0-4l0,0
				C153.83,179.93,152.04,179.93,150.94,181.04z"/>
			<path class="st3" d="M150.94,181.04l-3.96,3.96l4,4l3.96-3.96c1.1-1.1,1.1-2.9,0-4l0,0
				C153.83,179.93,152.04,179.93,150.94,181.04z"/>
		</g>
		<g>
			<path class="st15" d="M159.95,107.9h-37.44c-1.34,0-2.43,1.09-2.43,2.43v8.87h42.29v-8.87
				C162.38,108.98,161.29,107.9,159.95,107.9z"/>
			<path class="st13" d="M120.09,119.19h42.29c1,0,1.81,0.81,1.81,1.81l0,0c0,1-0.81,1.81-1.81,1.81h-42.29
				c-1,0-1.81-0.81-1.81-1.81l0,0C118.28,120,119.09,119.19,120.09,119.19z"/>
		</g>
		<g>
			<rect x="120.62" y="144.16" class="st13" width="41.23" height="22.81"/>
			<rect x="128.18" y="149.02" class="st12" width="26.1" height="5.17"/>
		</g>
	</g>
	<g>
		<g>
			<path class="st12" d="M215.54,305.65h-13.77c-6.19,0-11.22-5.02-11.22-11.22v-43.31c0-6.78,5.49-21.21,12.27-21.21h11.66
				c6.78,0,12.27,14.43,12.27,21.21v43.31C226.76,300.63,221.74,305.65,215.54,305.65z"/>
		</g>
		<g>
			<path class="st8" d="M196.02,234.04h25.28c1.08,0,1.95-0.87,1.95-1.95v-8.85c0-1.53-1.24-2.77-2.77-2.77h-23.63
				c-1.53,0-2.77,1.24-2.77,2.77v8.85C194.07,233.16,194.94,234.04,196.02,234.04z"/>
		</g>
		<g>
			<rect x="190.56" y="252.61" class="st15" width="12.94" height="40.65"/>
			<rect x="190.56" y="252.61" class="st13" width="12.94" height="10.5"/>
		</g>
	</g>
	<path class="st1" d="M340.19,292.91h-60.67c-5.21,0-9.44-4.22-9.44-9.44v-30.09h79.54v30.09
		C349.62,288.69,345.4,292.91,340.19,292.91z"/>
	<path class="st12" d="M340.19,292.91h-60.67c-5.21,0-9.44-4.22-9.44-9.44v-30.09h79.54v30.09
		C349.62,288.69,345.4,292.91,340.19,292.91z"/>
	<g>
		<path class="st0" d="M288.94,286.48h59.04c1.04-1.84,1.64-3.95,1.64-6.21v-19.23h-60.68V286.48z"/>
		<rect x="288.94" y="261.04" class="st13" width="60.68" height="7.86"/>
		
			<rect x="289.21" y="283.87" transform="matrix(-1 -1.224647e-16 1.224647e-16 -1 629.3142 570.3489)" class="st13" width="50.9" height="2.61"/>
		<rect x="292.69" y="263.42" class="st0" width="31.8" height="3.1"/>
		<rect x="292.69" y="275.9" class="st13" width="49.33" height="2.68"/>
	</g>
	<g>
		<path class="st13" d="M345.75,238.37h-71.8c-2.14,0-3.87,1.73-3.87,3.87v11.14h79.54v-11.14
			C349.62,240.11,347.89,238.37,345.75,238.37z"/>
	</g>
	<g>
		<g>
			
				<rect x="314.36" y="153.04" transform="matrix(0.866 0.5 -0.5 0.866 143.3363 -157.1239)" class="st12" width="101.01" height="71.74"/>
		</g>
		<g>
			
				<rect x="319.89" y="132.4" transform="matrix(0.866 0.5 -0.5 0.866 128.232 -142.0189)" class="st13" width="18.47" height="71.74"/>
		</g>
		<g>
			
				<rect x="342.74" y="171.27" transform="matrix(0.866 0.5 -0.5 0.866 145.4846 -161.7352)" class="st5" width="63.6" height="38.68"/>
			
				<rect x="350.31" y="173.3" transform="matrix(0.866 0.5 -0.5 0.866 139.9425 -167.2761)" class="st13" width="63.6" height="8.4"/>
			
				<rect x="355.91" y="169.74" transform="matrix(0.866 0.5 -0.5 0.866 136.1225 -163.456)" class="st0" width="34.33" height="5.08"/>
			
				<rect x="348.84" y="185.75" transform="matrix(0.866 0.5 -0.5 0.866 143.9646 -162.893)" class="st13" width="54.21" height="2.89"/>
			
				<rect x="346.05" y="190.58" transform="matrix(0.866 0.5 -0.5 0.866 146.0053 -160.8524)" class="st13" width="54.21" height="2.89"/>
			
				<rect x="345.87" y="185.67" transform="matrix(0.866 0.5 -0.5 0.866 140.9188 -151.6847)" class="st13" width="15.27" height="2.89"/>
		</g>
	</g>
	<g>
		<g>
			<path class="st11" d="M93.08,280.59l7.77,7.77c1.1,1.1,2.9,1.1,4,0l0,0c1.1-1.1,1.1-2.9,0-4l-7.77-7.77c-1.1-1.1-2.9-1.1-4,0l0,0
				C91.97,277.7,91.97,279.49,93.08,280.59z"/>
			<path class="st11" d="M93.08,280.59l3.96,3.96l4-4l-3.96-3.96c-1.1-1.1-2.9-1.1-4,0l0,0C91.97,277.7,91.97,279.49,93.08,280.59z"
				/>
		</g>
		<path class="st5" d="M134.98,280.31l-12.82,12.82c-5.77,5.77-15.12,5.77-20.89,0L60.95,252.8c-6.31-6.31-14.63-24.86-8.32-31.17
			l10.86-10.86c6.31-6.31,24.86,2.01,31.17,8.32l40.32,40.32C140.75,265.19,140.75,274.54,134.98,280.31z"/>
		<path class="st8" d="M104.41,289.99c4.03,4.03,10.58,4.03,14.61,0l12.82-12.82c4.03-4.03,4.03-10.58,0-14.61l-12.82-12.82
			l-54.94-0.07L104.41,289.99z"/>
		<g>
			<path class="st13" d="M47.61,226.65l20.89-20.89l-7.73-7.73c-1.1-1.1-2.88-1.1-3.97,0l-16.91,16.91c-1.1,1.1-1.1,2.88,0,3.97
				L47.61,226.65z"/>
		</g>
		<g>
			
				<rect x="84.7" y="234.19" transform="matrix(0.7071 -0.7071 0.7071 0.7071 -145.9277 144.0008)" class="st13" width="32.31" height="27.93"/>
			<polygon class="st1" points="106.77,238.92 102.02,243.68 97.27,238.92 93.35,242.84 98.11,247.59 93.35,252.34 97.27,256.25 
				102.02,251.5 106.77,256.25 110.69,252.34 105.93,247.59 110.69,242.84 			"/>
		</g>
	</g>
	<g>
		<g>
			<g>
				<path class="st5" d="M341.39,65.48c-0.35,2.37,2.83,1.67,4.76,3.23s4.1-0.5,3.06-2.26S341.79,62.74,341.39,65.48z"/>
			</g>
		</g>
		<g>
			<g>
				<path class="st5" d="M344.06,57.63c-2.12,1.43-5.82-2.02-6.66-4.95c-0.84-2.93,2.62-5.11,5.28-2.8
					C345.35,52.19,346.55,55.96,344.06,57.63z"/>
			</g>
		</g>
		<g>
			<g>
				<path class="st5" d="M380.19,82.8c0,0,2.77-0.68,5.23,0c2.47,0.68,5.87-2.01,4.22-4.37s-4.44,0-6.14,0.99
					c-1.7,0.99-7.35-1.37-8.94,0.33c-1.59,1.7,0.53,4.42,0.53,4.42L380.19,82.8z"/>
				<path class="st5" d="M359.43,82.21c0,0-5.48-4.61-5.87-8.53c-0.38-3.92,3.45-5.12,5.87-1.4c2.41,3.73,4.77,4.99,6.8,4.55
					c2.03-0.44,2.8,6.03,2.8,6.03L359.43,82.21z"/>
				<path class="st5" d="M385.58,61.27c-5.21,0.66-4.44,6.63-6.31,7.95c-1.86,1.32-5.32-1.48-6.96,0.82
					c-1.65,2.3,0.6,8.22-4.11,8.44c-0.3,0.01-0.6,0.01-0.91-0.02l0.37,7.69l8.15-2.18c-0.01-2.63,0.99-3.62,4.17-4
					c3.18-0.38,1.97-5.59,4.33-7.79c2.36-2.19,5.54,0.44,7.62-2.69C394.03,66.37,390.79,60.61,385.58,61.27z"/>
				<path class="st5" d="M355.47,89.42c-1.14-2.71-7.12-5.84-10.3-7.92c-3.18-2.08-3.78-6.63,0-7.18c3.78-0.55,7.13,6.25,13.1,5.26
					c5.98-0.99,8.25,3.96,8.62,6.78L355.47,89.42z"/>
			</g>
		</g>
		<g>
			<path class="st8" d="M371.43,44.63V40.6c0-2.37-1.73-4.48-4.09-4.71c-2.7-0.26-4.98,1.86-4.98,4.51v4.22
				c0,3.58-2.91,6.49-6.49,6.49h-1.77v7.57h25.59v-7.57h-1.77C374.34,51.12,371.43,48.22,371.43,44.63z"/>
			<path class="st12" d="M366.9,93.74L366.9,93.74c-1.62,0-2.92-1.31-2.92-2.92V58.69h5.85v32.13
				C369.82,92.43,368.51,93.74,366.9,93.74z"/>
		</g>
		<g>
			<path class="st0" d="M386.04,127.82l-13.13,3.52c-3.2,0.86-6.49-1.04-7.35-4.24l-10.09-37.67l24.72-6.62l10.09,37.67
				C391.14,123.67,389.24,126.96,386.04,127.82z"/>
			
				<rect x="360.59" y="93.29" transform="matrix(0.9659 -0.2588 0.2588 0.9659 -15.1835 99.3499)" class="st15" width="18.28" height="28.11"/>
			
				<rect x="358.53" y="98.47" transform="matrix(0.9659 -0.2588 0.2588 0.9659 -13.411 98.0082)" class="st13" width="13.96" height="2.92"/>
		</g>
	</g>
	<g>
		<g>
			<polygon class="st0" points="52.46,143.23 45.74,143.23 45.74,136.51 40.2,136.51 40.2,143.23 33.48,143.23 33.48,148.76 
				40.2,148.76 40.2,155.48 45.74,155.48 45.74,148.76 52.46,148.76 			"/>
		</g>
		<g>
			<polygon class="st0" points="283.01,188.84 276.29,188.84 276.29,182.12 270.75,182.12 270.75,188.84 264.03,188.84 
				264.03,194.37 270.75,194.37 270.75,201.09 276.29,201.09 276.29,194.37 283.01,194.37 			"/>
		</g>
		<g>
			<path class="st8" d="M92.99,174.63c0-4.24-3.44-7.68-7.68-7.68c-4.24,0-7.68,3.44-7.68,7.68c0,4.24,3.44,7.68,7.68,7.68
				C89.55,182.3,92.99,178.87,92.99,174.63z"/>
			<line class="st16" x1="91.01" y1="174.63" x2="79.61" y2="174.63"/>
		</g>
		<g>
			<circle class="st1" cx="124.59" cy="61.9" r="7.68"/>
			<circle class="st8" cx="124.59" cy="61.9" r="7.68"/>
			<line class="st16" x1="128.62" y1="65.93" x2="120.56" y2="57.86"/>
		</g>
		<g>
			<path class="st8" d="M381.14,260.77c3-3,3-7.86,0-10.86c-3-3-7.86-3-10.86,0c-3,3-3,7.86,0,10.86
				C373.28,263.77,378.14,263.77,381.14,260.77z"/>
			<line class="st16" x1="379.74" y1="259.37" x2="371.68" y2="251.31"/>
		</g>
		<g>
			<ellipse class="st8" cx="145.24" cy="230.21" rx="12.28" ry="5.26"/>
			<line class="st16" x1="145.24" y1="227.25" x2="145.24" y2="233.46"/>
		</g>
		<g>
			<path class="st8" d="M251.32,208.14c-4.8-4.8-10.35-7.02-12.41-4.96c-2.06,2.06,0.17,7.61,4.96,12.41
				c4.8,4.8,10.35,7.02,12.41,4.96C258.34,218.49,256.12,212.93,251.32,208.14z"/>
			<line class="st16" x1="249.7" y1="209.76" x2="245.3" y2="214.16"/>
		</g>
		<g>
			<path class="st0" d="M309.27,81.67l7.77,7.77c1.1,1.1,2.9,1.1,4,0l0,0c1.1-1.1,1.1-2.9,0-4l-7.77-7.77c-1.1-1.1-2.9-1.1-4,0l0,0
				C308.16,78.77,308.16,80.56,309.27,81.67z"/>
			<path class="st3" d="M309.27,81.67l3.96,3.96l4-4l-3.96-3.96c-1.1-1.1-2.9-1.1-4,0l0,0C308.16,78.77,308.16,80.56,309.27,81.67z"
				/>
		</g>
		<g>
			<path class="st5" d="M151.21,74.9V85.9c0,1.56,1.27,2.83,2.83,2.83l0,0c1.56,0,2.83-1.27,2.83-2.83V74.9
				c0-1.56-1.27-2.83-2.83-2.83l0,0C152.47,72.07,151.21,73.34,151.21,74.9z"/>
			<path class="st3" d="M151.21,74.9v5.61h5.66V74.9c0-1.56-1.27-2.83-2.83-2.83l0,0C152.47,72.07,151.21,73.34,151.21,74.9z"/>
		</g>
		<g>
			<path class="st0" d="M3.95,209.81l7.77,7.77c1.1,1.1,2.9,1.1,4,0l0,0c1.1-1.1,1.1-2.9,0-4l-7.77-7.77c-1.1-1.1-2.9-1.1-4,0l0,0
				C2.85,206.91,2.85,208.71,3.95,209.81z"/>
			<path class="st5" d="M3.95,209.81l3.96,3.96l4-4l-3.96-3.96c-1.1-1.1-2.9-1.1-4,0l0,0C2.85,206.91,2.85,208.71,3.95,209.81z"/>
		</g>
		<g>
			<path class="st5" d="M207.99,184.26h10.99c1.56,0,2.83-1.27,2.83-2.83l0,0c0-1.56-1.27-2.83-2.83-2.83h-10.99
				c-1.56,0-2.83,1.27-2.83,2.83l0,0C205.16,182.99,206.43,184.26,207.99,184.26z"/>
			<path class="st3" d="M207.99,184.26h5.61v-5.66h-5.61c-1.56,0-2.83,1.27-2.83,2.83l0,0
				C205.16,182.99,206.43,184.26,207.99,184.26z"/>
		</g>
		<g>
			<path class="st5" d="M247.6,266.54v-10.99c0-1.56-1.27-2.83-2.83-2.83l0,0c-1.56,0-2.83,1.27-2.83,2.83v10.99
				c0,1.56,1.27,2.83,2.83,2.83l0,0C246.33,269.36,247.6,268.1,247.6,266.54z"/>
			<path class="st3" d="M247.6,266.54v-5.61h-5.66v5.61c0,1.56,1.27,2.83,2.83,2.83l0,0C246.33,269.36,247.6,268.1,247.6,266.54z"/>
		</g>
		<g>
			<path class="st0" d="M36.4,271.51v10.99c0,1.56,1.27,2.83,2.83,2.83l0,0c1.56,0,2.83-1.27,2.83-2.83v-10.99
				c0-1.56-1.27-2.83-2.83-2.83l0,0C37.66,268.68,36.4,269.95,36.4,271.51z"/>
			<path class="st5" d="M36.4,271.51v5.61h5.66v-5.61c0-1.56-1.27-2.83-2.83-2.83l0,0C37.66,268.68,36.4,269.95,36.4,271.51z"/>
		</g>
		<g>
			<path class="st3" d="M82.26,119.66l-7.77-7.77c-1.1-1.1-2.9-1.1-4,0l0,0c-1.1,1.1-1.1,2.9,0,4l7.77,7.77c1.1,1.1,2.9,1.1,4,0l0,0
				C83.36,122.56,83.36,120.77,82.26,119.66z"/>
			<path class="st5" d="M82.26,119.66l-3.96-3.96l-4,4l3.96,3.96c1.1,1.1,2.9,1.1,4,0l0,0C83.36,122.56,83.36,120.77,82.26,119.66z"
				/>
		</g>
		<g>
			<path class="st5" d="M306.12,137.31l7.77-7.77c1.1-1.1,1.1-2.9,0-4l0,0c-1.1-1.1-2.9-1.1-4,0l-7.77,7.77c-1.1,1.1-1.1,2.9,0,4
				l0,0C303.23,138.42,305.02,138.42,306.12,137.31z"/>
			<path class="st3" d="M306.12,137.31l3.96-3.96l-4-4l-3.96,3.96c-1.1,1.1-1.1,2.9,0,4l0,0
				C303.23,138.42,305.02,138.42,306.12,137.31z"/>
		</g>
	</g>
</g>
</svg>
