<?xml version="1.0" encoding="utf-8"?>
<!-- Generator: Adobe Illustrator 24.1.0, SVG Export Plug-In . SVG Version: 6.00 Build 0)  -->
<svg version="1.1" id="Layer_1" xmlns="http://www.w3.org/2000/svg" xmlns:xlink="http://www.w3.org/1999/xlink" x="0px" y="0px"
	 viewBox="0 0 348.66 330.35" style="enable-background:new 0 0 348.66 330.35;" xml:space="preserve">
<style type="text/css">
	.st0{fill:#80D2EB;}
	.st1{fill:#B38469;}
	.st2{fill:#3A3A3A;}
	.st3{fill:#FFDDC9;}
	.st4{fill:#FFFFFF;}
	.st5{fill:#BDDDFF;}
	.st6{fill:#4DE2AC;}
	.st7{fill:#0077BF;}
	.st8{fill:#FDFCFA;}
	.st9{fill:#EAEAEA;}
	.st10{fill:#959696;}
	.st11{fill:#1FB584;}
</style>
<g>
	<path class="st0" d="M333.06,193.26c-5.48,9.41-12,18.16-19.34,26.19c-15.44,16.91-34.52,30.57-55.31,40.24
		c-37.65,17.49-82.22,23.57-123.09,15.98c-9.26-1.73-18.41-4.27-27.29-7.59c-31.06-11.61-58.87-32.63-76.68-60.61
		c-19.35-30.4-39.6-77.92-21.4-113.13c1.45-2.79,3.13-5.51,5.09-8.13c22.36-30.13,33.36-12.46,62.86-11.08
		c8.67,0.41,14.77-1.38,19.61-4.81c5.83-4.13,21.05-6.36,25.57-14.39c0.12-0.23,10.54-9.1,10.73-9.28
		c10.37-9.71,34.8-19.71,51.68-23.39c22.42-4.88,48.32,3.83,61.1,23.36c5.2,7.95,8.14,17.13,12.17,25.72
		c15.49,33.03,56.34,28.57,77.88,54.59C353.07,146.82,344.71,173.29,333.06,193.26z"/>
	<g>
		<g>
			<path class="st1" d="M60.52,54.61c1.04,8.59,11.29,13.35,23.99,5.97c11.99-6.96,8.27-23.94,6.72-27.93
				c-5.5-14.19-18.48-9.95-19.67-2.37C69.88,41.08,80.42,55.57,60.52,54.61z"/>
			<path class="st2" d="M83.8,20.71c0,0-4.57,3.3-2.71,8.24c1.86,4.94,6.48,6.18,10.1,3.45C91.19,32.39,89.16,23.43,83.8,20.71z"/>
			<path class="st1" d="M107.29,10.01c0,0,5.5,0.12,7.47,6.02c1.14,3.41,1.83,10.88-4.03,11.84
				C110.74,27.87,101.39,17.34,107.29,10.01z"/>
			<path class="st3" d="M152.45,44.81c0,0-0.97-2.8-1.27-4.2c-0.3-1.4,5.77-2.14,5.77-2.14S156.25,43.6,152.45,44.81z"/>
			<path class="st3" d="M153.51,42.93c-1.74,2.5-10.52,21.84-10.52,21.84c-1.29,5.67,6.57,3.49,6.57,3.49l9.95-26.72
				C159.51,41.54,155.19,40.53,153.51,42.93z"/>
			<path class="st4" d="M124.14,112.4c13.9,0,33.26-57.66,33.26-57.66l-10-3.73l-20.16,41.44c-4.72-21.86-6.17-40.78-15.64-40.78
				c-4.97,0-13.28,0-13.28,0S112.79,112.4,124.14,112.4z"/>
			<path class="st3" d="M98.75,217.25c0,0-0.39,71.16,6.13,98.36h8.58c0,0,0.34-84.57,1.72-98.36H98.75z"/>
			<path class="st2" d="M102.79,321.08c0,0-1.46,4.54,0,6.95c0,0,23.39,1.07,29.96-0.06c6.57-1.12,4-2.92-4.73-4.03L102.79,321.08z"
				/>
			<path class="st3" d="M104.88,315.61c0,0-2.12,1.55-2.1,5.47c0,0,19.69,6.11,25.23,2.87c0,0-7.06-2.89-14.58-8.32L104.88,315.61z"
				/>
			<path class="st3" d="M70.52,217.25c0,0-0.39,71.16,6.13,98.36h8.58c0,0,0.34-84.57,1.72-98.36H70.52z"/>
			<path class="st2" d="M74.56,321.08c0,0-1.46,4.54,0,6.95c0,0,23.39,1.07,29.96-0.06c6.57-1.12,4-2.92-4.73-4.03L74.56,321.08z"/>
			<path class="st3" d="M76.65,315.61c0,0-2.12,1.55-2.1,5.47c0,0,19.69,6.11,25.23,2.87c0,0-7.06-2.89-14.58-8.32L76.65,315.61z"/>
			<path class="st2" d="M72.22,150.8c0,0-17.38,34.76-17.38,75.04c0,0,36.88,13.14,71.65,0c0,0,1.7-54.69-4.66-75.04H72.22z"/>
			<path class="st4" d="M130.83,232.34c-6.87,2.13-15.75,3.25-25.22,3.72l-3.93-49.65l-5.28,49.93
				c-25.67,0.27-48.57-3.13-48.57-3.13c4.87-73.24,25.5-108.59,25.5-108.59c3.31-22.38,1.65-70.53,1.65-70.53l30.35-2.42
				c0,0,23.1,25.45,21.77,32.97c-2.26,12.77-4.03,43.3-4.03,43.3C132.19,161.1,130.83,232.34,130.83,232.34z"/>
			<path class="st5" d="M103.08,109.45l-0.19,5.08l-0.44,12.1l12.18,0.49l0.44-12.11l0.19-5.07L103.08,109.45z M107.3,110.5
				l4.12,0.11l-0.06,1.09l-4.16-0.13L107.3,110.5z"/>
			<path class="st2" d="M103.08,109.45l-0.19,5.08l12.18,0.49l0.19-5.07L103.08,109.45z M111.35,111.7l-4.16-0.13l0.11-1.07
				l4.12,0.11L111.35,111.7z"/>
			<polygon class="st2" points="108.48,104.62 108,110.88 110.49,110.88 110.49,104.62 			"/>
			<path class="st2" d="M88.4,59.54c0,0,8.43,38.27,22.9,44.57l0.09-2.08c0,0-13.47-6.78-21.2-42.82L88.4,59.54z"/>
			<path class="st2" d="M110.39,58.3c0,0,10.2,32.75,1.03,44.75l-1.01-1.51c0,0,8.12-11.85-1.66-42.59L110.39,58.3z"/>
			<path class="st2" d="M113.73,102.61c0,2.3-1.86,4.17-4.17,4.17c-2.3,0-4.17-1.86-4.17-4.17s1.86-4.17,4.17-4.17
				C111.87,98.44,113.73,100.31,113.73,102.61z"/>
			<path class="st0" d="M112,102.61c0,1.35-1.09,2.44-2.44,2.44c-1.35,0-2.44-1.09-2.44-2.44c0-1.35,1.09-2.44,2.44-2.44
				C110.91,100.17,112,101.26,112,102.61z"/>
			<path class="st0" d="M78.2,97.88c0,0-1.05-1.96,2.23-3.56l3.47,4.52C83.9,98.84,80.69,100.91,78.2,97.88z"/>
			<path class="st0" d="M99.85,84.64c0,0-15.09,14.94-21.65,13.24c0,0,2.02,6.66,13.42,10.3c0,0,11.94-4.28,18.58-17.33L99.85,84.64
				z"/>
			<path class="st6" d="M90.49,47.56c0,0-3.23,0.71-5.42,1.82c-2.19,1.12,2.39,14.16,2.71,17.14c0.32,2.98,6.38,1.23,6.38,1.23
				s-1.07,4.36-1.14,6.97c-0.07,2.61,17.47,20.43,17.47,20.43S94.54,56.38,90.39,51.67L90.49,47.56z"/>
			<path class="st6" d="M102.46,47.56c0,0,9.63,10.58,12.05,16.66c0.41,1.02-3.94,1.92-3.94,1.92s4.26,6.07,4.43,9.94
				c0.48,10.48-4.52,19.07-4.52,19.07s-4.21-35.24-8-43.49L102.46,47.56z"/>
			<path class="st4" d="M90.39,51.67c0,0,14.65,29.33,20.09,43.49c0,0,4.25-22.75-8-43.49H90.39z"/>
			<path class="st3" d="M102.48,51.67l-0.07-21.85l-11.49-0.28l-0.54,22.13C90.39,51.67,96.12,56.13,102.48,51.67z"/>
			<path class="st3" d="M112.67,30.49c-0.04,0.35-0.1,0.69-0.18,1.01c-1.39,5.51-5.46,9.65-12.62,8.84c0,0-8.51-0.23-11.05-10.79
				C84.77,12.7,98.91,6.67,108.25,13.43c1.09,0.79,1.84,1.96,2.19,3.26c0.73,2.62,1.92,6.6,2.25,10.21
				C112.82,28.17,112.83,29.39,112.67,30.49z"/>
			<path class="st4" d="M88.2,120.31l1.29-9.05l-24.09,0.4c0,0,14.92-33.55,17.16-40.35c3.97-12.09-7.56-17.22-7.56-17.22
				c-11.63,0-23.3,47.33-25.23,65.15C49.26,123.85,88.2,120.31,88.2,120.31z"/>
			<polygon class="st7" points="121.06,90.44 99.9,84.64 78.04,112.18 96.81,113.98 			"/>
			<path class="st3" d="M106.76,106.19c-0.44-0.59-1.45-0.01-1.83,0.3c0.13,0.02-0.11-0.9-0.55-0.92c-0.44-0.02-5.62,3.99-9.32,4.82
				c0.44-0.41,2.34-2.3,2.49-3.67c0.09-0.78-0.77-1.18-1.01-0.95c-0.92,0.9-1.78,1.83-2.72,2.7c-1.06,0.99-3.93,1.44-4.33,2.8
				c-0.07,0.24-0.6,1.96-0.56,1.96l-0.54,5.75c2.07,0.84,5.25-0.51,6.79-1.9C100.69,112.1,107.16,106.73,106.76,106.19z"/>
			<g>
				<path class="st8" d="M154.1,62.37l-7.14-0.85c-2.26-0.27-3.25-2.99-1.69-4.65l3.55-3.78l7.31-7.78l5.28,9.28l2.56,4.51
					c1.12,1.98-0.48,4.39-2.74,4.12L154.1,62.37z"/>
				
					<rect x="153.97" y="34.82" transform="matrix(0.993 0.1183 -0.1183 0.993 6.4586 -18.1574)" class="st8" width="4.33" height="20.98"/>
				
					<rect x="153.93" y="33.53" transform="matrix(0.993 0.1183 -0.1183 0.993 5.1972 -18.3846)" class="st8" width="6.97" height="2.09"/>
				<path class="st0" d="M159.15,55.24l-0.56-0.99l-6.95-0.83l-0.78,0.83l-2.34,2.49c-1.03,1.09-0.37,2.88,1.11,3.06l4.7,0.56
					l4.7,0.56c1.49,0.18,2.54-1.41,1.8-2.71L159.15,55.24z"/>
			</g>
			<path class="st3" d="M157.93,48.48c0,0,3.02-6.65,3.15-7.68c0.13-1.02-7.04-2.33-7.97-1.68c-0.93,0.65,1.32,2.18,1.32,2.18
				s-1.77,0.43-1.54,0.9c0.23,0.47,2.55,1.52,2.55,1.52s-2.73-0.21-2.57,0.35c0.15,0.56,1.69,1.25,1.69,1.25s-2.15,0.46-1.7,1.34
				C153.31,47.53,157.93,48.48,157.93,48.48z"/>
			<path class="st1" d="M97.77,17.65c-8.6,2.71-1.93,10.66-10.28,13.13c-3.01,0.89-5.97-9.33-6.09-11.77
				c-0.31-6.14,4.1-8.89,9.06-11.91c4.35-2.65,17.44-5.5,20.03-0.93C112.14,9.08,108.6,14.24,97.77,17.65z"/>
			<path class="st3" d="M84,33.5c0.61,1.98,2.77,3.1,4.82,2.49s3.21-2.71,2.59-4.69c-0.61-1.98-2.77-3.1-4.82-2.49
				C84.55,29.41,83.39,31.51,84,33.5z"/>
			<rect x="65.36" y="176.01" class="st2" width="23.03" height="5.45"/>
			<rect x="115.17" y="176.01" class="st2" width="16.55" height="5.45"/>
			<polygon class="st1" points="107.18,85.5 117.08,88.63 115.03,90.62 105.32,87.85 			"/>
			<path class="st4" d="M98.23,31.09c0,0,8.66-3.35,14.36-0.6c0,0,0.32,9.6-7.68,9.94C98.23,40.73,97.73,34.72,98.23,31.09z"/>
			<polygon class="st4" points="87.79,28.02 98.23,31.09 98.11,32.4 87.06,28.7 			"/>
			<polygon class="st4" points="90.75,36.96 103.13,39.44 103.13,40.35 90.73,37.81 			"/>
			<polygon class="st4" points="105.71,115.98 112.78,116.38 112.4,124.64 105.32,124.29 			"/>
		</g>
		<g>
			<polygon class="st9" points="289.2,174.1 160.82,174.1 176.91,1.86 305.28,1.86 			"/>
		</g>
		<g>
			<g>
				<g>
					<rect x="184.98" y="15.81" class="st10" width="23.33" height="2.5"/>
				</g>
				<g>
					<rect x="184.98" y="22.37" class="st10" width="11.67" height="2.5"/>
				</g>
				<g>
					<rect x="199.11" y="22.37" class="st10" width="18.51" height="2.5"/>
				</g>
				<g>
					<rect x="211.73" y="15.81" class="st10" width="13.46" height="2.5"/>
				</g>
			</g>
		</g>
		<g>
			<g>
				<g>
					<path class="st10" d="M248.35,91.63c-2.29,0-5.58-2.09-9.48-6.07c-4.76-4.85-9.94-11.96-14.59-20.01
						c-4.65-8.05-8.21-16.09-10.03-22.63c-1.86-6.69-1.67-11.07,0.55-12.36c2.22-1.28,6.12,0.74,10.98,5.7
						c4.76,4.85,9.94,11.96,14.59,20.01c4.65,8.05,8.21,16.09,10.03,22.63c1.86,6.69,1.67,11.07-0.55,12.36
						C249.41,91.51,248.91,91.63,248.35,91.63z M216.32,30.88c-0.44,0-0.83,0.1-1.17,0.29c-1.89,1.09-1.97,5.3-0.23,11.56
						c1.81,6.49,5.35,14.47,9.97,22.47c4.62,8,9.76,15.06,14.48,19.87c4.55,4.64,8.24,6.67,10.13,5.58
						c1.89-1.09,1.97-5.3,0.23-11.56c-1.81-6.49-5.35-14.47-9.97-22.47c-4.62-8-9.76-15.06-14.48-19.87
						C221.53,32.93,218.37,30.88,216.32,30.88z"/>
				</g>
				<g>
					<path class="st10" d="M216.29,91.63c-0.56,0-1.06-0.12-1.49-0.37c-2.22-1.28-2.42-5.67-0.55-12.36
						c1.82-6.55,5.38-14.58,10.03-22.63c4.65-8.05,9.83-15.16,14.59-20.01c4.86-4.96,8.76-6.98,10.98-5.7
						c2.22,1.28,2.42,5.67,0.55,12.36c-1.82,6.55-5.38,14.58-10.03,22.63c-4.65,8.05-9.83,15.16-14.59,20.01
						C221.87,89.54,218.58,91.63,216.29,91.63z M248.32,30.88c-2.05,0-5.22,2.05-8.96,5.87c-4.72,4.81-9.86,11.87-14.48,19.87
						c-4.62,8-8.16,15.98-9.97,22.47c-1.74,6.26-1.66,10.47,0.23,11.56c1.89,1.09,5.58-0.94,10.13-5.58
						c4.72-4.81,9.86-11.87,14.48-19.87c4.62-8,8.16-15.98,9.97-22.47c1.74-6.26,1.66-10.47-0.23-11.56
						C249.16,30.97,248.77,30.88,248.32,30.88z"/>
				</g>
				<g>
					<path class="st10" d="M232.32,68.02c-19.65,0-35.04-4.08-35.04-9.29s15.39-9.29,35.04-9.29s35.04,4.08,35.04,9.29
						S251.97,68.02,232.32,68.02z M232.32,50.15c-18.62,0-34.34,3.93-34.34,8.59c0,4.65,15.73,8.59,34.34,8.59
						s34.34-3.93,34.34-8.59C266.66,54.08,250.94,50.15,232.32,50.15z"/>
				</g>
			</g>
		</g>
		<path class="st10" d="M237.46,58.74c0,2.84-2.3,5.14-5.14,5.14c-2.84,0-5.14-2.3-5.14-5.14c0-2.84,2.3-5.14,5.14-5.14
			C235.16,53.6,237.46,55.9,237.46,58.74z"/>
		<g>
			<g>
				<g>
					<g>
						<path class="st10" d="M190.74,105.31c-0.05,0-0.1-0.01-0.14-0.03c-0.41-0.18-9.91-4.56-9.91-10.14
							c0-5.59,9.51-9.96,9.91-10.14c0.09-0.04,0.2-0.04,0.29,0c0.41,0.18,9.91,4.56,9.91,10.14c0,5.59-9.51,9.96-9.91,10.14
							C190.84,105.3,190.79,105.31,190.74,105.31z M190.74,85.7c-1.19,0.57-9.36,4.65-9.36,9.44c0,4.79,8.16,8.86,9.36,9.44
							c1.19-0.57,9.36-4.65,9.36-9.44C200.1,90.35,191.94,86.27,190.74,85.7z"/>
					</g>
					<g>
						<path class="st10" d="M190.74,85.57c-0.05,0-0.1-0.01-0.14-0.03c-0.41-0.18-9.91-4.55-9.91-10.14c0-0.19,0.16-0.35,0.35-0.35
							s0.35,0.16,0.35,0.35c0,4.79,8.16,8.86,9.36,9.44c1.19-0.57,9.36-4.65,9.36-9.44c0-0.19,0.16-0.35,0.35-0.35
							s0.35,0.16,0.35,0.35c0,5.59-9.51,9.96-9.91,10.14C190.84,85.56,190.79,85.57,190.74,85.57z"/>
					</g>
					<g>
						<path class="st10" d="M200.45,115.22c-0.19,0-0.35-0.16-0.35-0.35c0-4.79-8.16-8.86-9.36-9.44c-1.19,0.57-9.36,4.65-9.36,9.44
							c0,0.19-0.16,0.35-0.35,0.35s-0.35-0.16-0.35-0.35c0-5.59,9.51-9.96,9.91-10.14c0.09-0.04,0.2-0.04,0.29,0
							c0.41,0.18,9.91,4.56,9.91,10.14C200.8,115.07,200.64,115.22,200.45,115.22z"/>
					</g>
				</g>
				<g>
					<path class="st10" d="M195.83,88.72h-10.19c-0.19,0-0.35-0.16-0.35-0.35s0.16-0.35,0.35-0.35h10.19c0.19,0,0.35,0.16,0.35,0.35
						S196.03,88.72,195.83,88.72z"/>
				</g>
				<g>
					<path class="st10" d="M199.25,92.1h-17.02c-0.19,0-0.35-0.16-0.35-0.35s0.16-0.35,0.35-0.35h17.02c0.19,0,0.35,0.16,0.35,0.35
						S199.45,92.1,199.25,92.1z"/>
				</g>
				<g>
					<path class="st10" d="M195.83,82.49h-10.19c-0.19,0-0.35-0.16-0.35-0.35s0.16-0.35,0.35-0.35h10.19c0.19,0,0.35,0.16,0.35,0.35
						S196.03,82.49,195.83,82.49z"/>
				</g>
				<g>
					<path class="st10" d="M199.25,79.11h-17.02c-0.19,0-0.35-0.16-0.35-0.35c0-0.19,0.16-0.35,0.35-0.35h17.02
						c0.19,0,0.35,0.16,0.35,0.35C199.6,78.96,199.45,79.11,199.25,79.11z"/>
				</g>
				<g>
					<path class="st10" d="M195.83,108.46h-10.19c-0.19,0-0.35-0.16-0.35-0.35s0.16-0.35,0.35-0.35h10.19
						c0.19,0,0.35,0.16,0.35,0.35S196.03,108.46,195.83,108.46z"/>
				</g>
				<g>
					<path class="st10" d="M199.25,111.84h-17.02c-0.19,0-0.35-0.16-0.35-0.35c0-0.19,0.16-0.35,0.35-0.35h17.02
						c0.19,0,0.35,0.16,0.35,0.35C199.6,111.68,199.45,111.84,199.25,111.84z"/>
				</g>
				<g>
					<path class="st10" d="M199.25,98.87h-17.02c-0.19,0-0.35-0.16-0.35-0.35s0.16-0.35,0.35-0.35h17.02c0.19,0,0.35,0.16,0.35,0.35
						S199.45,98.87,199.25,98.87z"/>
				</g>
				<g>
					<path class="st10" d="M200.45,95.48h-19.41c-0.19,0-0.35-0.16-0.35-0.35c0-0.19,0.16-0.35,0.35-0.35h19.41
						c0.19,0,0.35,0.16,0.35,0.35C200.8,95.33,200.64,95.48,200.45,95.48z"/>
				</g>
				<g>
					<path class="st10" d="M195.83,102.25h-10.19c-0.19,0-0.35-0.16-0.35-0.35s0.16-0.35,0.35-0.35h10.19
						c0.19,0,0.35,0.16,0.35,0.35S196.03,102.25,195.83,102.25z"/>
				</g>
			</g>
		</g>
		<polygon class="st10" points="214.17,104.28 210.33,145.44 279.64,145.44 283.48,104.28 		"/>
		<g>
			<g>
				<g>
					<rect x="247.97" y="109.37" class="st4" width="28.73" height="2.69"/>
				</g>
				<g>
					<rect x="238.47" y="109.37" class="st4" width="5.83" height="2.69"/>
				</g>
				<g>
					<rect x="258.7" y="116.77" class="st4" width="18.01" height="2.69"/>
				</g>
			</g>
		</g>
		<g>
			<rect x="161.35" y="174.1" class="st2" width="143.75" height="11.01"/>
			<polygon class="st2" points="154.22,328.48 150.48,328.48 172.47,185.11 176.21,185.11 			"/>
			<polygon class="st2" points="212.22,328.48 215.96,328.48 193.97,185.11 190.23,185.11 			"/>
			<polygon class="st2" points="243.36,328.48 239.62,328.48 261.61,185.11 265.35,185.11 			"/>
			<polygon class="st2" points="301.36,328.48 305.1,328.48 283.11,185.11 279.37,185.11 			"/>
		</g>
		<g>
			<g>
				<rect x="175.87" y="123.35" class="st4" width="6.72" height="21.92"/>
				<circle class="st4" cx="179.23" cy="146.1" r="11.49"/>
				<path class="st11" d="M170.84,146.1c0,4.63,3.75,8.39,8.39,8.39c4.63,0,8.39-3.75,8.39-8.39H170.84z"/>
				<g>
					<g>
						<g>
							<g>
								<rect x="176.15" y="137.86" class="st2" width="1.92" height="0.47"/>
							</g>
						</g>
						<g>
							<g>
								<rect x="176.15" y="139.64" class="st2" width="1.92" height="0.47"/>
							</g>
						</g>
						<g>
							<g>
								<rect x="176.15" y="141.42" class="st2" width="3.05" height="0.47"/>
							</g>
						</g>
						<g>
							<g>
								<rect x="176.15" y="143.19" class="st2" width="1.92" height="0.47"/>
							</g>
						</g>
						<g>
							<g>
								<rect x="176.15" y="144.97" class="st2" width="1.92" height="0.47"/>
							</g>
						</g>
						<g>
							<g>
								<rect x="176.15" y="146.74" class="st2" width="3.05" height="0.47"/>
							</g>
						</g>
						<g>
							<g>
								<rect x="176.15" y="148.52" class="st2" width="1.92" height="0.47"/>
							</g>
						</g>
						<g>
							<g>
								<rect x="176.15" y="150.3" class="st2" width="1.92" height="0.47"/>
							</g>
						</g>
						<g>
							<g>
								<rect x="176.15" y="152.07" class="st2" width="3.05" height="0.47"/>
							</g>
						</g>
					</g>
				</g>
				<path class="st4" d="M182.75,124.61h-7.1c-0.52,0-0.94-0.42-0.94-0.94l0,0c0-0.52,0.42-0.94,0.94-0.94h7.1
					c0.52,0,0.94,0.42,0.94,0.94l0,0C183.7,124.19,183.27,124.61,182.75,124.61z"/>
			</g>
			<g>
				<g>
					<rect x="157.94" y="124.27" class="st2" width="1.63" height="49.61"/>
					<rect x="159.57" y="127.88" class="st2" width="14.71" height="1.63"/>
					<rect x="173.48" y="127.21" class="st2" width="11.5" height="2.98"/>
				</g>
			</g>
			<rect x="155.46" y="168.97" class="st2" width="35.26" height="4.91"/>
		</g>
		<g>
			<path class="st8" d="M217.08,174.08h-10.95c-3.46,0-5.45-3.94-3.39-6.73l4.69-6.35l9.66-13.08l9.66,13.08l4.69,6.35
				c2.06,2.79,0.07,6.73-3.4,6.73H217.08z"/>
			<rect x="213.78" y="144.4" class="st8" width="6.6" height="19.49"/>
			<path class="st6" d="M223.44,162.4l-1.03-1.4h-10.65l-1.03,1.4l-3.09,4.18c-1.35,1.83-0.04,4.43,2.24,4.43h7.21h7.21
				c2.28,0,3.59-2.59,2.24-4.43L223.44,162.4z"/>
			<path class="st8" d="M220.16,141.58h-6.04c-0.89,0-1.62,0.73-1.62,1.62l0,0c0,0.89,0.73,1.62,1.62,1.62h6.04
				c0.89,0,1.62-0.73,1.62-1.62l0,0C221.78,142.3,221.06,141.58,220.16,141.58z"/>
			<g>
				<g>
					<g>
						<g>
							<rect x="212.51" y="156.85" class="st2" width="2.72" height="0.47"/>
						</g>
					</g>
					<g>
						<g>
							<rect x="212.51" y="159.37" class="st2" width="2.72" height="0.47"/>
						</g>
					</g>
					<g>
						<g>
							<rect x="212.51" y="161.88" class="st2" width="4.31" height="0.47"/>
						</g>
					</g>
					<g>
						<g>
							<rect x="212.51" y="164.39" class="st2" width="2.72" height="0.47"/>
						</g>
					</g>
					<g>
						<g>
							<rect x="212.51" y="166.9" class="st2" width="2.72" height="0.47"/>
						</g>
					</g>
					<g>
						<g>
							<rect x="212.51" y="169.42" class="st2" width="4.31" height="0.47"/>
						</g>
					</g>
				</g>
			</g>
		</g>
		<g>
			<path class="st4" d="M242.57,174.09L242.57,174.09c-2.61,0-4.72-2.12-4.72-4.72v-25.11h9.45v25.11
				C247.3,171.98,245.18,174.09,242.57,174.09z"/>
			<path class="st4" d="M247.39,144.26h-9.64c-0.75,0-1.35-0.6-1.35-1.35l0,0c0-0.75,0.6-1.35,1.35-1.35h9.64
				c0.75,0,1.35,0.6,1.35,1.35l0,0C248.74,143.66,248.14,144.26,247.39,144.26z"/>
			<path class="st1" d="M242.57,171.79L242.57,171.79c-1.6,0-2.89-1.3-2.89-2.89v-9.27h5.79v9.27
				C245.47,170.5,244.17,171.79,242.57,171.79z"/>
			<g>
				<g>
					<g>
						<rect x="239.68" y="150.99" class="st2" width="2.2" height="0.47"/>
					</g>
					<g>
						<rect x="239.68" y="153.03" class="st2" width="2.2" height="0.47"/>
					</g>
					<g>
						<rect x="239.68" y="155.06" class="st2" width="3.49" height="0.47"/>
					</g>
					<g>
						<rect x="239.68" y="157.09" class="st2" width="2.2" height="0.47"/>
					</g>
					<g>
						<rect x="239.68" y="159.12" class="st2" width="2.2" height="0.47"/>
					</g>
					<g>
						<rect x="239.68" y="161.15" class="st2" width="3.49" height="0.47"/>
					</g>
					<g>
						<rect x="239.68" y="163.18" class="st2" width="2.2" height="0.47"/>
					</g>
					<g>
						<rect x="239.68" y="165.22" class="st2" width="2.2" height="0.47"/>
					</g>
					<g>
						<rect x="239.68" y="167.25" class="st2" width="3.49" height="0.47"/>
					</g>
				</g>
			</g>
		</g>
		<g>
			<path class="st4" d="M262.03,174.09L262.03,174.09c-2.61,0-4.72-2.12-4.72-4.72v-25.11h9.45v25.11
				C266.76,171.98,264.64,174.09,262.03,174.09z"/>
			<path class="st4" d="M266.85,144.26h-9.64c-0.75,0-1.35-0.6-1.35-1.35l0,0c0-0.75,0.6-1.35,1.35-1.35h9.64
				c0.75,0,1.35,0.6,1.35,1.35l0,0C268.2,143.66,267.6,144.26,266.85,144.26z"/>
			<path class="st7" d="M262.03,171.79L262.03,171.79c-1.6,0-2.89-1.3-2.89-2.89v-9.27h5.79v9.27
				C264.92,170.5,263.63,171.79,262.03,171.79z"/>
			<g>
				<g>
					<g>
						<rect x="259.14" y="150.99" class="st2" width="2.2" height="0.47"/>
					</g>
					<g>
						<rect x="259.14" y="153.03" class="st2" width="2.2" height="0.47"/>
					</g>
					<g>
						<rect x="259.14" y="155.06" class="st2" width="3.49" height="0.47"/>
					</g>
					<g>
						<rect x="259.14" y="157.09" class="st2" width="2.2" height="0.47"/>
					</g>
					<g>
						<rect x="259.14" y="159.12" class="st2" width="2.2" height="0.47"/>
					</g>
					<g>
						<rect x="259.14" y="161.15" class="st2" width="3.49" height="0.47"/>
					</g>
					<g>
						<rect x="259.14" y="163.18" class="st2" width="2.2" height="0.47"/>
					</g>
					<g>
						<rect x="259.14" y="165.22" class="st2" width="2.2" height="0.47"/>
					</g>
					<g>
						<rect x="259.14" y="167.25" class="st2" width="3.49" height="0.47"/>
					</g>
				</g>
			</g>
		</g>
	</g>
</g>
</svg>
