<?xml version="1.0" encoding="utf-8"?>
<!-- Generator: Adobe Illustrator 24.1.0, SVG Export Plug-In . SVG Version: 6.00 Build 0)  -->
<svg version="1.1" id="Layer_1" xmlns="http://www.w3.org/2000/svg" xmlns:xlink="http://www.w3.org/1999/xlink" x="0px" y="0px"
	 viewBox="0 0 353.66 342.35" style="enable-background:new 0 0 353.66 342.35;" xml:space="preserve">
<style type="text/css">
	.st0{fill:#FFFFFF;}
	.st1{fill:#3A3A3A;}
	.st2{fill:#959696;}
	.st3{fill:#B38469;}
	.st4{fill:#FFDDC9;}
	.st5{fill:#1FB584;}
	.st6{fill:#4DE2AC;}
	.st7{fill:#444444;}
	.st8{fill:#EAEAEA;}
	.st9{fill:#989D97;}
	.st10{fill:#2FAFCC;}
	.st11{fill:#80D2EB;}
</style>
<g>
	<path class="st0" d="M343.53,202.94c-8.41,16.72-22.78,29.44-39.5,38.15c-9.38,4.87-19.48,8.49-29.71,10.85
		c-28.9,6.65-58.58-3.95-87.37,1.99c-23.36,4.81-34.68,27.84-54.55,38.57c-23.44,12.64-54.64,9.09-77.36-3.17
		c-14.7-7.94-26.15-18.29-34.62-30.29c-19.38-27.4-23.29-63.38-15.26-98.73C18.2,102.93,55.28,26.32,123.36,25.04
		c23.35-0.43,43,13.07,63.62,21.98c21.41,9.25,46.42,10.1,69.09,15.87c21.96,5.6,44.35,17.76,62.02,34.16
		C347.33,124.2,363.62,163,343.53,202.94z"/>
	<g>
		<g>
			<g>
				<g>
					<path class="st1" d="M232.66,154.9c0,0-0.44,6.41-0.98,15.78c-0.11,1.2-0.17,2.41-0.22,3.67c-0.6,9.91-1.21,22.24-1.53,33.81
						c-0.05,1.09-0.05,2.19-0.05,3.24c-0.06,1.04-0.12,2.02-0.12,3.06c-0.06,0.99-0.06,1.98-0.11,2.96
						c-0.05,2.63-0.11,5.14-0.16,7.5v0.67c-0.05,1.47-0.11,2.95-0.11,4.27c-0.16,7.06-0.22,12.17-0.11,13.59
						c0.06,0.82,0.11,2.07,0.11,3.78c0.11,2.96,0.11,7.18,0.11,11.72c0.05,5.65,0.05,12,0.05,17.48c0.05,1.87,0.05,3.56,0.05,5.15
						v0.38c0,0.77,0.05,1.54,0.05,2.26c0,1.37,0.05,2.52,0.11,3.56c0.44,8.99-0.71,44.71-0.71,44.71h-20.22l-3.67-84.92l-1.64-30.13
						l-0.33-6.03l-0.55-9.92h-1.86V154.9H232.66z"/>
				</g>
				<g>
					<path class="st1" d="M200.99,154.84v46.57h-1.86l-0.6,9.98l-0.33,6.03l-1.31,22.9l-0.11,2.47l-0.16,4.71l-0.12,2.3l-3.56,82.63
						h-20.22c0,0-1.15-35.73-0.71-44.71c0.05-1.09,0.11-2.47,0.11-4.06c0.05-0.44,0.05-0.93,0.05-1.47
						c0.17-10.03,0-26.69,0.22-35.02c0-1.65,0.05-2.9,0.11-3.78c0-0.16,0.05-0.39,0-0.6c0.05-0.61,0.05-1.43,0.05-2.47
						c0-4.55-0.21-12.99-0.44-22.9c-0.05-1.92-0.11-3.95-0.16-6.03c-0.05-1.1-0.05-2.2-0.11-3.29c-0.33-11.56-0.93-23.89-1.54-33.75
						c-0.05-1.32-0.11-2.52-0.21-3.67c-0.55-9.42-0.99-15.84-0.99-15.84H200.99z"/>
				</g>
			</g>
			<g>
				<g>
					<g>
						<g>
							<g>
								<path class="st2" d="M231.24,335.89c0,3.69-5.57,3.86-12.43,3.86c-6.87,0-12.41-0.17-12.41-3.86c0-3.7,5.54-6.73,12.41-6.73
									C225.67,329.17,231.24,332.19,231.24,335.89z"/>
							</g>
						</g>
					</g>
					<g>
						<g>
							<rect x="206.4" y="336.78" class="st1" width="24.84" height="2.97"/>
						</g>
					</g>
				</g>
				<g>
					<g>
						<g>
							<g>
								<path class="st2" d="M170.51,335.89c0,3.69,5.55,3.86,12.41,3.86c6.87,0,12.43-0.17,12.43-3.86c0-3.7-5.56-6.73-12.43-6.73
									C176.06,329.17,170.51,332.19,170.51,335.89z"/>
							</g>
						</g>
					</g>
					<g>
						<g>
							<rect x="170.51" y="336.78" class="st1" width="24.84" height="2.97"/>
						</g>
					</g>
				</g>
			</g>
			<path class="st3" d="M233.02,71.35c-1.41-1.73-9.25-1.3-14.45-3.44h-0.03c-2.72-1.13-4.71,1.96-4.71,1.96l-4.65,0.37l-8.43,0.7
				l-8.43-0.7l-4.65-0.37c0,0-1.99-3.09-4.71-1.96h-0.03c-5.2,2.14-13.03,1.71-14.45,3.44c-2.16,2.66,2.47,27.41,2.47,27.41
				s4.32,56.11-1.21,80.32h31.01h30.86c-4.45-25.04-1.06-80.32-1.06-80.32S235.18,74.01,233.02,71.35z"/>
			<g>
				<g>
					<path class="st4" d="M227.26,186.79c-0.95-0.16-5.04-7.65-4.72-9.85c0.31-2.21,2.52-4.1,3.47-4.88
						c0.94-0.79,0.94-0.93,1.1-2.59c1.73-0.25,8.5-0.72,8.5-0.72s-0.28,1.93,0,2.68c1.26,3.31,3.85,6.37,3.85,9.96
						c0,1.88-8.29,7.36-9.98,3.74c-0.86-1.86,4.54-9.35-0.63-8.82c-4.56,0.47-2.05,5.76-1.26,7.66
						C228.36,185.84,229.15,187.1,227.26,186.79z"/>
					<path class="st3" d="M225.82,70.53c0,0,10.61-1.1,13.82,4.92c3.21,6.03,9.35,48.27,9.35,48.27c0,8.45-9.05,50.68-9.05,50.68
						l-16.83-2.52c0,0,6.84-35.8,8.04-42.63c1.21-6.84-8.04-28.49-8.04-28.49L225.82,70.53z"/>
				</g>
				<g>
					<path class="st4" d="M174.5,186.79c0.94-0.16,5.03-7.65,4.72-9.85c-0.31-2.21-2.51-4.1-3.46-4.88
						c-0.95-0.79-0.95-0.93-1.1-2.59c-1.73-0.25-8.5-0.72-8.5-0.72s0.28,1.93,0,2.68c-1.26,3.31-3.85,6.37-3.85,9.96
						c0,1.88,8.29,7.36,9.99,3.74c0.86-1.86-4.54-9.35,0.63-8.82c4.57,0.47,2.05,5.76,1.26,7.66
						C173.39,185.84,172.6,187.1,174.5,186.79z"/>
					<path class="st3" d="M175.93,70.53c0,0-10.61-1.1-13.82,4.92c-3.21,6.03-9.35,48.27-9.35,48.27c0,8.45,9.05,50.68,9.05,50.68
						l16.83-2.52c0,0-6.84-35.8-8.05-42.63c-1.21-6.84,8.05-28.49,8.05-28.49L175.93,70.53z"/>
				</g>
			</g>
			<path class="st4" d="M215.66,70.93c-4.33,4.02-14.91,15.31-14.91,15.31s-10.6-11.29-14.94-15.31c4.3-1.97,5.46-5.19,5.78-8.06
				c0.09-0.67,0.12-1.33,0.09-1.94c0.05-1.15,0.03-2.16,0.14-2.86c0.47-2.63,8.93,0,8.93,0s8.47-2.63,8.89,0
				c0.12,0.69,0.09,1.7,0.09,2.86c0.03,0.64,0.07,1.31,0.15,1.97C210.2,65.76,211.38,68.97,215.66,70.93z"/>
			<path class="st5" d="M218.52,67.9l-17.76,30.84l-2.3-4l-0.82-1.42L182.96,67.9c2.69-1.09,4.71-1.87,4.71-1.87l4.66,0.39
				c1.53,1.48,3.62,2.96,5.31,4.05c0.28,0.17,0.54,0.34,0.82,0.55c1.32,0.77,2.3,1.26,2.3,1.26s5.26-2.79,8.44-5.86l4.6-0.39
				C213.81,66.03,215.84,66.8,218.52,67.9z"/>
			<path class="st6" d="M198.47,71.02v23.72l-0.82-1.42V70.46C197.92,70.64,198.19,70.8,198.47,71.02z"/>
			<path class="st6" d="M205.02,69.69l5.81,8.21c0,0,3.99-11.24,4.24-12.47c0,0-3.46-4.21-5.02-7.03
				C210.04,62.55,209.54,66.04,205.02,69.69z"/>
			<path class="st6" d="M196.48,69.69l-5.81,8.21c0,0-3.99-11.24-4.24-12.47c0,0,3.46-4.21,5.02-7.03
				C191.45,62.57,191.95,66.04,196.48,69.69z"/>
			<path class="st4" d="M215.67,42.04c2.56-2.58,3.23-5.82,5.54-2.65c1.93,2.65-1.65,11.01-4.52,12.45
				c-1.74,0.88-1.02-4.02-1.02-4.02V42.04z"/>
			<path class="st4" d="M185.82,42.04c-2.56-2.58-3.24-5.82-5.54-2.65c-1.93,2.65,1.65,11.01,4.51,12.45
				c1.75,0.88,1.02-4.02,1.02-4.02V42.04z"/>
			<path class="st4" d="M217.56,26.15c-3.14-7.95-9.59-9.87-16.81-9.87c-7.22,0-13.68,1.92-16.81,9.87
				c-3.4,8.64,2.85,33.46,3.57,34.42c0.72,0.97,9.87,7.23,13.24,7.23c3.37,0,12.52-6.26,13.24-7.23
				C214.71,59.62,220.96,34.8,217.56,26.15z"/>
			<path class="st6" d="M201.76,76.22c0,0.55-0.46,1-1.01,1c-0.56,0-1.01-0.45-1.01-1c0-0.56,0.46-1.01,1.01-1.01
				C201.3,75.21,201.76,75.66,201.76,76.22z"/>
			<path class="st6" d="M201.76,84.01c0,0.56-0.46,1.01-1.01,1.01c-0.56,0-1.01-0.45-1.01-1.01c0-0.55,0.46-1.01,1.01-1.01
				C201.3,83,201.76,83.46,201.76,84.01z"/>
			<path class="st6" d="M201.76,91.82c0,0.56-0.46,1.01-1.01,1.01c-0.56,0-1.01-0.45-1.01-1.01s0.46-1.01,1.01-1.01
				C201.3,90.8,201.76,91.26,201.76,91.82z"/>
			<g>
				<rect x="198.77" y="39.79" class="st7" width="3.96" height="1.73"/>
				<g>
					<path class="st8" d="M212.15,45.42h-7.65c-0.95,0-1.73-0.78-1.73-1.74v-3.27c0-0.96,0.78-1.74,1.73-1.74h7.65
						c0.96,0,1.73,0.77,1.73,1.74v3.27C213.88,44.63,213.11,45.42,212.15,45.42z"/>
					<path class="st1" d="M212.15,46.13h-7.65c-1.35,0-2.45-1.1-2.45-2.45v-3.27c0-1.37,1.11-2.46,2.45-2.46h7.65
						c1.35,0,2.46,1.09,2.46,2.46v3.27C214.6,45.03,213.5,46.13,212.15,46.13z M204.5,39.39c-0.56,0-1,0.46-1,1.02v3.27
						c0,0.56,0.45,1.01,1,1.01h7.65c0.56,0,1.01-0.45,1.01-1.01v-3.27c0-0.56-0.46-1.02-1.01-1.02H204.5z"/>
					<path class="st8" d="M196.99,45.42h-7.65c-0.96,0-1.73-0.78-1.73-1.74v-3.27c0-0.96,0.78-1.74,1.73-1.74h7.65
						c0.96,0,1.73,0.77,1.73,1.74v3.27C198.72,44.63,197.95,45.42,196.99,45.42z"/>
					<path class="st1" d="M196.99,46.13h-7.65c-1.35,0-2.45-1.1-2.45-2.45v-3.27c0-1.37,1.1-2.46,2.45-2.46h7.65
						c1.35,0,2.46,1.09,2.46,2.46v3.27C199.45,45.03,198.34,46.13,196.99,46.13z M189.34,39.39c-0.56,0-1.01,0.46-1.01,1.02v3.27
						c0,0.56,0.45,1.01,1.01,1.01h7.65c0.56,0,1.01-0.45,1.01-1.01v-3.27c0-0.56-0.45-1.02-1.01-1.02H189.34z"/>
				</g>
			</g>
			<g>
				<path class="st8" d="M218.37,37.95c0,0,0.25-7.48-2.78-15.58c1.05,0.26,4.97,0,5.99,5.53
					C222.56,33.11,222.29,37.95,218.37,37.95z"/>
				<path class="st8" d="M183.13,38.08c0,0-0.26-7.61,2.77-15.71c-1.04,0.26-4.96,0-5.99,5.53
					C178.94,33.11,179.21,38.08,183.13,38.08z"/>
			</g>
			<g>
				<rect x="167.46" y="209.29" class="st2" width="66.17" height="6"/>
				<rect x="171.26" y="183.26" class="st2" width="60.25" height="4.04"/>
				<g>
					<g>
						<g>
							<path class="st2" d="M152.16,337.75l17.12-158.41c0.32-2.97,1.98-5.23,3.69-5.04c1.72,0.18,2.85,2.73,2.53,5.7l-17.12,158.42
								L152.16,337.75z"/>
							
								<rect x="158" y="210.28" transform="matrix(0.1078 -0.9942 0.9942 0.1078 -62.6949 358.9461)" class="st9" width="21.27" height="8.25"/>
							
								<rect x="164.79" y="220.85" transform="matrix(0.1078 -0.9942 0.9942 0.1078 -74.2208 367.2451)" class="st1" width="5.4" height="8.24"/>
							
								<rect x="167.07" y="199.71" transform="matrix(0.1068 -0.9943 0.9943 0.1068 -51.0141 350.8731)" class="st1" width="5.41" height="8.25"/>
						</g>
						<polygon class="st1" points="151.61,330.52 159.74,330.52 162.7,339.75 148.66,339.75 						"/>
					</g>
					<g>
						<g>
							<path class="st2" d="M249.59,337.75l-17.12-158.41c-0.32-2.97-1.97-5.23-3.69-5.04c-1.72,0.18-2.85,2.73-2.53,5.7
								l17.12,158.42L249.59,337.75z"/>
							
								<rect x="228.99" y="203.77" transform="matrix(0.9942 -0.1078 0.1078 0.9942 -21.751 26.375)" class="st9" width="8.25" height="21.27"/>
							<polygon class="st1" points="230.45,228.1 238.64,227.21 238.07,221.85 229.87,222.73 							"/>
							
								<rect x="227.85" y="201.13" transform="matrix(0.9943 -0.1068 0.1068 0.9943 -20.4374 25.9337)" class="st1" width="8.25" height="5.41"/>
						</g>
						<polygon class="st1" points="250.14,330.52 242.01,330.52 239.06,339.75 253.1,339.75 						"/>
					</g>
				</g>
			</g>
		</g>
		<g>
			<g>
				<path class="st4" d="M118.27,274.23c-1.16,10.3-5.81,30.74-5.27,41.09c0.16,3.34,1.7,8.66,2.79,13.42v0.06
					c0.33,1.6,0.6,3.07,0.77,4.44c0.05,0.44,0.11,0.77,0.11,1.16c0.05,0.37,0.05,0.71,0.05,1.04c0,1.42-2.3,3.83-3.67,4.32h-7.89
					c-1.26-0.49-3.34-3-3.34-4.32c0-1.65,0.32-4.6,0.65-7.84c0.49-4.11,1.04-8.71,1.15-11.39c0.55-18.42,0.21-64.72,0.05-81.38
					c0-0.76,0-1.47-0.05-2.13c0-2.52,0-3.94,0-3.94l15.78,0.27c0.05,0.32,0.11,1.64,0.05,3.67c0,0.66,0.05,1.32,0.05,2.13
					C119.52,244.97,119.2,265.68,118.27,274.23z"/>
				<path class="st1" d="M116.72,335.43c0,1.42-2.3,3.84-3.67,4.33h-7.89c-1.26-0.49-3.34-3.01-3.34-4.33c0-1.64,0.32-4.6,0.65-7.84
					c0.11,4.27,3.23,6.41,7.13,6.41c3.56,0,5.58-2.57,6.18-5.26C116.35,331.26,116.72,333.61,116.72,335.43z"/>
			</g>
			<g>
				<path class="st4" d="M100.79,335.43c0,1.32-2.07,3.83-3.34,4.32h-7.89c-1.37-0.49-3.67-2.9-3.67-4.32c0-0.33,0-0.67,0.05-1.04
					c0-0.39,0.05-0.72,0.11-1.16c0.16-1.37,0.44-2.84,0.77-4.44v-0.06c1.04-4.76,2.57-10.08,2.74-13.42
					c0.54-10.35-4.11-30.79-5.21-41.09c-0.93-8.55-1.25-29.16-1.25-39.4v-2.13c0.05-2.03,0.05-3.35,0.11-3.67l15.78-0.27
					c0,0,0,1.42-0.05,3.94v2.13c-0.16,16.66-0.49,62.95,0.05,81.38c0.05,2.68,0.66,7.28,1.15,11.39v0.21
					C100.46,330.94,100.79,333.84,100.79,335.43z"/>
				<path class="st1" d="M85.87,335.43c0,1.42,2.3,3.84,3.67,4.33h7.89c1.26-0.49,3.35-3.01,3.35-4.33c0-1.64-0.33-4.6-0.67-7.84
					c-0.11,4.27-3.23,6.41-7.12,6.41c-3.56,0-5.6-2.57-6.19-5.26C86.25,331.26,85.87,333.61,85.87,335.43z"/>
			</g>
			<g>
				<path class="st4" d="M114.93,64.87c-3.34-0.77-6.05-2.9-6.05-4.73v-4.26c0-1.18,0-2.09,0-2.09H94.81v6.35
					c0,1.84-2.71,3.96-6.05,4.73c-0.74,0.17,6.14,5.31,13.09,5.27C108.35,70.09,114.93,64.87,114.93,64.87z"/>
				<polygon class="st4" points="88.77,64.87 78.67,67.39 101.79,93.25 124.97,67.39 114.93,64.87 				"/>
				<path class="st3" d="M80.68,30.37c0-14.64,9.48-23.97,21.18-23.97s21.18,9.33,21.18,23.97c0,14.65-9.48,10.99-21.18,10.99
					S80.68,45.02,80.68,30.37z"/>
				<path class="st3" d="M123.03,30.37c-0.07,2.59-0.23,17.16-11.48,29.53c4.44-15.52-2.37-31.38-2.37-31.38L123.03,30.37z"/>
				<path class="st3" d="M80.66,30.37c0.07,2.59-0.79,16.69,11.48,29.53c-4.44-15.52,2.37-31.38,2.37-31.38L80.66,30.37z"/>
				<g>
					<path class="st4" d="M116.45,32.36c0.51-1.1,0.63-2.03,1.4-2.07c1.3-0.07-0.79,10.75-2.18,11.77
						C115.03,40.59,116.45,32.36,116.45,32.36z"/>
					<path class="st4" d="M87.2,32.36c-0.51-1.1-0.64-2.03-1.4-2.07c-1.29-0.07,0.78,10.75,2.17,11.77
						C88.62,40.59,87.2,32.36,87.2,32.36z"/>
				</g>
				<path class="st4" d="M117.2,24.86c-0.32-3.05-0.72-12.78-15.35-12.78c-0.03,0-0.07,0-0.11,0c-14.52,0.06-14.93,9.73-15.25,12.78
					c-0.32,3.05,1.75,19.37,3.44,23.71c1.68,4.3,8.38,9.14,11.81,9.23c0.03,0,0.07,0.02,0.11,0.02c3.37,0,10.22-4.91,11.91-9.24
					C115.46,44.23,117.52,27.92,117.2,24.86z"/>
				<path class="st3" d="M118.33,28.68V16.45c-1.44-1.25-4.29-4.77-5.98-5.64H91.36c-0.7,0.35-1.57,1.14-2.47,2.05
					c1.65,4.86,5.72,8.69,11.15,11.41c0.26,0.19,0.57,0.31,0.91,0.43c3.4,1.6,7.29,2.75,11.42,3.49L118.33,28.68z"/>
				<path class="st3" d="M92.64,11.58c9.55-0.36,1.12,13.24-6.6,18.08C80.37,23.02,85.72,11.83,92.64,11.58z"/>
			</g>
			<path class="st10" d="M81.4,140.98c2.68-7.84,4.93-15.12,3.94-19.24c-0.65-2.68-2.08-8.54-3.56-15.5
				c-3.4-15.85-7.23-37.26-3.12-38.85c0.05,0,0.11,0,0.16-0.05l15.29-4.83l0.81,3.24h0.5l2.08,9.32l4.33,10.84l4.27-10.84l2.08-9.37
				h0.56l0.82-3.19l15.4,4.88c4.11,1.59,0.39,22.74-3,38.51c-1.1,4.94-2.09,9.38-2.86,12.49c-0.32,1.37-0.6,2.53-0.76,3.35
				c-1.98,8.44,9.36,30.24,11.06,43.12H74.27C75.14,158.29,78.55,149.3,81.4,140.98z"/>
			<g>
				<path class="st10" d="M85.44,6.43c1.33,2.71,2.75,5.97,4.2,9.52c8.07-1.23,16.29-1.23,24.36,0c1.44-3.56,2.87-6.82,4.21-9.52
					C107.88,1.31,95.77,1.31,85.44,6.43z"/>
				<g>
					<path class="st0" d="M106.13,9.28c0,2.37-1.93,4.3-4.31,4.3c-2.37,0-4.31-1.93-4.31-4.3c0-2.38,1.94-4.3,4.31-4.3
						C104.2,4.98,106.13,6.9,106.13,9.28z"/>
					<g>
						<rect x="101.19" y="6.54" class="st10" width="1.27" height="5.48"/>
						<rect x="99.09" y="8.65" class="st10" width="5.48" height="1.27"/>
					</g>
				</g>
			</g>
			<g>
				<polygon class="st11" points="97.5,75.07 90.27,80.43 90,65.97 89.94,62.85 94.27,60.6 95.42,65.75 				"/>
				<polygon class="st11" points="101.83,85.91 101.83,164.86 100.79,164.86 100.79,85.91 97.5,75.07 				"/>
			</g>
			<g>
				<polygon class="st11" points="113.66,62.85 113.61,65.92 113.34,80.43 106.1,75.07 108.18,65.7 109.34,60.6 				"/>
				<polygon class="st11" points="106.1,75.07 102.87,85.91 102.87,164.86 101.83,164.86 101.83,85.91 				"/>
			</g>
			<path class="st10" d="M129.6,168.21c0.44,17.58-8.98,64.48-8.98,64.48H81.61c0,0-8.1-46.85-7.61-64.48
				c0-0.77,0.05-1.54,0.11-2.19v-0.17c0.05-0.32,0.11-0.65,0.16-0.99h55.12c0.05,0.34,0.11,0.67,0.16,0.99v0.17
				C129.6,166.67,129.67,167.45,129.6,168.21z"/>
			<g>
				<path class="st4" d="M107.59,131.81c0,0,9.3,1.65,10.09,2.94c1.13,1.9-1.99,0.55-4.09,1.78c-0.33,4.58,12.82,8.21,13.64,10.87
					c0.82,2.62-13.28,1.28-16.17-2.41c-2.88-3.7-7.18-7.79-7.18-7.79L107.59,131.81z"/>
				<path class="st10" d="M84.07,65.94c-6.82,0.45-11.66,4.84-12.41,8.4c-0.39,1.79-2.99,43.08-3.35,44.36
					c-0.37,1.28,36.99,22.28,36.99,22.28l4.41-10.37c0,0-30.09-15.9-29.56-18.05c1.03-4.21,1.36-15.76,1.36-15.76L84.07,65.94z"/>
			</g>
			<g>
				<path class="st4" d="M162.02,88.34c0,0,7.62-4.15,7.94-5.49c0.44-1.99-1.89,0.08-4.07-0.37c-1.62-3.89,8.78-10.88,8.72-13.43
					c-0.05-2.52-11.94,2.75-13.39,6.8c-1.43,4.07-3.99,8.87-3.99,8.87L162.02,88.34z"/>
				<path class="st10" d="M119.56,65.94c6.82,0.45,11.65,4.84,12.41,8.4c0.38,1.79,8.97,29.02,9.33,30.3
					c0.37,1.28,15.49-21.04,15.49-21.04l6.26,4.5c0,0-17.08,32.63-23.43,32.63c-4.77,0-15.83-23.94-15.83-23.94L119.56,65.94z"/>
			</g>
		</g>
	</g>
</g>
</svg>
