<?xml version="1.0" encoding="utf-8"?>
<!-- Generator: Adobe Illustrator 24.1.0, SVG Export Plug-In . SVG Version: 6.00 Build 0)  -->
<svg version="1.1" id="Layer_1" xmlns="http://www.w3.org/2000/svg" xmlns:xlink="http://www.w3.org/1999/xlink" x="0px" y="0px"
	 viewBox="0 0 383.66 336.35" style="enable-background:new 0 0 383.66 336.35;" xml:space="preserve">
<style type="text/css">
	.st0{fill:#80D2EB;}
	.st1{fill:#3A3A3A;}
	.st2{fill:#0077BF;}
	.st3{fill:#EAEAEA;}
	.st4{fill:#FFDDC9;}
	.st5{fill:#4DE2AC;}
	.st6{fill:#C4C1CC;}
	.st7{fill:#EEA886;}
	.st8{fill:#3B3B40;}
	.st9{fill:#353A3D;}
	.st10{fill:#0087B0;}
	.st11{fill:#B38469;}
	.st12{fill:#1FB584;}
	.st13{fill:#959696;}
	.st14{fill:#191057;}
	.st15{fill:#2F6B8C;}
	.st16{fill:#4B6E9E;}
	.st17{fill:#A7AAB8;}
	.st18{fill:none;stroke:#959696;stroke-width:2;stroke-miterlimit:10;}
</style>
<g>
	<path class="st0" d="M318.3,9.54c-76.48-26.4-126.5,31.85-126.5,31.85S142.05-16.08,65.31,9.54C-0.18,31.4,2.88,95.25,2.88,95.25
		C8.78,211.49,191.8,333.67,191.8,333.67S374.82,211.49,380.73,95.25C380.73,95.25,385.62,32.78,318.3,9.54z"/>
	<g>
		<path class="st1" d="M256.83,299.99c0,0,2.28,4.26,3.78,5.95c1.49,1.69,7.21,4.72,7.24,9.74c0.03,5.45-9.64,3.94-13.42,3.74
			c-3.78-0.2-4.07-3.11-5.66-6.2c-1.59-3.08-3.2-2.56-3.5-5.05c-0.3-2.49,1.54-8.19,1.54-8.19H256.83z"/>
		<g>
			<path class="st2" d="M199.56,154.75c0,0,10.65-24.82,11.93-30.93c0.58-2.77,2.18-9.65,3.19-15.3c0.33-1.86,0.62-3.78,0.85-5.66
				c0,0,0-0.01,0-0.01c0.95-7.5,1.19-14.34,1.19-14.34s5.66-19.39-6.46-20.57c0,0-4.32,1.5-4.46,1.84
				c-2.04,4.77-2.84,16.92-2.92,19.55c-0.06,2.14-3.19,23.69-3.24,24.45c-0.09,1.48-3.31,9.25-5.04,15.01
				c-3.77,12.55-5.76,22.45-5.76,22.45L199.56,154.75z"/>
		</g>
		
			<rect x="169.08" y="111.68" transform="matrix(-1 -1.224647e-16 1.224647e-16 -1 392.7874 271.1399)" class="st3" width="54.63" height="47.79"/>
		<path class="st4" d="M181.63,156.51c0,0,0.31,6.44,3.78,7.55c3.46,1.12,7.23,0.12,8.82-0.86c1.59-0.98,5.61-3.81,4.11-5.59
			C193.53,151.89,181.63,156.51,181.63,156.51z"/>
		<path class="st4" d="M183.4,162.47c0,0-4.32,0.32-4.09-1.52c0.23-1.83,3.35-1.12,3.35-1.12L183.4,162.47z"/>
		<g>
			<g>
				<g>
					<path class="st4" d="M285.83,155.66c0,0,1.88,3.27,4.1,3.21c1.89-0.06,4.43,1.16,5.21,1.53c1.04,0.5,4.82,0.92,4.2,2.15
						c-0.62,1.22-6.25-0.42-7.49-0.55c-1.25-0.13,2,4.25,1.94,5.46c-0.06,1.22-7.91,5.64-9.78,2.41c-1.87-3.23-1.63-7.78-2.07-8.29
						c-0.45-0.51-1.46-2.3-1.46-2.3L285.83,155.66z"/>
				</g>
			</g>
		</g>
		<g>
			<g>
				<path class="st4" d="M293.54,166.62c0,0,5.03,10.23,4.76,11.16c-0.26,0.93-0.86,1.13-1.37,0.19c-0.51-0.94-5.16-9.76-5.16-9.76
					s3.81,12.98,3.77,13.79c-0.02,0.47-1.15,0.94-1.48,0.46c-0.32-0.48-4.88-13.17-4.88-13.17s3.54,12.13,3.29,12.79
					c-0.22,0.58-1.38,0.76-1.7-0.13c-0.33-0.88-4.28-11.99-4.28-11.99s1.99,8.96,1.42,9.4c-0.35,0.27-1.3,0.71-1.74-1.62
					c-0.44-2.33-2.08-7.73-2.08-7.73L293.54,166.62z"/>
			</g>
		</g>
		<g>
			<path class="st1" d="M199.26,299.5c0,0-4.66,5.2-9.39,6.29c-4.73,1.09-8.04,2.48-8.08,5.47c-0.04,2.99,13.61,4.95,19.03,1.94
				c8.08-4.49,8.9-3.14,9.8-5.38c0.9-2.25-1.08-8.25-1.02-8.96C209.68,297.97,199.26,299.5,199.26,299.5z"/>
		</g>
		<g>
			<path class="st0" d="M199.79,297.01c0,0-0.62,2.44-0.52,2.49c0.09,0.05,10.66,1.31,10.34-0.64c-0.26-1.59-0.63-3.31-0.63-3.31
				L199.79,297.01z"/>
		</g>
		<g>
			<path class="st0" d="M246.95,298.35c0,0-0.44,2.33-0.36,2.38c0.09,0.06,10.72,1.95,10.66,0.02c-0.05-1.53-0.98-3.32-0.98-3.32
				L246.95,298.35z"/>
		</g>
		<g>
			<path class="st2" d="M209.4,151.1c0,0-3.84,37.33-5.84,50.11c-2.34,14.94-3.13,27.29-3.78,35.02
				c-0.82,9.73-0.98,57.57-1.55,60.42c-0.57,2.84,12.73,0.79,12.73,0.79s6.55-62.52,8.99-72.88c2.27-9.65,10.71-51.17,12.79-48.54
				c2.07,2.63,4.65,48.46,6.18,56.07c1.54,7.61,6.21,67.16,6.21,67.16s10.59,2.11,13.41-0.28c0,0,1.28-51.33,0.3-65.59
				c-0.37-5.44,6.37-65.17-2.28-89.22C251.99,131.45,209.4,151.1,209.4,151.1z"/>
		</g>
		<g>
			<path class="st3" d="M284.42,156.35c0,0-2.89,3.34-5.6,2.84c-2.72-0.5-14.07-35.13-14.18-42.06c-0.08-5.62-3.16-20.46-3.16-20.46
				s0,0.01,0,0.02c0,0,0,0.01,0,0.02c0,0.01,0,0.02,0,0.02c-0.3,1.11-4.46,16.51-4.6,23.91c-0.15,7.68,0.46,34.1,0.46,34.1
				l-10.29,2.75l-32.85,0.31l-7.5-3.06c0,0,0.82-8.49,1.12-14.46c0.19-3.79,0.93-10.58,0.74-17.2c0,0,0.12-6.97-0.57-9.97
				c-0.07-13.25-0.88-26.37-0.88-26.37c-0.44-6.01-0.75-11.62-0.93-16.87c1.45-0.77,3.19-1.66,4.59-2.33
				c4.32-2.05,10.33-4.82,14.19-6.59c2.26-1.04,4.47-1.8,4.47-1.8s15.42-1.48,16.67-1.4c0.4,0.02,2.32,0.7,4.85,1.66
				c5.47,2.08,16.01,6.3,17.69,7.51c2.46,1.76,7.67,43.65,7.9,46.58C276.95,118.79,284.42,156.35,284.42,156.35z"/>
		</g>
		<path class="st2" d="M207.68,151.94c0,0,22.57,1.92,42.33,0v6.49c0,0-29.43,2.81-43.32-1.24L207.68,151.94z"/>
		<g>
			<path class="st2" d="M205.81,69.78c0.17,5.33,0.43,11.04,0.88,17.16c0,0,0.43,14.94,1.29,29.12c0.29,2.03,0.44,4.11,0.28,6.23
				c-0.21,2.77-0.51,5.8-0.88,8.96c0,0.04-0.01,0.08-0.01,0.12c-0.09,0.75-0.18,1.5-0.27,2.26c0,0.01,0,0.02,0,0.03
				c-1.92,15.79-5.17,33.91-6.86,39.39c-0.36,1.14,0.88,2.2,1.76,3.02l6.17,3.89c0,0,2.54-23.43,3.39-31.38
				c0.81-7.68,3.38-17.97,4.5-27.99v0c1.42-12.72,3.39-25.18,4.44-32.59c2.75-19.28,6.43-27.9,6.43-27.9
				C225.17,60.63,205.81,69.78,205.81,69.78z"/>
		</g>
		<g>
			<path class="st2" d="M264.16,117.45c0.48,6.43,12.24,43.98,13.81,43.82c2.74-0.29,11.97-3.19,11.97-3.19s-11.37-38.17-11.77-42.2
				c-0.29-2.93-4.95-46.85-7.41-48.61c-1.42-1.02-11.95-4.75-17.12-6.79c-0.95-0.37-4.06-1.55-4.91-1.87
				c-1.1,1.22-8.76,9.52-11.43,41.03c-0.45,5.31,0.97,16.56,1.92,25.74c1.01,9.79,2.13,17.44,2.95,25.62
				c1.62,16.13,2.75,28.97,2.75,28.97l16.06-7.15c2.6-1.3,6.2-6.63,5.22-9.37c-3.71-10.4-8.39-28.16-8.39-37.28
				c0,0,1.79-22.34,3.21-27.25C261.02,98.91,263.56,109.27,264.16,117.45z"/>
		</g>
		<path class="st4" d="M236.54,18.57c0,0-16.1-5.96-15.09,15.44c1.01,21.39,4.78,23.57,15.37,20.58
			c10.59-2.99,11.48-16.49,12.86-22.99C251.05,25.1,241.8,19.5,236.54,18.57z"/>
		<path class="st1" d="M247.43,42.21c0,0,0.05-5.71-2.33-6.24c-2.38-0.53-3.6,2.78-3.6,2.78l-1.91-0.1c0,0,1.71-5.79-0.56-7.12
			c-2.27-1.33-15.82-0.16-17.52-2.11c-1.7-1.95,0.77-13.53,4.46-14.67c3.7-1.14,13.8-3.44,20.21,2.27c0,0,5.58,0.11,5.8,4.65
			C252.22,26.21,249.37,39.11,247.43,42.21z"/>
		<path class="st4" d="M242.41,33.54c0.71-1.89,4.73-1.65,4.31,1.34c-0.41,2.99-3.73,7.59-5.06,6.73
			C240.33,40.75,241.43,36.14,242.41,33.54z"/>
		<g>
			<g>
				<path class="st4" d="M244.66,59.4c0,0-1.42-1.17,0.62-11.88c0.55-2.87-15.11,3.42-15.11,3.42s0.13,2.35,0.11,4.7
					c0,1.06-0.04,2.11-0.13,2.96c-0.06,0.64-0.44,1.76-0.57,2.07C228.87,62.3,238.87,63.55,244.66,59.4z"/>
			</g>
		</g>
		<path class="st5" d="M233.93,64.95l-2.85,3.83c0,0,1.67,2.24,4.63,0.59L233.93,64.95z"/>
		<path class="st5" d="M231.9,68.93c0,0-10.57,40.69-8.39,72.37l3.56,6.27l3.33-6.57c0,0,0.91-56.66,3.81-72.17L231.9,68.93z"/>
		<path class="st4" d="M230.88,61.38l3.05,3.57c0,0,4.9-0.95,6.33-3.51C241.7,58.89,230.88,61.38,230.88,61.38z"/>
		<path class="st6" d="M230.18,58.26c0,0,0.35,2.72,3.75,6.69l-3.71,4.98l-2.01-10.33L230.18,58.26z"/>
		<path class="st6" d="M244.21,55.47c0,0-5.32,7.52-10.27,9.48l2.3,5.7l10.52-12.72L244.21,55.47z"/>
	</g>
	<g>
		<path class="st7" d="M288.18,99.82c0,0-1.37-3.37,0.51-3.82l0.71,3.02L288.18,99.82z"/>
		<g>
			<g>
				<g>
					<path class="st1" d="M293.34,311.28c0,0-7.27,3.4-7.22,4.52s1.11,2.7,1.95,2.67c0.85-0.04,12.5,0.22,13.6-0.6
						c1.09-0.82,5.39-8.99,8.12-9.53c2.73-0.54,6.46-4.8,3.31-9.46C309.95,294.21,298.26,310.6,293.34,311.28z"/>
				</g>
			</g>
			<g>
				<g>
					<path class="st7" d="M307.68,296.78c0,0-5.21,3.97-6.96,7.44c-1.75,3.47-8.7,7.58-8.46,8.21c0.24,0.62,6.68,0.98,8.68-1.58
						c2-2.56,9.04-9.57,11.1-10.65c2.07-1.08,0.35-1.15,0.35-1.15L307.68,296.78z"/>
				</g>
			</g>
			<g>
				<path class="st7" d="M307.68,296.78c0,0,3.32-6.88,3.58-9.17c0.26-2.29,6.68,2.44,1.74,11.9L307.68,296.78z"/>
			</g>
			<g>
				<g>
					<path class="st8" d="M312.73,306.5l-1.69,10.82l-1.13,0.05l-0.12-9.03C309.79,308.34,312.19,306.01,312.73,306.5z"/>
				</g>
			</g>
		</g>
		<g>
			<path class="st1" d="M314.5,157.29c0,0-7.58,36.7-9.97,45.74c-2.39,9.04-4.65,22.47-4.92,27.79c-0.27,5.32,1.46,10.64,1.6,13.43
				c0.13,2.79,3.99,52.92,3.99,52.92s8.61,1.15,9.67,0.35c1.06-0.8,6.95-41.04,4.96-56.87c-1.99-15.82,1.86-20.34,7.18-27.79
				c5.32-7.45,14.23-35.64,13.96-38.96c-0.27-3.32-4.39-40.95-4.39-40.95S320.19,111.75,314.5,157.29z"/>
		</g>
		<g>
			<g>
				<path class="st1" d="M354.97,302.98c0,0-5.71,9.67-8.11,11.25c-3.27,2.14-1.22,4.31,0.33,4.31c1.55,0,9.48,0.57,11.23-1.41
					c1.75-1.98,2.61-7.93,4.24-9.48c1.63-1.55,3.11-7.29-0.79-9.23C357.58,296.28,354.97,302.98,354.97,302.98z"/>
			</g>
		</g>
		<g>
			<g>
				<path class="st7" d="M357.11,297.91c0,0-6.2,12.14-7.33,13.81c-1.13,1.67,2.12,1.67,4.13,0.88c2.01-0.79,7.23-8.85,7.8-10.4
					c0.57-1.55,0.15-3.79,0.15-3.79L357.11,297.91z"/>
			</g>
		</g>
		<g>
			<g>
				<polygon class="st8" points="364.06,304.82 362.55,316.43 361.75,316.46 362,308.11 				"/>
			</g>
		</g>
		<g>
			<path class="st7" d="M357.11,297.91c0,0,0.71-4.97-0.29-9.11c-1-4.14,6.78-1.15,6.78-1.15s0.32,6.46-1.73,10.76
				C359.81,302.71,357.11,297.91,357.11,297.91z"/>
		</g>
		<g>
			<path class="st9" d="M369.09,143.74c0,0,0.86,32.17-1.4,43.6c-2.26,11.44-5.85,32.05-5.45,37.23c0.4,5.19,0.59,9.16,2.26,13.43
				c0.98,2.51,4.76,21.81-1.26,58.75l-7.78,0.35c0,0-5.32-38.1-6.39-48.73c-1.06-10.64-3.46-17.55-3.46-20.88
				c0-3.32-9.04-31.65-8.64-44.01c0.4-12.37-3.34-38.09-0.01-44.55C344.67,123.95,369.09,143.74,369.09,143.74z"/>
		</g>
		<g>
			<polygon class="st3" points="345.11,69.08 354.62,142.93 316.02,142.21 318.25,77.24 328.5,70.2 328.67,79.15 332.68,70.3 
				339.47,79.67 			"/>
		</g>
		<g>
			<g>
				<path class="st10" d="M308.55,60.82c0,0,6.28,0.9,8.58,2.89c2.29,1.99,10.27,4.09,10.27,4.09l-12.86,6.88L308.55,60.82z"/>
			</g>
		</g>
		<g>
			<path class="st11" d="M353.26,35.64c0,0,10.44,0.23,7.35,9.91c-3.09,9.68-14.46,13.37-18.95,7.79
				C337.17,47.76,353.26,35.64,353.26,35.64z"/>
		</g>
		<g>
			<path class="st1" d="M316.56,146.99c0,0,33.28,1.5,37.16,1.1c3.89-0.4-5.32-5.15-5.32-5.15l-29.48-0.67L316.56,146.99z"/>
		</g>
		<g>
			<g>
				<path class="st4" d="M331.79,16.48c0,0-9.57,6.52-9.31,21.81c0.27,15.29,7.18,16.62,17.68,12.9
					c10.5-3.72,14.63-24.6,12.37-28.65C350.27,18.47,344.95,12.22,331.79,16.48z"/>
			</g>
		</g>
		<g>
			<path class="st12" d="M344.15,58.49c0,0,5.32,4.25,7.85,4.92c2.53,0.66,11.97,4.65,12.63,6.78c0.66,2.13,12.63,36.57,12.5,38.56
				c-0.13,1.99-40.69,32.05-41.62,32.18c-0.93,0.13-6.12-7.31-6.12-7.31l13.83-11.83c0,0-3.32-18.22-3.99-25.53
				c-0.66-7.31-0.4-25.53,1.2-29.65C342.03,62.48,344.15,58.49,344.15,58.49z"/>
		</g>
		<g>
			<path class="st12" d="M366.14,118.23c0,0-0.45,10.74,0.61,14.33c1.06,3.59,6.52,33.77,7.05,34.84
				c0.53,1.06-16.36-1.06-21.54-13.16c-5.19-12.1-7.85-29.39-7.58-30.85C344.95,121.92,366.14,118.23,366.14,118.23z"/>
		</g>
		<g>
			<path class="st12" d="M329.39,59.96c0,0-10.11,17.02-10.11,29.25c0,12.23,3.45,20.88,3.19,25.4c-0.26,4.52-3.72,35.5-7.31,43.08
				c-3.59,7.58-11.44,11.44-11.44,11.44s7.05-17.15,8.51-31.38c1.46-14.23-2.66-51.33-2.66-51.33s0.27-12.9,2.93-14.76
				c2.66-1.86,8.38-4.65,10.77-6.52C325.67,63.28,329.39,59.96,329.39,59.96z"/>
		</g>
		<g>
			<polygon class="st13" points="329.39,59.96 328.5,70.2 320.84,78.56 325.28,63.51 			"/>
		</g>
		<g>
			<g>
				<path class="st4" d="M332.68,70.3l-4.02,8.86l-0.17-8.96l0.9-10.24c0,0,0.78-0.67,1.15-3.32c0.14-0.96,0.22-2.17,0.2-3.71
					c-0.13-7.3-0.06-1.83-0.15-2.88c-0.71-8.28,13.56-2.59,13.56-2.59s-1.2,6.42,0,11.04C345.35,63.11,332.68,70.3,332.68,70.3z"/>
			</g>
		</g>
		<g>
			<g>
				<g>
					<path class="st10" d="M320.02,108.29c0,0,8.64,9.84,9.18,11.1c0.53,1.26-16.16-7.65-16.16-7.65L320.02,108.29z"/>
				</g>
			</g>
		</g>
		<g>
			<path class="st13" d="M328.67,79.15c-0.18,0.27-4.44,6.05-2.14,17.65c1.89,9.55,2.56,28.21,2.85,36.18
				c0.06,1.66,0.1,2.87,0.14,3.44l0.76-0.05c-0.03-0.56-0.08-1.76-0.14-3.42c-0.29-7.99-0.96-26.69-2.86-36.3
				C325.05,85.41,328.61,79.24,328.67,79.15L328.67,79.15z"/>
		</g>
		<g>
			<path class="st14" d="M294.37,112.37c0,0,0.66,17.75,9.36,20.35c8.7,2.59,20.98,5.19,23.67,5.09c2.69-0.1,3.09,1.2,3.09,1.2
				s0,8.68-0.6,11.37c-0.6,2.69-4.54,9.08-3.67,11.97c0.87,2.89,10.31,6.68,12.04,4.49c1.74-2.19-2.89-6.08-3.69-7.18
				c-0.8-1.1,5.8-18.18,6.69-22.71c0.89-4.52,2.35-12.6-5.96-15.99c-8.31-3.39-21.01-9.21-21.01-9.21L294.37,112.37z"/>
		</g>
		<g>
			<g>
				<path class="st4" d="M292.83,33.99c0,0-7.78,4.82-7.51,13.07c0.27,8.24,5.45,16.16,14.69,14.49c9.24-1.66,8.04-14.89,8.54-16.62
					C309.05,43.2,308.25,32.53,292.83,33.99z"/>
			</g>
		</g>
		<g>
			<g>
				<path class="st4" d="M308.55,60.82c-4.29,13.56-14.14,2.82-13.66,2.79c0.1-0.01,0.18-0.14,0.24-0.35
					c0.12-0.42,0.15-1.15,0.16-1.71c0.01-0.45,0-0.8,0-0.8s11.1-7.7,11.16-4.31C306.51,59.82,308.55,60.82,308.55,60.82z"/>
			</g>
		</g>
		<g>
			<path class="st1" d="M307.32,54.15c0,0-1.51-5.27-3.59-6.34c-2.08-1.07-2.86,1.5-4.06-0.62c-1.2-2.13-6.64-7.49-13.89-3.98
				c0,0-0.8-9.39,10.3-10.45c11.1-1.06,13.23,5.65,13.63,9.44C310.11,46,308.47,52.55,307.32,54.15z"/>
		</g>
		<g>
			<path class="st11" d="M346.95,45.55c0,0,2.38-7.74,0.66-10.33c-1.73-2.59-2.92,0.11-6.51-2.57c-3.59-2.68-16.03-1.38-17.06-4.89
				c-1.03-3.51,6.02-18.74,20.91-13.28C359.84,19.93,355.53,36.8,346.95,45.55z"/>
		</g>
		<g>
			<g>
				<path class="st4" d="M344.23,32.23c0.78-1.49,4.28-2.71,4.67,0.6c0.4,3.3-2.89,6.25-4.95,5.85
					C341.89,38.28,343.67,33.3,344.23,32.23z"/>
			</g>
		</g>
		<g>
			<path class="st4" d="M302,45.55c0.2-0.76,2.46-2.24,3.39,0c0.93,2.24-1.27,5.56-2.93,4.1C300.8,48.19,302,45.55,302,45.55z"/>
		</g>
		<g>
			<g>
				<path class="st10" d="M308.55,60.82c0.22-0.46,2.82,0.51,5.15,3.99c2.61,3.89,3.32,8.68,3.62,10.57
					c0.3,1.89-3.42,12.96-0.76,19.25c2.66,6.28,4.16,8.48,3.46,13.66c-0.7,5.19-24.63,5.58-26.13,3.79
					c-1.5-1.8-6.38-15.46-6.08-25.83c0.3-10.37-3.69-12.57-2.99-13.46c0.7-0.9,9.08-9.97,10.07-9.17
					C295.88,64.41,303.96,70.5,308.55,60.82z"/>
			</g>
		</g>
		<g>
			<path class="st10" d="M284.02,89.24c-6.99,2.88-16.05,5.31-19.32,7.07c-0.46,0.25-0.81,0.48-1.02,0.71
				c-1.7,1.8-4.59,6.28-8.08,6.48c-3.49,0.2-4.39-4.39-1-8.38c3.39-3.99-2.29-2.79,0.7-4.39c2.79-1.49,4.98,0.85,7.37-0.22
				c0.17-0.08,0.34-0.17,0.51-0.28c2.59-1.7,11.17-7.48,14.96-9.27c3.79-1.8,3.59-6.68,6.68-8.18c0,0,6.48-1.1,6.88,4.79
				C292.1,83.46,292,85.95,284.02,89.24z"/>
		</g>
		<g>
			<g>
				<path class="st4" d="M264.69,96.32c-0.46,0.25-0.81,0.48-1.02,0.71c-1.7,1.8-4.59,6.28-8.08,6.48c-3.49,0.2-4.39-4.39-1-8.38
					c3.39-3.99-2.43-2.86,0.7-4.39c2.84-1.39,4.98,0.85,7.37-0.22C262.73,90.61,264.81,93.41,264.69,96.32z"/>
			</g>
		</g>
		<g>
			<g>
				<path class="st4" d="M329.84,134.26c0,0-0.92,1.16-2.98,0.83c-2.06-0.33-5.25-3.92-7.18-4.06c-1.93-0.13,1.4,2.26,1.46,3.26
					c0.07,1,0.73,1.73-0.86,1.73c-1.6,0-9.97-3.79-11.7-3.52c-1.73,0.27-0.6,1.03-0.6,1.03s-1.99-0.56-2.13,0.77
					c-0.13,1.33,7.85,6.18,8.71,6.38c0.86,0.2,7.65,1.93,12.63,0.6c4.99-1.33,8.11-2.13,8.11-2.13L329.84,134.26z"/>
			</g>
		</g>
		<g>
			<path class="st12" d="M329.39,133.62c0,0,5.12,7.51,6.12,7.31c1-0.2,22.41-16.38,22.41-16.38l-13.25-3.6l-1.44,0.83
				L329.39,133.62z"/>
		</g>
		<path class="st4" d="M288.95,97.33c0,0-2.59,3.85-1.11,8.43c1.48,4.58,6.2,7.02,6.16,6.36
			C293.97,111.46,289.8,101.35,288.95,97.33z"/>
		<g>
			<g>
				<polygon class="st13" points="344.15,58.49 332.68,70.3 339.47,79.67 348.94,61.9 				"/>
			</g>
		</g>
	</g>
	<g>
		<g>
			<g>
				<g>
					<g>
						<g>
							<path class="st4" d="M161.87,98.61c0,0,3.78-1.19,4.08-3.43c0.26-1.91,1.97-4.18,2.49-4.88c0.7-0.94,1.79-4.62,2.98-3.75
								c1.19,0.87-1.49,6.16-1.84,7.38c-0.34,1.22,4.83-1.1,6.11-0.78c1.28,0.32,4.64,9.1,0.91,10.28c-3.73,1.18-8.5-0.02-9.12,0.32
								c-0.62,0.34-2.68,0.97-2.68,0.97L161.87,98.61z"/>
						</g>
					</g>
				</g>
			</g>
			<g>
				<g>
					<g>
						<path class="st4" d="M174.76,93.22c0,0,11.67-2.86,12.6-2.4c0.94,0.46,1.05,1.1-0.02,1.41c-1.08,0.31-11.19,3.09-11.19,3.09
							s14.38-1.07,15.23-0.86c0.5,0.12,0.8,1.35,0.24,1.57c-0.56,0.22-14.75,2.1-14.75,2.1s13.43-0.97,14.09-0.59
							c0.58,0.34,0.57,1.53-0.42,1.68c-0.99,0.14-13.4,1.75-13.4,1.75s9.82-0.09,10.18,0.56c0.22,0.4,0.53,1.45-2,1.4
							c-2.53-0.06-8.52,0.44-8.52,0.44L174.76,93.22z"/>
					</g>
				</g>
			</g>
			<g>
				<path class="st3" d="M168.14,108.15c0,0-32.64,7.24-39.13,5.64c-3-0.74-6.96-4.88-10.71-9.76c-1.24-1.6-2.45-3.29-3.61-4.96
					c0,0,0-0.01,0-0.01c-4.61-6.66-8.22-13.04-8.22-13.04s-13.63-15.97-2.69-23.09c0,0,3.97-1.49,7.61,2.42
					c3.65,3.91,7.93,12.08,8.88,14.16c0.96,2.08,14.34,21.39,15.03,21.82c0.69,0.43,6.54-1.1,11.23-1.49
					c7.65-0.64,19.09-4.53,19.09-4.53L168.14,108.15z"/>
			</g>
			<g>
				<path class="st1" d="M121.2,303.39c0,0,5.05,5.3,10.17,6.41c5.12,1.11,8.71,2.53,8.75,5.57c0.04,3.04-14.75,5.05-20.61,1.98
					c-8.75-4.58-9.64-3.2-10.61-5.48c-0.97-2.29,1.17-8.4,1.1-9.13C109.93,301.83,121.2,303.39,121.2,303.39z"/>
			</g>
			<g>
				<path class="st15" d="M120.64,300.85c0,0,0.67,2.48,0.57,2.54c-0.1,0.05-11.55,1.34-11.2-0.66c0.28-1.62,0.68-3.37,0.68-3.37
					L120.64,300.85z"/>
			</g>
			<g>
				<path class="st1" d="M64.19,304.77c0,0,3.71,5.16,8.68,6.35c4.9,1.17,8.07,3.41,8.31,6.36c0.24,2.96-11.55,6.83-19.83,1.63
					c-5.44-3.41-7.47-3.22-8.57-5.39c-1.1-2.17,0.57-8.24,0.46-8.95C53.12,303.92,64.19,304.77,64.19,304.77z"/>
			</g>
			<g>
				<path class="st15" d="M64.04,302.22c0,0,0.24,2.5,0.15,2.55c-0.09,0.06-11,1.99-10.94,0.02c0.05-1.56,0.69-3.51,0.69-3.51
					L64.04,302.22z"/>
			</g>
			<g>
				<path class="st16" d="M109.09,151.73c0,0,5.3,38.51,7.47,51.53c2.53,15.22,3.39,27.8,4.1,35.68c0.89,9.91,2.07,60.62,2.69,63.52
					c0.62,2.9-15.44,1.39-15.44,1.39s-8.41-66.11-11.06-76.66c-2.46-9.83-9.63-52.27-11.88-49.59c-2.25,2.68-9.13,50.76-10.79,58.51
					c-1.66,7.75-6.13,68.76-6.13,68.76s-15.15,2.43-18.2,0c0,0,2.39-54.4,3.45-68.93c0.4-5.54-3.5-66.29,5.86-90.79
					C64.1,132.2,109.09,151.73,109.09,151.73z"/>
			</g>
			<path class="st13" d="M93.54,59.38c0,0,14.03,2.9,15.69,4.38c1.81,1.57,4.99,16.93,5.18,21.21c0.19,4.28-1.69,22.16-3.5,28.82
				c-1.81,6.66-1.48,39.45-0.33,48.67c0,0-28.25,8.02-56.02,4.41c0,0,4.66-34.5,3.54-43.62c-1.42-11.69-4.85-38.61-4.85-38.61
				s2.46-18.76,4.93-20.85c2.47-2.09,19.51-4.4,19.51-4.4H93.54z"/>
			<path class="st4" d="M87.74,16c0,0,16.87-6.24,15.82,16.18c-1.06,22.43-5.01,24.7-16.11,21.57
				c-11.1-3.13-12.03-17.29-13.48-24.09C72.53,22.85,82.22,16.98,87.74,16z"/>
			<path class="st4" d="M95.74,62.41c0,0-3.47,2.3-16.64-3.5c0,0,0.37-9.03-2.21-17.46c-2.58-8.43,17.67,11.24,17.67,11.24
				c-0.21,0.15-0.25,0.99-0.13,2.17c0.1,1,0.32,2.23,0.65,3.48C95.82,61.17,95.74,59.95,95.74,62.41z"/>
			<path class="st3" d="M76.32,40.78c0,0-0.05-5.99,2.44-6.54c2.49-0.55,3.77,2.91,3.77,2.91l2.01-0.11c0,0-1.79-6.07,0.58-7.46
				c2.37-1.39,16.58-0.17,18.37-2.21c1.78-2.04-0.8-14.18-4.68-15.37c-3.88-1.19-14.46-3.61-21.19,2.38c0,0-5.85,0.11-6.08,4.87
				C71.3,24.01,74.29,37.54,76.32,40.78z"/>
			<path class="st1" d="M94.5,65.36c0,0,2.38,3.51,3.82,12.53c1.44,9.02,1.19,24.56,1.19,24.56l-3.31,0.4c0,0-5.01-31.69-4.15-37.21
				L94.5,65.36z"/>
			<path class="st4" d="M81.58,31.7c-0.75-1.98-4.95-1.73-4.52,1.41c0.43,3.13,3.91,7.96,5.31,7.05
				C83.76,39.25,82.61,34.42,81.58,31.7z"/>
			<path class="st3" d="M109.23,63.75c0,0,8.15,10.53,5.2,38.12c-5.34,49.86,8.64,129.89,8.64,129.89l-14.42,4.51
				c0,0-13.78-102.31-10.27-139.45c1.6-16.92,6.34-22.55-1.14-36.65C97.24,60.19,104.35,60.57,109.23,63.75z"/>
			<path class="st3" d="M73.83,59.95c0,0,22.82,23.05,24.6,40.52c1.79,17.47,4.7,135.81,4.7,135.81l-54.32-3.16
				c0,0,4.99-62.47,6.21-70.28c1.22-7.81,3.74-52.68-1.76-73.5c-2.95-11.18,0.56-25.37,7.31-26.92
				C67.31,60.87,73.83,59.95,73.83,59.95z"/>
			<polygon class="st14" points="106.71,122.41 73.82,169.21 43.79,148.1 75.5,100.48 			"/>
			<polygon class="st0" points="103.13,123.8 73.92,165.36 47.24,146.61 75.41,104.32 			"/>
			<polygon class="st10" points="94.15,119.03 96.2,116.11 85.41,108.53 82.94,111.16 			"/>
			<g>
				<g>
					<g>
						<g>
							<g>
								<g>
									<path class="st4" d="M91.04,153.92c0,0-1.3-0.11-1.84-0.43c0,0-0.94-0.67-1.64-1.1c-0.22-0.14-0.42-0.25-0.55-0.31
										c-0.56-0.25-1.87-0.64-3.06-1.63c-1.18-0.99-5.18-6.55-5.18-6.55l2.39-3.02l1.84-3.14c0,0,9.31,1.44,10.52,2.23
										c0.12,0.08,0.23,0.16,0.33,0.24c0.96,0.77,1.34,1.74,1.8,2.2c0.17,0.17,1.71,1.97,1.59,2.67c-0.17,0.97-0.68,1.57-1.3,1.84
										c0,0-0.41,1.88-1.43,2.69c0,0-0.32,1.75-1.88,2.39C92.63,152.02,92.1,153.75,91.04,153.92z"/>
								</g>
							</g>
						</g>
					</g>
				</g>
			</g>
			<path class="st3" d="M79.11,56.41c0,0,6.88,4.15,13.69,5.09l-3.62,5.78l-11.48-7.9L79.11,56.41z"/>
			<path class="st3" d="M95.08,58.35c0,0-0.73,2.38-2.28,3.16l3.4,4.74l-0.12-6.29L95.08,58.35z"/>
			<path class="st1" d="M92.8,61.5l2.69,3.76c0,0-1.7,2.16-5.38,0.52L92.8,61.5z"/>
			<path class="st17" d="M62.3,95.97c0,0-2.65,17.24-2.46,18.35C60.02,115.42,47.84,110.85,62.3,95.97z"/>
			<path class="st3" d="M67.16,64.02C69,64.73,69.7,68,68.94,77.46c-0.76,9.46-4.09,13.82-5.33,16.01
				c-1.24,2.19-8.08,15.68-6.85,17.46c1.23,1.78,12.83,13.22,13.51,14.16c0.67,0.93,13.63,12.66,13.63,12.66l-6.6,9.22
				c0,0-27.98-21.85-30.16-24.04c-2.18-2.18-8.71-6.77-6.29-14.39c2.45-7.75,6.86-25.88,7.64-27.3C49.27,79.82,55,59.31,67.16,64.02
				z"/>
			<rect x="103.75" y="89.8" class="st13" width="6.4" height="9.78"/>
		</g>
		<g>
			<path class="st13" d="M76.17,77.94C74.52,72.03,74.79,67.69,75,64.2c0.07-1.23,0.15-2.39,0.13-3.51l2-0.03
				c0.02,1.19-0.06,2.39-0.13,3.66c-0.21,3.52-0.46,7.5,1.1,13.09L76.17,77.94z"/>
		</g>
		<path class="st18" d="M74.13,95.67"/>
		<g>
			<path class="st13" d="M73.02,91.48c-1.54-1.74-2.39-3.98-2.39-6.31c0-5.24,4.26-9.5,9.5-9.5s9.5,4.26,9.5,9.5h-2
				c0-4.14-3.36-7.5-7.5-7.5s-7.5,3.36-7.5,7.5c0,1.84,0.67,3.6,1.89,4.98L73.02,91.48z"/>
		</g>
		<circle class="st13" cx="74.13" cy="90.67" r="2"/>
		<circle class="st13" cx="88.13" cy="84.67" r="2"/>
		<circle class="st13" cx="105.63" cy="78.17" r="2.5"/>
		<g>
			<path class="st13" d="M104.22,77.08c-3.93-8.85-7.91-15.84-7.95-15.91l0.87-0.5c0.04,0.07,4.94,6.65,8.91,15.59L104.22,77.08z"/>
		</g>
	</g>
</g>
</svg>
