<?xml version="1.0" encoding="utf-8"?>
<!-- Generator: Adobe Illustrator 24.1.0, SVG Export Plug-In . SVG Version: 6.00 Build 0)  -->
<svg version="1.1" id="Layer_1" xmlns="http://www.w3.org/2000/svg" xmlns:xlink="http://www.w3.org/1999/xlink" x="0px" y="0px"
	 viewBox="0 0 311.66 333.35" style="enable-background:new 0 0 311.66 333.35;" xml:space="preserve">
<style type="text/css">
	.st0{fill:#FFFFFF;}
	.st1{fill:#FFDDC9;}
	.st2{fill:#0087B0;}
	.st3{fill:#EAEAEA;}
	.st4{fill:#2FAFCC;}
	.st5{fill:#3A3A3A;}
	.st6{fill:#959696;}
	.st7{fill:#1FB584;}
	.st8{fill:#80D2EB;}
</style>
<g>
	<path class="st0" d="M269.49,205.37c19.4-13.17,41.01-30.45,40.15-53.88c-0.92-25.29-28.06-41.43-52.96-45.97
		c-24.9-4.54-51.66-2.74-74.09-14.47c-21.99-11.5-35.69-33.86-52.89-51.74c-17.2-17.88-43.73-32.22-66.15-21.6
		c-19.72,9.34-26.9,33.25-31.98,54.46C22.56,109.75,2.38,162.5,2.01,208.36c-0.29,35.67,11.4,67.17,49.64,84.11
		c28.14,12.46,56.64,9.84,84.32-0.48C185.26,273.61,231.98,230.83,269.49,205.37z"/>
	<g>
		<path class="st1" d="M49.23,104.02l15.19-63.2c18.85,2.13,40.32,10.97,44.79,10.61l-13,95.19
			C96.2,146.62,59.65,124.43,49.23,104.02z"/>
		<path class="st2" d="M6.76,333.4h121.85c0.85-6.35,2-20.05,2.88-32.28c3.38-46.89,2.97-127.72-32.72-171.26l-49.53-25.84
			C18.2,135.45,9.94,236.92,6.76,333.4z"/>
		<g>
			<path class="st1" d="M53.78,70.1c-2.32-9.5-2.78-20.2-1.65-30.03c7.89-44.39,38.89-37.71,55.42-35.3
				c19.2,3.66,35.57,19.36,32.29,49.19c-1.4,2.77-2.92,4.99-2.92,4.99l3.96,17.51c0.65,2.88-1.41,5.67-4.36,5.9l-4.44,0.55
				c-0.52,2.98-2.01,15.85-2.01,15.85c-1.37,7.51-7.03,17.06-16.12,15.53l-9.56-1.73c-11.43-3-26.94-19.37-23.32-38.9
				C74.15,71.8,55.48,77.07,53.78,70.1z"/>
			<path class="st3" d="M52.11,28.26c3.52-10.49,24.05-9.99,38.1-6.93c11.18,2.43,17.26,14.62,12.62,25.07
				c-2.74,6.18-5.86,13.66-7.98,24.68c-4.48-0.3-4.48-0.3-9.39-0.95c-2-3.39-7.2-15.21-7.2-15.21S90.2,91.82,61.03,80.9
				C44.38,72.67,45.13,49.09,52.11,28.26z"/>
			<path class="st1" d="M72.74,57.11c-0.99,6.99,3.76,15.9,8.34,16.55c4.57,0.65,4.87-5.09,5.93-12.07c0.7-4.62,2.8-11.03-2-13.2
				C80.8,46.49,74.19,46.86,72.74,57.11z"/>
		</g>
		<path class="st1" d="M222.93,309.39l4.47-0.45l6.51-1.64l10.58-9.4c1.48-1.32,3.55-1.54,5.24-0.74l3.43-3.05
			c1.97-1.75,4.99-1.57,6.75,0.4l0.06,0.07c0.43,0.48,0.74,1.02,0.94,1.6c1.66,0.03,3.28,0.85,4.27,2.34l0.06,0.09
			c1.57,2.4,0.9,5.61-1.49,7.18l-17.01,11.15c-0.05,0.03-0.11,0.05-0.16,0.08c-0.16,0.1-0.33,0.18-0.5,0.26
			c-0.15,0.07-0.3,0.14-0.45,0.19c-0.15,0.05-0.3,0.09-0.46,0.13c-0.19,0.05-0.37,0.09-0.56,0.12c-0.06,0.01-0.11,0.03-0.17,0.04
			l-20.22,2.12c-2.85,0.3-5.4-1.77-5.7-4.62l-0.01-0.1C218.2,312.32,220.09,309.69,222.93,309.39z"/>
		<path class="st1" d="M43.24,205.97l8.35,66.79l3.03,24.37c0.73,3.29,3.85,7.23,7.41,10.35c3.76,3.26,8.67,4.94,13.64,4.91
			l94.51-0.56l1.15-7.47l1.76-11.43l-76.23-17.67l-0.62-5.53l-6.82-69.2l-45.23,5.29L43.24,205.97z"/>
		<path class="st4" d="M37.39,159.34l4.41,35.19l0.97,7.58l0.47,3.85l0.94-0.15l39.23-4.29l7.82-0.47l-4.94-48.98
			c-1.88-15.49-7.9-26.54-23.37-24.78l-8.59,0.06C38.56,129.15,35.31,143.56,37.39,159.34z"/>
		<path class="st1" d="M170.17,311.82l17.2,3.62c11.64,5,26.46,6.79,31.78,7.29c1.29,0.12,2.53,0.32,3.44,0.32
			c1.12,0,2.82-0.12,4.79-0.24c6.38-0.44,15.37-1.32,15.37-1.32c0.06,0,21.25-8.08,21.25-8.08c2.65-1.09,3.91-4.12,2.82-6.76
			l-0.03-0.09c-1.09-2.67-4.12-3.94-6.76-2.85l-17.64,7.23l-18.87-1.53c0,0-3.29-2.29-8.14-5.29l8.91-0.41
			c2.85-0.12,5.09-2.56,4.94-5.41v-0.12c-0.12-2.85-2.56-5.09-5.41-4.94l-18.49,0.73c-1.03,0.06-2.03-0.09-3-0.35l-15.67-3.09
			c-0.06,0-0.12-0.03-0.18-0.03l-0.06-0.03c-0.38-0.06-0.76-0.12-1.15-0.18l-12.2,2.62l-1.76,11.43L170.17,311.82z"/>
		<path class="st5" d="M187.23,272.02c7,0,12.69-5.69,12.69-12.69v-65.82h-5.78v65.82c0,3.81-3.1,6.91-6.91,6.91H98.47
			c-1.83-0.02-3.58-0.77-4.91-2.1c-1.31-1.32-2.02-3.01-2-4.77l-5.78-0.07c-0.04,3.33,1.27,6.49,3.68,8.92
			c2.41,2.42,5.59,3.77,8.97,3.81H187.23z"/>
		<g>
			<rect x="190.73" y="184.92" class="st6" width="12.6" height="17.19"/>
			<path class="st5" d="M166.85,156.09c0-16.64,13.53-30.17,30.17-30.17c16.64,0,30.17,13.53,30.17,30.17s-13.53,30.17-30.17,30.17
				C180.39,186.26,166.85,172.73,166.85,156.09z M172.25,156.09c0,13.66,11.11,24.78,24.78,24.78c13.66,0,24.78-11.12,24.78-24.78
				c0-13.66-11.11-24.78-24.78-24.78C183.36,131.31,172.25,142.43,172.25,156.09z"/>
			<g>
				<path class="st7" d="M197.2,139.16c-0.06,0-0.12,0-0.18,0c-6.05,0-11.64,3.23-14.67,8.47c-0.7,1.22-1.24,2.5-1.62,3.82
					l6.22,1.77c0.23-0.82,0.57-1.61,1-2.36c1.87-3.24,5.32-5.23,9.06-5.23c0.04,0,0.07,0,0.11,0L197.2,139.16z"/>
				<path class="st1" d="M180.77,151.35c-1.28,4.38-0.75,9.16,1.59,13.2c3.03,5.24,8.62,8.47,14.67,8.47s11.64-3.23,14.67-8.47
					c3.03-5.24,3.03-11.69,0-16.93c-3.02-5.24-8.62-8.47-14.67-8.47v6.47c3.74,0,7.19,1.99,9.06,5.23c1.87,3.24,1.87,7.23,0,10.47
					c-1.87,3.24-5.32,5.23-9.06,5.23s-7.19-1.99-9.06-5.23c-1.45-2.5-1.77-5.45-0.98-8.16L180.77,151.35z"/>
				<path class="st2" d="M213.16,150.95c-0.36-1.15-0.86-2.26-1.47-3.33c-3.02-5.24-8.62-8.47-14.67-8.47v6.47
					c3.74,0,7.19,1.99,9.06,5.23c0.38,0.66,0.68,1.35,0.91,2.06L213.16,150.95z"/>
			</g>
			<g>
				<g>
					<path class="st5" d="M217.7,154.35c-0.93,0-1.69,0.75-1.69,1.69s0.75,1.69,1.69,1.69c0.93,0,1.69-0.75,1.69-1.69
						S218.63,154.35,217.7,154.35z"/>
					<path class="st5" d="M176.35,154.35c-0.93,0-1.69,0.75-1.69,1.69s0.75,1.69,1.69,1.69s1.69-0.75,1.69-1.69
						S177.28,154.35,176.35,154.35z"/>
				</g>
				<g>
					<path class="st5" d="M195.34,135.36c0,0.93,0.75,1.69,1.69,1.69c0.93,0,1.69-0.75,1.69-1.69s-0.75-1.69-1.69-1.69
						C196.09,133.67,195.34,134.43,195.34,135.36z"/>
					<path class="st5" d="M195.34,176.71c0,0.93,0.75,1.69,1.69,1.69c0.93,0,1.69-0.75,1.69-1.69s-0.75-1.69-1.69-1.69
						C196.09,175.03,195.34,175.78,195.34,176.71z"/>
				</g>
			</g>
			<g>
				<g>
					<path class="st5" d="M212.84,169.46c-0.66-0.66-1.73-0.66-2.38,0c-0.66,0.66-0.66,1.73,0,2.38c0.66,0.66,1.73,0.66,2.38,0
						C213.49,171.19,213.49,170.12,212.84,169.46z"/>
					<path class="st5" d="M183.59,140.22c-0.66-0.66-1.73-0.66-2.38,0c-0.66,0.66-0.66,1.73,0,2.38c0.66,0.66,1.73,0.66,2.38,0
						C184.25,141.95,184.25,140.88,183.59,140.22z"/>
				</g>
				<g>
					<path class="st5" d="M210.45,140.22c-0.66,0.66-0.66,1.73,0,2.38c0.66,0.66,1.73,0.66,2.38,0c0.66-0.66,0.66-1.73,0-2.38
						C212.18,139.57,211.11,139.57,210.45,140.22z"/>
					<circle class="st5" cx="182.4" cy="170.66" r="1.69"/>
				</g>
			</g>
			<g>
				<path class="st5" d="M192.2,158.63c1.4,2.66,4.7,3.69,7.36,2.28c2.66-1.4,3.69-4.7,2.28-7.36c-1.4-2.66-4.7-3.69-7.36-2.28
					S190.8,155.97,192.2,158.63z"/>
				<polygon class="st5" points="198.46,154.76 187.37,137.75 195.11,156.53 				"/>
			</g>
		</g>
		<path class="st5" d="M91.49,282.8h150.52c7.28,0,13.21-5.92,13.21-13.2v-80.68h-5.78v80.68c0,4.09-3.33,7.42-7.42,7.42H91.49
			c-8.13,0-14.75-6.62-14.75-14.75v-6.8h-5.78v6.8C70.96,273.59,80.17,282.8,91.49,282.8z"/>
		<rect x="247.01" y="216.15" class="st8" width="10.62" height="15.17"/>
		<path class="st8" d="M252.07,166.7c-9.95,0-18.02,12.33-18.02,27.53c0,15.2,8.07,27.53,18.02,27.53
			c9.95,0,18.02-12.33,18.02-27.53C270.09,179.03,262.02,166.7,252.07,166.7z"/>
		<polygon class="st5" points="41.42,202.26 49.03,273.02 51.59,272.75 58,272.05 92.24,266.73 98.75,266.55 89.39,195.82 
			84.24,196.06 43.39,202.06 42.77,202.11 		"/>
	</g>
</g>
</svg>
