<?xml version="1.0" encoding="utf-8"?>
<!-- Generator: Adobe Illustrator 24.1.0, SVG Export Plug-In . SVG Version: 6.00 Build 0)  -->
<svg version="1.1" id="Layer_1" xmlns="http://www.w3.org/2000/svg" xmlns:xlink="http://www.w3.org/1999/xlink" x="0px" y="0px"
	 viewBox="0 0 412.66 307.35" style="enable-background:new 0 0 412.66 307.35;" xml:space="preserve">
<style type="text/css">
	.st0{fill:#4DE2AC;}
	.st1{fill:#959696;}
	.st2{fill:#FFFFFF;}
	.st3{fill:#3A3A3A;}
	.st4{fill:#0F0F11;}
	.st5{fill:#2FAFCC;}
	.st6{fill:#2E3233;}
	.st7{enable-background:new    ;}
	.st8{fill:#003959;}
	.st9{fill:#80D2EB;}
	.st10{fill:#DE361F;}
	.st11{fill:#C0C2C1;}
	.st12{fill:#B38469;}
	.st13{fill:#FDFFFE;}
	.st14{fill:#EAEAEA;}
	.st15{fill:#1FB584;}
	.st16{fill:#FFDDC9;}
	.st17{fill:#FCDCC2;}
	.st18{fill:url(#XMLID_22_);}
	.st19{fill:#E7E7E6;}
	.st20{fill:#DFE5E7;}
	.st21{fill:#303435;}
	.st22{fill:#121213;}
	.st23{fill:#DBDDDF;}
	.st24{fill:#F0F1F2;}
	.st25{fill:#2A2D2E;}
	.st26{fill:#E8AD82;}
</style>
<g>
	<path class="st0" d="M406.86,77.92C395.95,30.67,343.47-2.65,296.07,7.59c-28.38,6.13-52.98,25.22-81.71,29.44
		c-48.31,7.1-95.42-29.22-143.6-21.25C34.08,21.85,4.26,56.48,3.71,93.66c-1.25,84.27,59.77,161.27,134.84,203.7
		c20.57,10.53,53.46,15.84,76.97-38.26c8.24-19.53,16.68-39.31,33.08-51.05c25.05-17.93,59.6-11.01,89.51-18.37
		C385.2,178.11,417.77,125.16,406.86,77.92z"/>
	<g id="XMLID_11068_">
		<g id="XMLID_11069_">
			<path id="XMLID_10842_" class="st1" d="M20.97,132.4c1.33-0.77,2.21-0.18,2.79,1.34L227.22,16.29
				c16.3-9.41,36.38-9.42,52.68-0.01L368,67.21c0.66,0.34,1.21,0.78,1.77,1.17l0.12-7.74c0,0,1.28,1.34,2.85,3.91
				c2.14,3.5,3.15,7.58,3.16,11.68l0.01,14.88l0,2.85c0,2.13-0.5,4.26-1.55,6.11c-2.46,4.31-5.11,6.63-5.11,6.63
				c-1.43,1.83-3.21,3.41-5.42,4.69l-0.25,0.15L155.14,231.89l-4.99,2.88c-13.58,7.84-30.33,7.87-43.87,0.02l-81.99-47.33
				c-1.88-1.06-3.48-1.87-4.81-3.37c-0.21-0.22-1.06-0.82-2.32-2.2c-0.12-0.14-0.25-0.28-0.37-0.42c-0.58-0.64-1.2-1.42-1.88-2.45
				c-0.31-0.46-0.65-0.97-0.97-1.54c-0.21-0.3-0.4-0.61-0.6-0.96c-0.42-0.73-1.59-3.34-1.69-4.24l0-4.97l-0.02-19.87
				C13.16,141.12,16.1,135.21,20.97,132.4z"/>
			<path id="XMLID_10841_" class="st2" d="M229.43,11.78l2.69-1.55c16.3-9.41,36.38-9.42,52.69-0.02l79.7,46.03
				c14.01,8.11,14,28.31,0.01,36.39L149.45,216.81c-14.18,8.19-31.65,8.18-45.81,0l-79.93-46.12c-14.58-8.42-15.39-28.76-2.44-38.49
				c0.75-0.6,1.58-1.14,2.45-1.64L229.43,11.78z"/>
			<path id="XMLID_10840_" class="st3" d="M237.95,9.69c13.56-7.83,30.31-7.86,43.88-0.01l21.83,12.6l60.15,34.73
				c12.38,7.15,12.38,25.01,0,32.16l-213.7,123.38c-3.14,1.81-6.43,3.2-9.84,4.15c-11.28,3.26-23.61,1.88-34.05-4.16l-4.45-2.57
				l-77.53-44.76c-12.37-7.13-12.37-24.99,0-32.16L237.95,9.69z"/>
			<path id="XMLID_10838_" class="st4" d="M227.8,19.56l122.25,70.79L160.15,199.98L38.08,129.29c0.69-0.55,1.44-1.04,2.23-1.49
				L227.8,19.56z"/>
			<path id="XMLID_10837_" class="st1" d="M225.86,18.58l125.89,72.9L156.16,204.39l-125.7-72.8c0.71-0.57,1.48-1.07,2.3-1.54
				L225.86,18.58z"/>
			<path id="XMLID_2098_" class="st5" d="M226.19,20.49l122.25,70.79L158.54,200.91L36.47,130.22c0.69-0.55,1.44-1.04,2.23-1.49
				L226.19,20.49z"/>
			<g id="XMLID_11085_">
				<path id="XMLID_10834_" class="st2" d="M84.08,181.68c0,2.13-2.96,3.85-6.61,3.85c-3.65,0-6.61-1.72-6.61-3.85
					c0-2.13,2.96-3.85,6.61-3.85C81.13,177.84,84.08,179.56,84.08,181.68z"/>
			</g>
			<path id="XMLID_10830_" class="st2" d="M72.57,168.69l24.08,13.35c1.01,0.58,2.25,0.58,3.26,0l0.23-0.13
				c0.68-0.4,0.68-1.38,0-1.78l-23.79-13.76c-1.01-0.58-2.25-0.58-3.26,0l-0.23,0.13C72.17,166.9,71.89,168.3,72.57,168.69z"/>
			<g id="XMLID_11075_">
				<g id="XMLID_11076_">
					<g id="XMLID_11077_">
						<path id="XMLID_10827_" class="st2" d="M326.49,45.06c1.06,1.84-1.84,5.52-3.68,6.58l-1.02,0.59
							c-2.56,1.48-7.28,2.37-9.84,0.89L285,37.58c-0.59-0.34-1.08-0.83-1.42-1.41c-1.06-1.84,1.11-5.1,2.96-6.17l1.03-0.59
							c2.56-1.48,8-2.79,10.56-1.31l26.96,15.54C325.67,44,326.16,44.48,326.49,45.06L326.49,45.06z"/>
					</g>
				</g>
			</g>
			<path id="XMLID_10820_" class="st6" d="M278.38,9.58l21.83,12.58l15.12,8.75l45.04,26.01c12.37,7.13,16.52,22.6-0.02,32.14
				l-210.2,121.37c-3.13,1.81-6.44,3.21-9.85,4.17c-11.26,3.26-23.6,1.87-34.04-4.18l-4.47-2.56l-34.63-20.01l-42.89-24.76
				c-5.95-3.43-9.01-9.34-9.23-15.35c-0.5,6.71,2.53,13.65,9.19,17.48l77.53,44.76l4.45,2.57c10.44,6.04,22.77,7.43,34.05,4.16
				c3.41-0.95,6.7-2.34,9.84-4.15l213.7-123.38c12.38-7.15,12.38-25.01,0-32.16l-60.15-34.73l-21.83-12.6
				c-7.03-4.07-14.92-5.97-22.77-5.82C265.75,4.25,272.38,6.09,278.38,9.58z"/>
		</g>
	</g>
	<g id="XMLID_9199_">
		<g id="XMLID_9200_">
			<g id="XMLID_9891_">
				<g id="XMLID_9893_">
					<g id="XMLID_9894_" class="st7">
						<g id="XMLID_9897_">
							<polygon id="XMLID_9901_" class="st8" points="248.7,74.58 260.09,67.95 260.09,66.79 248.71,73.42 							"/>
						</g>
						<g id="XMLID_9895_">
							<polygon id="XMLID_9896_" class="st3" points="214.15,53.46 214.14,54.63 248.7,74.58 248.71,73.42 							"/>
						</g>
					</g>
				</g>
				<polygon id="XMLID_9892_" class="st1" points="255.79,64.3 251.07,61.58 247.04,59.25 239.37,54.83 231.07,50.03 225.53,46.84 
					214.15,53.46 217.08,55.16 225.81,60.2 233.77,64.79 239.63,68.18 242.28,69.7 248.71,73.42 260.09,66.79 				"/>
			</g>
			<path id="XMLID_9890_" class="st1" d="M228.1,35.21c-1.73-0.97-4.48-0.94-6.14,0.06c-0.94,0.57-1.31,1.33-1.16,2.05l-3.72,2.31
				l-2.93-1.69l11.38-6.63l5.54,3.2l-2.22,1.28C228.65,35.58,228.41,35.38,228.1,35.21z"/>
			<g id="XMLID_9454_">
				<path id="XMLID_9889_" class="st9" d="M228.35,18.38V51.6c0,1.79-1.45,3.25-3.26,3.25c-1.79,0-3.25-1.46-3.25-3.25V18.38H228.35
					z"/>
				<path id="XMLID_9886_" class="st10" d="M227.79,30.22V51.6c0,1.49-1.21,2.69-2.7,2.69c-1.48,0-2.69-1.21-2.69-2.69V30.22H227.79
					z"/>
				<g id="XMLID_9463_">
					<path id="XMLID_9881_" class="st10" d="M226.96,29.1c1.07,0.6,1.11,1.58,0.08,2.2c-1.03,0.62-2.73,0.64-3.81,0.04
						c-1.07-0.6-1.11-1.58-0.08-2.2C224.18,28.52,225.89,28.51,226.96,29.1z M225.1,30.22L225.1,30.22L225.1,30.22L225.1,30.22
						L225.1,30.22L225.1,30.22z"/>
				</g>
				<g id="XMLID_9461_">
					<path id="XMLID_9462_" class="st5" d="M229.02,18.52l0-0.59c0,0.56-0.36,1.13-1.09,1.57c-1.5,0.9-3.98,0.93-5.54,0.06
						c-0.8-0.45-1.21-1.05-1.21-1.65l0,0.59c0,0.6,0.4,1.2,1.21,1.65c1.56,0.87,4.04,0.85,5.54-0.06
						C228.65,19.65,229.01,19.09,229.02,18.52z"/>
				</g>
				<g id="XMLID_9455_">
					<path id="XMLID_9459_" class="st9" d="M227.81,16.29c1.56,0.87,1.61,2.31,0.11,3.21c-1.5,0.9-3.98,0.93-5.54,0.06
						c-1.56-0.87-1.61-2.31-0.11-3.21C223.77,15.44,226.25,15.42,227.81,16.29z"/>
				</g>
			</g>
			<g id="XMLID_9448_">
				<g id="XMLID_9449_" class="st7">
					<g id="XMLID_9452_">
						<polygon id="XMLID_9453_" class="st3" points="215.67,39.09 215.65,53.41 214.85,53.87 214.87,39.09 						"/>
					</g>
					<g id="XMLID_9450_">
						<polygon id="XMLID_9451_" class="st1" points="214.87,39.09 214.85,53.87 214.15,53.47 214.17,39.09 						"/>
					</g>
				</g>
			</g>
			<path id="XMLID_9447_" class="st1" d="M220.8,37.32c0.12,0.55,0.54,1.09,1.28,1.51c1.73,0.97,4.48,0.94,6.14-0.06
				c1.36-0.82,1.55-2.04,0.62-2.98l2.22-1.28l8.3,4.79l-2.2,1.27c-0.21-0.22-0.46-0.43-0.79-0.62c-1.73-0.97-4.48-0.94-6.14,0.06
				c-1.16,0.7-1.46,1.68-0.97,2.54l-3.46,2.12l-8.73-5.04L220.8,37.32z"/>
			<g id="XMLID_9433_">
				<path id="XMLID_9446_" class="st9" d="M236.63,23.29v33.22c0,1.79-1.45,3.25-3.26,3.25c-1.79,0-3.25-1.46-3.25-3.25V23.29
					H236.63z"/>
				<path id="XMLID_9445_" class="st10" d="M236.07,35.13v21.37c0,1.49-1.21,2.69-2.7,2.69c-1.48,0-2.69-1.21-2.69-2.69V35.13
					H236.07z"/>
				<g id="XMLID_9442_">
					<path id="XMLID_9443_" class="st10" d="M235.24,34.01c1.07,0.6,1.11,1.58,0.08,2.2c-1.03,0.62-2.73,0.64-3.81,0.04
						c-1.07-0.6-1.11-1.58-0.08-2.2C232.46,33.43,234.17,33.41,235.24,34.01z"/>
				</g>
				<g id="XMLID_9440_">
					<path id="XMLID_9441_" class="st5" d="M237.3,23.43l0-0.59c0,0.56-0.36,1.13-1.09,1.57c-1.5,0.9-3.98,0.93-5.54,0.06
						c-0.8-0.45-1.21-1.05-1.21-1.65l0,0.59c0,0.6,0.4,1.2,1.21,1.65c1.56,0.87,4.04,0.85,5.54-0.06
						C236.93,24.56,237.29,24,237.3,23.43z"/>
				</g>
				<g id="XMLID_9434_">
					<path id="XMLID_9438_" class="st9" d="M236.09,21.2c1.56,0.87,1.61,2.31,0.11,3.21c-1.5,0.9-3.98,0.93-5.54,0.06
						c-1.56-0.87-1.61-2.31-0.11-3.21C232.05,20.35,234.53,20.33,236.09,21.2z"/>
				</g>
			</g>
			<path id="XMLID_9432_" class="st1" d="M229.27,42.55c0.22,0.37,0.57,0.73,1.09,1.02c1.73,0.97,4.48,0.94,6.14-0.06
				c1.35-0.81,1.54-2,0.66-2.94l2.2-1.27l7.66,4.42l-2.06,1.19c-0.12-0.09-0.24-0.19-0.39-0.27c-1.73-0.97-4.48-0.94-6.14,0.06
				c-1.08,0.65-1.42,1.56-1.06,2.38l-3.62,2.18l-7.96-4.59L229.27,42.55z"/>
			<g id="XMLID_9418_">
				<path id="XMLID_9431_" class="st9" d="M244.83,27.91v33.22c0,1.79-1.45,3.25-3.26,3.25c-1.79,0-3.25-1.46-3.25-3.25V27.91
					H244.83z"/>
				<path id="XMLID_9430_" class="st10" d="M244.27,39.76v21.37c0,1.49-1.21,2.69-2.7,2.69c-1.48,0-2.69-1.21-2.69-2.69V39.76
					H244.27z"/>
				<g id="XMLID_9427_">
					<path id="XMLID_9428_" class="st10" d="M243.44,38.64c1.07,0.6,1.11,1.58,0.08,2.2c-1.03,0.62-2.73,0.64-3.81,0.04
						c-1.07-0.6-1.11-1.58-0.08-2.2C240.66,38.06,242.37,38.04,243.44,38.64z"/>
				</g>
				<g id="XMLID_9425_">
					<path id="XMLID_9426_" class="st5" d="M245.49,28.06l0-0.59c0,0.56-0.36,1.13-1.09,1.57c-1.5,0.9-3.98,0.93-5.54,0.06
						c-0.8-0.45-1.21-1.05-1.21-1.65l0,0.59c0,0.6,0.4,1.2,1.21,1.65c1.56,0.87,4.04,0.85,5.54-0.06
						C245.13,29.19,245.49,28.62,245.49,28.06z"/>
				</g>
				<g id="XMLID_9419_">
					<path id="XMLID_9423_" class="st9" d="M244.29,25.83c1.56,0.87,1.61,2.31,0.11,3.21c-1.5,0.9-3.98,0.93-5.54,0.06
						c-1.56-0.87-1.61-2.31-0.11-3.21C240.24,24.98,242.73,24.95,244.29,25.83z"/>
				</g>
			</g>
			<path id="XMLID_9417_" class="st1" d="M252.96,49.45c-1.73-0.97-4.48-0.94-6.14,0.06c-1.14,0.69-1.45,1.65-0.98,2.51l-3.55,2.16
				l-2.64-1.53l-5.87-3.39l3.62-2.18c0.2,0.44,0.58,0.85,1.18,1.18c1.73,0.97,4.48,0.94,6.14-0.06c1.52-0.91,1.58-2.32,0.27-3.29
				l2.06-1.19l4.03,2.33l4.72,2.73L253.68,50C253.48,49.8,253.25,49.61,252.96,49.45z"/>
			<g id="XMLID_9286_">
				<path id="XMLID_9416_" class="st9" d="M253.32,32.93v33.22c0,1.79-1.45,3.25-3.26,3.25c-1.79,0-3.25-1.46-3.25-3.25V32.93
					H253.32z"/>
				<path id="XMLID_9415_" class="st10" d="M252.76,44.77v21.37c0,1.49-1.21,2.69-2.7,2.69c-1.48,0-2.69-1.21-2.69-2.69V44.77
					H252.76z"/>
				<g id="XMLID_9412_">
					<path id="XMLID_9413_" class="st10" d="M251.93,43.65c1.07,0.6,1.11,1.58,0.08,2.2c-1.03,0.62-2.73,0.64-3.81,0.04
						c-1.07-0.6-1.11-1.58-0.08-2.2C249.16,43.07,250.86,43.06,251.93,43.65z"/>
				</g>
				<g id="XMLID_9303_">
					<path id="XMLID_9411_" class="st5" d="M253.99,33.07l0-0.59c0,0.56-0.36,1.13-1.09,1.57c-1.5,0.9-3.98,0.93-5.54,0.06
						c-0.8-0.45-1.21-1.05-1.21-1.65l0,0.59c0,0.6,0.4,1.2,1.21,1.65c1.56,0.87,4.04,0.85,5.54-0.06
						C253.63,34.2,253.99,33.64,253.99,33.07z"/>
				</g>
				<g id="XMLID_9287_">
					<path id="XMLID_9300_" class="st9" d="M252.79,30.84c1.56,0.87,1.61,2.31,0.11,3.21c-1.5,0.9-3.98,0.93-5.54,0.06
						c-1.56-0.87-1.61-2.31-0.11-3.21C248.74,29.99,251.22,29.97,252.79,30.84z M250.07,32.47L250.07,32.47L250.07,32.47
						L250.07,32.47L250.07,32.47L250.07,32.47z"/>
				</g>
			</g>
			<g id="XMLID_9278_">
				<g id="XMLID_9279_" class="st7">
					<g id="XMLID_9284_">
						<polygon id="XMLID_9285_" class="st3" points="248.72,73.97 260.1,67.35 260.11,51.26 248.72,57.89 						"/>
					</g>
					<g id="XMLID_9282_">
						<polygon id="XMLID_9283_" class="st3" points="214.16,37.94 214.16,39.1 248.72,59.05 248.72,57.89 						"/>
					</g>
					<g id="XMLID_9280_">
						<polygon id="XMLID_9281_" class="st3" points="214.16,44.01 214.16,46.59 248.72,66.55 248.72,63.96 						"/>
					</g>
				</g>
			</g>
			<path id="XMLID_9277_" class="st1" d="M245.83,52.02c0.21,0.39,0.57,0.75,1.11,1.05c1.73,0.97,4.48,0.94,6.14-0.06
				c1.38-0.83,1.56-2.06,0.59-3.01l2.11-1.22l4.3,2.48l-11.38,6.63l-6.43-3.71L245.83,52.02z"/>
		</g>
	</g>
	<g id="XMLID_9193_">
		<g id="XMLID_9194_">
			<path id="XMLID_9248_" class="st11" d="M74.68,131.57c0.13,0.13,0.25,0.27,0.38,0.41v0.07c-0.23-0.18-0.46-0.35-0.71-0.5v-0.32
				C74.46,131.35,74.57,131.46,74.68,131.57z"/>
		</g>
	</g>
	<g id="XMLID_9309_">
		<g id="XMLID_9310_">
			<g id="XMLID_9358_">
				<g id="XMLID_9359_" class="st7">
					<g id="XMLID_9364_">
						<polygon id="XMLID_9365_" class="st12" points="84.52,116.74 73.05,110.08 117.82,84.24 129.3,90.91 						"/>
					</g>
					<g id="XMLID_9362_">
						<polygon id="XMLID_9363_" class="st12" points="84.61,152.24 73.13,145.57 73.05,110.08 84.52,116.74 						"/>
					</g>
					<g id="XMLID_9360_">
						<polygon id="XMLID_9361_" class="st12" points="84.52,116.74 129.3,90.91 129.38,126.41 84.61,152.24 						"/>
					</g>
				</g>
			</g>
			<g id="XMLID_9344_">
				<g id="XMLID_9349_">
					<polygon id="XMLID_9350_" class="st2" points="105.38,114.77 111.17,111.43 111.18,116.31 115.43,113.86 115.44,120.52 
						111.2,122.97 111.21,127.84 105.42,131.18 105.41,126.31 101.16,128.76 101.14,122.1 105.39,119.65 					"/>
				</g>
				<g id="XMLID_9345_">
					<path id="XMLID_9346_" class="st13" d="M108.26,108.82c5.99-3.46,10.88-0.67,10.9,6.22c0.02,6.89-4.84,15.3-10.83,18.75
						c-5.99,3.46-10.88,0.67-10.9-6.22C97.41,120.69,102.27,112.28,108.26,108.82z M108.32,132.87c5.55-3.2,10.05-10.99,10.03-17.36
						c-0.02-6.38-4.54-8.96-10.09-5.76c-5.55,3.2-10.05,10.99-10.03,17.36C98.25,133.49,102.77,136.07,108.32,132.87L108.32,132.87z
						"/>
				</g>
			</g>
			<g id="XMLID_9311_">
				<g id="XMLID_9312_" class="st7">
					<g id="XMLID_9326_">
						<polygon id="XMLID_9327_" class="st3" points="109.35,97.76 107.29,96.56 107.27,88.66 109.33,89.86 						"/>
					</g>
					<g id="XMLID_9320_">
						<polygon id="XMLID_9325_" class="st3" points="94.65,95.94 92.6,94.75 109.26,85.13 111.32,86.33 						"/>
					</g>
					<g id="XMLID_9318_">
						<polygon id="XMLID_9319_" class="st3" points="94.68,106.22 92.62,105.02 92.6,94.75 94.65,95.94 						"/>
					</g>
					<g id="XMLID_9313_">
						<polygon id="XMLID_9314_" class="st3" points="94.65,95.94 111.32,86.33 111.34,96.61 109.35,97.76 109.33,89.86 96.66,97.16 
							96.68,105.07 94.68,106.22 						"/>
					</g>
				</g>
			</g>
		</g>
	</g>
	<g id="XMLID_9304_">
		<g id="XMLID_9372_">
			<g id="XMLID_9409_">
				<polygon id="XMLID_9410_" class="st14" points="300.23,108.57 309.77,103.11 309.84,73.95 300.29,79.41 				"/>
			</g>
			<g id="XMLID_9407_">
				<polygon id="XMLID_9408_" class="st14" points="300.29,79.41 309.84,73.95 275.45,54.25 265.9,59.71 				"/>
			</g>
			<g id="XMLID_9405_">
				<polygon id="XMLID_9406_" class="st14" points="265.9,59.71 265.84,88.87 300.23,108.57 300.29,79.41 				"/>
			</g>
			<g id="XMLID_9403_">
				<polygon id="XMLID_9404_" class="st10" points="273.89,65.79 273.85,91.92 298.63,106.23 298.67,80.1 				"/>
			</g>
			<g id="XMLID_9395_">
				<g id="XMLID_9396_" class="st7">
					<g id="XMLID_9401_">
						<path id="XMLID_9402_" class="st3" d="M269.29,65.03l-1.71,1c0.25-0.14,0.59-0.12,0.97,0.1l1.71-1
							C269.88,64.9,269.53,64.88,269.29,65.03z"/>
					</g>
					<g id="XMLID_9399_">
						<path id="XMLID_9400_" class="st3" d="M269.51,69.36l1.71-1c0.25-0.14,0.4-0.45,0.4-0.88c0-0.87-0.61-1.93-1.36-2.36l-1.71,1
							c0.75,0.43,1.36,1.49,1.36,2.36C269.91,68.91,269.76,69.21,269.51,69.36z"/>
					</g>
					<g id="XMLID_9397_">
						<g>
							<path id="XMLID_29_" class="st1" d="M268.55,66.12c-0.76-0.44-1.37-0.09-1.37,0.78c0,0.86,0.61,1.92,1.37,2.36
								c0.75,0.43,1.37,0.08,1.37-0.78C269.91,67.61,269.3,66.55,268.55,66.12z"/>
						</g>
					</g>
				</g>
			</g>
			<g id="XMLID_9387_">
				<g id="XMLID_9388_" class="st7">
					<g id="XMLID_9393_">
						<path id="XMLID_9394_" class="st3" d="M269.31,85.98l-1.32,0.77c0.19-0.11,0.46-0.1,0.75,0.07l1.32-0.77
							C269.77,85.88,269.5,85.87,269.31,85.98z"/>
					</g>
					<g id="XMLID_9391_">
						<path id="XMLID_9392_" class="st3" d="M269.48,89.31l1.32-0.77c0.19-0.11,0.31-0.34,0.31-0.67c0-0.67-0.47-1.48-1.05-1.82
							l-1.32,0.77c0.58,0.33,1.05,1.15,1.05,1.82C269.79,88.96,269.67,89.2,269.48,89.31z"/>
					</g>
					<g id="XMLID_9389_">
						<g>
							<path id="XMLID_31_" class="st1" d="M268.74,86.82c-0.58-0.34-1.05-0.07-1.06,0.6c0,0.67,0.47,1.48,1.05,1.82
								c0.58,0.33,1.05,0.06,1.05-0.6C269.79,87.96,269.32,87.15,268.74,86.82z"/>
						</g>
					</g>
				</g>
			</g>
			<g id="XMLID_9379_">
				<g id="XMLID_9380_" class="st7">
					<g id="XMLID_9385_">
						<path id="XMLID_9386_" class="st3" d="M269.34,72.31l-1.71,1c0.25-0.14,0.59-0.12,0.97,0.1l1.71-1
							C269.93,72.18,269.59,72.16,269.34,72.31z"/>
					</g>
					<g id="XMLID_9383_">
						<path id="XMLID_9384_" class="st3" d="M269.56,76.64l1.71-1c0.25-0.14,0.4-0.45,0.4-0.87c0-0.87-0.61-1.93-1.36-2.36l-1.71,1
							c0.75,0.43,1.36,1.49,1.36,2.36C269.96,76.19,269.81,76.49,269.56,76.64z"/>
					</g>
					<g id="XMLID_9381_">
						<g>
							<path id="XMLID_30_" class="st1" d="M268.6,73.4c-0.76-0.44-1.37-0.09-1.37,0.78c0,0.86,0.61,1.92,1.37,2.36
								c0.75,0.43,1.37,0.08,1.37-0.78C269.96,74.89,269.35,73.83,268.6,73.4z"/>
						</g>
					</g>
				</g>
			</g>
			<path id="XMLID_9378_" class="st10" d="M271.76,83.63c-0.71,0.38-1.26,0.08-1.52-0.13c-0.41-0.33-0.58-0.91-0.4-1.42
				c0.16-0.47,0.49-0.67,0.6-0.74c0.17-0.1,0.4-0.09,0.65,0.06c0.45,0.25,0.84,0.84,0.93,1.38c0.01,0.08,0.02,0.36,0.01,0.42
				C271.99,83.4,271.9,83.55,271.76,83.63z"/>
			<path id="XMLID_9377_" class="st15" d="M268.94,82.04c-0.71,0.38-1.26,0.08-1.52-0.13c-0.41-0.33-0.58-0.91-0.4-1.42
				c0.16-0.47,0.49-0.67,0.6-0.74c0.17-0.1,0.4-0.09,0.65,0.06c0.45,0.25,0.84,0.84,0.93,1.38c0.01,0.08,0.02,0.36,0.01,0.42
				C269.16,81.81,269.07,81.96,268.94,82.04z"/>
			<g id="XMLID_9375_">
				<path id="XMLID_9376_" class="st2" d="M288.97,82.01l-2.63,12.03l-2.67-10.71l-1.16,4.48l-0.89-3.57l-0.8,1.85l-0.45-0.9
					l-6.05-3.61c-0.15-0.09-0.27-0.02-0.28,0.16c0,0.17,0.12,0.39,0.27,0.47l5.71,3.3l0.95,1.93l0.6-1.38l1,4.01l1.16-4.47
					l2.71,10.87l2.61-11.93l2.34,10.13l0.84-2.11l5.69,3.29c0.15,0.09,0.27,0.01,0.28-0.16c0-0.18-0.12-0.39-0.27-0.47l-5.89-3.4
					l-0.6,0.92L288.97,82.01z"/>
			</g>
			<g id="XMLID_9373_">
				<path id="XMLID_9374_" class="st2" d="M294.16,80.48c-0.05-0.03-0.1-0.05-0.15-0.08c-0.55-0.27-1.09-0.13-1.23,0.77
					c-0.24,1.55,1.75,3.84,2.53,4.97c0.78-0.23,2.78-0.22,2.55-2.03c-0.11-0.9-0.5-1.62-0.96-2c-0.11-0.09-0.22-0.17-0.33-0.23
					c-0.74-0.43-1.18-0.02-1.25,0.07C295.25,81.77,294.96,80.94,294.16,80.48z"/>
			</g>
		</g>
		<g id="XMLID_9305_">
			<g id="XMLID_9306_" class="st7">
				<g id="XMLID_9370_">
					<polygon id="XMLID_9371_" class="st3" points="282.07,65.51 283.59,64.63 283.61,58.8 282.09,59.68 					"/>
				</g>
				<g id="XMLID_9368_">
					<polygon id="XMLID_9369_" class="st3" points="293.62,64.57 295.14,63.69 282.14,56.2 280.62,57.08 					"/>
				</g>
				<g id="XMLID_9366_">
					<polygon id="XMLID_9367_" class="st3" points="293.6,72.16 295.12,71.27 295.14,63.69 293.62,64.57 					"/>
				</g>
				<g id="XMLID_9307_">
					<polygon id="XMLID_9308_" class="st3" points="293.62,64.57 280.62,57.08 280.6,64.66 282.07,65.51 282.09,59.68 292.15,65.48 
						292.13,71.31 293.6,72.16 					"/>
				</g>
			</g>
		</g>
	</g>
	<g id="XMLID_8864_">
		<g id="XMLID_8867_">
			<g id="XMLID_8889_">
				<path id="XMLID_8890_" class="st13" d="M135.88,149.88c-0.14-0.09-0.33-0.2-0.47-0.3c-0.25-0.18-0.58-0.43-0.8-0.64
					c-0.15-0.14-0.35-0.34-0.49-0.5c-0.17-0.2-0.38-0.49-0.52-0.7c-0.11-0.17-0.23-0.4-0.31-0.58c-0.08-0.19-0.17-0.45-0.23-0.64
					c-0.03-0.11-0.07-0.26-0.08-0.38c-0.03-0.2-0.05-0.48-0.06-0.68c0,1.36,0.88,2.73,2.64,3.79c3.62,2.18,9.62,2.24,13.4,0.14
					c1.94-1.08,2.92-2.53,2.92-3.98c0,0.12,0,0.27-0.02,0.38c-0.03,0.23-0.09,0.53-0.14,0.76c-0.03,0.14-0.1,0.31-0.15,0.44
					c-0.04,0.11-0.12,0.26-0.17,0.37c-0.09,0.2-0.24,0.44-0.37,0.62c-0.13,0.17-0.3,0.39-0.44,0.55c-0.09,0.11-0.23,0.24-0.34,0.34
					c-0.32,0.3-0.65,0.56-0.98,0.78c-0.18,0.12-0.43,0.27-0.62,0.38c-0.16,0.09-0.37,0.2-0.54,0.28c-0.19,0.09-0.45,0.21-0.65,0.29
					c-0.18,0.07-0.41,0.16-0.59,0.22c-0.61,0.21-1.13,0.32-1.3,0.36c-0.85,0.19-1.75,0.3-2.67,0.34c-0.66,0.02-1.18,0-1.34-0.01
					c-0.49-0.03-0.75-0.06-1.33-0.13c-0.01,0-0.6-0.08-1.3-0.25c-0.19-0.05-0.44-0.11-0.62-0.17c-0.19-0.06-0.44-0.14-0.63-0.21
					c-0.18-0.06-0.41-0.15-0.58-0.23c-0.18-0.08-0.42-0.19-0.6-0.28C136.31,150.13,136.06,149.99,135.88,149.88z"/>
			</g>
			<g id="XMLID_8884_">
				<path id="XMLID_8888_" class="st13" d="M132.93,145.45l-0.01-5.27c0,1.36,0.88,2.73,2.64,3.79c3.62,2.18,9.62,2.24,13.4,0.14
					c1.94-1.08,2.92-2.53,2.92-3.98l0.01,5.27c0,1.45-0.97,2.89-2.92,3.98c-3.78,2.11-9.78,2.05-13.4-0.14
					C133.81,148.18,132.93,146.82,132.93,145.45z"/>
			</g>
			<g id="XMLID_8882_">
				<path id="XMLID_8883_" class="st10" d="M132.91,140.19l-0.04-12.77c0,1.36,0.88,2.73,2.64,3.79c3.62,2.18,9.62,2.24,13.4,0.14
					c1.94-1.08,2.92-2.53,2.92-3.98l0.04,12.77c0,1.45-0.97,2.89-2.92,3.98c-3.78,2.11-9.78,2.05-13.4-0.14
					C133.79,142.91,132.92,141.55,132.91,140.19z"/>
			</g>
			<path id="XMLID_8879_" class="st13" d="M151.79,124.65c-0.01-0.14-0.05-0.33-0.07-0.48c-0.03-0.2-0.1-0.47-0.15-0.67
				c-0.1-0.34-0.3-0.99-0.78-1.77c-0.16-0.25-0.39-0.58-0.58-0.81c-0.16-0.2-0.38-0.45-0.57-0.63c-0.13-0.13-0.3-0.29-0.44-0.41
				c-0.12-0.11-0.29-0.24-0.41-0.34c-0.25-0.2-0.61-0.43-0.88-0.6c-0.21-0.12-0.48-0.27-0.7-0.38c-0.14-0.07-0.34-0.16-0.49-0.23
				c-0.18-0.08-0.44-0.18-0.62-0.25c-0.17-0.06-0.39-0.14-0.56-0.18c-0.3-0.08-0.71-0.18-1.01-0.25c-0.16-0.03-0.37-0.07-0.53-0.09
				c-0.15-0.02-0.36-0.05-0.51-0.06c-0.3-0.02-0.71-0.05-1.01-0.06c-0.15,0-0.35,0-0.51,0.01c-0.15,0.01-0.35,0.02-0.51,0.03
				c-0.16,0.01-0.36,0.04-0.52,0.05c-0.24,0.03-0.81,0.12-1.06,0.19c-0.18,0.05-0.43,0.1-0.61,0.16c-0.31,0.09-0.71,0.23-1.01,0.35
				c-0.21,0.08-0.48,0.21-0.68,0.3c-0.15,0.07-0.34,0.18-0.49,0.26c-0.26,0.15-0.6,0.36-0.85,0.53c-0.26,0.19-0.6,0.45-0.83,0.66
				c-0.19,0.17-0.44,0.4-0.6,0.6c-0.1,0.12-0.24,0.27-0.33,0.39c-0.14,0.18-0.32,0.42-0.45,0.62c-0.12,0.18-0.27,0.43-0.36,0.62
				c-0.06,0.13-0.15,0.31-0.21,0.44c-0.08,0.19-0.19,0.45-0.25,0.64c-0.04,0.14-0.1,0.32-0.13,0.46c-0.05,0.2-0.1,0.46-0.13,0.66
				c-0.05,0.29-0.06,0.68-0.07,0.97c0,1.36,0.88,2.73,2.64,3.79c3.62,2.18,9.62,2.24,13.4,0.14c1.94-1.08,2.92-2.53,2.92-3.98
				C151.82,125.13,151.81,124.86,151.79,124.65z"/>
			<g id="XMLID_8874_">
				<path id="XMLID_8878_" class="st13" d="M132.88,127.42l-0.01-2.03c0,1.36,0.88,2.73,2.64,3.79c3.62,2.18,9.62,2.24,13.4,0.14
					c1.94-1.08,2.92-2.53,2.92-3.98l0.01,2.03c0,1.45-0.97,2.89-2.92,3.98c-3.78,2.11-9.78,2.05-13.4-0.14
					C133.76,130.15,132.88,128.78,132.88,127.42z"/>
			</g>
			<g id="XMLID_8872_">
				<path id="XMLID_8873_" class="st10" d="M146.13,113.13c2.02,1.22,1.95,3.15-0.15,4.33c-2.11,1.17-5.45,1.14-7.47-0.08
					c-2.02-1.22-1.95-3.15,0.15-4.33C140.77,111.88,144.11,111.92,146.13,113.13z"/>
			</g>
			<g id="XMLID_8870_">
				<path id="XMLID_8871_" class="st10" d="M135.92,119.65l-0.01-3.45c0,0.92,0.6,1.84,1.78,2.56c2.45,1.48,6.51,1.52,9.06,0.09
					c1.31-0.73,1.98-1.71,1.97-2.69l0.01,3.45c0,0.98-0.66,1.96-1.97,2.69c-2.55,1.42-6.61,1.38-9.06-0.09
					C136.52,121.49,135.92,120.57,135.92,119.65z"/>
			</g>
			<g id="XMLID_8868_">
				<path id="XMLID_8869_" class="st10" d="M138.12,112.99c0.11-0.06,0.25-0.13,0.36-0.19c0.13-0.06,0.3-0.14,0.44-0.19
					c0.24-0.09,0.56-0.2,0.81-0.27c0.14-0.04,0.32-0.08,0.46-0.12c0.36-0.08,0.81-0.15,0.9-0.16c0.14-0.01,0.32-0.04,0.45-0.05
					c0.14-0.01,0.32-0.02,0.45-0.03c0.14,0,0.32-0.01,0.46-0.01c0.27,0,0.63,0.03,0.91,0.05c0.13,0.01,0.31,0.04,0.45,0.05
					c0.1,0.01,0.54,0.09,0.88,0.17c0.13,0.03,0.31,0.08,0.44,0.12c0.24,0.08,0.55,0.19,0.79,0.29c0.12,0.05,0.28,0.13,0.4,0.19
					c0.13,0.06,0.29,0.16,0.42,0.23c-0.15-0.09-0.36-0.08-0.58,0.05c-2.02-1.22-5.36-1.25-7.47-0.08c-2.1,1.17-2.17,3.11-0.15,4.33
					c2.02,1.22,5.36,1.25,7.47,0.08c2.1-1.17,2.17-3.11,0.15-4.33c0.23-0.13,0.43-0.13,0.58-0.05c0.09,0.06,0.21,0.13,0.3,0.19
					c0.16,0.12,0.38,0.29,0.53,0.42c0.38,0.34,0.6,0.68,0.61,0.69c0.08,0.13,0.19,0.31,0.26,0.44c0.06,0.11,0.12,0.26,0.16,0.38
					c0.03,0.11,0.08,0.25,0.1,0.36c0.01,0.07,0.03,0.16,0.04,0.23c0.01,0.11,0.02,0.25,0.02,0.35c0,0.98-0.66,1.96-1.97,2.69
					c-2.55,1.42-6.61,1.38-9.06-0.09c-1.19-0.72-1.78-1.64-1.78-2.56l0,0c0.01-0.14,0.02-0.33,0.04-0.47
					c0.02-0.12,0.05-0.28,0.09-0.4c0.06-0.19,0.16-0.51,0.45-0.93c0.09-0.13,0.21-0.29,0.32-0.4c0.13-0.14,0.31-0.31,0.45-0.43
					c0.12-0.11,0.3-0.23,0.43-0.32C137.82,113.17,137.99,113.06,138.12,112.99z"/>
			</g>
		</g>
		<g id="XMLID_8865_">
			<path id="XMLID_8866_" class="st2" d="M148.51,135.86c-1.54,0.75-2.38,1-4.07,1.24c0-1.41,0-2.12,0-3.53
				c-1.64,0.24-2.49,0.24-4.13,0c0,1.41,0,2.12,0,3.53c-1.69-0.24-2.53-0.49-4.07-1.24c0,1.37,0,2.05,0,3.42
				c1.54,0.75,2.38,1,4.07,1.24c0,1.41,0,2.12,0,3.53c1.64,0.24,2.49,0.24,4.13,0c0-1.41,0-2.12,0-3.53
				c1.69-0.24,2.53-0.49,4.07-1.24C148.51,137.91,148.51,137.22,148.51,135.86z"/>
		</g>
	</g>
	<g id="XMLID_10975_">
		<g id="XMLID_11002_">
			<g id="XMLID_11003_">
				<g id="XMLID_11020_">
					<path id="XMLID_11067_" class="st16" d="M332.22,150.83c-0.01-0.14-0.04-0.26-0.07-0.4c-0.11-0.63-0.22-1.24-0.33-1.81
						c-0.11-0.57-0.21-1.11-0.29-1.62c-0.6-3.14-0.99-5.18-1.04-5.5c-0.01-0.03-0.01-0.04-0.01-0.04s-18.21-3.05-32.41-10.19
						c-14.19-7.15-36.66-18.3-37.62-19.24c-0.06-0.06-0.13-0.13-0.2-0.18c-0.06-0.07-0.13-0.13-0.19-0.2
						c-0.71-0.67-1.77-1.55-2.45-2.24c-0.18-0.18-0.32-0.35-0.43-0.49c-0.11-0.15-0.18-0.28-0.21-0.38
						c-0.01-0.06-0.03-0.1-0.03-0.15c-0.01-0.06-0.03-0.13-0.04-0.2c-0.07-0.31-0.13-0.66-0.18-1.05c-0.01-0.1-0.04-0.2-0.06-0.31
						l-0.03-0.13c-0.03-0.15-0.07-0.31-0.11-0.47c0-0.03-0.01-0.06-0.03-0.1c-0.03-0.18-0.08-0.36-0.13-0.56
						c-0.1-0.39-0.21-0.81-0.33-1.24c-0.1-0.29-0.19-0.59-0.29-0.89c-0.14-0.38-0.28-0.75-0.45-1.13
						c-1.23-2.84-6.8-16.44-8.89-19.93c-2.09-3.48-7.13-6.06-8.71-7.76c-1.56-1.7-6.09-4.95-8.18-6.4c-2.09-1.45-5-4.42-6.4-4.99
						c-0.88-0.38-2.34-1.18-3.29-1.71c-0.56-0.33-0.95-0.56-0.95-0.56s-0.7-2.61-4.24-6.09c-1.5-1.48-2.56-2.27-3.3-2.68
						c-0.03-0.03-0.06-0.04-0.1-0.06c-0.38-0.2-0.67-0.29-0.89-0.33c-0.26-0.06-0.45-0.01-0.56,0.01c-0.04,0.01-0.06,0.01-0.08,0.03
						c-0.03,0.01-0.06,0.01-0.08,0.04c-0.04,0.01-0.08,0.03-0.14,0.06c-0.06,0.03-0.13,0.06-0.2,0.11c-0.03,0-0.06,0.03-0.08,0.04
						c-0.07,0.03-0.13,0.07-0.19,0.11c-0.01,0-0.01,0-0.03,0.03c-0.01,0-0.01,0-0.01,0c-0.01,0-0.01,0-0.01,0
						c-0.11,0.07-0.22,0.14-0.35,0.22c-0.03,0.01-0.07,0.04-0.11,0.08c-0.01-0.01-0.01,0-0.03,0c-0.07,0.04-0.13,0.08-0.18,0.14
						c-0.04,0.03-0.08,0.06-0.13,0.08c-0.07,0.04-0.15,0.1-0.22,0.15v0.01c0,0,0,0-0.01,0c-0.07,0.06-0.14,0.11-0.19,0.17
						c-0.04,0.04-0.08,0.08-0.13,0.11c-0.06,0.06-0.11,0.1-0.15,0.15c-0.24,0.21-0.43,0.43-0.56,0.67c-0.01,0-0.01,0.01-0.01,0.03
						c-0.03,0.03-0.04,0.06-0.06,0.1c-0.04,0.08-0.07,0.15-0.08,0.24c-0.17,0.82-1.96,4.38-0.92,9.29c0.35,1.66,1.03,3.47,2.2,5.39
						v0.01c0.42,0.67,0.81,1.28,1.21,1.83c3.99,5.66,6.79,5.21,8.43,6.7c0.52,0.47,0.88,0.79,1.18,1.07h0.01
						c0.36,0.31,0.61,0.54,0.91,0.82l0.01,0.01c0.24,0.21,0.49,0.46,0.79,0.79c0.03,0.03,0.06,0.06,0.08,0.08
						c0.13,0.14,0.28,0.29,0.43,0.46c0.25,0.28,0.57,0.6,0.92,0.95c1.74,1.74,4.29,4.04,4.29,4.04l-2.26-0.06
						c0,0-0.22,0.01-0.59,0.03c-0.24,0-0.52,0.01-0.85,0.01h-0.56c-0.19,0-0.4,0-0.63-0.01c-1.46-0.01-3.18-0.13-4.18-0.43
						c-1.38-0.43-3.05-0.99-4.89-1.63c-0.35-0.13-0.71-0.24-1.09-0.38c-0.35-0.11-0.71-0.24-1.07-0.36c0,0,0-0.01-0.01-0.01
						c-0.03,0-0.06-0.01-0.07-0.01c-0.31-0.11-0.61-0.21-0.92-0.32c-0.11-0.04-0.21-0.07-0.32-0.11c-0.28-0.1-0.56-0.19-0.84-0.28
						c-0.39-0.14-0.78-0.26-1.17-0.4c-0.7-0.24-1.39-0.47-2.1-0.7c-0.39-0.14-0.78-0.26-1.17-0.39c-1.16-0.38-2.33-0.75-3.48-1.11
						c-0.67-0.19-1.34-0.4-1.99-0.59c-0.07-0.01-0.14-0.04-0.21-0.06c-0.6-0.18-1.18-0.35-1.77-0.52c-0.99-0.28-1.96-0.53-2.9-0.75
						c-0.04-0.01-0.07-0.01-0.11-0.03c-0.45-0.11-0.91-0.22-1.34-0.31c-1.48-0.33-2.87-0.57-4.12-0.71c-0.35-0.04-0.68-0.07-1-0.08
						c-0.38-0.03-0.72-0.04-1.06-0.04c-0.59,0-1.13,0.03-1.62,0.11c-0.26,0.04-0.53,0.1-0.79,0.15c-0.04,0.01-0.1,0.01-0.14,0.03
						c-0.18,0.04-0.35,0.08-0.54,0.13c-0.85,0.2-1.74,0.46-2.65,0.75c-0.46,0.15-0.93,0.32-1.41,0.49
						c-0.39,0.14-0.78,0.29-1.16,0.45c-0.01,0-0.01,0.01-0.01,0.01h-0.01c-0.18,0.07-0.36,0.14-0.53,0.21
						c-0.22,0.08-0.43,0.18-0.66,0.28c-0.18,0.06-0.35,0.14-0.53,0.22c-0.32,0.14-0.65,0.28-0.98,0.43c-1.1,0.49-2.17,1-3.21,1.52
						c-0.46,0.24-0.91,0.46-1.35,0.7c-0.67,0.35-1.31,0.68-1.91,1.02h-0.01c-0.25,0.14-0.52,0.28-0.75,0.42
						c-0.28,0.15-0.56,0.31-0.82,0.46c-2.12,1.21-3.6,2.13-3.92,2.33c-1,0.61-2.83,3.26-4.01,4.18c-1.17,0.91-1.83,2.56-1.96,2.83
						c-0.13,0.26-0.33,1.48,0.53,3.14c0.86,1.66,2.44,3.22,2.87,3.44c0.04,0.01,0.08,0.03,0.14,0.04c0.06,0.01,0.13,0.03,0.2,0.04
						c0.14,0.03,0.31,0.04,0.5,0.06c0.75,0.06,1.81,0.04,2.56,0.07c1.13,0.06,1.13,0.06,1.13,0.06s-1.48,0.17-1.66,0.78
						c-0.17,0.61-1.73,5.77-1.52,6.65c0.22,0.88,1.05,3.02,3.22,4.54c0.29,0.2,0.56,0.39,0.81,0.54c1.64,1.09,2.42,1.42,2.42,1.42
						s-0.04,0.01-0.11,0.03c-0.04,0.01-0.08,0.03-0.14,0.04c-0.08,0.01-0.18,0.06-0.29,0.08c-0.53,0.17-1.35,0.47-1.92,0.91
						c-0.06,0.04-0.13,0.08-0.17,0.14c-0.21,0.17-0.38,0.36-0.46,0.59c-0.46,1.13-0.92,4.31-0.78,5.57
						c0.13,1.25,0.99,3.26,2.42,4.18c1.45,0.91,3.71,1.7,6.63,1.95c2.91,0.26,4.7,0.14,5.48,0.49c0.79,0.35,5.53,1.31,5.53,1.31
						s-5.53,0.86-6.58,1.25c-1.04,0.39-2.95,1.35-3.65,2.79c-0.7,1.44-0.45,4.96-0.18,5.84c0.26,0.86,2.31,2.61,4.53,3.04
						c0.78,0.15,1.39,0.26,1.95,0.35c0.13,0.01,0.25,0.03,0.38,0.04c0.1,0.01,0.18,0.03,0.26,0.03c0.1,0,0.21,0.01,0.31,0.01
						c0.65,0.06,1.3,0.03,2.12-0.07c1.83-0.22,3.23-0.15,5.43-0.03c1.1,0.06,2.19-0.11,3.15-0.26c0.57-0.08,1.09-0.15,1.53-0.18
						c0.33-0.01,0.63,0,0.88,0.07c0.5,0.14,1.66,0.36,3.11,0.57c0.38,0.06,0.78,0.11,1.18,0.17c0.21,0.03,0.43,0.06,0.65,0.08
						c0.25,0.03,0.53,0.06,0.79,0.1c0.21,0.01,0.42,0.04,0.63,0.06c0.01,0.01,0.01,0.01,0.03,0.01c1.07,0.11,2.16,0.22,3.16,0.28
						c1.74,0.11,3.16,0.17,4.65,0.32h0.01c0.26,0.03,0.54,0.06,0.82,0.11c0.01-0.01,0.04,0,0.07,0c1.31,0.17,2.75,0.43,4.54,0.88
						c1.25,0.32,2.51,0.52,3.72,0.61c0.07,0.01,0.14,0.01,0.21,0.03h0.14c2.13,0.17,4.14,0.07,5.84-0.11
						c0.28-0.03,0.56-0.06,0.81-0.1c0.25-0.03,0.47-0.06,0.7-0.1c0.04,0,0.08-0.01,0.13-0.01c0.06-0.01,0.11-0.01,0.18-0.01
						c0.2-0.03,0.4-0.06,0.64-0.07c0.57-0.04,1.24-0.04,1.98-0.04c0.25,0,0.5,0.01,0.75,0.01c0.32,0.01,0.65,0.01,0.99,0.04
						c0.14,0,0.28,0,0.42,0.01h0.01c0.33,0.01,0.67,0.03,0.99,0.04h0.01c0.31,0.01,0.59,0.04,0.88,0.06
						c0.19,0.01,0.38,0.03,0.56,0.04c0.01,0,0.03,0,0.03,0h0.14c0.13,0.01,0.24,0.03,0.36,0.03c0.31,0.03,0.59,0.04,0.86,0.07
						c0.15,0.01,0.31,0.01,0.45,0.03h0.06c0.59,0.06,1.09,0.1,1.45,0.13c0.13,0.01,0.24,0.03,0.32,0.03
						c0.24,0.03,0.38,0.04,0.38,0.04s0.29,0.06,0.81,0.17c0.26,0.06,0.59,0.13,0.95,0.21c0.28,0.06,0.6,0.13,0.93,0.21
						c0.13,0.03,0.26,0.06,0.4,0.08c0.01,0,0.03,0,0.03,0c2.44,0.6,6.1,1.55,10.16,2.91c6.87,2.3,14.9,5.77,20.29,10.58
						c11.15,9.94,31.27,25.97,45.22,31.51c0.31,0.13,0.61,0.24,0.91,0.35c0.93,0.38,1.84,0.71,2.72,1.03c0.01,0,0.01,0,0.03,0
						c1.23,0.25,2.54,0.28,3.89,0.04c1.9-0.33,3.76-1.14,5.55-2.37c3.41-2.31,6.48-6.1,8.78-10.73c-1.62-9.31-3.62-20.18-5.07-27.91
						C332.32,151.38,332.27,151.1,332.22,150.83z"/>
					<path id="XMLID_11066_" class="st16" d="M330.48,141.5c-1.07-0.17-2.2-0.15-3.36,0.06c-0.14,0.03-0.26,0.04-0.39,0.08
						c-2.23,0.45-4.42,1.59-6.45,3.22c-0.91,0.74-1.8,1.59-2.63,2.52c-0.04,0.06-0.1,0.1-0.14,0.15c-1.44,1.62-2.76,3.5-3.92,5.59
						c-2.44,4.36-4.18,9.59-4.85,15.08c-0.08,0.6-0.14,1.2-0.18,1.8c-0.29,3.69-0.06,7.11,0.6,10.12c0,0.01,0,0.01,0,0.01
						c1.21,5.43,3.83,9.55,7.33,11.47c0.85,0.47,1.76,0.82,2.72,1.03c0.01,0,0.01,0,0.03,0c1.23,0.25,2.54,0.28,3.89,0.04
						c1.9-0.33,3.76-1.14,5.55-2.37c3.41-2.31,6.48-6.1,8.78-10.73c2.26-4.51,3.79-9.82,4.22-15.36c0.29-3.8,0.04-7.32-0.67-10.38
						C339.41,146.93,335.54,142.25,330.48,141.5z"/>
					<path id="XMLID_11064_" class="st16" d="M257.17,109.96c-0.01-0.22-0.04-0.45-0.07-0.65c-0.04-0.28-0.08-0.53-0.15-0.77
						c-0.01-0.06-0.03-0.1-0.03-0.15c-0.01-0.06-0.03-0.13-0.04-0.2c-0.07-0.31-0.13-0.66-0.18-1.05c-0.06-0.28-0.11-0.57-0.2-0.91
						c-0.04-0.21-0.1-0.43-0.15-0.65c-0.1-0.39-0.21-0.81-0.33-1.24c-0.1-0.29-0.19-0.59-0.29-0.89c-0.14-0.38-0.28-0.75-0.45-1.13
						c-1.23-2.84-6.8-16.44-8.89-19.93c-2.09-3.48-7.13-6.06-8.71-7.76c-1.56-1.7-6.09-4.95-8.18-6.4c-2.09-1.45-5-4.42-6.4-4.99
						c-0.88-0.38-2.34-1.18-3.29-1.71c-0.56-0.33-0.95-0.56-0.95-0.56s-0.7-2.61-4.24-6.09c-3.54-3.48-4.58-3.15-4.93-3.02
						c-0.03,0.01-0.06,0.01-0.08,0.04c-0.04,0.01-0.08,0.03-0.14,0.06c-0.13,0.06-0.29,0.15-0.47,0.26c-0.01,0-0.03,0.01-0.04,0.03
						c-0.01,0-0.01,0-0.01,0c-0.84,0.5-2.05,1.39-2.22,2.16c-0.22,1.1-3.36,7.08,1.28,14.69c4.64,7.61,7.83,6.91,9.64,8.54
						c1.8,1.63,1.85,1.56,3.43,3.25c1.56,1.69,5.21,4.99,5.21,4.99l-2.26-0.06c0,0-4.81,0.22-6.8-0.4
						c-1.67-0.53-3.76-1.24-6.09-2.05c-0.64-0.21-1.3-0.45-1.96-0.67c-2.87-0.99-6.01-2.03-9.09-3c-0.67-0.19-1.34-0.4-1.99-0.59
						c-1.67-0.5-3.32-0.95-4.88-1.32c-0.49-0.13-0.98-0.24-1.45-0.33c-1.48-0.33-2.87-0.57-4.12-0.71c-0.35-0.04-0.68-0.07-1-0.08
						c-0.38-0.03-0.72-0.04-1.06-0.04c-0.59,0-1.13,0.03-1.62,0.11c-0.26,0.04-0.53,0.1-0.79,0.15c-0.22,0.04-0.45,0.1-0.68,0.15
						c-0.85,0.2-1.74,0.46-2.65,0.75c-0.46,0.15-0.93,0.32-1.41,0.49c-3.65,1.34-7.4,3.23-10.34,4.84h-0.01
						c-0.25,0.14-0.52,0.28-0.75,0.42c-0.28,0.15-0.56,0.31-0.82,0.46c-2.12,1.21-3.6,2.13-3.92,2.33c-1,0.61-2.83,3.26-4.01,4.18
						c-1.17,0.91-1.83,2.56-1.96,2.83c-0.13,0.26-0.33,1.48,0.53,3.14c0.86,1.66,2.44,3.22,2.87,3.44c0.04,0.01,0.08,0.03,0.14,0.04
						c0.06,0.01,0.13,0.03,0.2,0.04c0.14,0.03,0.31,0.04,0.5,0.06c0.75,0.06,1.81,0.04,2.56,0.07c1.13,0.06,1.13,0.06,1.13,0.06
						s-1.48,0.17-1.66,0.78c-0.17,0.61-1.73,5.77-1.52,6.65c0.22,0.88,1.05,3.02,3.22,4.54c0.29,0.2,0.56,0.39,0.81,0.54
						c1.64,1.09,2.42,1.42,2.42,1.42s-0.04,0.01-0.11,0.03c-0.04,0.01-0.08,0.03-0.14,0.04c-0.08,0.01-0.18,0.06-0.29,0.08
						c-0.53,0.17-1.35,0.47-1.92,0.91c-0.06,0.04-0.13,0.08-0.17,0.14c-0.21,0.17-0.38,0.36-0.46,0.59
						c-0.46,1.13-0.92,4.31-0.78,5.57c0.13,1.25,0.99,3.26,2.42,4.18c1.45,0.91,3.71,1.7,6.63,1.95c2.91,0.26,4.7,0.14,5.48,0.49
						c0.79,0.35,5.53,1.31,5.53,1.31s-5.53,0.86-6.58,1.25c-1.04,0.39-2.95,1.35-3.65,2.79c-0.7,1.44-0.45,4.96-0.18,5.84
						c0.26,0.86,2.31,2.61,4.53,3.04c0.78,0.15,1.39,0.26,1.95,0.35c0.13,0.01,0.25,0.03,0.38,0.04c0.1,0.01,0.18,0.03,0.26,0.03
						c0.1,0,0.21,0.01,0.31,0.01c0.65,0.06,1.3,0.03,2.12-0.07c1.83-0.22,3.23-0.15,5.43-0.03c2.2,0.13,4.38-0.7,5.56-0.38
						c1.17,0.33,5.98,1.05,9.56,1.27c3.57,0.22,5.74,0.22,10.1,1.31c4.35,1.09,8.67,0.75,11.54,0.32c2.87-0.43,11.45,0.4,11.45,0.4
						s0.28,0.06,0.81,0.17c0.26,0.06,0.57,0.13,0.95,0.21c0.17,0.04,0.33,0.07,0.52,0.11c0.24,0.06,0.49,0.11,0.75,0.18
						c0,0,0.03,0,0.1,0c0.04,0.01,0.1,0.01,0.15,0.01c1.05,0,5.27-0.59,9.5-9.45c4.5-9.43,8.13-20.82,7.59-26.83
						C257.16,109.98,257.16,109.97,257.17,109.96z"/>
					<path id="XMLID_11061_" class="st17" d="M214.62,54.89c-3.54-3.48-4.58-3.15-4.93-3.02c-0.03,0.01-0.06,0.01-0.08,0.04
						c-0.04,0.01-0.08,0.03-0.14,0.06c-0.13,0.06-0.29,0.15-0.47,0.26c-0.01,0-0.03,0.01-0.04,0.03c0,0,0,0,0.01,0
						c0.25,0,2.72,0.04,3.22,1.46c0.53,1.5,0.46,2.68,2.09,3.78c1.63,1.1,3.83,3.54,4.93,4.24c0.2,0.13,0.39,0.03,0.6-0.19
						c-0.56-0.33-0.95-0.56-0.95-0.56S218.16,58.38,214.62,54.89z"/>
					<g id="XMLID_11022_">
						
							<linearGradient id="XMLID_22_" gradientUnits="userSpaceOnUse" x1="244.2913" y1="1.1355" x2="157.64" y2="151.2199" gradientTransform="matrix(0.9771 6.000000e-03 0.2918 0.7391 -16.0777 43.3796)">
							<stop  offset="0.0592" style="stop-color:#FAFFFF"/>
							<stop  offset="0.0614" style="stop-color:#FFFFFF"/>
							<stop  offset="0.2942" style="stop-color:#FFFFFF"/>
							<stop  offset="0.2943" style="stop-color:#F7FFFF"/>
							<stop  offset="0.3538" style="stop-color:#F7FFFF"/>
							<stop  offset="0.3542" style="stop-color:#EBF8FA"/>
						</linearGradient>
						<path id="XMLID_10858_" class="st18" d="M211.18,51.93c0.16,0.43-0.12,0.57-0.69,0.5l28.79,79.91
							c1.91,5.3,0.27,10.2-4.31,12.87l-22.51,13.1c-0.17,0.11-2.3,0.98-4.77,1.1c0,0-4.1,0.49-7.34-1.59
							c-0.67-0.43-1.43-0.72-1.98-1.23c-1.28-1.2-1.87-2.18-1.87-2.18c-0.52-0.6-0.91-1.26-1.17-1.98l-0.03-0.08L165.92,70.8
							l-0.58-1.62c-1.59-4.41-0.23-8.51,3.59-10.72l25.66-15.03c0.52-0.31,0.93-0.59,1.55-0.7c0.09-0.02,0.37-0.15,0.95-0.26
							c0.06-0.01,0.12-0.02,0.17-0.03c0.27-0.05,0.59-0.09,1-0.12c0.18-0.01,0.39-0.02,0.61-0.02c0.12-0.01,0.24-0.01,0.38-0.01
							c0.28,0,1.28,0.08,1.6,0.18l1.71,0.69l4.2,4.39C208.82,48.8,210.61,50.35,211.18,51.93z"/>
						<path id="XMLID_10856_" class="st19" d="M199.61,41.94c-0.14,0-0.26,0-0.38,0.01c-0.22,0-0.43,0.01-0.61,0.02
							c-0.41,0.02-0.73,0.06-1,0.12c-0.06,0.01-0.12,0.02-0.17,0.03c-0.45,0.1-0.69,0.21-0.95,0.26c-0.63,0.12-1.03,0.39-1.55,0.7
							l-26.02,15.37c-3.81,2.21-5.17,6.31-3.59,10.72l0.58,1.62l29.39,81.53l0.03,0.08c0.26,0.72,0.66,1.37,1.17,1.98
							c0,0,0.56,0.93,1.78,2.09c0.6,0.58,1.37,1.04,2.19,1.37l0.86,0.35c-2.06-1.59-2.99-3.12-2.99-3.12
							c-0.5-0.6-0.91-1.26-1.17-1.98l-0.03-0.08l-29.38-81.53l-0.58-1.62c-1.59-4.41-0.24-8.51,3.59-10.72l26.02-15.37
							c0.51-0.31,1.1-0.5,1.71-0.61c0,0,3.97,0.72,6.22,0.72c0.21,0,0.41,0.01,0.62,0.03l-4.12-1.79
							C200.89,42.02,199.89,41.94,199.61,41.94z"/>
						<path id="XMLID_10855_" class="st20" d="M239.66,130.87l-0.31-0.87l-29.07-80.63c-0.1-0.29-0.22-0.56-0.36-0.85
							c-2.28-4.5-9.34-7.16-13.46-4.77l-22.41,13.07c-3.99,2.32-5.42,6.58-3.75,11.21l30.16,83.68c1.62,4.55,8.59,7.36,12.54,5.08
							l15.73-9.17l6.63-3.87c4.14-2.4,5.88-6.63,4.74-11.35C240,131.89,239.85,131.38,239.66,130.87z"/>
						<path id="XMLID_10853_" class="st21" d="M209.21,48.7c-1.46-4.02-7.61-6.52-11.08-4.49l-21.77,12.68l-1.25,0.73
							c-2.94,1.71-4.42,4.52-4.22,7.74c0.05,0.97,0.26,1.96,0.63,2.98l30,83.24c1.45,4.02,7.6,6.52,11.08,4.49l16.89-9.84l6.13-3.57
							c3.81-2.22,5.18-6.31,3.59-10.72L209.21,48.7z"/>
						<path id="XMLID_10972_" class="st22" d="M209.37,52.61l-34.34,19.94l27.21,75.51l34.39-19.97L209.7,53.36
							C209.61,53.11,209.5,52.85,209.37,52.61z"/>
						<path id="XMLID_10971_" class="st22" d="M209.2,50.42l-35.37,20.53l27.88,77.36l35.42-20.57L209.54,51.2
							C209.44,50.94,209.34,50.68,209.2,50.42z"/>
						<path id="XMLID_10970_" class="st23" d="M209.18,52.09l-34.34,19.94l27.21,75.51l34.39-19.97l-26.93-74.72
							C209.42,52.58,209.31,52.33,209.18,52.09z"/>
						<g id="XMLID_11044_">
							<path id="XMLID_10968_" class="st2" d="M188.64,53.3c-0.73-0.3-1.57,0.19-1.87,1.08c-0.3,0.89,0.05,1.85,0.79,2.15
								c0.73,0.3,1.57-0.18,1.87-1.08C189.72,54.56,189.37,53.6,188.64,53.3z"/>
						</g>
						<path id="XMLID_10852_" class="st2" d="M193.7,55.91c-0.08-0.22-0.54-0.49-0.73-0.38l-6.57,4.02
							c-0.28,0.17-0.38,0.47-0.27,0.8l0.03,0.08c0.08,0.22,0.42,0.36,0.61,0.25l6.69-3.89c0.28-0.16,0.38-0.47,0.27-0.8L193.7,55.91
							z"/>
						<g id="XMLID_11034_">
							<g id="XMLID_11035_">
								<g id="XMLID_11036_">
									<path id="XMLID_10965_" class="st2" d="M228.22,140.97c-0.22-0.6-1.16-1.59-1.88-1.58c-0.23,0-0.43,0.05-0.6,0.15
										l-7.56,4.41c-0.72,0.42-0.8,1.7-0.5,2.53l0.12,0.33c0.22,0.6,1.24,1.82,1.97,1.82h0c0.23,0,0.43-0.05,0.6-0.15l7.56-4.41
										c0.72-0.42,0.71-1.93,0.41-2.76L228.22,140.97z"/>
								</g>
							</g>
						</g>
						<polygon id="XMLID_10956_" class="st5" points="174.84,72.03 177.71,80.01 212.13,60.03 209.26,52.04 						"/>
						<polygon id="XMLID_10961_" class="st1" points="184.03,85.87 185.1,88.88 212.73,72.82 211.66,69.81 						"/>
						<polygon id="XMLID_11023_" class="st1" points="185.99,91.15 187.06,94.16 214.69,78.1 213.62,75.09 						"/>
						<g id="XMLID_11024_">
							<polygon id="XMLID_10955_" class="st24" points="177.08,72.91 177.31,73.53 180.83,71.48 180.61,70.86 							"/>
							<polygon id="XMLID_10954_" class="st24" points="177.72,74.66 177.94,75.29 181.47,73.24 181.24,72.61 							"/>
							<polygon id="XMLID_10953_" class="st24" points="178.35,76.42 178.58,77.05 182.1,75 181.87,74.37 							"/>
						</g>
						<path id="XMLID_10960_" class="st15" d="M218.3,88.24c-0.66-1.84-3.48-2.98-5.05-2.05l-9.46,5.51l-11.83,6.89
							c-1.69,0.99-2.3,2.8-1.59,4.76l3.41,9.48c0.66,1.83,3.46,2.97,5.05,2.05l11.57-6.75l9.72-5.66c1.69-0.98,2.3-2.79,1.6-4.75
							L218.3,88.24z"/>
						<path id="XMLID_10958_" class="st1" d="M207.33,115.59l-10.37,6.02l4.39,12.18l10.39-6.03l-4.31-11.94
							C207.4,115.74,207.37,115.67,207.33,115.59z"/>
						<path id="XMLID_10896_" class="st1" d="M224.55,105.65l-10.37,6.02l4.39,12.18l10.39-6.03l-4.31-11.94
							C224.62,105.8,224.59,105.72,224.55,105.65z"/>
						<path id="XMLID_10843_" class="st25" d="M235.93,141.83l-6.12,3.58l-4.25,2.47l-12.65,7.37c-3.47,2.03-9.14,0.88-11.07-4.49
							l-29.6-82.1c-0.37-1.02-0.58-2.02-0.63-2.99c-0.2-3.21,1.29-6.03,4.23-7.73l1.25-0.73l9.73-5.66l12.04-7.02
							c1.67-0.97,3.96-0.89,6.04-0.11c-2.27-1.06-4.91-1.29-6.77-0.2l-21.77,12.68l-1.25,0.73c-2.94,1.71-4.42,4.52-4.22,7.74
							c0.05,0.97,0.26,1.96,0.63,2.98l30,83.24c1.45,4.02,7.6,6.52,11.08,4.49l16.89-9.84l6.13-3.57c1.98-1.15,3.28-2.81,3.87-4.75
							C238.8,139.49,237.62,140.85,235.93,141.83z"/>
					</g>
				</g>
				<path id="XMLID_11018_" class="st16" d="M183.27,116.54l-15.94-4.78l-1.94,0.93c1.64,1.09,2.42,1.42,2.42,1.42
					s-0.04,0.01-0.11,0.03c-0.52,0.14-2.59,0.75-2.98,1.76c-0.46,1.13-0.92,4.31-0.78,5.57c0.13,1.25,0.99,3.26,2.42,4.18
					c1.45,0.91,3.71,1.7,6.63,1.95c2.91,0.26,4.7,0.14,5.48,0.49c0.79,0.35,5.53,1.31,5.53,1.31s4.4,0.99,6.15-1.1
					c1.74-2.09,4.61-5.23,1.3-8.44C188.15,116.64,183.27,116.54,183.27,116.54z"/>
				<path id="XMLID_11017_" class="st26" d="M184.9,117.04c0.03-0.04,0.05-0.08,0.08-0.12c-0.21,0-0.41,0-0.58-0.05
					C184.57,116.92,184.74,116.99,184.9,117.04z"/>
				<path id="XMLID_11015_" class="st16" d="M185.93,107.83c-0.95-1.23-3.02-2.93-5.1-3.65c-2.52-0.88-4.03-2.79-6.1-2.61
					c-2.06,0.17,1.49-2.94,1.49-2.94l-2.68-0.32l-10.83-1.28l-1.87,3.02c0.75,0.06,1.81,0.04,2.56,0.07
					c1.13,0.06,1.13,0.06,1.13,0.06s-1.48,0.17-1.66,0.78c-0.17,0.61-1.73,5.77-1.52,6.65c0.22,0.88,1.05,3.02,3.22,4.54
					c2.19,1.52,3.23,1.96,3.23,1.96s3.11,0.49,6.91,1.73c3.82,1.25,7.58,2.97,9.67,0c2.09-2.95,2.54-6.17,2.01-7.3
					C186.31,108.33,186.15,108.1,185.93,107.83z"/>
				<path id="XMLID_11012_" class="st16" d="M170.83,84.54c-0.77-0.5-1.59-0.9-2.39-1.19c-0.55-0.19-0.62-0.08-1.21,0.25
					c-0.49,0.27-0.97,0.55-1.46,0.82c-1.07,0.62-2.13,1.26-3.18,1.9c-1,0.61-2.83,3.26-4.01,4.18c-1.17,0.91-1.83,2.56-1.96,2.83
					c-0.1,0.21-0.25,1.02,0.13,2.17c0.1,0.29,0.22,0.63,0.4,0.96c0.86,1.66,2.44,3.22,2.87,3.44c0.45,0.21,2.27,0.17,3.4,0.21
					c1.13,0.06,1.13,0.06,1.13,0.06s3.58-0.26,6.54-1.16c1.49-0.45,2.44-1.39,2.9-2.93c0.02-0.07,0.04-0.13,0.06-0.2
					c0.21-0.81,0.21-1.59,0.26-2.42c0.07-1.37,0.13-2.89-0.07-4.25C173.93,87.26,172.52,85.65,170.83,84.54z"/>
				<path id="XMLID_11009_" class="st16" d="M196.64,130.32c-1.27-0.79-3.08-0.96-4.39-0.98c-1.93-0.02-3.98,0.51-5.85-0.23
					c-0.42-0.17-0.81-0.39-1.22-0.6c-0.79-0.4-1.86-0.99-2.75-1.01c-0.65-0.01-1.4,0.23-2.04,0.34c-1.3,0.22-2.72,0.36-3.96,0.82
					c-1.05,0.39-2.95,1.35-3.65,2.79c-0.14,0.28-0.24,0.64-0.31,1.05c-0.22,1.25-0.15,2.94-0.01,4c0.04,0.35,0.08,0.63,0.14,0.79
					c0.26,0.86,2.31,2.61,4.53,3.04c2.23,0.45,3.18,0.57,5.02,0.36c1.83-0.22,3.23-0.15,5.43-0.03c2.2,0.13,4.38-0.7,5.56-0.38
					c0,0,3.94-0.74,5.5-3.96c0.61-1.25,0.72-2.27,0.52-3.11C198.85,131.9,197.78,131.03,196.64,130.32z"/>
				<path id="XMLID_11004_" class="st17" d="M194.42,133.62c-6.62,0.41-6.62,5.11-3.48,5.98c3.14,0.87,4.01,0.23,4.01,0.23
					s-0.41-1.45-0.81-2.85C193.72,135.59,194.42,133.62,194.42,133.62z"/>
			</g>
		</g>
		<g id="XMLID_10976_">
			<g id="XMLID_10979_">
				<path id="XMLID_10986_" class="st17" d="M222.87,97.27c-0.01,0-0.01,0-0.01,0c-0.07-0.05-0.11-0.06-0.11-0.06
					c-0.93-0.71-3.13-1.01-4.49,0.25c-1.24,1.15-2.08,2.76-0.43,5.58c0.13,0.25,0.29,0.5,0.48,0.77c0.28,0.41,0.52,0.76,0.73,1.07
					c1.57,2.25,1.78,2.23,4.69,0.79c3.33-1.65,2.4-3.06,1.68-5.21C224.8,98.63,223.31,97.56,222.87,97.27z"/>
			</g>
			<path id="XMLID_10977_" class="st17" d="M261.57,128.42l-0.03,0.01c0,0-1.91,0.96-1.81,3.32c0.08,2.36,0.62,3.97,1.76,4.3
				c1.13,0.34,2.45,0.64,3.14,1.59c0.68,0.96,0.68,0.96,0.68,0.96s-0.77-5.38-1.19-8.14C263.71,127.91,261.81,128.36,261.57,128.42z
				"/>
		</g>
	</g>
	<path class="st16" d="M315.58,191.25c0,0,9.38,6.89,42.16-9.18c0.51-0.25,1.01-0.53,1.48-0.84l10.74-7.01
		c0,0-3.86-15.96-36.96-31.96C302.82,127.66,315.58,191.25,315.58,191.25z"/>
</g>
</svg>
