<?xml version="1.0" encoding="utf-8"?>
<!-- Generator: Adobe Illustrator 24.1.0, SVG Export Plug-In . SVG Version: 6.00 Build 0)  -->
<svg version="1.1" id="Layer_1" xmlns="http://www.w3.org/2000/svg" xmlns:xlink="http://www.w3.org/1999/xlink" x="0px" y="0px"
	 viewBox="0 0 384.62 37.64" style="enable-background:new 0 0 384.62 37.64;" xml:space="preserve">
<style type="text/css">
	.st0{fill:#EAEAEA;}
	.st1{fill:#0087B0;}
	.st2{fill-rule:evenodd;clip-rule:evenodd;fill:#FFFFFF;}
	.st3{fill:#FFFFFF;}
</style>
<g>
	<path class="st0" d="M374.45,36.82H10.17c-4.89,0-8.86-3.97-8.86-8.86V9.68c0-4.89,3.97-8.86,8.86-8.86h364.28
		c4.89,0,8.86,3.97,8.86,8.86v18.28C383.31,32.85,379.34,36.82,374.45,36.82z"/>
	<path class="st1" d="M344.17,36.82h30.28c4.89,0,8.86-3.97,8.86-8.86V9.68c0-4.89-3.97-8.86-8.86-8.86h-30.28V36.82z"/>
	<g>
		<path class="st2" d="M364.82,21.66c-4.42,2.02-8.14,1.26-10.48-2.06c-2.09-2.97-1.76-7.04,0.79-9.66
			c2.56-2.63,6.68-3.04,9.72-0.98c3.35,2.28,4.13,5.98,2.16,10.51c2.41,2.41,4.85,4.83,7.28,7.26c1.14,1.14,1.32,2.05,0.56,2.81
			c-0.76,0.76-1.66,0.57-2.8-0.58C369.63,26.51,367.21,24.07,364.82,21.66z M360.53,9.62c-3.11,0.01-5.6,2.53-5.6,5.66
			c0,3.09,2.55,5.63,5.64,5.64c3.12,0.01,5.7-2.61,5.65-5.73C366.18,12.07,363.65,9.6,360.53,9.62z"/>
		<path class="st2" d="M360.6,10.36c1.03-0.26,2.58,0.73,3.2,1.26c0.86,0.72,2.06,2.45,1.57,3.66c-0.33,0.77-1.21,0.75-1.4-0.12
			c-0.21-0.97-0.55-1.97-1.39-2.57c-0.54-0.37-1.26-0.54-1.85-0.84c-0.5-0.26-1.29-0.64-0.52-1.2
			C360.32,10.45,360.46,10.39,360.6,10.36z"/>
	</g>
	<path class="st1" d="M146.45,36.82H10.17c-4.89,0-8.86-3.97-8.86-8.86V9.68c0-4.89,3.97-8.86,8.86-8.86h136.28V36.82z"/>
	<g>
		<path class="st3" d="M17.51,21.07c-0.86,1.4-1.7,2.56-1.73,2.61l-0.62,0.85l-0.62-0.85c-0.03-0.05-0.88-1.21-1.74-2.61
			c-1.21-1.98-1.8-3.35-1.8-4.19c0-2.08,1.86-3.78,4.16-3.78c2.29,0,4.15,1.7,4.15,3.78C19.31,17.73,18.72,19.1,17.51,21.07z"/>
		<path class="st1" d="M15.16,14.86c-1.19,0-2.16,0.88-2.16,1.96c0,1.08,0.97,1.96,2.16,1.96c1.19,0,2.15-0.88,2.15-1.96
			C17.31,15.74,16.34,14.86,15.16,14.86z"/>
	</g>
</g>
</svg>
