<?xml version="1.0" encoding="utf-8"?>
<!-- Generator: Adobe Illustrator 24.1.0, SVG Export Plug-In . SVG Version: 6.00 Build 0)  -->
<svg version="1.1" id="Layer_1" xmlns="http://www.w3.org/2000/svg" xmlns:xlink="http://www.w3.org/1999/xlink" x="0px" y="0px"
	 viewBox="0 0 100.12 100.12" style="enable-background:new 0 0 100.12 100.12;" xml:space="preserve">
<style type="text/css">
	.st0{fill:#0087B0;}
	.st1{fill:#FFFFFF;}
</style>
<g>
	<g>
		<path class="st0" d="M50.06,98.62C23.28,98.62,1.5,76.83,1.5,50.06S23.28,1.5,50.06,1.5c26.78,0,48.56,21.78,48.56,48.56
			S76.83,98.62,50.06,98.62z M50.06,3.5C24.39,3.5,3.5,24.39,3.5,50.06s20.89,46.56,46.56,46.56s46.56-20.89,46.56-46.56
			S75.73,3.5,50.06,3.5z"/>
	</g>
	<g>
		<path class="st0" d="M19.08,70.32c-3.27,0-6-2.86-6-6.33V38.47c0-3.47,2.73-6.3,6-6.3h61.99c3.27,0,5.97,2.83,5.97,6.3v25.53
			c0,3.47-2.7,6.33-5.97,6.33H19.08z"/>
		<path class="st1" d="M81.73,45.75v10.74c0,0.6,0.6,1.09,1.28,1.09c0.68,0,1.28-0.49,1.28-1.09V45.75c0-0.6-0.6-1.09-1.28-1.09
			C82.33,44.66,81.73,45.15,81.73,45.75z"/>
		<path class="st1" d="M81.21,64.22c0,1,0.79,1.81,1.77,1.81c0.98,0,1.77-0.81,1.77-1.81c0-1-0.79-1.82-1.77-1.82
			C82,62.4,81.21,63.22,81.21,64.22z"/>
		<path class="st1" d="M19.77,45.87c0-0.83-0.67-1.51-1.51-1.51h-1.51c-0.83,0-1.51,0.67-1.51,1.51v10.75
			c0,0.83,0.67,1.51,1.51,1.51h1.51c0.83,0,1.51-0.67,1.51-1.51V45.87z"/>
		<path class="st1" d="M42.27,48.69c0.4,1.18,0.76,2.05,1.16,3c0.06,0.15,0.31,0.32,0.47,0.32c1.28,0.03,2.56,0,3.96,0
			c-0.1-1.2-0.19-2.14-0.28-3.32C45.78,48.69,44.09,48.69,42.27,48.69z"/>
		<path class="st1" d="M43.17,59.86c0.04,0.66,0.42,1.07,1.09,1.14c0.6,0.06,1.19-0.52,1.19-1.17c-0.08-0.61-0.41-1.03-1.1-1.08
			C43.71,58.69,43.13,59.23,43.17,59.86z"/>
		<path class="st1" d="M58.53,61c0.67-0.06,1.05-0.47,1.1-1.13c0.04-0.63-0.53-1.15-1.18-1.13c-0.68,0.07-1.05,0.46-1.1,1.12
			C57.31,60.46,57.92,61.05,58.53,61z"/>
		<path class="st1" d="M45.97,47.51c0.5,0,1,0,1.54,0c-0.12-1.38-0.22-2.56-0.32-3.74c-2.31,0-4.51,0-6.84,0
			c0.43,0.98,0.84,2.08,1.17,3.09c0.17,0.51,0.46,0.65,0.95,0.64C43.64,47.47,44.81,47.51,45.97,47.51z"/>
		<path class="st1" d="M49.11,52.03c1.56,0,3.02,0,4.57,0c0.09-1.18,0.18-2.16,0.27-3.34c-1.72,0-3.39,0-5.1,0
			C48.93,49.87,49.02,50.85,49.11,52.03z"/>
		<path class="st1" d="M48.71,46.91c0.03,0.21,0.4,0.51,0.63,0.52c1.35,0.05,2.7,0,4.04,0.03c0.52,0.01,0.7-0.19,0.73-0.68
			c0.05-0.98,0.14-2.03,0.21-3.02c-1.99,0-3.91,0-5.87,0C48.53,44.75,48.58,45.88,48.71,46.91z"/>
		<path class="st1" d="M21.54,33.74v35.01h58.03V33.74H21.54z M64.77,42.89c-1.08,3.55-2.2,7.09-3.3,10.63
			c-0.27,0.88-0.95,1.04-1.75,1.04c-4.7-0.01-9.4,0.03-14.1,0.03c-0.33,0-0.66,0-1.01,0c0.33,1.57,0.33,1.7,1.91,1.7
			c3.93,0,7.87-0.02,11.8-0.01c1.47,0,2.63,0.6,3.33,1.91c0.65,1.2,0.59,2.42-0.12,3.59c-0.83,1.36-2.49,1.98-4,1.55
			c-1.55-0.45-2.6-1.84-2.62-3.43c0-0.36,0.04-0.78,0.07-1.17c-2.38,0-4.73,0-7.06,0c-0.06,0.79-0.02,1.45-0.19,2.11
			c-0.38,1.5-1.72,2.53-3.22,2.59c-1.59,0.06-2.99-0.83-3.55-2.27c-0.55-1.42-0.19-3.07,1.03-4c0.61-0.46,0.59-0.83,0.35-1.45
			c-2.02-5.21-4.02-10.42-5.99-15.64c-0.23-0.61-0.52-0.86-1.18-0.81c-0.73,0.06-1.47,0.02-2.21,0.01
			c-0.76-0.01-1.21-0.42-1.27-1.18c-0.06-0.7,0.48-1.23,1.29-1.24c1.23-0.03,2.46,0.01,3.69-0.02c0.76-0.02,1.21,0.32,1.46,1.01
			c0.31,0.87,0.69,1.71,0.96,2.59c0.2,0.64,0.55,0.81,1.2,0.81c7.5-0.02,14.99-0.01,22.49-0.01c0.28,0,0.55-0.01,0.83,0.01
			C64.56,41.31,65.05,41.97,64.77,42.89z"/>
		<path class="st1" d="M55.29,47.45c1.74,0,3.37,0.02,4.99-0.02c0.22-0.01,0.56-0.26,0.64-0.47c0.37-1.04,0.66-2.01,1-3.19
			c-2.19,0-4.25,0-6.37,0C55.46,44.95,55.38,46.2,55.29,47.45z"/>
		<path class="st1" d="M54.91,52.02c1.43,0,2.71,0.02,3.99,0c0.18,0,0.47-0.14,0.51-0.27c0.34-0.99,0.63-2.07,0.95-3.06
			c-1.8,0-3.45,0-5.18,0C55.1,49.87,55.01,50.84,54.91,52.02z"/>
	</g>
</g>
</svg>
