<?xml version="1.0" encoding="utf-8"?>
<!-- Generator: Adobe Illustrator 24.1.0, SVG Export Plug-In . SVG Version: 6.00 Build 0)  -->
<svg version="1.1" id="Layer_1" xmlns="http://www.w3.org/2000/svg" xmlns:xlink="http://www.w3.org/1999/xlink" x="0px" y="0px"
	 viewBox="0 0 100.12 100.12" style="enable-background:new 0 0 100.12 100.12;" xml:space="preserve">
<style type="text/css">
	.st0{fill:#0087B0;}
	.st1{fill:#FFFFFF;}
</style>
<g>
	<g>
		<path class="st0" d="M50.06,98.62C23.28,98.62,1.5,76.83,1.5,50.06S23.28,1.5,50.06,1.5c26.78,0,48.56,21.78,48.56,48.56
			S76.83,98.62,50.06,98.62z M50.06,3.5C24.39,3.5,3.5,24.39,3.5,50.06s20.89,46.56,46.56,46.56s46.56-20.89,46.56-46.56
			S75.73,3.5,50.06,3.5z"/>
	</g>
	<g>
		<path class="st0" d="M82.83,63.23v1.2c0,4.44-3.61,8.15-8.06,8.15H25.43c-4.44,0-8.15-3.71-8.15-8.15v-1.2V38.59v-0.96
			c0-4.44,3.7-7.97,8.15-7.97h0.96h47.42h0.96c4.44,0,8.06,3.53,8.06,7.97v0.96V63.23z"/>
		<path class="st1" d="M80.59,36.84H19.62c-0.04,0.18,0,0.5,0,0.79v6.4h61.06v-6.4C80.68,37.35,80.63,37.02,80.59,36.84z"/>
		<rect x="24.83" y="64.32" class="st1" width="12.75" height="2.16"/>
		<rect x="43.86" y="64.32" class="st1" width="12.93" height="2.16"/>
		<rect x="63.08" y="64.32" class="st1" width="12.75" height="2.16"/>
		<rect x="22.67" y="47.26" class="st1" width="15.44" height="8.8"/>
		<rect x="43.15" y="47.26" class="st1" width="15.27" height="3.23"/>
		<rect x="43.15" y="53.01" class="st1" width="15.27" height="3.05"/>
		<path class="st1" d="M76.76,53.63c0-0.11-0.01-0.22-0.11-0.25c0,0.09,0.07,0.17,0.07,0.26c0,0,0,0,0,0c0-0.09-0.05-0.17-0.05-0.26
			c-0.02-0.01-0.07-0.01-0.09-0.01c0.02,0,0.04,0,0.06,0.01c-0.06-1.71-0.73-3.32-1.89-4.58c-0.04,0.04-0.08,0.07-0.11,0.11
			c0,0,0,0,0,0c1.09,1.19,1.78,2.67,1.84,4.46c0,0,0.03,0.13,0.04,0.2c0,0.02,0.03,0.05,0.03,0.07c0,0,0,0,0,0
			c0-0.02-0.03-0.05-0.03-0.07c0-0.07-0.03-0.2-0.04-0.2h-3.21c-0.02-1.08-0.18-2.23-0.45-3.21c-0.13,0.06-0.25,0.12-0.38,0.17
			c0.26,0.93,0.4,1.96,0.42,3.04h-3.14v-2.49c0.36,0,0.67-0.03,1-0.08c0.06-0.01,0.09-0.02,0.14-0.02c0.54-0.09,1.02-0.24,1.56-0.45
			c0,0,0,0,0,0c0.18-0.05,0.27-0.11,0.39-0.17c0.09-0.04,0.18-0.09,0.26-0.13c0.05-0.03,0.1-0.05,0.14-0.08
			c0.51-0.29,0.99-0.64,1.42-1.04c0,0,0,0,0,0c0.04-0.03,0.07-0.07,0.11-0.11c0,0,0,0,0,0l0.12-0.12l-0.11-0.12
			c-0.03-0.03-0.06-0.07-0.1-0.1c-0.01-0.01-0.01-0.01-0.02-0.02l-0.12-0.11l-0.12,0.11c0,0,0,0,0,0c-1.1-1.05-2.53-1.71-3.97-1.9v0
			c0,0,0,0,0,0c-0.31-0.18-0.66-0.23-0.99-0.23c-0.33,0-0.63,0.08-0.99,0.23v0v0c-1.44,0.19-2.71,0.79-3.78,1.76c0,0,0.01,0,0.01,0
			l-0.11-0.12l-0.12,0.11c-0.04,0.03-0.07,0.07-0.11,0.11l-0.12,0.12l0.11,0.12c0,0,0,0,0,0c0.03,0.03,0.06,0.06,0.09,0.09
			c0,0,0.01,0.01,0.01,0.01c0,0,0,0,0,0c0.4,0.4,0.85,0.75,1.33,1.05c0.05,0.03,0.09,0.06,0.13,0.08c0.08,0.05,0.17,0.09,0.25,0.14
			c0.12,0.07,0.25,0.13,0.38,0.19v0c0.49,0.23,1,0.4,1.53,0.51c0.06,0.01,0.11,0.02,0.15,0.03c0.31,0.06,0.58,0.1,0.93,0.11v2.5
			h-3.08c0.02-1.08,0.18-2.2,0.46-3.16c-0.13-0.06-0.26-0.12-0.38-0.19c-0.3,1.01-0.47,2.09-0.49,3.35h-3.21
			c0.07-1.8,0.77-3.41,2.03-4.62v0c0,0-0.03-0.01-0.04-0.02c-0.03-0.03-0.07-0.06-0.1-0.1c-1.25,1.28-1.96,2.95-2.02,4.74l0,0
			c0,0.09,0,0.17,0,0.26c0,0,0,0,0,0c0-0.09-0.01-0.17-0.01-0.26c-0.1,0.04-0.17,0.14-0.17,0.25c0,0.11,0,0.22,0.18,0.25
			c0,0,0,0,0,0.01c0,1.79,0.76,3.46,2.02,4.75c0,0-0.01,0-0.01,0l-0.12,0.12l0.12,0.12c0.04,0.04,0.08,0.08,0.11,0.11l0.12,0.11
			l0.11-0.12c0,0,0,0,0,0c1.08,0.96,2.39,1.57,3.81,1.76l0,0c0,0,0,0,0,0c0.27,0.13,0.54,0.21,0.83,0.23
			c0.03,0.01,0.06,0.02,0.1,0.02c0.03,0,0.06-0.01,0.08-0.01c0.31-0.01,0.61-0.08,0.91-0.23c0,0,0,0,0,0c0,0,0,0,0,0
			c1.49-0.2,2.86-0.86,3.97-1.9c0,0,0,0,0,0l0.12,0.11l0.12-0.11c0.01-0.01,0.01-0.01,0.02-0.02c0.03-0.03,0.06-0.06,0.1-0.1
			l0.11-0.12l-0.12-0.12c0,0,0,0,0,0c1.16-1.26,1.83-2.87,1.88-4.59c-0.02,0.01-0.09,0.02-0.11,0.02c0.02,0,0.03-0.01,0.03-0.02
			c0,0,0,0,0-0.01C76.73,53.84,76.76,53.74,76.76,53.63z M70.79,46.72C70.79,46.72,70.79,46.72,70.79,46.72
			c-0.06,0-0.13-0.01-0.19-0.02c-0.25-0.04-0.5-0.06-0.76-0.07c0.26,0.01,0.51,0.03,0.76,0.07C70.67,46.71,70.73,46.72,70.79,46.72z
			 M69.72,46.57c0-0.03-0.01-0.06-0.02-0.08c0,0,0,0,0,0C69.71,46.51,69.72,46.54,69.72,46.57z M70.8,50.3
			c-0.05,0.01-0.09,0.02-0.14,0.02c-0.31,0.05-0.57,0.07-0.93,0.07v-3.58c0.72,0.11,1.55,0.79,2.13,1.96
			c0.17,0.33,0.31,0.7,0.44,1.08c0,0,0,0,0,0c0,0,0,0,0,0C71.82,50.06,71.32,50.21,70.8,50.3z M73,49.51
			c-0.05,0.03-0.09,0.05-0.13,0.07c-0.06,0.03-0.13,0.07-0.19,0.1c-0.14-0.42-0.3-0.81-0.48-1.17c-0.4-0.79-0.88-1.38-1.4-1.75
			c1.34,0.25,2.55,0.89,3.51,1.8C73.91,48.92,73.47,49.24,73,49.51z M69.49,46.48C69.49,46.48,69.49,46.48,69.49,46.48
			c-0.09,0-0.19,0-0.28,0.01c-0.01,0.03-0.02,0.05-0.02,0.08c0-0.03,0.01-0.06,0.02-0.08c0,0,0,0,0,0
			C69.3,46.48,69.39,46.48,69.49,46.48z M66.17,49.45c-0.04-0.03-0.09-0.05-0.13-0.08c-0.44-0.27-0.84-0.59-1.21-0.96
			c0.93-0.83,2.08-1.41,3.34-1.65c-0.52,0.37-1,0.96-1.4,1.75c-0.16,0.32-0.31,0.67-0.44,1.04C66.28,49.51,66.22,49.48,66.17,49.45z
			 M68.33,50.27c-0.05-0.01-0.1-0.02-0.14-0.03c-0.51-0.11-1-0.28-1.47-0.5l0,0c0.12-0.34,0.25-0.67,0.4-0.97
			c0.57-1.13,1.35-1.81,2.07-1.94v3.55C68.83,50.36,68.61,50.32,68.33,50.27z M72.86,53.9c-0.02,1.08-0.16,2.12-0.42,3.05
			c0,0,0,0,0,0c0,0,0,0,0,0c-0.5-0.21-1.03-0.36-1.57-0.45c-0.04-0.01-0.09-0.02-0.15-0.02c-0.33-0.05-0.64-0.07-1-0.08V53.9H72.86z
			 M68.18,60.52L68.18,60.52c0.06,0.01,0.13,0.02,0.19,0.03c0.26,0.04,0.52,0.07,0.79,0.08c-0.27-0.01-0.53-0.04-0.79-0.08
			C68.3,60.54,68.24,60.53,68.18,60.52z M66.71,57.53L66.71,57.53c0.47-0.22,0.96-0.39,1.47-0.5c0.05-0.01,0.09-0.02,0.14-0.03
			c0.28-0.05,0.5-0.09,0.86-0.11v3.55c-0.72-0.14-1.5-0.82-2.07-1.95C66.97,58.2,66.83,57.88,66.71,57.53L66.71,57.53z M69.19,60.73
			c0,0.02,0,0.04,0.01,0.06l0,0C69.19,60.77,69.19,60.75,69.19,60.73z M69.49,60.79C69.49,60.79,69.49,60.79,69.49,60.79
			L69.49,60.79C69.49,60.79,69.49,60.79,69.49,60.79z M69.72,60.73c0,0.02-0.01,0.04-0.01,0.06h0
			C69.72,60.77,69.72,60.75,69.72,60.73z M69.72,60.46v-3.58c0.36,0,0.63,0.03,0.93,0.07c0.05,0.01,0.07,0.02,0.11,0.02
			c0.52,0.09,1.11,0.24,1.47,0.44c0,0,0,0,0,0c0,0.39-0.24,0.75-0.41,1.08C71.24,59.66,70.44,60.35,69.72,60.46z M69.19,53.9v2.51
			c-0.36,0.02-0.63,0.06-0.93,0.11c-0.05,0.01-0.1,0.02-0.15,0.03c-0.53,0.11-1.04,0.29-1.53,0.51v0c0,0,0,0,0,0
			c-0.28-0.96-0.43-2.09-0.45-3.16H69.19z M62.48,53.64c0,0.02,0,0.04,0,0.06C62.48,53.68,62.48,53.66,62.48,53.64
			C62.48,53.64,62.48,53.64,62.48,53.64z M65.7,53.9c0.02,1.26,0.19,2.33,0.49,3.35c-0.08,0.04-0.17,0.09-0.25,0.14
			c-0.04,0.03-0.09,0.05-0.13,0.08c-0.48,0.29-0.92,0.65-1.33,1.05c0,0,0,0,0,0c0,0,0,0,0,0c-1.17-1.21-1.92-2.83-1.98-4.62H65.7z
			 M66.04,57.9c0.04-0.03,0.09-0.05,0.13-0.08c0.06-0.03,0.11-0.07,0.17-0.1c0.13,0.37,0.27,0.72,0.44,1.04
			c0.4,0.79,0.88,1.38,1.4,1.75c-1.27-0.24-2.42-0.83-3.35-1.66C65.19,58.5,65.6,58.17,66.04,57.9z M70.8,60.52
			c0.52-0.37,1-0.96,1.4-1.75c0.18-0.36,0.34-0.76,0.48-1.17c0.06,0.03,0.13,0.06,0.19,0.1c0.04,0.02,0.08,0.05,0.13,0.07
			c0.47,0.27,0.91,0.59,1.3,0.96C73.35,59.62,72.14,60.26,70.8,60.52z M74.64,58.37C74.64,58.37,74.64,58.37,74.64,58.37
			C74.64,58.37,74.64,58.37,74.64,58.37c-0.43-0.41-0.91-0.76-1.42-1.05c-0.04-0.02-0.09-0.05-0.14-0.08
			c-0.08-0.05-0.17-0.09-0.26-0.13c0.27-0.98,0.43-2.14,0.45-3.22h3.21c0,0,0.06-0.13,0.06-0.19c0-0.01,0-0.01,0-0.02
			c0,0.01,0,0.01,0,0.02c0,0.06-0.03,0.19-0.03,0.19C76.45,55.7,75.74,57.19,74.64,58.37z"/>
	</g>
</g>
</svg>
