<?xml version="1.0" encoding="utf-8"?>
<!-- Generator: Adobe Illustrator 24.1.0, SVG Export Plug-In . SVG Version: 6.00 Build 0)  -->
<svg version="1.1" id="Layer_1" xmlns="http://www.w3.org/2000/svg" xmlns:xlink="http://www.w3.org/1999/xlink" x="0px" y="0px"
	 viewBox="0 0 100.12 100.12" style="enable-background:new 0 0 100.12 100.12;" xml:space="preserve">
<style type="text/css">
	.st0{fill:#0087B0;}
	.st1{fill:#FFFFFF;}
</style>
<g>
	<g>
		<path class="st0" d="M50.06,98.62C23.28,98.62,1.5,76.83,1.5,50.06S23.28,1.5,50.06,1.5s48.56,21.78,48.56,48.56
			S76.84,98.62,50.06,98.62z M50.06,3.5C24.39,3.5,3.5,24.39,3.5,50.06s20.89,46.56,46.56,46.56c25.67,0,46.56-20.89,46.56-46.56
			S75.73,3.5,50.06,3.5z"/>
	</g>
	<g>
		<path class="st0" d="M73.97,58.64L73.97,58.64c-2.85,0.04-4.54,3.19-3,5.59v0c2.04,3.18-1.52,6.97-4.82,5.13
			c-2.49-1.39-5.53,0.5-5.39,3.34l0,0c0.18,3.77-4.8,5.28-6.74,2.03l0,0c-1.46-2.44-5.04-2.33-6.34,0.2l0,0
			c-1.73,3.36-6.8,2.17-6.85-1.61l0,0c-0.04-2.85-3.19-4.54-5.59-3h0c-3.18,2.04-6.97-1.52-5.13-4.82c1.39-2.49-0.5-5.53-3.34-5.39
			c-3.77,0.18-5.28-4.8-2.03-6.74h0c2.44-1.46,2.33-5.04-0.2-6.34c-1.79-0.92-2.29-2.79-1.79-4.34c0.44-1.36,1.63-2.48,3.4-2.51h0
			c2.85-0.04,4.54-3.19,3-5.59l0,0c-2.04-3.18,1.52-6.97,4.82-5.13c2.49,1.39,5.53-0.5,5.39-3.34v0c-0.18-3.77,4.8-5.28,6.74-2.03
			l0,0c1.46,2.44,5.04,2.33,6.34-0.2h0c1.73-3.36,6.8-2.17,6.85,1.61l0,0c0.04,2.85,3.19,4.54,5.59,3h0
			c3.18-2.04,6.97,1.52,5.13,4.82v0c-1.39,2.49,0.5,5.53,3.34,5.39c2.49-0.12,3.99,2.01,3.79,4.03c-0.1,1.04-0.66,2.05-1.76,2.71v0
			c-2.44,1.46-2.33,5.04,0.2,6.34l0,0C78.94,53.52,77.75,58.58,73.97,58.64z"/>
		<g>
			<path class="st1" d="M45.27,49.3c1.19-1.39,1.79-3.22,1.79-5.48c0-2.09-0.52-3.7-1.55-4.82c-1.03-1.12-2.51-1.68-4.43-1.68
				c-1.91,0-3.44,0.66-4.58,1.99c-1.14,1.33-1.71,3.12-1.71,5.38c0,2.03,0.54,3.65,1.61,4.87c1.07,1.22,2.49,1.83,4.23,1.83
				C42.53,51.4,44.08,50.7,45.27,49.3z M43.58,47.88c-0.67,0.95-1.61,1.42-2.8,1.42c-1.11,0-1.97-0.44-2.59-1.31
				c-0.62-0.87-0.92-2.1-0.92-3.68c0-1.62,0.32-2.87,0.97-3.73c0.64-0.86,1.58-1.29,2.81-1.29c1.12,0,1.99,0.4,2.61,1.21
				c0.62,0.81,0.93,1.94,0.93,3.41C44.59,45.61,44.25,46.93,43.58,47.88z"/>
			<path class="st1" d="M57.76,38.19c0-0.44-0.14-0.77-0.43-1c-0.29-0.23-0.7-0.34-1.25-0.34c-0.13,0-0.3,0.01-0.5,0.03
				c-0.2,0.02-0.44,0.04-0.71,0.08c-0.03,0.75-0.4,1.95-1.1,3.61c-0.7,1.66-1.69,3.68-2.98,6.08c-1.18,2.16-2.69,4.81-4.53,7.96
				c-2,3.42-3.01,5.42-3.01,6.01c0,0.45,0.15,0.78,0.46,0.99c0.31,0.21,0.8,0.32,1.47,0.32c0.09,0,0.27-0.01,0.4-0.02
				c0.13-0.01,0.38-0.03,0.69-0.07v-0.02c0-0.64,0.26-1.73,0.92-3.28c0.65-1.55,1.64-3.62,3.02-6.22c1.25-2.37,2.82-5.18,4.72-8.43
				C56.82,40.64,57.76,38.74,57.76,38.19z"/>
			<path class="st1" d="M60.17,47.36c-1.93,0-3.46,0.67-4.61,2.01c-1.15,1.34-1.72,3.14-1.72,5.4c0,2,0.53,3.62,1.6,4.84
				c1.07,1.22,2.48,1.83,4.24,1.83c1.9,0,3.46-0.7,4.66-2.11c1.2-1.4,1.81-3.23,1.81-5.47c0-2.09-0.52-3.7-1.55-4.82
				C63.58,47.92,62.1,47.36,60.17,47.36z M62.66,57.92c-0.68,0.95-1.63,1.42-2.84,1.42c-1.11,0-1.97-0.44-2.59-1.31
				c-0.62-0.87-0.92-2.1-0.92-3.68c0-1.61,0.33-2.85,0.98-3.7c0.65-0.86,1.6-1.28,2.85-1.28c1.12,0,1.99,0.4,2.61,1.2
				c0.62,0.8,0.93,1.93,0.93,3.38C63.68,55.65,63.34,56.97,62.66,57.92z"/>
		</g>
	</g>
</g>
</svg>
