<?xml version="1.0" encoding="utf-8"?>
<!-- Generator: Adobe Illustrator 24.1.0, SVG Export Plug-In . SVG Version: 6.00 Build 0)  -->
<svg version="1.1" id="Layer_1" xmlns="http://www.w3.org/2000/svg" xmlns:xlink="http://www.w3.org/1999/xlink" x="0px" y="0px"
	 viewBox="0 0 100.12 100.12" style="enable-background:new 0 0 100.12 100.12;" xml:space="preserve">
<style type="text/css">
	.st0{fill:#0087B0;}
	.st1{fill:#606060;}
	.st2{fill:#FFFFFF;}
</style>
<g>
	<g>
		<path class="st0" d="M50.06,98.62C23.28,98.62,1.5,76.83,1.5,50.06S23.28,1.5,50.06,1.5s48.56,21.78,48.56,48.56
			S76.83,98.62,50.06,98.62z M50.06,3.5C24.39,3.5,3.5,24.39,3.5,50.06s20.89,46.56,46.56,46.56s46.56-20.89,46.56-46.56
			S75.73,3.5,50.06,3.5z"/>
	</g>
	<g>
		<path class="st1" d="M66.85,42.9c-0.06,0.64-0.58,1.15-1.22,1.2c-0.46,2.35-1.24,4.51-1.98,6.23
			C65.77,48.76,67.24,46.41,66.85,42.9z"/>
		<path class="st0" d="M27.99,82.68l0.45-7.81c0.15-6.31,5.78-8.16,6.96-8.48c1.69-0.65,5.9-2.21,6.75-2.57c0,0,1.78-0.9,1.92-4.5
			c0,0,0.16-1.48,0.12-2.44c-0.93-0.73-1.77-1.62-2.51-2.64c1.8,4.12-4.15,10.35-4.15,10.35c2.74-3.08,2.11-8.19,2.11-8.19
			c-0.33-1.45-0.44-2.03-3.75-10.55c-2.72-7.01-1.2-11.04-1.2-11.04c2.52-7.72,7.22-10.13,7.22-10.13
			c10.6-5.65,18.17,1.25,18.17,1.25c3.65,3.1,5.01,8,5.55,11.39c0.66,0.08,1.13,0.65,1.13,1.33v1.14c0.7,0.72,2.44,3.64,0.41,8.02
			c0,0-1.1,2.24-4.3,4.15c-0.68,1.38-1.19,2.2-1.19,2.2C59.31,56.39,60.42,64,60.42,64c-1.83-2.2-1.26-7.82-0.76-10.57
			c-0.17,0.06-0.33,0.11-0.51,0.17c-0.91,1.42-2.01,2.61-3.26,3.52c0,0.94,0.13,2.2,0.13,2.2c0.14,3.6,1.92,4.5,1.92,4.5
			c0.85,0.36,5.01,1.91,6.72,2.57c1.1,0.29,6.85,2.1,7.01,8.48l0.46,7.81H27.99z"/>
		<path class="st1" d="M59.94,52.22c-0.01,0-0.01,0-0.02,0.01c-0.01,0.02-0.01,0.04-0.02,0.06C59.92,52.26,59.93,52.24,59.94,52.22z
			"/>
		<g>
			<path class="st2" d="M59.94,52.22c-0.01,0.02-0.02,0.05-0.03,0.07c0.01-0.02,0.01-0.04,0.02-0.06c-2.16,0.75-4.32,1.06-5.64,1.19
				c0.07,0.17,0.11,0.36,0.11,0.55c0,0.19-0.04,0.38-0.11,0.54c1.86-0.15,3.47-0.47,4.87-0.9c0.17-0.05,0.34-0.11,0.51-0.17
				c1.26-0.43,2.33-0.94,3.23-1.48c0.24-0.48,0.49-1.03,0.75-1.63C62.53,51.15,61.24,51.76,59.94,52.22z"/>
			<path class="st2" d="M54.36,53.95c0-0.2-0.04-0.38-0.11-0.56c0,0,0,0,0,0c-0.22-0.53-0.7-0.88-1.3-0.88H47.7
				c-0.79,0-1.45,0.61-1.45,1.4c0,0.79,0.65,1.4,1.45,1.4h5.25c0.59,0,1.06-0.32,1.29-0.82c0.01,0,0.01,0,0.02,0
				C54.32,54.33,54.36,54.15,54.36,53.95z"/>
		</g>
		<path class="st2" d="M66.77,42.33v-2.54v-1.14c0-0.66-0.45-1.21-1.08-1.32c0-0.01,0-0.02,0-0.03c-0.05-0.01-0.11-0.03-0.16-0.03
			h-0.39c-0.73,0-1.34,0.64-1.34,1.38v4.13c0,0.73,0.61,1.33,1.34,1.33h0.39c0.04,0,0.1,0,0.14,0c0.19-0.96,0.24-1.96,0.41-2.96v0
			c-0.18,1.01-0.22,2-0.41,2.97c0.64-0.05,1.14-0.56,1.21-1.2C66.84,42.71,66.8,42.52,66.77,42.33z"/>
	</g>
</g>
</svg>
