<?xml version="1.0" encoding="utf-8"?>
<!-- Generator: Adobe Illustrator 24.1.0, SVG Export Plug-In . SVG Version: 6.00 Build 0)  -->
<svg version="1.1" id="Layer_1" xmlns="http://www.w3.org/2000/svg" xmlns:xlink="http://www.w3.org/1999/xlink" x="0px" y="0px"
	 viewBox="0 0 100.12 100.12" style="enable-background:new 0 0 100.12 100.12;" xml:space="preserve">
<style type="text/css">
	.st0{fill:#0087B0;}
</style>
<g>
	<g>
		<path class="st0" d="M50.06,98.62C23.28,98.62,1.5,76.83,1.5,50.06S23.28,1.5,50.06,1.5s48.56,21.78,48.56,48.56
			S76.83,98.62,50.06,98.62z M50.06,3.5C24.39,3.5,3.5,24.39,3.5,50.06s20.89,46.56,46.56,46.56s46.56-20.89,46.56-46.56
			S75.73,3.5,50.06,3.5z"/>
	</g>
	<g>
		<g>
			<g>
				<g>
					<path class="st0" d="M76.86,63.16c-3.7,0-6.7,3-6.7,6.7c0,3.7,3,6.7,6.7,6.7s6.7-3,6.7-6.7
						C83.56,66.17,80.56,63.16,76.86,63.16z M76.86,72.51c-1.46,0-2.64-1.18-2.64-2.64c0-1.46,1.18-2.64,2.64-2.64
						c1.46,0,2.64,1.18,2.64,2.64C79.5,71.33,78.32,72.51,76.86,72.51z"/>
				</g>
			</g>
			<g>
				<g>
					<path class="st0" d="M38.27,63.16c-3.7,0-6.7,3-6.7,6.7c0,3.7,3,6.7,6.7,6.7c3.7,0,6.7-3,6.7-6.7
						C44.97,66.17,41.97,63.16,38.27,63.16z M38.27,72.51c-1.46,0-2.64-1.18-2.64-2.64c0-1.46,1.18-2.64,2.64-2.64
						c1.46,0,2.64,1.18,2.64,2.64C40.91,71.33,39.73,72.51,38.27,72.51z"/>
				</g>
			</g>
			<g>
				<g>
					<path class="st0" d="M65.74,46.12c0,0,1.07-0.66,1.48,0.03c0.41,0.69-0.46,1.1-0.46,1.1S65.69,46.57,65.74,46.12z"/>
					<path class="st0" d="M66.75,47.38l-0.06-0.04c-0.19-0.12-1.13-0.74-1.08-1.24l0.01-0.06l0.05-0.03c0.02-0.01,0.5-0.3,0.96-0.3
						c0.31,0,0.55,0.13,0.69,0.37c0.13,0.21,0.16,0.42,0.1,0.63c-0.13,0.41-0.59,0.63-0.61,0.64L66.75,47.38z M65.86,46.19
						c0.05,0.26,0.52,0.66,0.9,0.91c0.11-0.06,0.35-0.23,0.42-0.46c0.04-0.14,0.02-0.28-0.07-0.43c-0.1-0.17-0.26-0.25-0.48-0.25
						C66.32,45.96,65.99,46.12,65.86,46.19z"/>
				</g>
			</g>
			<g>
				<g>
					<path class="st0" d="M49.84,45.15c0,0-1.29,1.48-1.53,2.18c0,0,5,0.6,5.82,0.05C54.12,47.38,51.67,44.65,49.84,45.15z"/>
				</g>
			</g>
			<g>
				<g>
					<path class="st0" d="M73.29,30.16c0,0,1.35-8.38-9.42-7.88c-6.54,0-4.74,8.66-4.03,11.34l-0.31,0.71l1.71,1.02l-0.64,0.76
						c-0.42-0.22-0.93-0.46-1.54-0.71c0,0-3.08,1.51-5.06,3.61c-2.15,2.27-5.1,6.84-5.7,8.32c0,0-1.65,1.77,0,3.25
						c1.65,1.48,8.7,2.04,11.78,1.82c0,0-2.6,3.04-2.97,5.42c-0.37,2.38-2.09,6.13-2.09,6.13s0.09,0.06,0.21,0.15l-0.57,1.16
						c0,0,0,0,0,0s-0.25,0.44-0.29,0.75c-0.29,0.02-0.44,0.89-0.44,0.89c1.23,1.14,3.89,0.78,3.89,0.78s0.17-0.67-0.45-1.17
						c-0.62-0.5-1.95-0.28-1.95-0.28l0.23-0.64l0.38-0.78c0.14,0.15,0.25,0.31,0.33,0.46c0,0,6.57-10.88,5.75-13.4
						c-0.67-2.06-5.6-3.76-7.37-4.31l0.13,0.01c0,0,0.68-0.8,1.52-1.68c1.78,1.3,4.86,2.87,4.86,2.87c0.02-0.64,0.49-1.32,0.97-1.85
						l0.98,0.22c0,0,0.27-0.82,1.32-0.43c1.04,0.39-0.3,1.3-0.3,1.3s0.1,0.28,1.1,0.4c1,0.13,2.25-0.6,0.85-1.93
						c-1.4-1.33-2.45-0.12-2.45-0.12l-0.78-0.14c0.16-0.14,0.26-0.22,0.26-0.22l-4.92-1.84c0.19-0.14,0.36-0.26,0.52-0.34
						c1.47-0.78,3.48-3.16,3.58-4.47c0.07-0.79,0.5-1.36-0.2-2.12l0.75-0.84l4.95,2.96L68.14,39l-0.17-0.11
						c0.71-0.46,3.35-2.22,3.28-3.12c0,0-5.68-1.86-6.69-6.35C63.49,24.66,73.29,30.16,73.29,30.16z"/>
				</g>
			</g>
			<g>
				<g>
					<path class="st0" d="M65.14,47.51c0,0.55-0.45,1-1,1c-0.55,0-1-0.45-1-1c0-0.55,0.45-1,1-1C64.7,46.51,65.14,46.96,65.14,47.51
						z"/>
				</g>
			</g>
			<g>
				<g>
					<path class="st0" d="M72.74,46.82c0,1.29-0.47,2.34-1.04,2.34c-0.58,0-1.04-1.05-1.04-2.34c0-1.29,0.47-2.34,1.04-2.34
						C72.27,44.48,72.74,45.52,72.74,46.82z"/>
				</g>
			</g>
			<g>
				<g>
					<path class="st0" d="M72.86,60.49c0,0-0.79-5.25-2.52-7.92c-1.73-2.67-0.6-4.16-0.6-4.16c0.54,0.74,1.09,0.6,1.09,0.6
						c-0.84-1.93,0-4.23,0-4.23c-0.69,0.07-1.19,0.57-1.19,0.57s-0.3-1.68-1.49-1.78c-1.2-0.1-2.64,2.43-2.64,2.43l2.95,6.93
						c0,0-2.92-0.35-1.92,6.34c1,6.68-0.56,7.62-0.56,7.62C55.63,68.7,53.95,66.9,53.95,66.9c-4.44-5.47-0.51-10.25,0.73-11.52
						c3,0.21,2.36-2.91,1.22-3.03c-11.61-1.22-7.29-6.09-10.4-3.38c-3.1,2.71,0.49,6.42,0.5,6.43c-1.26,0.16-2.1,0.3-2.1,0.3
						l-0.05-0.64H31.18v0.54c2.67,0.59,1.58,3.71,1.58,3.71c-2.21-0.68-3.14-0.22-3.48,0.08c-0.03-0.01-0.06-0.01-0.08-0.01
						c-0.35,0-0.64,0.64-0.64,1.44c0,0.79,0.29,1.44,0.64,1.44l0,0c-0.2,0.22-0.39,0.33-0.39,0.33c-6.43,8.07-1.58,6.19-1.58,6.19
						l19.75,0.25c0.05,0.89,1.34,1.04,1.34,1.04s11.73,0.2,14.84,0.2s5.06-2.51,5.06-2.51c-0.49,0.61-0.87,1.72-0.87,1.72
						c3.14-0.99,0.97-0.94,5.92-5.02c4.95-4.08,10.64,0,10.64,0C80.58,57.14,72.86,60.49,72.86,60.49z"/>
				</g>
			</g>
			<g>
				<g>
					<rect x="16.23" y="54.25" class="st0" width="27.63" height="0.8"/>
				</g>
			</g>
			<g>
				<g>
					<polygon class="st0" points="42.12,36.52 19.06,36.52 19.06,38.25 17.33,38.25 17.33,54.25 43.85,54.25 43.85,38.25 					"/>
				</g>
			</g>
		</g>
	</g>
</g>
</svg>
