<?xml version="1.0" encoding="utf-8"?>
<!-- Generator: Adobe Illustrator 24.1.0, SVG Export Plug-In . SVG Version: 6.00 Build 0)  -->
<svg version="1.1" id="Layer_1" xmlns="http://www.w3.org/2000/svg" xmlns:xlink="http://www.w3.org/1999/xlink" x="0px" y="0px"
	 viewBox="0 0 110.12 110.12" style="enable-background:new 0 0 110.12 110.12;" xml:space="preserve">
<style type="text/css">
	.st0{fill:#0087B0;}
	.st1{fill:#1FB584;}
</style>
<g>
	<g>
		<path class="st0" d="M55.06,109.26c-29.89,0-54.21-24.32-54.21-54.21s24.32-54.2,54.21-54.2c29.89,0,54.2,24.32,54.2,54.2
			S84.95,109.26,55.06,109.26z M55.06,3.09C26.4,3.09,3.09,26.4,3.09,55.06s23.32,51.97,51.97,51.97s51.97-23.32,51.97-51.97
			S83.72,3.09,55.06,3.09z"/>
	</g>
	<g>
		<path class="st1" d="M68.44,31.36c-4.07,0-7.39,3.32-7.39,7.39v6.29l9.67,4.8h6.96c1.02,0,1.85,0.83,1.85,1.85
			s-0.83,1.85-1.85,1.85h-5.14l1.48,7.39h3.66c1.02,0,1.85,0.83,1.85,1.85s-0.83,1.85-1.85,1.85h-2.92l1.04,5.18
			c0.2,1-0.45,1.97-1.45,2.17c-0.99,0.2-1.97-0.44-2.17-1.45c-0.39-1.96-3.14-15.69-3.52-17.59l-7.6-3.77v13.65
			c0,10.39,7.87,20.28,20.32,20.28c0.01-0.01,5.54-0.17,5.54-5.54V55.38C86.92,44.32,79.47,31.36,68.44,31.36z"/>
		<path class="st1" d="M33.09,49.83h6.96l9.67-4.8v-6.29c0-4.07-3.32-7.39-7.39-7.39c-10.98,0-18.48,12.91-18.48,24.02v22.17
			c0,3.05,2.53,5.53,5.54,5.54c12.54,0,20.32-9.97,20.32-20.28V49.16l-7.6,3.77c-0.38,1.88-3.13,15.64-3.52,17.59
			c-0.2,1-1.18,1.65-2.17,1.45c-1-0.2-1.65-1.17-1.45-2.17l1.04-5.18h-2.92c-1.02,0-1.85-0.83-1.85-1.85s0.83-1.85,1.85-1.85h3.66
			l1.48-7.39h-5.14c-1.02,0-1.85-0.83-1.85-1.85S32.07,49.83,33.09,49.83L33.09,49.83z"/>
		<path class="st1" d="M57.23,43.14V21.87c0-1.02-0.83-1.85-1.85-1.85s-1.85,0.83-1.85,1.85v21.27l-3.82,1.89v4.12l5.67-2.81
			l5.67,2.81v-4.12L57.23,43.14z"/>
	</g>
</g>
</svg>
