<?xml version="1.0" encoding="utf-8"?>
<!-- Generator: Adobe Illustrator 24.1.0, SVG Export Plug-In . SVG Version: 6.00 Build 0)  -->
<svg version="1.1" id="Layer_1" xmlns="http://www.w3.org/2000/svg" xmlns:xlink="http://www.w3.org/1999/xlink" x="0px" y="0px"
	 viewBox="0 0 110.12 110.12" style="enable-background:new 0 0 110.12 110.12;" xml:space="preserve">
<style type="text/css">
	.st0{fill:#0087B0;}
	.st1{fill:#1FB584;}
</style>
<g>
	<g>
		<path class="st0" d="M55.06,109.26c-29.89,0-54.21-24.32-54.21-54.21s24.32-54.2,54.21-54.2c29.89,0,54.2,24.32,54.2,54.2
			S84.95,109.26,55.06,109.26z M55.06,3.09C26.4,3.09,3.09,26.4,3.09,55.06s23.32,51.97,51.97,51.97s51.97-23.32,51.97-51.97
			S83.72,3.09,55.06,3.09z"/>
	</g>
	<g>
		<path class="st1" d="M53.35,32.5c1.69,0,3.25-0.98,3.99-2.51l2.12-4.45H43.47v6.96H53.35z"/>
		<path class="st1" d="M94.58,76.1L70.43,51.95c-1.56-1.56-3.63-2.42-5.84-2.42c-1.45,0-2.84,0.37-4.07,1.07l-3.5-3.5
			c-0.07-0.07-0.15-0.14-0.24-0.2c6.3-2.92,10.68-9.3,10.68-16.71c0-2.08-1.36-3.84-3.24-4.44l-2.92,6.13
			c-1.47,3.05-4.59,5.01-7.96,5.01H41.26c-1.22,0-2.2-0.99-2.2-2.2v-9.16H20.01V48.6h25.67c-0.19,0.18-0.35,0.39-0.47,0.63
			l-3.64,7.29c-0.98,1.96-0.88,4.24,0.27,6.11c1.15,1.86,3.15,2.98,5.34,2.98c2.19,0,4.19-1.11,5.34-2.98
			c1.15-1.86,1.26-4.15,0.27-6.11l-3.64-7.29c-0.12-0.24-0.28-0.45-0.47-0.63h0.39c1.47,0,2.9-0.17,4.28-0.5
			c-0.19,0.73,0,1.55,0.57,2.12l3.5,3.5c-0.7,1.23-1.07,2.62-1.07,4.07c0,2.2,0.86,4.28,2.42,5.84l24.15,24.15
			c0.43,0.43,0.99,0.65,1.56,0.65c0.56,0,1.13-0.22,1.56-0.65l8.55-8.55C95.44,78.36,95.44,76.96,94.58,76.1z M85.53,78.72
			c-0.43,0.43-0.99,0.65-1.56,0.65c-0.56,0-1.13-0.21-1.56-0.65l-4.59-4.59c-0.86-0.86-0.86-2.26,0-3.12c0.86-0.86,2.26-0.86,3.12,0
			l4.59,4.59C86.39,76.46,86.39,77.86,85.53,78.72z"/>
	</g>
</g>
</svg>
