<?xml version="1.0" encoding="utf-8"?>
<!-- Generator: Adobe Illustrator 24.1.0, SVG Export Plug-In . SVG Version: 6.00 Build 0)  -->
<svg version="1.1" id="Layer_1" xmlns="http://www.w3.org/2000/svg" xmlns:xlink="http://www.w3.org/1999/xlink" x="0px" y="0px"
	 viewBox="0 0 110.12 110.12" style="enable-background:new 0 0 110.12 110.12;" xml:space="preserve">
<style type="text/css">
	.st0{fill:#0087B0;}
	.st1{fill:#1FB584;}
</style>
<g>
	<g>
		<path class="st0" d="M55.06,109.26c-29.89,0-54.21-24.32-54.21-54.21s24.32-54.2,54.21-54.2s54.2,24.32,54.2,54.2
			S84.95,109.26,55.06,109.26z M55.06,3.09C26.4,3.09,3.09,26.4,3.09,55.06s23.32,51.97,51.97,51.97
			c28.66,0,51.97-23.32,51.97-51.97S83.72,3.09,55.06,3.09z"/>
	</g>
	<g>
		<path class="st1" d="M64.39,19.11c-0.48,0.85-0.94,1.6-1.35,2.38c-1.34,2.54-2.68,5.09-3.99,7.64c-1.69,3.29-2.97,6.75-4.36,10.17
			c-0.75,1.85-1.53,3.69-2.24,5.55c-0.86,2.24-0.92,4.5,0.14,6.71c0.35,0.73,0.85,1.38,1.18,2.11c0.54,1.19,0.74,2.46,0.46,3.75
			c-0.29,1.32-1.13,2.3-2.23,3.05c-1.05,0.72-2.2,1.09-3.5,0.86c-1.1-0.2-1.75-0.9-2.19-1.87c-0.38-0.83-0.82-1.64-1.69-2.02
			c-0.55-0.24-1.18-0.39-1.77-0.4c-1.42-0.02-2.65-0.37-3.49-1.6c-0.74-1.1-0.82-2.31-0.56-3.56c0.32-1.52,1.18-2.73,2.36-3.72
			c1.98-1.66,3.52-3.7,4.83-5.89c1.58-2.65,3.08-5.36,4.54-8.07c0.84-1.56,1.56-3.18,2.3-4.79c1.06-2.3,2.1-4.6,3.13-6.92
			c0.43-0.97,0.82-1.97,1.22-2.95c0.09-0.22,0.17-0.43,0.49-0.43C59.88,19.12,62.08,19.11,64.39,19.11z"/>
		<path class="st1" d="M69.18,90.01c-2.24,0.84-4.38,1.65-6.53,2.47c-0.31,0.12-0.45,0.06-0.62-0.26c-1.38-2.61-2.73-5.24-4.2-7.81
			c-1.33-2.32-2.77-4.6-4.23-6.84c-1.35-2.07-2.81-4.07-4.64-5.77c-0.66-0.61-1.34-1.23-2.3-1.32c-0.26-0.02-0.58-0.01-0.78,0.13
			c-1.01,0.68-1.93,0.4-2.8-0.23c-0.94-0.68-1.47-1.64-1.73-2.76c-0.43-1.8-0.34-3.56,0.59-5.21c0.62-1.09,1.68-1.61,2.92-0.88
			c1.05,0.62,2.17,1.07,3.43,1.16c1.58,0.11,2.91-0.47,4.2-1.27c0.68-0.43,1.36-0.88,2.07-1.26c1.78-0.96,3.39,0.01,4.22,1.46
			c0.77,1.36,0.52,2.72-0.1,4.07c-0.25,0.56-0.49,1.13-0.73,1.69c-0.51,1.21-0.31,2.39,0.18,3.55c1.32,3.18,2.91,6.22,4.69,9.16
			c1.78,2.93,3.65,5.81,5.49,8.7C68.58,89.22,68.87,89.59,69.18,90.01z"/>
		<path class="st1" d="M63.23,72.61c-0.05-0.13-0.14-0.32-0.21-0.52c-0.4-1.13-0.81-2.26-1.17-3.41c-0.15-0.48-0.23-1.01,0.31-1.37
			c0.08-0.05,0.12-0.17,0.15-0.27c0.32-1.2-1.13-2.68-2.3-2.42c-0.28,0.68-0.53,1.34-0.83,1.98c-0.36,0.78-0.73,1.54-0.67,2.44
			c0.06,0.95,0.49,1.75,0.93,2.55c1.04,1.89,2.09,3.77,3.12,5.67c1.39,2.55,2.7,5.15,4.16,7.66c0.9,1.55,2.01,2.98,3.03,4.46
			c0.08,0.12,0.3,0.26,0.41,0.24c0.41-0.11,0.81-0.28,1.19-0.42c-2.62-5.21-5.22-10.39-7.81-15.55L63.23,72.61z"/>
		<path class="st1" d="M34.19,54.65c0.01-1.58,0.26-2.96,0.91-4.25c0.25-0.51,0.69-0.72,1.22-0.61c0.52,0.11,0.8,0.49,0.83,1.08
			c0.05,0.93,0.02,1.88,0.19,2.78c0.39,2.1,1.32,3.92,3.23,5.07c0.53,0.32,1.03,0.6,1.17,1.27c0.16,0.73-0.16,1.71-1.2,1.89
			c-1.9,0.33-3.39-0.37-4.55-1.83C34.71,58.44,34.21,56.55,34.19,54.65z"/>
	</g>
</g>
</svg>
