<?xml version="1.0" encoding="utf-8"?>
<!-- Generator: Adobe Illustrator 24.1.0, SVG Export Plug-In . SVG Version: 6.00 Build 0)  -->
<svg version="1.1" id="Layer_1" xmlns="http://www.w3.org/2000/svg" xmlns:xlink="http://www.w3.org/1999/xlink" x="0px" y="0px"
	 viewBox="0 0 110.12 110.12" style="enable-background:new 0 0 110.12 110.12;" xml:space="preserve">
<style type="text/css">
	.st0{fill:#0087B0;}
	.st1{fill:#1FB584;}
</style>
<g>
	<g>
		<path class="st0" d="M55.06,109.26c-29.89,0-54.2-24.32-54.2-54.21s24.32-54.2,54.2-54.2s54.21,24.32,54.21,54.2
			S84.95,109.26,55.06,109.26z M55.06,3.09C26.4,3.09,3.09,26.4,3.09,55.06s23.31,51.97,51.97,51.97s51.97-23.32,51.97-51.97
			S83.72,3.09,55.06,3.09z"/>
	</g>
	<g>
		<path class="st1" d="M96.95,52.37c0.12-7.94-2.5-15.67-7.41-21.91c-2.49-3.1-5.69-5.56-9.32-7.19c-2.59-1.14-5.4-1.73-8.23-1.73
			c-4.05,0-7.34,4.17-7.34,9.3c-0.04,2.42,0.75,4.78,2.25,6.67c1.21,1.61,3.08,2.58,5.09,2.62c0.81,0,1.47,0.66,1.47,1.47
			c0,0.81-0.66,1.47-1.47,1.47c-4.05,0-7.34,4.17-7.34,9.3c-0.04,2.42,0.75,4.78,2.25,6.67l0.01,0.01c1.21,1.6,3.08,2.57,5.08,2.61
			c0.81,0,1.47,0.66,1.47,1.47s-0.66,1.47-1.47,1.47c-4.05,0-7.34,4.17-7.34,9.3c-0.04,2.42,0.75,4.77,2.25,6.67
			c1.21,1.61,3.08,2.58,5.09,2.62c2.83,0,5.63-0.59,8.22-1.73C90.22,77.15,96.95,65.45,96.95,52.37z"/>
		<path class="st1" d="M39.69,64.6c-0.81,0-1.47-0.66-1.47-1.47s0.66-1.47,1.47-1.47c2.01-0.05,3.88-1.01,5.09-2.61l0.01-0.01
			c1.5-1.9,2.29-4.26,2.25-6.67c0-5.13-3.29-9.3-7.34-9.3c-0.81,0-1.47-0.66-1.47-1.47c0-0.81,0.66-1.47,1.47-1.47
			c2.01-0.05,3.88-1.01,5.09-2.61c1.5-1.9,2.3-4.26,2.25-6.68c0-5.13-3.29-9.3-7.34-9.3c-2.83,0-5.63,0.59-8.22,1.73
			c-3.64,1.62-6.84,4.09-9.33,7.19c-4.91,6.24-7.52,13.97-7.4,21.91c0,13.08,6.72,24.78,16.74,29.1c2.59,1.14,5.39,1.73,8.22,1.73
			c2.01-0.05,3.88-1.01,5.09-2.61c1.5-1.9,2.3-4.26,2.25-6.68C47.03,68.77,43.74,64.6,39.69,64.6z"/>
		<path class="st1" d="M58.78,102.28c-0.81,0-1.47-0.66-1.47-1.47V55.3c0-2.43,1.97-4.4,4.4-4.4c0.81,0,1.47,0.66,1.47,1.47
			c0,0.81-0.66,1.47-1.47,1.47c-0.81,0-1.47,0.66-1.47,1.47v45.51C60.25,101.62,59.59,102.28,58.78,102.28z"/>
		<path class="st1" d="M52.91,102.28c-0.81,0-1.47-0.66-1.47-1.47V55.3c0-0.81-0.66-1.47-1.47-1.47s-1.47-0.66-1.47-1.47
			c0-0.81,0.66-1.47,1.47-1.47c2.43,0,4.4,1.97,4.4,4.4v45.51C54.37,101.62,53.72,102.28,52.91,102.28z"/>
	</g>
</g>
</svg>
