<?xml version="1.0" encoding="utf-8"?>
<!-- Generator: Adobe Illustrator 24.1.0, SVG Export Plug-In . SVG Version: 6.00 Build 0)  -->
<svg version="1.1" id="Layer_1" xmlns="http://www.w3.org/2000/svg" xmlns:xlink="http://www.w3.org/1999/xlink" x="0px" y="0px"
	 viewBox="0 0 9.62 12.64" style="enable-background:new 0 0 9.62 12.64;" xml:space="preserve">
<style type="text/css">
	.st0{fill:#FFFFFF;}
	.st1{fill:#0087B0;}
</style>
<g>
	<path class="st0" d="M7.16,8.57c-0.86,1.4-1.7,2.56-1.73,2.61l-0.62,0.85l-0.62-0.85c-0.03-0.05-0.88-1.21-1.74-2.61
		c-1.21-1.98-1.8-3.35-1.8-4.19c0-2.08,1.86-3.78,4.16-3.78c2.29,0,4.15,1.7,4.15,3.78C8.97,5.23,8.38,6.6,7.16,8.57z"/>
	<path class="st1" d="M4.81,2.36c-1.19,0-2.16,0.88-2.16,1.96c0,1.08,0.97,1.96,2.16,1.96C6,6.28,6.97,5.4,6.97,4.32
		C6.97,3.24,6,2.36,4.81,2.36z"/>
</g>
</svg>
