<?xml version="1.0" encoding="utf-8"?>
<!-- Generator: Adobe Illustrator 24.1.0, SVG Export Plug-In . SVG Version: 6.00 Build 0)  -->
<svg version="1.1" id="Layer_1" xmlns="http://www.w3.org/2000/svg" xmlns:xlink="http://www.w3.org/1999/xlink" x="0px" y="0px"
	 viewBox="0 0 110.12 110.12" style="enable-background:new 0 0 110.12 110.12;" xml:space="preserve">
<style type="text/css">
	.st0{fill:#0087B0;}
	.st1{fill:#1FB584;}
</style>
<g>
	<g>
		<path class="st0" d="M55.06,109.26c-29.89,0-54.2-24.32-54.2-54.21s24.32-54.2,54.2-54.2s54.21,24.32,54.21,54.2
			S84.95,109.26,55.06,109.26z M55.06,3.09C26.4,3.09,3.09,26.4,3.09,55.06s23.31,51.97,51.97,51.97s51.97-23.32,51.97-51.97
			S83.72,3.09,55.06,3.09z"/>
	</g>
	<g>
		<g>
			<g>
				<path class="st1" d="M78.04,25.15H54.39c-18.67,0-27.03,14.14-27.03,28.15v19.15c0,5.51,0,15.77,3.38,15.77
					c2.34,0,3.87-3.08,5.35-6.76c0.25-0.62,0.49-1.25,0.74-1.89c2.25-5.79,5.02-12.91,11.67-13.78c0.46-0.06,0.92-0.09,1.38-0.09
					c0.77,0,1.51-0.04,2.23-0.09c0.21-0.02,0.42-0.03,0.62-0.06c0.58-0.06,1.14-0.14,1.69-0.23c0.21-0.04,0.42-0.08,0.63-0.12
					c1.32-0.26,2.61-0.68,3.84-1.23v-8.4c0.12-2.28-1.11-4.43-3.13-5.49c-2.74-1.61-7.24-2.4-13.76-2.4
					c-0.04-0.01-0.07-0.01-0.11-0.02c-0.18,1.38-0.99,2.6-2.21,3.28c-0.56,0.28-1.23,0.05-1.51-0.5c-0.28-0.56-0.05-1.23,0.5-1.51
					c0.75-0.55,1.15-1.45,1.07-2.37c0.09-0.92-0.32-1.82-1.07-2.37c-0.36-0.18-0.6-0.54-0.62-0.94c-0.02-0.4,0.17-0.79,0.5-1.01
					c0.34-0.22,0.77-0.25,1.13-0.07c1.21,0.68,2.03,1.9,2.21,3.28c0.03-0.01,0.07-0.02,0.11-0.02c6.87,0,11.73,0.87,14.82,2.66
					l0.32,0.13c1.52,0.6,2.96,1.17,4.13,0.57c1.19-0.61,2.17-2.42,2.92-5.38c0.52-3.06,1.65-7.37,4-9.99
					c1.77-1.63,4.07-2.56,6.47-2.63c0.04,0.01,0.07,0.01,0.11,0.02c0.18-1.38,0.99-2.6,2.21-3.28c0.56-0.28,1.23-0.05,1.51,0.5
					c0.28,0.56,0.05,1.23-0.5,1.51c-0.75,0.55-1.15,1.45-1.07,2.37c-0.09,0.92,0.32,1.82,1.07,2.37c0.55,0.28,0.78,0.95,0.5,1.51
					c-0.28,0.56-0.95,0.78-1.51,0.5c-1.21-0.68-2.03-1.9-2.21-3.28c-0.03,0.01-0.07,0.02-0.11,0.02c-1.79,0.06-3.49,0.74-4.83,1.92
					c-1.54,1.72-2.74,4.81-3.44,8.91c-0.57,3.87-0.81,7.78-0.74,11.69v3l0.02-0.02c0.49-0.54,0.96-1.05,1.44-1.52
					c1.36-1.36,2.24-3.52,3.27-6.01c1.31-3.19,2.79-6.8,5.74-9.75c2.21-2,4.7-3.68,7.38-5c3.72-2.05,6.93-3.82,6.93-6.59
					C90.42,26.48,88.7,25.15,78.04,25.15z"/>
				<path class="st1" d="M58.62,66.5c0.09,0.06,0.18,0.1,0.27,0.16v-0.27C58.8,66.43,58.71,66.46,58.62,66.5L58.62,66.5z"/>
				<path class="st1" d="M53.84,67.68c-0.52,0.07-1.06,0.13-1.6,0.17c-0.15,0.01-0.3,0.02-0.45,0.03c-0.62,0.04-1.25,0.06-1.91,0.06
					c-6.12,0-8.58,6.32-10.95,12.44c-0.19,0.49-0.38,0.98-0.57,1.46l-0.01,0.04c1.15,2.75,3.46,4.08,7.04,4.08
					c3.04,0,5.09-0.6,6.27-1.82c1.68-1.75,1.56-4.82,1.43-8.06c-0.11-2.8-0.24-5.88,0.91-8.41C53.94,67.67,53.89,67.68,53.84,67.68z
					"/>
				<path class="st1" d="M62.93,50.38c-0.2,0.15-0.42,0.28-0.64,0.4c-0.66,0.34-1.39,0.51-2.13,0.5l-0.02,0l-0.04,0
					c0.71,1.31,1.07,2.78,1.04,4.27v31.53c0,0.62,0.5,1.13,1.13,1.13c0.62,0,1.13-0.5,1.13-1.13V55.56c0-1.47,0-3.46,0.11-5.66
					c-0.12,0.12-0.25,0.22-0.38,0.32C63.06,50.27,63,50.33,62.93,50.38z"/>
			</g>
		</g>
	</g>
</g>
</svg>
