<?xml version="1.0" encoding="utf-8"?>
<!-- Generator: Adobe Illustrator 24.1.0, SVG Export Plug-In . SVG Version: 6.00 Build 0)  -->
<svg version="1.1" id="Layer_1" xmlns="http://www.w3.org/2000/svg" xmlns:xlink="http://www.w3.org/1999/xlink" x="0px" y="0px"
	 viewBox="0 0 110.12 110.12" style="enable-background:new 0 0 110.12 110.12;" xml:space="preserve">
<style type="text/css">
	.st0{fill:#0087B0;}
	.st1{fill:#1FB584;}
</style>
<g>
	<g>
		<path class="st0" d="M55.06,109.26c-29.89,0-54.2-24.32-54.2-54.21s24.32-54.2,54.2-54.2s54.21,24.32,54.21,54.2
			S84.95,109.26,55.06,109.26z M55.06,3.09C26.4,3.09,3.09,26.4,3.09,55.06s23.31,51.97,51.97,51.97s51.97-23.32,51.97-51.97
			S83.72,3.09,55.06,3.09z"/>
	</g>
	<g>
		<g>
			<g>
				<path class="st1" d="M52.92,14.34c-2.38,0-4.55,0.92-6.17,2.43c-0.24-0.13-0.49-0.24-0.76-0.33c-2.46-0.83-5.14,0.5-5.97,2.96
					c-0.43,1.27-0.58,5.71-0.63,9.22l-0.12,7.77l4.61-6.26c0.44-0.6,0.91-1.24,1.37-1.89c1.61,2.54,4.45,4.24,7.67,4.24
					c5,0,9.07-4.07,9.07-9.07S57.92,14.34,52.92,14.34z"/>
			</g>
		</g>
		<g>
			<g>
				<path class="st1" d="M76.26,61.13c0-6.39-4.25-11.8-10.06-13.56c0.15-0.52,0.22-1.05,0.23-1.59c0.01-1.78-0.78-3.48-2.36-5.06
					l-0.14-0.14l-7.27-5.29c-0.43-0.31-0.94-0.48-1.46-0.48c-5.86,0-10.71,4.4-11.28,10.24l-3.2,34.77h9.58v18.86h4.98V80.03h14.45
					l-1.17-6.27C73.23,71.37,76.26,66.53,76.26,61.13z M66.82,63.44h-2.63c-7.85,0-14.24-6.39-14.24-14.24v-8h4.98v8
					c0,5.11,4.16,9.27,9.27,9.27h2.63V63.44z"/>
			</g>
		</g>
	</g>
</g>
</svg>
