<?xml version="1.0" encoding="utf-8"?>
<!-- Generator: Adobe Illustrator 24.1.0, SVG Export Plug-In . SVG Version: 6.00 Build 0)  -->
<svg version="1.1" id="Layer_1" xmlns="http://www.w3.org/2000/svg" xmlns:xlink="http://www.w3.org/1999/xlink" x="0px" y="0px"
	 viewBox="0 0 110.12 110.12" style="enable-background:new 0 0 110.12 110.12;" xml:space="preserve">
<style type="text/css">
	.st0{fill:#0087B0;}
	.st1{fill:#1FB584;}
</style>
<g>
	<g>
		<path class="st0" d="M55.06,109.26c-29.89,0-54.21-24.32-54.21-54.21s24.32-54.2,54.21-54.2c29.89,0,54.2,24.32,54.2,54.2
			S84.95,109.26,55.06,109.26z M55.06,3.09C26.4,3.09,3.09,26.4,3.09,55.06s23.32,51.97,51.97,51.97s51.97-23.32,51.97-51.97
			S83.72,3.09,55.06,3.09z"/>
	</g>
	<g>
		<path class="st1" d="M57.65,17.78c0,10.15-0.01,20.3,0.02,30.45c0,0.77-0.27,1.05-0.93,1.07c-0.93,0.03-1.87,0.01-2.81-0.02
			c-0.54-0.02-0.78-0.27-0.78-0.9c0.03-6.07,0.02-12.14,0.02-18.21c0-4.13,0-8.26,0-12.39C54.67,17.78,56.16,17.78,57.65,17.78z"/>
		<path class="st1" d="M53.18,94.26c0-8.58,0.01-17.16-0.02-25.75c0-0.63,0.17-0.96,0.78-0.97c1.01-0.02,2.02-0.02,3.03,0.01
			c0.53,0.02,0.7,0.32,0.7,0.88c-0.03,4.43-0.01,8.86-0.01,13.28c0,4.18,0,8.36,0,12.54C56.16,94.26,54.67,94.26,53.18,94.26z"/>
		<path class="st1" d="M62.12,83.2c0-1.98,0-3.95,0-5.91c0-3.81-0.01-7.62,0.02-11.42c0-0.58-0.15-0.92-0.68-1.23
			c-4.09-2.38-8.14-2.34-12.2,0.07c-0.42,0.25-0.56,0.51-0.56,0.99c0.02,5.58,0,11.15,0.02,16.73c0,0.63-0.13,0.9-0.81,0.99
			c-3.99,0.55-7.58-0.52-10.89-2.67c-4.52-2.92-7.76-7.01-10.31-11.67c-3.62-6.6-5.19-13.68-4.66-21.19
			c0.24-3.46,1.07-6.78,2.88-9.78c3.66-6.06,10.5-8.17,17.17-5.33c2.31,0.98,4.37,2.36,6.22,4.04c0.23,0.21,0.37,0.63,0.37,0.96
			c0.02,4.43,0.02,8.86,0.01,13.29c0,0.5,0.13,0.79,0.58,1.06c4.13,2.45,8.22,2.41,12.34-0.03c0.39-0.23,0.53-0.48,0.53-0.94
			c-0.02-4.46,0-8.91-0.02-13.37c0-0.47,0.13-0.77,0.48-1.08c2.51-2.17,5.27-3.9,8.52-4.73c6.01-1.54,11.83,0.96,14.94,6.37
			c1.68,2.93,2.52,6.12,2.72,9.45c0.69,11.41-2.9,21.3-10.82,29.55c-2.76,2.88-6.01,5.03-9.98,5.92
			C66.11,83.69,63.76,83.67,62.12,83.2z"/>
	</g>
</g>
</svg>
