<?xml version="1.0" encoding="utf-8"?>
<!-- Generator: Adobe Illustrator 24.1.0, SVG Export Plug-In . SVG Version: 6.00 Build 0)  -->
<svg version="1.1" id="Layer_1" xmlns="http://www.w3.org/2000/svg" xmlns:xlink="http://www.w3.org/1999/xlink" x="0px" y="0px"
	 viewBox="0 0 110.12 110.12" style="enable-background:new 0 0 110.12 110.12;" xml:space="preserve">
<style type="text/css">
	.st0{fill:#0087B0;}
	.st1{fill:#1FB584;}
</style>
<g>
	<g>
		<path class="st0" d="M55.06,109.26c-29.89,0-54.21-24.32-54.21-54.21s24.32-54.2,54.21-54.2c29.89,0,54.2,24.32,54.2,54.2
			S84.95,109.26,55.06,109.26z M55.06,3.09C26.4,3.09,3.09,26.4,3.09,55.06s23.32,51.97,51.97,51.97s51.97-23.32,51.97-51.97
			S83.72,3.09,55.06,3.09z"/>
	</g>
	<path class="st1" d="M20.58,61.28c5.38-4.1,10.14-4.07,16.32,0.24c2.78,1.94,5.57,3.77,8.95,4.53c9.01,2.02,16.7-2.45,19.23-11.34
		c0.6-2.09,0.91-4.29,1.09-6.46c0.28-3.31,0.32-6.64,2.62-9.51c-3.17-1.03-5.98-2.38-7.71-5.12c-0.92-1.46-1.44-3.18-2.1-4.8
		c-0.38-0.92-0.06-1.49,0.92-1.81c1.62-0.54,3.24-1.12,4.81-1.79c1.06-0.45,1.36-0.08,1.63,0.92c1.38,5.19,4.91,7.96,10.3,8.18
		c9.34,0.39,13.66,4.23,15.25,13.54c0.21,1.26,0.44,2.52,0.66,3.78c0,2.36,0,4.71,0,7.07c-0.12,0.45-0.26,0.9-0.35,1.36
		c-2.42,12.83-9.5,21.87-22.02,25.99c-13.72,4.51-28.87-3.02-36.09-12.89c-1.34-1.83-1.75-3.83-1.44-6.07
		c0.08-0.57-0.21-1.37-0.61-1.79c-2.45-2.51-4.75-2.77-7.76-0.89c-0.81,0.5-1.3,0.49-1.86-0.31c-0.55-0.77-1.22-1.46-1.83-2.18
		C20.58,61.71,20.58,61.49,20.58,61.28z"/>
</g>
</svg>
