<?xml version="1.0" encoding="utf-8"?>
<!-- Generator: Adobe Illustrator 24.1.0, SVG Export Plug-In . SVG Version: 6.00 Build 0)  -->
<svg version="1.1" id="Layer_1" xmlns="http://www.w3.org/2000/svg" xmlns:xlink="http://www.w3.org/1999/xlink" x="0px" y="0px"
	 viewBox="0 0 110.12 110.12" style="enable-background:new 0 0 110.12 110.12;" xml:space="preserve">
<style type="text/css">
	.st0{fill:#0087B0;}
	.st1{fill:#1FB584;}
</style>
<g>
	<g>
		<path class="st0" d="M55.06,109.26c-29.89,0-54.21-24.32-54.21-54.21s24.32-54.2,54.21-54.2s54.2,24.32,54.2,54.2
			S84.95,109.26,55.06,109.26z M55.06,3.09C26.4,3.09,3.09,26.4,3.09,55.06s23.32,51.97,51.97,51.97
			c28.66,0,51.97-23.32,51.97-51.97S83.72,3.09,55.06,3.09z"/>
	</g>
	<g id="Page-1">
		<g id="_x30_13---Brain-Monitor" transform="translate(0 -1)">
			<path id="Shape" class="st1" d="M81.81,55.91c-0.55,0.56-1.2,1.02-1.91,1.36c-0.56,0.26-1.23,0.02-1.5-0.54
				c-0.26-0.56-0.02-1.23,0.54-1.5c0.85-0.4,1.56-1.05,2.03-1.86c1.06-1.86,0.67-4.2-0.94-5.62c-1.61-1.41-3.98-1.5-5.69-0.21
				c-0.32,0.24-0.75,0.29-1.12,0.13c-0.37-0.16-0.63-0.5-0.68-0.9s0.12-0.79,0.44-1.04c0.81-0.61,1.75-1.02,2.74-1.21
				c-1.06-5.92-6.19-10.24-12.2-10.27c-0.03,0-0.07,0-0.1,0c0.07,0.37,0.1,0.75,0.1,1.13c0.02,0.62-0.46,1.15-1.08,1.17
				c-0.62,0.02-1.15-0.46-1.17-1.08c0.01-1.73-0.94-3.32-2.46-4.14c-1.4-0.69-3.07-0.61-4.4,0.21c-1.33,0.82-2.14,2.28-2.15,3.84
				c0,0.62-0.5,1.13-1.13,1.13s-1.13-0.5-1.13-1.13c0-0.92,0.19-1.83,0.56-2.67c-1.63-1.19-3.6-1.83-5.62-1.83
				c-3.38,0.01-6.51,1.79-8.25,4.69c-0.45,0.76-0.79,1.59-1.01,2.44c-0.1,0.39-0.4,0.7-0.79,0.8s-0.8,0-1.09-0.28
				c-0.29-0.28-0.4-0.7-0.3-1.09c0.17-0.63,0.39-1.24,0.66-1.83c-0.52-0.15-1.07-0.22-1.61-0.23c-3.2,0-5.87,2.44-6.17,5.63
				c2.12,0,4.12,1.01,5.38,2.72c0.37,0.5,0.27,1.2-0.23,1.58c-0.5,0.37-1.2,0.27-1.58-0.23c-0.84-1.15-2.18-1.82-3.6-1.82
				c-2.02,0-3.8,1.35-4.34,3.3c-0.54,1.95,0.29,4.02,2.02,5.06c0.53,0.32,0.71,1.01,0.39,1.55c-0.32,0.53-1.01,0.71-1.55,0.39
				c-0.74-0.45-1.39-1.04-1.91-1.74c-2.2,4.16-1.72,9.23,1.23,12.91c2.94,3.67,7.78,5.26,12.32,4.03c-0.19-0.79-0.28-1.59-0.28-2.4
				c0-0.19,0.03-0.38,0.04-0.56h-0.04c-3.11,0-5.63-2.52-5.63-5.63c0-0.63,0.5-1.14,1.13-1.15c0.3-0.01,0.58,0.11,0.79,0.32
				c0.21,0.21,0.33,0.49,0.33,0.79v0.05c0,0.96,0.41,1.88,1.13,2.52c0.72,0.64,1.67,0.95,2.63,0.84l0.01-0.01
				c0.26-0.94,0.64-1.83,1.14-2.66c0.32-0.53,1.01-0.71,1.55-0.38c0.53,0.32,0.71,1.01,0.38,1.55c-1.29,2.14-1.56,4.74-0.73,7.09
				v0.01c0.98,2.86,3.42,4.97,6.39,5.54c2.97,0.57,6.02-0.49,7.99-2.78c0.33-0.33,0.82-0.46,1.26-0.31
				c2.01,0.79,4.17,1.12,6.32,0.95c1.11-0.07,2.21-0.28,3.27-0.6c0.59-0.18,1.22,0.15,1.41,0.75c0.18,0.59-0.15,1.22-0.75,1.41
				c-1.22,0.37-2.48,0.61-3.75,0.69c-0.02,0-0.04,0-0.06,0c0.16,3.17,1.28,4.92,7.09,6.86c3.45,0.95,6.18,3.61,7.21,7.04
				c0.14,0.47,0.58,0.79,1.08,0.79h1.35c0.32,0,0.62-0.13,0.84-0.37s0.32-0.55,0.29-0.87c-0.3-2.97-1.22-7.97-3.98-10.87
				c-0.81,0.29-1.64,0.5-2.48,0.64c-0.06,0.01-0.12,0.01-0.18,0.01c-0.59,0-1.08-0.45-1.13-1.04c-0.05-0.59,0.37-1.11,0.95-1.2
				c3.9-0.64,7.26-3.11,9.02-6.65c-3.05,1.59-6.67,1.6-9.73,0.03c-0.85-0.43-1.64-0.97-2.34-1.62c-2.76,1.31-6.06,0.16-7.41-2.57
				c-0.28-0.56-0.06-1.23,0.5-1.51c0.56-0.28,1.23-0.06,1.51,0.5c0.83,1.67,2.86,2.35,4.53,1.51s2.35-2.86,1.51-4.53
				c-0.18-0.36-0.16-0.79,0.06-1.13s0.6-0.53,1.01-0.51c0.4,0.02,0.76,0.26,0.94,0.62c1.02,2.04,0.71,4.5-0.8,6.22
				c0.46,0.39,0.96,0.73,1.5,1c1.18,0.62,2.49,0.94,3.82,0.94c2.38-0.01,4.65-1.01,6.25-2.77l0.03-0.03
				c0.6-0.63,1.09-1.36,1.44-2.15C82.96,60.79,82.91,58.17,81.81,55.91L81.81,55.91z M61.27,52.28H57.9c-0.5,0-0.94-0.33-1.08-0.82
				l-1.06-3.72l-3.51,14.93c-0.12,0.51-0.57,0.87-1.1,0.87h-0.02c-0.53-0.01-0.98-0.38-1.08-0.9l-3.4-17.01l-1.15,5.74
				c-0.11,0.52-0.57,0.9-1.1,0.9H36.5c-0.62,0-1.13-0.5-1.13-1.13c0-0.62,0.5-1.13,1.13-1.13h6.96l2.07-10.36
				c0.11-0.52,0.57-0.9,1.1-0.9s1,0.38,1.1,0.9l3.49,17.45l3.32-14.11c0.12-0.5,0.56-0.85,1.07-0.86c0.51-0.02,0.97,0.32,1.11,0.82
				l2.02,7.07h2.53c0.62,0,1.13,0.5,1.13,1.13C62.4,51.77,61.9,52.28,61.27,52.28L61.27,52.28z M68.03,52.28h-2.25
				c-0.62,0-1.13-0.5-1.13-1.13c0-0.62,0.5-1.13,1.13-1.13h2.25c0.62,0,1.13,0.5,1.13,1.13C69.16,51.77,68.65,52.28,68.03,52.28z"/>
		</g>
	</g>
</g>
</svg>
