<?xml version="1.0" encoding="utf-8"?>
<!-- Generator: Adobe Illustrator 24.1.0, SVG Export Plug-In . SVG Version: 6.00 Build 0)  -->
<svg version="1.1" id="Layer_1" xmlns="http://www.w3.org/2000/svg" xmlns:xlink="http://www.w3.org/1999/xlink" x="0px" y="0px"
	 viewBox="0 0 110.12 110.12" style="enable-background:new 0 0 110.12 110.12;" xml:space="preserve">
<style type="text/css">
	.st0{fill:#0087B0;}
	.st1{fill:#1FB584;}
</style>
<g>
	<g>
		<path class="st0" d="M55.06,109.26c-29.89,0-54.21-24.32-54.21-54.21s24.32-54.2,54.21-54.2s54.21,24.32,54.21,54.2
			S84.95,109.26,55.06,109.26z M55.06,3.09C26.4,3.09,3.09,26.4,3.09,55.06s23.32,51.97,51.97,51.97s51.97-23.32,51.97-51.97
			S83.72,3.09,55.06,3.09z"/>
	</g>
	<g>
		<g>
			<g>
				<path class="st1" d="M93.63,54.53c-0.71-0.8-17.87-19.51-39.36-19.51S15.61,53.73,14.9,54.53c-0.8,0.89-0.8,2.23,0,3.12
					c0.71,0.8,17.87,19.51,39.36,19.51s38.65-18.72,39.36-19.51C94.42,56.76,94.42,55.42,93.63,54.53z M54.26,72.48
					c-9.04,0-16.39-7.35-16.39-16.39S45.23,39.7,54.26,39.7s16.39,7.35,16.39,16.39S63.3,72.48,54.26,72.48z"/>
			</g>
		</g>
		<g>
			<g>
				<path class="st1" d="M56.6,51.41c0-2.36,1.17-4.43,2.95-5.7c-1.6-0.82-3.38-1.32-5.29-1.32c-6.45,0-11.71,5.25-11.71,11.71
					S47.81,67.8,54.26,67.8c5.78,0,10.56-4.22,11.51-9.73C61.05,59.58,56.6,56.02,56.6,51.41z"/>
			</g>
		</g>
	</g>
</g>
</svg>
