<?xml version="1.0" encoding="utf-8"?>
<!-- Generator: Adobe Illustrator 24.1.0, SVG Export Plug-In . SVG Version: 6.00 Build 0)  -->
<svg version="1.1" id="Layer_1" xmlns="http://www.w3.org/2000/svg" xmlns:xlink="http://www.w3.org/1999/xlink" x="0px" y="0px"
	 viewBox="0 0 110.12 110.12" style="enable-background:new 0 0 110.12 110.12;" xml:space="preserve">
<style type="text/css">
	.st0{fill:#0087B0;}
	.st1{fill:#1FB584;}
</style>
<g>
	<g>
		<path class="st0" d="M55.06,109.26c-29.89,0-54.2-24.32-54.2-54.21s24.32-54.2,54.2-54.2s54.21,24.32,54.21,54.2
			S84.95,109.26,55.06,109.26z M55.06,3.09C26.4,3.09,3.09,26.4,3.09,55.06s23.31,51.97,51.97,51.97s51.97-23.32,51.97-51.97
			S83.72,3.09,55.06,3.09z"/>
	</g>
	<g>
		<g>
			<path class="st1" d="M81.81,35.55c-1.71-4.97-5.21-8.63-9.59-10.03c-8.32-2.67-15.17,0.76-17.79,2.41
				c-2.62-1.64-9.46-5.07-17.79-2.41c-4.39,1.41-7.88,5.07-9.59,10.04c-2.25,6.54-1.12,14.08,3.03,20.18
				c2.77,4.07,4.58,8.66,5.23,13.28c0.04,0.27,0.07,0.54,0.11,0.82c0.63,4.87,1.55,8.78,2.75,11.62c1.43,3.4,3.28,5.24,5.5,5.46
				c2.35,0.23,4.3-1.72,5.79-5.8c1.05-2.86,1.87-6.68,2.32-10.78c0.25-2.29,0.84-4.14,1.71-5.36c0.31-0.43,0.76-0.48,0.93-0.48
				c0.18,0,0.62,0.05,0.93,0.48c0.86,1.22,1.45,3.07,1.71,5.36c0.45,4.09,1.28,7.92,2.32,10.78c1.42,3.87,3.24,5.82,5.42,5.82
				c0.12,0,0.25-0.01,0.37-0.02c2.21-0.22,4.06-2.06,5.5-5.46c1.2-2.84,2.12-6.75,2.75-11.62c0.03-0.27,0.07-0.53,0.11-0.79
				c0.65-4.63,2.46-9.24,5.24-13.33C82.93,49.63,84.06,42.09,81.81,35.55z"/>
		</g>
	</g>
</g>
</svg>
