<?xml version="1.0" encoding="utf-8"?>
<!-- Generator: Adobe Illustrator 24.1.0, SVG Export Plug-In . SVG Version: 6.00 Build 0)  -->
<svg version="1.1" id="Layer_1" xmlns="http://www.w3.org/2000/svg" xmlns:xlink="http://www.w3.org/1999/xlink" x="0px" y="0px"
	 viewBox="0 0 110.12 110.12" style="enable-background:new 0 0 110.12 110.12;" xml:space="preserve">
<style type="text/css">
	.st0{fill:#0087B0;}
	.st1{fill:#1FB584;}
</style>
<g>
	<g>
		<path class="st0" d="M55.06,109.26c-29.89,0-54.2-24.32-54.2-54.21s24.32-54.2,54.2-54.2s54.21,24.32,54.21,54.2
			S84.95,109.26,55.06,109.26z M55.06,3.09C26.4,3.09,3.09,26.4,3.09,55.06s23.31,51.97,51.97,51.97s51.97-23.32,51.97-51.97
			S83.72,3.09,55.06,3.09z"/>
	</g>
	<g>
		<path class="st1" d="M50.51,81.95c0.21,0.74,0.4,1.35,0.54,1.98c0.39,1.76-0.14,2.84-1.76,3.64c-0.33,0.16-0.66,0.31-0.99,0.46
			c-0.45,0-0.89,0-1.34,0c-0.98-0.39-1.95-0.8-2.94-1.17c-3.5-1.32-4.28-2.41-5.84-3.19c-2.84-1.42-5.48-1.19-8.02,0.64
			c-0.25,0.18-0.51,0.34-0.81,0.55c0-20.27,0-40.43,0-60.62c6.12,0,2.2,0,8.35,0c-0.08,0.75-0.16,1.45-0.21,2.16
			c-0.02,0.21-0.03,0.52,0.09,0.61c0.85,0.65,1.73,1.25,2.63,1.88c0.25-1.58,0.43-3.12,1.25-4.48c0.1,0.24,0.1,0.47,0.06,0.69
			c-0.26,1.31-0.55,2.61-0.76,3.92c-0.05,0.32,0.07,0.73,0.24,1.02c0.6,1.06,0.74,2.13,0.26,3.27c-0.18,0.41-0.37,0.82-0.48,1.24
			c-0.09,0.37-0.08,0.76-0.12,1.15c0.09,0.02,0.17,0.05,0.26,0.07c0.33-0.61,0.86-1.18,0.96-1.83c0.26-1.58,0.26-3.21,0.5-4.79
			c0.26-1.67,0.68-3.32,1.05-5.07c0.56,0.2,0.96,0.34,1.22,0.43c-0.39,2.46-0.88,4.78-1.12,7.13c-0.56,5.55,0.11,10.95,2.29,16.13
			c0.99,2.34,1.96,4.7,2.83,7.09c1.37,3.78,1.74,7.64,0.76,11.59c-0.57,2.28-0.55,4.6-0.27,6.93c0.16,1.32,0.29,2.68,0.16,3.99
			c-0.13,1.37,0.42,2.49,0.78,3.56L50.51,81.95z M66.48,80.42c-0.89-2.34-0.74-4.83-0.39-7.32c0.39-2.81,0.03-5.56-0.64-8.29
			c-1.29,0.75-2.03,0.91-3.68,0.82c-2.34-0.12-4.24-1.67-4.77-3.87c-0.51-2.08,0.45-4.04,2.56-5.26c0.71-0.41,1.43-0.79,2.1-1.25
			c2.63-1.76,4.86-3.98,6.91-6.37c0.33-0.39,0.62-0.83,0.82-1.3c2.23-5.41,2.5-11,1.4-16.68c-0.41-2.12-1.08-4.19-1.65-6.35
			c0.27-0.15,0.64-0.34,1-0.53c0.05,0,0.1,0,0.15,0c0.45,1.46,0.87,2.92,2.38,3.71c0.36,0.19,0.62,0.56,0.91,0.86
			c0.29,0.3,0.57,0.63,0.85,0.94c0.06-0.03,0.11-0.06,0.17-0.09c-0.36-1.53-0.72-3.07-1.06-4.61c-0.06-0.26,0.01-0.55,0.02-0.83
			c0.05,0,0.1,0,0.15,0c0.43,1.77,1.01,3.52,1.25,5.32c0.2,1.56,1.29,2.55,1.84,3.86c0.08-0.02,0.15-0.03,0.23-0.05
			c-0.19-2.96-0.38-5.93-0.58-8.93c6.2,0,2.4,0,8.62,0c0,20.21,0,40.37,0,60.61c-3.99-2.32-3.98,1.06-5.41,1.1
			c-0.27,0.01-0.56,0.15-0.8,0.3c-1.31,0.81-2.73,1.16-4.26,0.95c-3.18-0.44-5.51-2.17-7.19-4.85c-0.25-0.4-0.51-0.64-1.01-0.74
			L66.48,80.42z"/>
	</g>
</g>
</svg>
