<?xml version="1.0" encoding="utf-8"?>
<!-- Generator: Adobe Illustrator 24.1.0, SVG Export Plug-In . SVG Version: 6.00 Build 0)  -->
<svg version="1.1" id="Layer_1" xmlns="http://www.w3.org/2000/svg" xmlns:xlink="http://www.w3.org/1999/xlink" x="0px" y="0px"
	 viewBox="0 0 110.12 110.12" style="enable-background:new 0 0 110.12 110.12;" xml:space="preserve">
<style type="text/css">
	.st0{fill:#0087B0;}
	.st1{fill:#1FB584;}
</style>
<g>
	<g>
		<path class="st0" d="M55.06,109.26c-29.89,0-54.2-24.32-54.2-54.21s24.32-54.2,54.2-54.2s54.21,24.32,54.21,54.2
			S84.95,109.26,55.06,109.26z M55.06,3.09C26.4,3.09,3.09,26.4,3.09,55.06s23.31,51.97,51.97,51.97s51.97-23.32,51.97-51.97
			S83.72,3.09,55.06,3.09z"/>
	</g>
	<g>
		<g>
			<g>
				<path class="st1" d="M73.75,24.04c-1.26,0-2.27,1.02-2.27,2.27v2.27H69.2c-1.26,0-2.27,1.02-2.27,2.27v4.55
					c0,1.26,1.02,2.27,2.27,2.27c1.26,0,2.24-1.02,2.24-2.27v-2.27h2.3c1.26,0,2.24-1.02,2.24-2.27v-4.55
					C75.99,25.05,75,24.04,73.75,24.04z"/>
			</g>
		</g>
		<g>
			<g>
				<path class="st1" d="M84.73,36.74c-0.89-0.89-2.33-0.89-3.22,0l-1.61,1.61l-1.61-1.61c-0.89-0.89-2.33-0.89-3.22,0l-3.22,3.22
					c-0.89,0.89-0.89,2.33,0,3.22c0.89,0.89,2.33,0.89,3.22,0l1.61-1.61l1.61,1.61c0.89,0.89,2.33,0.89,3.22,0l3.22-3.22
					C85.61,39.06,85.61,37.62,84.73,36.74z"/>
			</g>
		</g>
		<g>
			<g>
				<path class="st1" d="M82.84,51.32h-2.3v-2.27c0-1.26-0.99-2.27-2.24-2.27h-4.55c-1.26,0-2.27,1.02-2.27,2.27
					s1.02,2.27,2.27,2.27h2.27v2.27c0,1.26,1.02,2.27,2.27,2.27h4.55c1.26,0,2.27-1.02,2.27-2.27
					C85.12,52.34,84.1,51.32,82.84,51.32z"/>
			</g>
		</g>
		<g>
			<g>
				<path class="st1" d="M75.26,80.12c-0.86,0-1.71,0.18-2.52,0.53l-8.88-6.26V44.5c0-11.28-9.15-20.46-20.43-20.46H17.67
					c-1.26,0-2.27,1.02-2.27,2.27v24.25c0,1.26,1.02,2.27,2.27,2.27h22.04c1.05,0,1.97,0.73,2.21,1.74
					c0.45,4.48,0.92,7.87,1.3,10.61c1.05,7.57,1.33,9.61-1.35,15.96c-0.47,1.12-0.71,2.3-0.71,3.52c0,5.01,4.08,9.09,9.09,9.09
					h25.01c3.76,0,6.82-3.06,6.82-6.82C82.09,83.18,79.03,80.12,75.26,80.12z M57.08,84.67h-4.55c-1.26,0-2.27-1.02-2.27-2.27
					s1.02-2.27,2.27-2.27h4.55c1.26,0,2.27,1.02,2.27,2.27S58.33,84.67,57.08,84.67z"/>
			</g>
		</g>
	</g>
</g>
</svg>
