<?xml version="1.0" encoding="utf-8"?>
<!-- Generator: Adobe Illustrator 24.1.0, SVG Export Plug-In . SVG Version: 6.00 Build 0)  -->
<svg version="1.1" id="Layer_1" xmlns="http://www.w3.org/2000/svg" xmlns:xlink="http://www.w3.org/1999/xlink" x="0px" y="0px"
	 viewBox="0 0 23.34 23.34" style="enable-background:new 0 0 23.34 23.34;" xml:space="preserve">
<style type="text/css">
	.st0{fill-rule:evenodd;clip-rule:evenodd;fill:#FFFFFF;}
	.st1{fill:#FFFFFF;}
	.st2{fill:#0087B0;}
</style>
<g>
	<path class="st0" d="M12.35,14.51c-4.42,2.02-8.14,1.26-10.48-2.06C-0.22,9.47,0.11,5.4,2.66,2.79c2.56-2.63,6.68-3.04,9.72-0.98
		c3.35,2.28,4.13,5.98,2.16,10.51c2.41,2.41,4.85,4.83,7.28,7.26c1.14,1.14,1.32,2.05,0.56,2.81c-0.76,0.76-1.66,0.57-2.8-0.58
		C17.16,19.36,14.74,16.92,12.35,14.51z M8.06,2.46C4.95,2.48,2.46,5,2.46,8.12c0,3.09,2.55,5.63,5.64,5.64
		c3.12,0.01,5.7-2.61,5.65-5.73C13.71,4.92,11.19,2.45,8.06,2.46z"/>
	<path class="st0" d="M8.13,3.2c1.03-0.26,2.58,0.73,3.2,1.26c0.86,0.72,2.06,2.45,1.57,3.66C12.57,8.89,11.69,8.87,11.5,8
		c-0.21-0.97-0.55-1.97-1.39-2.57C9.57,5.06,8.84,4.89,8.26,4.59c-0.5-0.26-1.29-0.64-0.52-1.2C7.86,3.3,7.99,3.24,8.13,3.2z"/>
</g>
<g>
	<path class="st1" d="M-350.46-31.58c-0.86,1.4-1.7,2.56-1.73,2.61l-0.62,0.85l-0.62-0.85c-0.03-0.05-0.88-1.21-1.74-2.61
		c-1.21-1.98-1.8-3.35-1.8-4.19c0-2.08,1.86-3.78,4.16-3.78c2.29,0,4.15,1.7,4.15,3.78C-348.66-34.93-349.25-33.56-350.46-31.58z"/>
	<path class="st2" d="M-352.81-37.79c-1.19,0-2.16,0.88-2.16,1.96c0,1.08,0.97,1.96,2.16,1.96c1.19,0,2.15-0.88,2.15-1.96
		C-350.66-36.92-351.63-37.79-352.81-37.79z"/>
</g>
</svg>
