<?xml version="1.0" encoding="utf-8"?>
<!-- Generator: Adobe Illustrator 24.1.0, SVG Export Plug-In . SVG Version: 6.00 Build 0)  -->
<svg version="1.1" id="Layer_1" xmlns="http://www.w3.org/2000/svg" xmlns:xlink="http://www.w3.org/1999/xlink" x="0px" y="0px"
	 viewBox="0 0 174.12 288.12" style="enable-background:new 0 0 174.12 288.12;" xml:space="preserve">
<style type="text/css">
	.st0{fill:none;stroke:#0087B0;stroke-width:3;stroke-miterlimit:10;}
	.st1{fill:#3A3A3A;}
	.st2{font-family:'Candara';}
	.st3{font-size:12.8091px;}
	.st4{fill:#1FB584;}
	.st5{fill:#FFFFFF;}
	.st6{font-size:22.6042px;}
	.st7{font-size:15.0695px;}
</style>
<path class="st0" d="M138.69,171.63H35.43c-18.34,0-33.2-14.86-33.2-33.2V35.16c0-18.34,14.86-33.2,33.2-33.2h103.26
	c18.34,0,33.2,14.86,33.2,33.2v103.26C171.89,156.76,157.03,171.63,138.69,171.63z"/>
<g>
	<text transform="matrix(1 0 0 1 30.5196 195.7896)"><tspan x="0" y="0" class="st1 st2 st3">Cough and Cold Pack</tspan><tspan x="31.18" y="15.37" class="st1 st2 st3">- Dr Vaidy</tspan></text>
</g>
<g>
	<path class="st4" d="M162.78,241.38c0,4.99-4.05,9.04-9.04,9.04H122.1c-4.99,0-9.04-4.05-9.04-9.04v-5.27
		c0-4.99,4.05-9.04,9.04-9.04h31.65c4.99,0,9.04,4.05,9.04,9.04V241.38z"/>
	<g>
		<path class="st4" d="M74.85,227.25h23.36c4.99,0,9.04,4.05,9.04,9.04v5.27c0,4.99-4.05,9.04-9.04,9.04H74.85"/>
		<path class="st4" d="M44.71,250.61H21.36c-4.99,0-9.04-4.05-9.04-9.04v-5.27c0-4.99,4.05-9.04,9.04-9.04h23.36"/>
		<g>
			<text transform="matrix(1 0 0 1 84.8003 244.2086)" class="st5 st2 st6">+</text>
		</g>
		<g>
			<text transform="matrix(1 0 0 1 57.3013 242.7017)" class="st1 st2 st7">1</text>
		</g>
		<g>
			<text transform="matrix(1 0 0 1 26.0288 244.2086)" class="st5 st2 st6">-</text>
		</g>
		<path class="st0" d="M107.03,241.38c0,4.99-4.05,9.04-9.04,9.04H20.38c-4.99,0-9.04-4.05-9.04-9.04v-5.27
			c0-4.99,4.05-9.04,9.04-9.04h77.61c4.99,0,9.04,4.05,9.04,9.04V241.38z"/>
	</g>
	<g>
		<text transform="matrix(1 0 0 1 124.7237 242.7017)" class="st5 st2 st7">ADD</text>
	</g>
	<path class="st0" d="M162.78,241.38c0,4.99-4.05,9.04-9.04,9.04H122.1c-4.99,0-9.04-4.05-9.04-9.04v-5.27
		c0-4.99,4.05-9.04,9.04-9.04h31.65c4.99,0,9.04,4.05,9.04,9.04V241.38z"/>
</g>
<path class="st0" d="M171.89,142.26v118.88c0,13.82-11.2,25.02-25.02,25.02H27.24c-13.82,0-25.02-11.2-25.02-25.02V142.26"/>
<g>
	<text transform="matrix(1 0 0 1 56.7486 269.9918)" class="st1 st2 st3">MRP: Rs 20</text>
</g>
</svg>
