<?xml version="1.0" standalone="no"?>
<!DOCTYPE svg PUBLIC "-//W3C//DTD SVG 20010904//EN"
 "http://www.w3.org/TR/2001/REC-SVG-20010904/DTD/svg10.dtd">
<svg version="1.0" xmlns="http://www.w3.org/2000/svg"
 width="174.000000pt" height="288.000000pt" viewBox="0 0 174.000000 288.000000"
 preserveAspectRatio="xMidYMid meet">
<metadata>
Created by potrace 1.15, written by Peter Selinger 2001-2017
</metadata>
<g transform="translate(0.000000,288.000000) scale(0.100000,-0.100000)"
fill="#000000" stroke="none">
<path d="M255 2856 c-22 -7 -54 -20 -70 -28 -44 -23 -122 -110 -148 -165 l-22
-48 -3 -1189 c-3 -1328 -7 -1247 67 -1329 20 -22 59 -51 86 -63 l50 -24 655 0
655 0 50 24 c28 12 67 41 87 64 72 80 69 11 66 1333 l-3 1184 -28 56 c-32 67
-109 142 -175 172 -46 22 -54 22 -637 24 -457 2 -599 -1 -630 -11z m1267 -39
c72 -35 141 -110 165 -180 17 -48 18 -97 18 -632 l0 -580 -27 -57 c-35 -75
-104 -141 -174 -167 -53 -20 -74 -21 -634 -21 -548 0 -583 1 -630 19 -78 30
-134 81 -172 159 l-33 67 0 580 c0 533 1 584 18 632 20 58 79 130 133 164 78
48 82 48 699 46 l580 -2 57 -28z m-1437 -1531 c36 -48 110 -101 168 -118 60
-19 1174 -19 1234 0 79 24 151 85 210 178 9 15 12 -103 12 -537 1 -612 0 -619
-60 -692 -17 -21 -50 -48 -72 -60 l-42 -22 -665 0 -665 0 -42 22 c-22 12 -55
39 -72 60 -60 73 -61 80 -60 692 0 434 3 552 12 537 7 -10 26 -37 42 -60z"/>
</g>
</svg>
