<?xml version="1.0" encoding="utf-8"?>
<!-- Generator: Adobe Illustrator 24.1.0, SVG Export Plug-In . SVG Version: 6.00 Build 0)  -->
<svg version="1.1" id="Layer_1" xmlns="http://www.w3.org/2000/svg" xmlns:xlink="http://www.w3.org/1999/xlink" x="0px" y="0px"
	 viewBox="0 0 54.69 26.36" style="enable-background:new 0 0 54.69 26.36;" xml:space="preserve">
<style type="text/css">
	.st0{fill:#1FB584;}
	.st1{fill:#FFFFFF;}
	.st2{font-family:'Candara';}
	.st3{font-size:15.0695px;}
	.st4{fill:none;stroke:#0087B0;stroke-width:3;stroke-miterlimit:10;}
</style>
<g>
	<path class="st0" d="M52.21,15.82c0,4.99-4.05,9.04-9.04,9.04H11.52c-4.99,0-9.04-4.05-9.04-9.04v-5.27c0-4.99,4.05-9.04,9.04-9.04
		h31.65c4.99,0,9.04,4.05,9.04,9.04V15.82z"/>
	<g>
		<text transform="matrix(1 0 0 1 14.1504 17.1365)" class="st1 st2 st3">ADD</text>
	</g>
	<path class="st4" d="M52.21,15.82c0,4.99-4.05,9.04-9.04,9.04H11.52c-4.99,0-9.04-4.05-9.04-9.04v-5.27c0-4.99,4.05-9.04,9.04-9.04
		h31.65c4.99,0,9.04,4.05,9.04,9.04V15.82z"/>
</g>
</svg>
