<?xml version="1.0" encoding="utf-8"?>
<!-- Generator: Adobe Illustrator 24.1.0, SVG Export Plug-In . SVG Version: 6.00 Build 0)  -->
<svg version="1.1" id="Layer_1" xmlns="http://www.w3.org/2000/svg" xmlns:xlink="http://www.w3.org/1999/xlink" x="0px" y="0px"
	 viewBox="0 0 55 55" style="enable-background:new 0 0 55 55;" xml:space="preserve">
<style type="text/css">
	.st0{fill:#FFFFFF;}
	.st1{fill:#0087B0;}
	.st2{fill-rule:evenodd;clip-rule:evenodd;fill:#0087B0;}
</style>
<g>
	<path class="st0" d="M-275.38-16.74c-0.86,1.4-1.7,2.56-1.73,2.61l-0.62,0.85l-0.62-0.85c-0.03-0.05-0.88-1.21-1.74-2.61
		c-1.21-1.98-1.8-3.35-1.8-4.19c0-2.08,1.86-3.78,4.16-3.78c2.29,0,4.15,1.7,4.15,3.78C-273.58-20.08-274.17-18.71-275.38-16.74z"/>
	<path class="st1" d="M-277.73-22.95c-1.19,0-2.16,0.88-2.16,1.96c0,1.08,0.97,1.96,2.16,1.96c1.19,0,2.15-0.88,2.15-1.96
		C-275.58-22.07-276.55-22.95-277.73-22.95z"/>
</g>
<g>
	<circle class="st2" cx="27.5" cy="27.5" r="27"/>
	<g>
		<g>
			<path class="st0" d="M47.16,31.76c-0.72-0.74-1.63-1.09-2.6-1.25c-1.19-0.2-2.48-0.11-3.63-0.09c-1.39,0.03-3.37,0.11-4.55,0.99
				c-2.24,1.67-0.2,3.78,1.79,4.1c1.86,0.3,3.85,0.15,5.72-0.08c1.15-0.15,2.71-0.26,3.42-1.34C47.82,33.32,47.82,32.44,47.16,31.76
				z M37.79,34.6c-2.78-0.94-1.28-2.6-0.52-2.95c1.19-0.54,2.77-0.51,3.36-0.54c0.14-0.01,0.31-0.02,0.52-0.03
				c0.21,0.3,0.49,0.54,0.64,0.9c0.18,0.43,0.2,0.93,0.1,1.38c-0.09,0.43-0.29,0.83-0.61,1.14c-0.14,0.13-0.27,0.21-0.39,0.32
				c-0.66,0.01-1.31-0.01-1.96-0.07C38.55,34.71,38.16,34.72,37.79,34.6z M45.72,34.24c-0.68,0.29-1.32,0.27-1.87,0.34
				c-0.58,0.08-1.16,0.13-1.74,0.17c0.33-0.5,0.57-1.13,0.62-1.44c0.1-0.65-0.03-1.69-0.52-2.3c1.04-0.03,2.34,0.02,3.41,0.43
				C47.26,32.09,47.14,33.63,45.72,34.24z"/>
		</g>
		<g>
			<path class="st0" d="M48.5,19.72c-0.04-0.92-0.56-1.64-1.49-1.8c-1.01-0.17-1.96,0.07-2.84,0.51c-1.08,0.54-2.07,1.37-2.99,2.06
				c-1.11,0.84-2.66,2.06-3.1,3.47c-0.84,2.66,2.05,3.17,3.85,2.27c1.69-0.85,3.21-2.14,4.58-3.42
				C47.36,22.02,48.56,21.01,48.5,19.72z M42.09,25.15c-0.33,0.2-0.64,0.44-1.01,0.56c-2.8,0.87-2.57-1.36-2.15-2.09
				c0.65-1.14,1.95-2.04,2.4-2.41c0.18-0.14,0.45-0.38,0.78-0.64c0.32,0.24,0.68,0.4,1,0.65c0.44,0.35,0.76,0.82,0.96,1.34
				c0.17,0.47,0.15,0.78-0.02,1.24c0,0.01,0,0.01-0.01,0.02C43.42,24.3,42.77,24.75,42.09,25.15z M45.98,22.15
				c-0.29,0.28-0.58,0.55-0.89,0.81c-0.06-0.37-0.19-0.74-0.32-1.01c-0.38-0.79-1.14-1.61-2.04-1.86c0.8-0.6,1.81-1.24,2.84-1.51
				c1.71-0.45,2.52,0.87,1.72,2.2C46.92,21.41,46.38,21.77,45.98,22.15z"/>
		</g>
		<g>
			<path class="st0" d="M37.06,21.46c0.69-1.76,0.96-3.74,1.12-5.61c0.1-1.16,0.32-2.71-0.59-3.63c-0.65-0.66-1.51-0.84-2.31-0.34
				c-0.87,0.55-1.41,1.36-1.77,2.28c-0.45,1.12-0.63,2.4-0.85,3.53c-0.26,1.37-0.6,3.32,0.01,4.66
				C33.83,24.89,36.32,23.34,37.06,21.46z M34.64,13.33c0.97-1.48,2.45-1.04,2.75,0.49c0.14,0.72-0.02,1.35-0.06,1.9
				c-0.04,0.55-0.11,1.1-0.18,1.64c-0.41-0.4-1.04-0.7-1.47-0.82c-0.84-0.24-1.61-0.01-2.25,0.49
				C33.6,15.94,33.92,14.43,34.64,13.33z M33.08,21.52c-0.28-1.28,0.08-2.82,0.18-3.39c0.03-0.16,0.06-0.37,0.09-0.63
				c0.75-0.56,1.73-0.71,2.57-0.27c0.31,0.17,0.59,0.37,0.81,0.65c0.13,0.16,0.2,0.28,0.28,0.36c-0.14,0.78-0.32,1.55-0.56,2.3
				c-0.11,0.37-0.18,0.76-0.38,1.09C34.57,24.16,33.26,22.34,33.08,21.52z"/>
		</g>
	</g>
	<g>
		<g>
			<path class="st0" d="M16.5,12.34c-0.02,0.11-0.04,0.22-0.06,0.33c-0.12-0.04-0.25-0.02-0.37,0.03c-0.02-0.21-0.03-0.43-0.04-0.64
				c0-0.02-0.01-0.04-0.01-0.06C16.16,12.13,16.32,12.24,16.5,12.34z"/>
			<path class="st0" d="M27.77,16.63c0.04-0.14,0.04-0.28,0.02-0.46c-0.05-0.76-0.18-1.53-0.24-2.29c-0.07-0.96,0.08-2.23-0.3-3.18
				c0.1-0.8-0.61-1.37-1.32-1.71c-1.27-0.6-2.73-0.51-4.1-0.43c-1.28,0.07-7.38,0.29-7.53,2.53c-0.37,0.88-0.19,2-0.08,2.92
				c0.15,1.24,0.2,2.74,0.74,3.87c0.06,0.12,0.15,0.18,0.26,0.21c0.24,0.29,0.53,0.52,0.85,0.72c-0.34,1.26-0.68,2.37-1.62,3.38
				c-0.52,0.56-1.16,1.01-1.64,1.6c-0.99,1.22-1.17,2.47-1.24,4.01c-0.24,5.39,1.11,10.71,1.13,16.08
				c-0.05,0.08-0.06,0.18,0.02,0.29c0.01,0.01,0.02,0.03,0.03,0.04c0.04,0.11,0.12,0.2,0.2,0.26c3.39,4.29,12.02,4.25,16.1,1.84
				c1.14-0.68,3.98-2.44,3.93-3.11c-0.33-4.72-0.69-9.58-1.67-14.22c-0.34-1.63-0.68-3.35-1.59-4.77c-0.57-0.88-1.37-1.5-2.07-2.26
				c-1.08-1.17-1.23-2.29-1.63-3.63c0.68-0.35,1.26-0.78,1.63-1.31C27.76,16.87,27.79,16.75,27.77,16.63z M16.55,10.26
				c2.2-0.76,4.25-0.8,6.31-0.88c0.59-0.02,2.66,0.01,2.87,0.74c0.32,1.06-1.35,1.2-1.98,1.32c-1.9,0.34-3.98,0.45-5.91,0.41
				c-0.62,0.02-1.82-0.01-2.16-0.52C15.39,10.87,16.16,10.39,16.55,10.26z M25.2,14.54c0.07,0.86-0.09,1.96,0.24,2.79
				c-0.41,0.2-0.88,0.37-1.36,0.5c-0.01-0.06-0.02-0.13-0.03-0.18c-0.07-0.38-0.17-0.76-0.21-1.14c-0.02-0.19-0.33-0.16-0.33,0.03
				c0,0.35,0.05,0.69,0.08,1.04c0.01,0.11,0,0.24,0,0.37c-0.99,0.22-2,0.32-2.7,0.37c-0.52,0.04-1,0.03-1.46,0
				c0.3-1.6-0.09-3.84-0.58-5.28c0,0-0.01,0-0.01-0.01c1.3,0.01,2.62-0.04,3.92-0.2c0.02,0.5,0.07,1,0.18,1.5
				c0.12,0.57,0.17,1.28,0.55,1.74c0.07,0.08,0.21,0.05,0.24-0.05c0.14-0.56-0.09-1.18-0.13-1.74c-0.04-0.52-0.09-1.03-0.13-1.55
				c0.19-0.03,0.37-0.05,0.56-0.08c0.26-0.05,0.58-0.11,0.9-0.18C24.78,13.09,25.16,13.99,25.2,14.54z M18.98,18.27
				c-0.41-0.05-0.81-0.12-1.21-0.23c0.07-1.65-0.17-3.4-0.38-5.04c0.14,0.01,0.28,0.01,0.4,0.02c0.26,0.01,0.53,0.01,0.8,0.01
				c0,0.01-0.01,0.02-0.02,0.04c-0.03,1.06,0.02,2.15,0.1,3.21C18.73,16.95,18.75,17.63,18.98,18.27z M15.35,14.23
				c-0.07-0.5-0.05-1.06-0.06-1.63c0.47,0.22,1.04,0.31,1.56,0.36c0.06,0.91,0.19,1.8,0.29,2.71c0.08,0.71,0.06,1.53,0.24,2.25
				c-0.52-0.16-1.03-0.35-1.57-0.58C15.8,16.31,15.5,15.24,15.35,14.23z M31.59,42.9c-3.76,3.4-12.34,5.41-17.67,1.41
				c0.05-0.08,0.08-0.19,0.08-0.31c0.01-1.21-0.06-2.41-0.16-3.62c2.53,1.93,5.69,2.52,8.87,2.23c2.68-0.25,6.53-1.15,8.64-3.27
				C31.43,40.55,31.5,41.74,31.59,42.9z M31.25,37.91c-4.93,3.98-12.03,5.14-17.5,1.38c-0.36-3.61-0.94-7.23-0.8-10.84
				c4.33,3.41,12.55,2.46,16.69-1.04C30.6,30.77,30.98,34.36,31.25,37.91z M29.26,26.36c-4.02,3.27-12.01,4.63-16.26,1.28
				c0-0.05,0-0.1,0.01-0.15c0.23-2.98,2.01-3.49,3.39-5.7c0.55-0.88,0.86-1.7,0.65-2.57c1.28,0.41,2.79,0.41,3.98,0.32
				c1.16-0.09,2.9-0.35,4.36-0.93C25.12,21.82,27.98,23.57,29.26,26.36z M26.67,13.84c0.06,0.77,0.15,1.56,0.18,2.34
				c-0.07,0.04-0.14,0.1-0.19,0.18c-0.15,0.22-0.36,0.42-0.59,0.59c0.03-0.85-0.23-1.79-0.28-2.59c-0.04-0.64,0.16-1.51-0.13-2.12
				c0.24-0.08,0.47-0.18,0.68-0.3C26.45,12.6,26.63,13.26,26.67,13.84z"/>
		</g>
	</g>
</g>
</svg>
