<?xml version="1.0" encoding="utf-8"?>
<!-- Generator: Adobe Illustrator 24.1.0, SVG Export Plug-In . SVG Version: 6.00 Build 0)  -->
<svg version="1.1" id="Layer_1" xmlns="http://www.w3.org/2000/svg" xmlns:xlink="http://www.w3.org/1999/xlink" x="0px" y="0px"
	 viewBox="0 0 1200 373" style="enable-background:new 0 0 1200 373;" xml:space="preserve">
<style type="text/css">
	.st0{fill:#FFFFFF;}
	.st1{fill:#3A3A3A;}
	.st2{font-family:'Candara-Bold';}
	.st3{font-size:17px;}
	.st4{font-family:'Candara';}
	.st5{font-size:32.2786px;}
</style>
<g>
	<rect class="st0" width="1200" height="373"/>
	<g>
		<text transform="matrix(1 0 0 1 86.1558 67)" class="st1 st2 st3">HOME</text>
		<text transform="matrix(1 0 0 1 86.1558 117)" class="st1 st2 st3">ABOUT US</text>
		<text transform="matrix(1 0 0 1 86.1558 217)" class="st1 st2 st3">Patient Guide</text>
		<text transform="matrix(1 0 0 1 86.1558 267)" class="st1 st2 st3">News and Media</text>
		<text transform="matrix(1 0 0 1 86.1558 317)" class="st1 st2 st3">Event</text>
		<text transform="matrix(1 0 0 1 86.1558 167)" class="st1 st2 st3">Speciality Services</text>
		<g>
			<text transform="matrix(1 0 0 1 363.9048 74.7012)" class="st1 st4 st5">Corporate Office</text>
		</g>
		<g>
			<text transform="matrix(1 0 0 1 788.9048 74.7012)" class="st1 st4 st5">Hospital Address</text>
		</g>
		<g>
			<text transform="matrix(1 0 0 1 363.9048 234.7012)" class="st1 st4 st5">Head Office</text>
		</g>
		<g>
			<text transform="matrix(1 0 0 1 363.9048 129.7012)"><tspan x="0" y="0" class="st1 st4 st3">508-509, 5th Floor, Hariniwas Complex,</tspan><tspan x="0" y="20.4" class="st1 st4 st3">Near Dakbunglow Chawk,</tspan><tspan x="0" y="40.8" class="st1 st4 st3">Patna - 800 001, Bihar</tspan></text>
		</g>
		<g>
			<text transform="matrix(1 0 0 1 788.9048 129.7012)"><tspan x="0" y="0" class="st1 st4 st3">Mediversal Superspecialty Hospital</tspan><tspan x="0" y="20.4" class="st1 st4 st3">(A unit of Mediversal Healthcare Pvt. Ltd)</tspan><tspan x="0" y="40.8" class="st1 st4 st3">Doctors&apos; Colony, Kankarbagh,</tspan><tspan x="0" y="61.2" class="st1 st4 st3">Patna - 800 020, Bihar</tspan></text>
		</g>
		<g>
			<text transform="matrix(1 0 0 1 788.9048 283.7012)"><tspan x="0" y="0" class="st1 st4 st3">Phone : +91 96 08 60 0365</tspan><tspan x="0" y="34.4" class="st1 st4 st3">Email : info@mediversal.in</tspan></text>
		</g>
		<g>
			<text transform="matrix(1 0 0 1 363.9048 277.7012)"><tspan x="0" y="0" class="st1 st4 st3">Mediversal Healthcare Pvt. Ltd, Poddar Point,</tspan><tspan x="0" y="20.4" class="st1 st4 st3">6th Floor,113, Park Street,</tspan><tspan x="0" y="40.8" class="st1 st4 st3">Kolkata - 700016, West Bengal</tspan></text>
		</g>
	</g>
</g>
</svg>
