<?xml version="1.0" encoding="utf-8"?>
<!-- Generator: Adobe Illustrator 24.1.0, SVG Export Plug-In . SVG Version: 6.00 Build 0)  -->
<svg version="1.1" id="Layer_1" xmlns="http://www.w3.org/2000/svg" xmlns:xlink="http://www.w3.org/1999/xlink" x="0px" y="0px"
	 viewBox="0 0 1200 361" style="enable-background:new 0 0 1200 361;" xml:space="preserve">
<style type="text/css">
	.st0{fill:url(#SVGID_1_);}
	.st1{fill:#FFFFFF;}
	.st2{fill:#0077BF;}
	.st3{fill:#FFFFF2;}
	.st4{fill:#3A3A3A;}
	.st5{fill:#80D2EB;}
	.st6{fill:#2FAFCC;}
	.st7{fill:#EAEAEA;}
	.st8{fill:#F9F9F9;}
	.st9{fill:#FFDDC9;}
	.st10{fill:#ED9C80;}
	.st11{fill:#191057;}
	.st12{fill:#D88068;}
	.st13{fill:#2C1E56;}
	.st14{fill:#B38469;}
	.st15{fill:#4DE2AC;}
</style>
<g>
	<linearGradient id="SVGID_1_" gradientUnits="userSpaceOnUse" x1="0" y1="180.5" x2="1200" y2="180.5">
		<stop  offset="0.0151" style="stop-color:#1FB584"/>
		<stop  offset="1" style="stop-color:#2FAFCC"/>
	</linearGradient>
	<rect class="st0" width="1200" height="361"/>
	<g>
		<g>
			<path class="st1" d="M380.94,30.18h-2.4C376.92,21.54,369.35,15,360.25,15c-9.11,0-16.67,6.54-18.29,15.18h-2.4
				c-10.1,0-18.28,8.18-18.28,18.28c0,10.1,8.19,18.28,18.28,18.28h41.39c10.1,0,18.28-8.18,18.28-18.28
				C399.22,38.36,391.04,30.18,380.94,30.18z"/>
		</g>
		<g>
			<path class="st1" d="M469.18,48.99h-0.24c-0.98-6-6.17-10.58-12.44-10.58c-6.27,0-11.46,4.58-12.44,10.58h-0.24
				c-6.19,0-11.2,4.7-11.2,10.49s5.01,10.49,11.2,10.49h25.36c6.19,0,11.2-4.7,11.2-10.49S475.37,48.99,469.18,48.99z"/>
		</g>
		<g>
			<path class="st2" d="M478.78,188.12h-57.41c0,0-6.36,7.38-6.36,12.46v64.13c0,4.09,3.32,7.41,7.41,7.41h55.3
				c4.09,0,7.41-3.32,7.41-7.41v-64.13C485.13,195.5,478.78,188.12,478.78,188.12z"/>
			<path class="st3" d="M475.19,253.38h-50.22c-2.24,0-4.06-1.82-4.06-4.06v-34.44c0-2.24,1.82-4.06,4.06-4.06h50.22
				c2.24,0,4.06,1.82,4.06,4.06v34.44C479.25,251.56,477.43,253.38,475.19,253.38z"/>
			<g>
				<path class="st4" d="M480.72,191.89h-61.29c-1.23,0-2.23-1-2.23-2.23v-12.42c0-1.23,1-2.23,2.23-2.23h61.29
					c1.23,0,2.23,1,2.23,2.23v12.42C482.95,190.89,481.95,191.89,480.72,191.89z"/>
			</g>
			<polygon class="st4" points="448.43,228.16 441.83,228.16 441.83,221.56 433.15,221.56 433.15,228.16 426.55,228.16 
				426.55,236.84 433.15,236.84 433.15,243.44 441.83,243.44 441.83,236.84 448.43,236.84 			"/>
			<g>
				<rect x="452.22" y="236.38" class="st2" width="23.96" height="4.16"/>
				<rect x="452.22" y="230.23" class="st2" width="23.96" height="4.16"/>
				<rect x="452.22" y="224.04" class="st2" width="23.96" height="4.16"/>
				<rect x="452.22" y="217.85" class="st2" width="23.96" height="4.16"/>
				<rect x="452.22" y="242.35" class="st2" width="23.96" height="4.16"/>
			</g>
		</g>
		<g>
			<path class="st5" d="M361.23,171.86c-0.37-17.51-5.72-21.42-12.4-25.2c-3.11-1.76-10.53-7.63-12.4-10.68
				c-3.22-5.25-0.72-21.05-0.72-21.05h-35.38c0,0,2.74,16.44-0.72,21.73c-1.91,2.93-9.29,8.24-12.4,10
				c-6.68,3.78-12.03,7.69-12.4,25.2c-0.31,14.88,2.84,95.42,2.84,95.42h80.73C358.38,267.28,361.54,186.74,361.23,171.86z"/>
			<path class="st6" d="M333.27,126.17h-30.32c-2.08,0-3.77-1.69-3.77-3.77v-5.58c0-2.08,1.69-3.77,3.77-3.77h30.32
				c2.08,0,3.77,1.69,3.77,3.77v5.58C337.04,124.48,335.35,126.17,333.27,126.17z"/>
			<path class="st2" d="M333.27,115.1h-30.32c-2.08,0-3.77-1.69-3.77-3.77v-5.58c0-2.08,1.69-3.77,3.77-3.77h30.32
				c2.08,0,3.77,1.69,3.77,3.77v5.58C337.04,113.41,335.35,115.1,333.27,115.1z"/>
			<polygon class="st1" points="351.71,219.56 284.21,219.56 283.13,165.62 353.86,165.62 			"/>
			<polygon class="st4" points="336.59,185.41 325.5,185.4 325.51,174.32 311.18,174.3 311.17,185.38 300.08,185.37 300.07,199.71 
				311.15,199.72 311.14,210.8 325.47,210.82 325.48,199.74 336.57,199.75 			"/>
		</g>
		<g>
			<g>
				<path class="st7" d="M172.73,31.65h103.77c6.91,0,12.52,5.61,12.52,12.52v102.6c0,6.91-5.6,12.52-12.52,12.52H172.73
					c-6.91,0-12.52-5.6-12.52-12.52V44.17C160.21,37.26,165.81,31.65,172.73,31.65z"/>
			</g>
			<g>
				<path class="st8" d="M223.96,43.65h1.48c1.38,0,2.51,1.13,2.51,2.51v98.02c0,1.38-1.13,2.51-2.51,2.51h-1.47
					c-1.38,0-2.51-1.13-2.51-2.51V46.16C221.45,44.78,222.58,43.65,223.96,43.65z"/>
			</g>
			<g>
				<g>
					
						<ellipse transform="matrix(0.1606 -0.987 0.987 0.1606 90.601 229.3197)" class="st9" cx="180.12" cy="61.39" rx="9.66" ry="9.66"/>
					<g>
						<g>
							<path class="st1" d="M181.16,69.38l0.05-15.64c-0.23-0.02-0.45-0.04-0.68-0.04c-0.35,0-0.7,0.03-1.04,0.07l-0.05,15.56
								c0.34,0.05,0.69,0.08,1.04,0.08C180.71,69.41,180.94,69.4,181.16,69.38z"/>
						</g>
					</g>
				</g>
				<g>
					
						<ellipse transform="matrix(0.9231 -0.3846 0.3846 0.9231 -23.4476 76.7327)" class="st9" cx="180.12" cy="96.99" rx="9.66" ry="9.66"/>
					<g>
						<g>
							<path class="st1" d="M181.16,104.97l0.05-15.64c-0.23-0.02-0.45-0.04-0.68-0.04c-0.35,0-0.7,0.03-1.04,0.07l-0.05,15.56
								c0.34,0.05,0.69,0.08,1.04,0.08C180.71,105.01,180.94,104.99,181.16,104.97z"/>
						</g>
					</g>
				</g>
				<g>
					<circle class="st9" cx="180.12" cy="132.73" r="9.66"/>
					<g>
						<g>
							<path class="st1" d="M181.16,140.72l0.05-15.64c-0.23-0.02-0.45-0.04-0.68-0.04c-0.35,0-0.7,0.03-1.04,0.07l-0.05,15.56
								c0.34,0.05,0.69,0.08,1.04,0.08C180.71,140.75,180.94,140.74,181.16,140.72z"/>
						</g>
					</g>
				</g>
				<g>
					
						<ellipse transform="matrix(0.2306 -0.9731 0.9731 0.2306 99.4086 248.5013)" class="st9" cx="206.83" cy="61.39" rx="9.66" ry="9.66"/>
					<g>
						<g>
							<path class="st1" d="M207.87,69.38l0.05-15.64c-0.23-0.02-0.45-0.04-0.68-0.04c-0.35,0-0.7,0.03-1.04,0.07l-0.05,15.56
								c0.34,0.05,0.69,0.08,1.04,0.08C207.42,69.41,207.65,69.4,207.87,69.38z"/>
						</g>
					</g>
				</g>
				<g>
					
						<ellipse transform="matrix(0.7071 -0.7071 0.7071 0.7071 -8.0017 174.6621)" class="st9" cx="206.83" cy="96.99" rx="9.66" ry="9.66"/>
					<g>
						<g>
							<path class="st1" d="M207.87,104.97l0.05-15.64c-0.23-0.02-0.45-0.04-0.68-0.04c-0.35,0-0.7,0.03-1.04,0.07l-0.05,15.56
								c0.34,0.05,0.69,0.08,1.04,0.08C207.42,105.01,207.65,104.99,207.87,104.97z"/>
						</g>
					</g>
				</g>
				<g>
					<circle class="st9" cx="206.83" cy="132.73" r="9.66"/>
					<g>
						<g>
							<path class="st1" d="M207.87,140.72l0.05-15.64c-0.23-0.02-0.45-0.04-0.68-0.04c-0.35,0-0.7,0.03-1.04,0.07l-0.05,15.56
								c0.34,0.05,0.69,0.08,1.04,0.08C207.42,140.75,207.65,140.74,207.87,140.72z"/>
						</g>
					</g>
				</g>
			</g>
			<g>
				<g>
					
						<ellipse transform="matrix(0.6518 -0.7584 0.7584 0.6518 38.9871 207.7028)" class="st9" cx="245.69" cy="61.39" rx="9.66" ry="9.66"/>
					<g>
						<g>
							<path class="st1" d="M246.73,69.38l0.05-15.64c-0.23-0.02-0.45-0.04-0.68-0.04c-0.35,0-0.7,0.03-1.04,0.07L245,69.33
								c0.34,0.05,0.69,0.08,1.04,0.08C246.27,69.41,246.5,69.4,246.73,69.38z"/>
						</g>
					</g>
				</g>
				<g>
					
						<ellipse transform="matrix(0.2455 -0.9694 0.9694 0.2455 91.357 311.3533)" class="st9" cx="245.69" cy="96.99" rx="9.66" ry="9.66"/>
					<g>
						<g>
							<path class="st1" d="M246.73,104.97l0.05-15.64c-0.23-0.02-0.45-0.04-0.68-0.04c-0.35,0-0.7,0.03-1.04,0.07L245,104.93
								c0.34,0.05,0.69,0.08,1.04,0.08C246.27,105.01,246.5,104.99,246.73,104.97z"/>
						</g>
					</g>
				</g>
				<g>
					<circle class="st9" cx="245.69" cy="132.73" r="9.66"/>
					<g>
						<g>
							<path class="st1" d="M246.73,140.72l0.05-15.64c-0.23-0.02-0.45-0.04-0.68-0.04c-0.35,0-0.7,0.03-1.04,0.07L245,140.67
								c0.34,0.05,0.69,0.08,1.04,0.08C246.27,140.75,246.5,140.74,246.73,140.72z"/>
						</g>
					</g>
				</g>
				<g>
					
						<ellipse transform="matrix(0.1606 -0.987 0.987 0.1606 168.0591 320.3988)" class="st9" cx="272.4" cy="61.39" rx="9.66" ry="9.66"/>
					<g>
						<g>
							<path class="st1" d="M273.44,69.38l0.05-15.64c-0.23-0.02-0.45-0.04-0.68-0.04c-0.35,0-0.7,0.03-1.04,0.07l-0.05,15.56
								c0.34,0.05,0.69,0.08,1.04,0.08C272.99,69.41,273.21,69.4,273.44,69.38z"/>
						</g>
					</g>
				</g>
				<g>
					
						<ellipse transform="matrix(0.9231 -0.3846 0.3846 0.9231 -16.3504 112.2212)" class="st9" cx="272.4" cy="96.99" rx="9.66" ry="9.66"/>
					<g>
						<g>
							<path class="st1" d="M273.44,104.97l0.05-15.64c-0.23-0.02-0.45-0.04-0.68-0.04c-0.35,0-0.7,0.03-1.04,0.07l-0.05,15.56
								c0.34,0.05,0.69,0.08,1.04,0.08C272.99,105.01,273.21,104.99,273.44,104.97z"/>
						</g>
					</g>
				</g>
				<g>
					<circle class="st9" cx="272.4" cy="132.73" r="9.66"/>
					<g>
						<g>
							<path class="st1" d="M273.44,140.72l0.05-15.64c-0.23-0.02-0.45-0.04-0.68-0.04c-0.35,0-0.7,0.03-1.04,0.07l-0.05,15.56
								c0.34,0.05,0.69,0.08,1.04,0.08C272.99,140.75,273.21,140.74,273.44,140.72z"/>
						</g>
					</g>
				</g>
			</g>
		</g>
		<g>
			<g>
				<g>
					<path class="st5" d="M412.44,59h0.07c0,0-4.56-1.44-6.86-3.39c-2.29-1.95-1.91-7.26-1.91-7.26h-36.96c0,0,0.38,5.31-1.91,7.26
						c-2.29,1.95-6.86,3.39-6.86,3.39h0.07c-3.39,1.17-5.76,3.77-5.76,6.8v55.81c0,4.12,4.37,7.46,9.76,7.46h46.35
						c5.39,0,9.76-3.34,9.76-7.46V65.8C418.2,62.78,415.83,60.17,412.44,59z"/>
				</g>
			</g>
			<g>
				<g>
					<path class="st2" d="M404.71,48.89h-38.24c-2,0-3.62-1.24-3.62-2.77V35.93c0-1.53,1.62-2.77,3.62-2.77h38.24
						c2,0,3.62,1.24,3.62,2.77v10.19C408.34,47.65,406.71,48.89,404.71,48.89z"/>
				</g>
			</g>
			<rect x="352.2" y="72.8" class="st6" width="65.78" height="48.12"/>
			<rect x="389.5" y="77.03" class="st1" width="28.7" height="40.52"/>
		</g>
		<g>
			<path class="st4" d="M386.94,201.71L386.94,201.71c-6.43,0-11.69-5.26-11.69-11.69v-22.97c0-6.43,5.26-11.69,11.69-11.69l0,0
				c6.43,0,11.69,5.26,11.69,11.69v22.97C398.62,196.45,393.37,201.71,386.94,201.71z"/>
			<polygon class="st10" points="423.53,322.78 427.59,331.14 431.9,329.23 428.8,320.83 			"/>
			<path class="st11" d="M415.61,342.52c0,0-0.94-2.88,1.48-4.62c2.63-1.89,8.55-5.05,9.42-7.41c0.13,0.34,4.51-2.09,4.51-2.09
				s4.55,0.4,5.43,5.58C429.04,339.58,415.61,342.52,415.61,342.52z"/>
			<polygon class="st10" points="375.1,326.47 376.01,335.73 380.72,335.42 380.72,326.47 			"/>
			<path class="st11" d="M372.52,253.32l-1.97,31.72l1.52,46.59c0,0,6.59,1.93,10.43,0.05c0.35-0.66,0.5-46.8,0.5-46.8l5.62-32.93
				l7.74,30.51l27.17,46.29l7.77-4.28l-22.8-47.32l-5.16-31.72l-30.2,1.67L372.52,253.32z"/>
			<path class="st7" d="M405.35,136.15l-8.09,2.81l9.33,25.04l-10.93,19.35c0,0-5.92,0.23-10.02,0.23c-4.1,0-7.06,0-7.06,0
				l-14.11-22.31l7.76-23.28l-4.92-2.74l-12.4,27.16l17.53,29.6l-2.5,63.29c0,0,24.59,6.37,38.47-0.46
				c-0.46-0.68-6.83-58.95-6.83-58.95l15.03-30.75L405.35,136.15z"/>
			<polygon class="st5" points="383.14,184.03 383.6,203.61 390.31,184.4 			"/>
			<path class="st9" d="M383.65,179.11l0.69,7.85c0,0,2.15,1.25,4.43-0.12l-0.15-8.5L383.65,179.11z"/>
			<path class="st9" d="M400.67,137.36c0,0-1.37-7.06,0.68-7.97s1.59,3.41,1.59,3.41l7.29-0.68c0,0,1.14-4.33,2.73-3.87
				c1.59,0.46-1.14,6.15-1.14,6.15l-6.48,1.75L400.67,137.36z"/>
			<path class="st9" d="M372.23,137.99c0,0,6.09-4.53,3.95-6.22c-2.14-1.69-3.96,1.5-3.96,1.5l-7.97-1.82c0,0-3.19-4.1-4.78-2.73
				c-1.59,1.37,3.64,5.46,3.64,5.46L372.23,137.99z"/>
			<polygon class="st1" points="383.6,203.61 378.59,183.58 383.14,184.03 			"/>
			<polygon class="st1" points="394.5,184.96 389.52,184.03 383.6,203.61 			"/>
			<path class="st9" d="M377.53,164.53c0,0.46-1.82,11.69,2.73,16.39c8.2,1.06,10.58-4.61,10.58-4.61s3.99-0.7,3.69-3.28
				c-0.3-2.58-3.1-1.74-3.1-1.74s-8.53-4-8.86-7.96C382.69,164.38,377.53,164.53,377.53,164.53z"/>
			<path class="st1" d="M401.96,236.62l-10.02,1.52c0,0,0.61,7.89,3.19,10.17c2.58,2.28,7.29,0.3,8.2-1.97
				C404.24,244.06,401.96,236.62,401.96,236.62z"/>
			<path class="st11" d="M360.83,342.25c0,0,0.12-3.03,3-3.82c3.13-0.86,9.77-1.78,11.4-3.69c0,0.37,4.95-0.4,4.95-0.4
				s4.13,1.95,3.16,7.12C374.45,344.14,360.83,342.25,360.83,342.25z"/>
		</g>
		<g>
			<polygon class="st12" points="325.64,270.4 326.85,276.57 331.57,275.67 330.21,269.42 			"/>
			<path class="st11" d="M318.04,277.13c1.38-0.79,8.1-2.34,8.1-2.34s4.07,0.77,5.43-0.79c0.25,0.41,1.33,2.73,1.05,4.2
				c-1.22,0.28-3.02,0.58-3.02,0.58l-0.45-0.95l-0.13,0.96l-12.18,1.89C316.84,280.68,316.67,277.91,318.04,277.13z"/>
			<polygon class="st12" points="294.93,271.57 294.36,277.83 299.14,278.28 299.59,271.91 			"/>
			<path class="st4" d="M305.59,130.68c0,0-2.28-1.37-0.61-3.79c1.67-2.43,4.55,0.61,7.13,0.91c2.58,0.3,7.44,2.43,7.28,5.46
				c-0.15,3.04-2.73,10.47-7.28,11.84C308.32,146.01,305.59,130.68,305.59,130.68z"/>
			<polygon class="st11" points="297.77,204.29 295.72,237.76 293.75,273.8 300.43,274.41 304.38,240.04 307.87,211.73 
				312.76,240.68 324.71,273.8 332,271.07 322.02,238.56 318.03,204.29 			"/>
			<path class="st9" d="M288.74,143.89c0,0,3.49,3.04,5.62,3.19c-0.3,0-2.88,8.35-2.88,8.35s-2.73-1.67-4.1-2.28
				C287.53,153.15,289.96,147.99,288.74,143.89z"/>
			<path class="st7" d="M311.51,148.29c0,0-9.87,0.76-16.54-2.28c-0.3-0.46-3.19,6.83-3.49,9.41c0.91,2.12,7.44,3.79,7.44,3.79
				l-3.87,49.63c0,0,19.65,2.12,27.09-1.37c0.76-1.82-1.52-33.24-1.52-33.24s3.64-11.84,2.43-17
				C321.83,152.08,311.51,148.29,311.51,148.29z"/>
			<path class="st11" d="M285.63,276.23c1.52-0.46,8.42-0.46,8.42-0.46s3.79,1.67,5.46,0.46c0.15,0.46,0.68,2.96,0.08,4.33
				c-1.25,0-3.07-0.11-3.07-0.11l-0.23-1.02l-0.34,0.91l-12.29-0.91C283.66,279.42,284.11,276.69,285.63,276.23z"/>
			<path class="st9" d="M294.51,163.16c-7.74-3.49-10.17-7.29-10.17-7.29s0.76-4.55-0.76-5.01c-1.52-0.46-1.37,2.88-1.37,2.88
				l-5.31-4.86c0,0-4.25,1.97-3.64,4.55c0.91,2.12,6.83,5.62,8.2,7.28c1.37,1.67,8.8,9.87,17.76,11.53
				c8.95,1.67,11.23-0.91,11.23-0.91l-2.88-7.74C307.56,163.62,302.25,166.65,294.51,163.16z"/>
			<path class="st9" d="M305.97,150.34l-0.23-7.28l7.28-2.05l0.46,8.88C313.48,149.88,308.93,151.93,305.97,150.34z"/>
			<path class="st9" d="M305.29,129.39c0,0-3.19,5.24-4.55,14.11c0,0.23,6.15,2.73,6.15,2.73l4.55-3.87c0,0,1.59,2.05,3.64-0.46
				c2.05-2.5-0.91-4.1-0.91-4.1s-3.41-2.05-2.28-5.92C308.47,131.67,305.29,129.39,305.29,129.39z"/>
			<path class="st1" d="M314.39,159.37l-8.35,4.1l4.4,8.8l8.35-4.55c0,0,1.67-1.97,0.76-5.01
				C318.64,159.67,314.39,159.37,314.39,159.37z"/>
			<polygon class="st1" points="304.6,159.67 313.48,148.97 318.26,151.7 311.43,155.8 314.39,158.46 			"/>
			<polygon class="st1" points="305.97,148.52 304.6,159.67 301.64,153.75 303.69,153.07 302.1,148.06 			"/>
			<path class="st1" d="M317.24,191.54h-9.79c0,0-0.68,9.79,5.01,10.24C318.15,202.24,317.24,191.54,317.24,191.54z"/>
		</g>
		<g>
			<g>
				<path class="st4" d="M140.61,137.36c0,0,3.34-4.25,3.19-9.41c-0.15-5.16-12.29-8.65-16.69-6.53c-4.4,2.12-3.49,17.61-5.46,19.73
					s-5.16,2.28-6.07,0.3c-3.49,5.77,0.3,15.03,8.35,15.48s15.18-5.01,15.18-5.01L140.61,137.36z"/>
				<polygon class="st10" points="100.09,262.95 93.72,268.42 97.66,272.06 102.82,266.29 				"/>
				<path class="st13" d="M99.94,270.09l-3.58-3.92c0,0-3.55,0.12-5.37,3.16c1.67,2.35,9.11,10.02,10.17,10.78
					c1.06,0.76,2.05-1.21,2.05-1.21S99.64,272.14,99.94,270.09z"/>
				<polygon class="st10" points="144.08,271.58 143.91,279.97 149.25,279.45 148.39,271.76 				"/>
				<path class="st13" d="M149.3,276.44l-5.31,0.07c0,0-2.27,2.73-1.22,6.11c2.87,0.32,13.54-0.13,14.81-0.41
					c1.27-0.29,0.46-2.34,0.46-2.34S150.63,278.03,149.3,276.44z"/>
				<polygon class="st11" points="148.81,216.89 150.93,238.59 153.26,274.23 140.26,274.48 139.37,240.35 135.3,228.58 
					134.85,216.28 				"/>
				<polygon class="st11" points="125.74,216.74 124.37,235.25 95.08,263.33 102.92,270.4 135.61,240.26 141.07,216.59 				"/>
				<polygon class="st9" points="160.27,138.96 147.29,148.52 152.07,153.75 160.27,146.24 				"/>
				<path class="st7" d="M151.85,143.96l3.64,7.74l-9.77,8.11l-1.84,8.51l6.83,49.17h-27.32l-2.5-61.24c0,0,1.82-6.04,4.21-7.12
					c2.39-1.08,7.85-2.67,7.85-2.67l8.23,2.43L151.85,143.96z"/>
				<path class="st1" d="M140.11,200.75l-9.33,0.46c0,0-0.46,10.7,5.46,10.47C142.16,211.45,140.11,200.75,140.11,200.75z"/>
				<path class="st9" d="M134.78,136.96c0,0-3.12-2.33-4.18-0.06c-1.06,2.28,1.82,3.49,1.82,3.49l-1.52,6.75l6.15,4.33l0.08-7.74
					c0,0,2.43,1.21,4.7,0.76c2.28-7.13-0.61-14.42-0.61-14.42S140.48,134.29,134.78,136.96z"/>
				<path class="st9" d="M139.55,161.65c0.3,0.46,7.28,4.95,7.28,4.95l16.57-7.97c0,0,2.71-4.72,3.47-5.02
					c0.76-0.3-1.21,3.49-1.21,3.49s4.7-4.4,5.62-4.1c0.91,0.3-3.49,4.1-3.49,4.1s5.01-3.49,5.46-2.88c0.46,0.61-4.1,3.64-4.1,3.64
					s4.55-2.12,5.01-1.37c0.46,0.76-4.4,2.58-4.4,2.58s3.64-0.46,3.49,0.3c-0.15,0.76-4.25,1.06-4.25,1.06s-0.82,1.16-3.75,1.26
					c-0.2,0.41-18.56,11.64-18.56,11.64l-9.71-5.46L139.55,161.65z"/>
				<path class="st1" d="M141.71,160.91l-5.92,8.42c0,0-7.74-4.78-9.11-8.2c-1.37-3.41,2-10.08,6.24-7.77
					C137.15,155.68,141.71,160.91,141.71,160.91z"/>
			</g>
		</g>
		<g>
			<g>
				<g>
					<path class="st14" d="M218.15,247.73l-23.15-18.93c-8.14-6.66-9.35-18.66-2.69-26.8l0,0c6.66-8.14,18.66-9.35,26.8-2.69
						l23.15,18.93L218.15,247.73z"/>
					<path class="st9" d="M218.15,247.73l23.15,18.93c8.14,6.66,20.14,5.45,26.8-2.69l0,0c6.66-8.14,5.45-20.14-2.69-26.8
						l-23.15-18.93L218.15,247.73z"/>
				</g>
				<g>
					
						<ellipse transform="matrix(0.7071 -0.7071 0.7071 0.7071 -121.5971 209.7301)" class="st9" cx="192.37" cy="251.65" rx="19.58" ry="19.58"/>
					<path class="st1" d="M189.8,235.07v34.09c0.52,0.04,1.04,0.07,1.57,0.07c1.16,0,2.29-0.1,3.39-0.27v-33.68
						c-1.1-0.17-2.23-0.27-3.39-0.27C190.84,235,190.32,235.03,189.8,235.07z"/>
				</g>
			</g>
		</g>
		<g>
			<path class="st9" d="M477.39,284.31l-13.67,0.03c-4.81,0.01-8.71-3.88-8.72-8.69l0,0c-0.01-4.81,3.88-8.71,8.69-8.72l13.67-0.03
				L477.39,284.31z"/>
			<path class="st14" d="M477.39,284.31l13.67-0.03c4.81-0.01,8.7-3.91,8.69-8.72l0,0c-0.01-4.81-3.91-8.7-8.72-8.69l-13.67,0.03
				L477.39,284.31z"/>
		</g>
	</g>
	<path class="st15" d="M175.78,314.22c-44.89-17.96-64.85,23.94-96.77,13.97c-31.92-9.98-7.98-33.92-29.93-57.86
		c-13.9-15.16-34.19-13.12-47.21-9.59v99.19h211.06C211.5,346.37,204.35,325.65,175.78,314.22z"/>
	<path class="st5" d="M1200,131.95c-10.37-1.86-40.63-4.75-60.21,19.73c-23.94,29.93,0.36,117.07-28.75,133.36
		s-87.97-22.62-117.9,11.3c-19.32,21.9-18.68,47.94-15.81,63.66H1200V131.95z"/>
</g>
</svg>
