<?xml version="1.0" encoding="utf-8"?>
<!-- Generator: Adobe Illustrator 24.1.0, SVG Export Plug-In . SVG Version: 6.00 Build 0)  -->
<svg version="1.1" id="Layer_1" xmlns="http://www.w3.org/2000/svg" xmlns:xlink="http://www.w3.org/1999/xlink" x="0px" y="0px"
	 viewBox="0 0 55 55" style="enable-background:new 0 0 55 55;" xml:space="preserve">
<style type="text/css">
	.st0{fill:#FFFFFF;}
	.st1{fill:#0087B0;}
	.st2{fill-rule:evenodd;clip-rule:evenodd;fill:#0087B0;}
</style>
<g>
	<path class="st0" d="M-275.38-16.74c-0.86,1.4-1.7,2.56-1.73,2.61l-0.62,0.85l-0.62-0.85c-0.03-0.05-0.88-1.21-1.74-2.61
		c-1.21-1.98-1.8-3.35-1.8-4.19c0-2.08,1.86-3.78,4.16-3.78c2.29,0,4.15,1.7,4.15,3.78C-273.58-20.08-274.17-18.71-275.38-16.74z"/>
	<path class="st1" d="M-277.73-22.95c-1.19,0-2.16,0.88-2.16,1.96c0,1.08,0.97,1.96,2.16,1.96c1.19,0,2.15-0.88,2.15-1.96
		C-275.58-22.07-276.55-22.95-277.73-22.95z"/>
</g>
<g>
	<circle class="st2" cx="27.5" cy="27.5" r="27"/>
	<g>
		<g>
			<path class="st0" d="M31.84,45.55c-0.41-0.84-0.66-1.73-1.14-2.54c-0.23-0.38-0.9-0.14-0.75,0.31c0.29,0.84,0.47,1.72,0.8,2.54
				c0.17,0.44,0.37,0.96,0.63,1.4c-1.33-0.3-2.96-0.05-4.25-0.08c-1.83-0.04-3.71-0.19-5.51,0.12c0.27-0.78,0.47-1.58,0.77-2.35
				c0.33-0.86,0.88-1.78,0.87-2.72c0-0.35-0.48-0.47-0.66-0.18c-0.6,0.98-1.02,2.07-1.36,3.16c-0.17,0.55-0.33,1.11-0.47,1.67
				c-0.13,0.52-0.37,1.08,0.32,1.28c1.91,0.56,4.1,0.26,6.05,0.22c0.94-0.02,1.88,0.09,2.82,0.08c0.66-0.01,1.49,0,2.07-0.38
				C32.97,47.47,32.11,46.3,31.84,45.55z"/>
			<path class="st0" d="M38.25,24.61c-1.47-2.69-3.26-4.92-4.88-7.53c-1.16-1.87-2.24-3.73-3.64-5.78
				c-0.12-0.18-0.79,0.03-0.71,0.26c0.47,1.37,2.11,3.87,3.02,5.29c1.77,2.78,3.73,5.42,5.36,8.25
				C37.71,25.65,38.56,25.18,38.25,24.61z"/>
			<path class="st0" d="M33.77,27.14c-1.47-2.69-3.26-4.92-4.88-7.53c-1.16-1.87-2.24-3.73-3.64-5.78
				c-0.12-0.18-0.79,0.03-0.71,0.26c0.47,1.37,2.11,3.87,3.02,5.29c1.77,2.78,3.73,5.42,5.36,8.25
				C33.23,28.19,34.08,27.71,33.77,27.14z"/>
			<path class="st0" d="M33.63,36.78c-1.58,3.22-6.23,3.46-9.17,2.56c-3.37-1.03-5.73-3.64-6.64-7.03c-0.8-3.01-0.1-6.43,1.86-8.86
				c2.28-2.82,5.14-3.03,8.41-3.68c0.37-0.07,0.38-0.7,0-0.76c-8.4-1.36-14.04,7.9-11.03,15.23c1.58,3.85,5.16,6.04,9.18,6.6
				c2.82,0.39,7.35-0.52,8.35-3.65C34.76,36.63,33.89,36.24,33.63,36.78z"/>
			<path class="st0" d="M36.8,36.9c-2.99,9.17-17.34,5.73-20.96-1.04c-2.08-3.89-1.91-9.1,0.63-12.85c1.29-1.91,2.99-3.57,5.1-4.56
				c1.38-0.65,3.73-1.67,5.22-1.05c0.35,0.14,0.58-0.37,0.35-0.6c-1.21-1.2-3.14-0.46-4.54,0.03c-2.71,0.94-4.85,2.54-6.58,4.82
				c-3.16,4.13-3.72,9.94-1.33,14.51c2.38,4.56,6.62,7.27,13.45,7.44c3.81,0.1,9.62-1.97,9.75-6.56
				C37.89,36.41,36.99,36.33,36.8,36.9z"/>
			<path class="st0" d="M42.82,35.98c-0.01-0.44-0.04-0.87-0.09-1.31c-0.04-0.44-0.41-0.46-0.77-0.49C41.11,34.09,40.23,34,39.36,34
				c-0.96-0.01-1.93,0.01-2.89,0.01c-2.03,0-4.1-0.13-6.12,0.15c-0.09,0.01-0.16,0.07-0.2,0.15c-0.31,0.24-0.29,0.73-0.28,1.08
				c0.02,0.48,0.03,0.97,0.12,1.44c0,0.01,0.01,0.01,0.01,0.02c0.09,0.39,0.51,0.33,0.86,0.37c1.77,0.19,3.58,0.14,5.36,0.14
				c1.06,0,2.11,0.03,3.17,0.03c0.53,0,1.06-0.01,1.58-0.05c0.26-0.02,0.53-0.04,0.79-0.06c0.19-0.02,0.46-0.01,0.64-0.09
				c0.05-0.02,0.1-0.06,0.14-0.1c0.28-0.28,0.29-0.65,0.28-1.02C42.83,36.04,42.83,36.01,42.82,35.98z M36.24,36.41
				c-1.74,0-3.49-0.09-5.21,0.12c0.06-0.42,0.12-1.1,0.05-1.63c1.79,0.17,3.61,0.06,5.4,0.07c1.74,0,3.49,0.09,5.21-0.12
				c-0.06,0.42-0.12,1.1-0.05,1.63C39.85,36.31,38.03,36.41,36.24,36.41z"/>
			<path class="st0" d="M40.6,25.01c-0.01-0.02-0.03-0.05-0.04-0.07c-0.22-0.33-0.45-0.66-0.69-0.98c-0.24-0.32-0.49-0.19-0.73-0.08
				c-0.6,0.27-1.2,0.55-1.76,0.9c-0.62,0.37-1.23,0.78-1.85,1.16c-1.3,0.81-2.69,1.53-3.85,2.55c-0.05,0.05-0.07,0.12-0.06,0.19
				c-0.08,0.31,0.16,0.68,0.35,0.96c0.24,0.37,0.49,0.74,0.77,1.07c0,0,0.01,0.01,0.01,0.01c0.25,0.26,0.49,0.06,0.73-0.05
				c0.44-0.2,0.87-0.43,1.29-0.67c0.21,0.38,0.67,0.66,0.91,0.99c0.15,0.22,0.45,0.28,0.65,0.08c0.98-0.96,2.24-1.54,3.25-2.46
				c0.16-0.15,0.17-0.46,0-0.6c-0.2-0.17-0.34-0.43-0.52-0.64c0.32-0.2,0.65-0.42,0.96-0.64c0.16-0.12,0.32-0.24,0.47-0.36
				c0.11-0.09,0.29-0.19,0.36-0.32c0.02-0.04,0.03-0.09,0.04-0.14C40.96,25.58,40.79,25.29,40.6,25.01z M35.93,30.29
				c-0.15-0.14-0.29-0.44-0.44-0.7c0.51-0.31,1.01-0.63,1.52-0.95c0.45-0.28,0.9-0.55,1.35-0.82c0.09,0.17,0.2,0.32,0.32,0.46
				C37.77,28.97,36.67,29.41,35.93,30.29z M36.54,27.9c-1.11,0.69-2.28,1.32-3.28,2.17c-0.17-0.35-0.45-0.91-0.76-1.29
				c1.23-0.58,2.34-1.39,3.49-2.1c1.11-0.69,2.28-1.32,3.28-2.17c0.17,0.35,0.45,0.91,0.76,1.29C38.81,26.38,37.69,27.18,36.54,27.9
				z"/>
			<path class="st0" d="M30.96,9.49c-0.01-0.02-0.03-0.05-0.04-0.07c-0.22-0.33-0.45-0.66-0.69-0.98c-0.24-0.32-0.49-0.19-0.73-0.08
				c-0.57,0.26-1.15,0.53-1.68,0.86c-0.6-1.43-2.44-3.59-4.04-2.35c-0.76,0.59-0.73,1.79-0.57,2.64c0.12,0.6,0.38,1.52,0.8,2.06
				c-0.69,0.43-1.36,0.88-1.97,1.41c-0.05,0.05-0.07,0.12-0.06,0.19c-0.08,0.31,0.16,0.68,0.35,0.96c0.24,0.37,0.49,0.74,0.77,1.07
				c0,0,0.01,0.01,0.01,0.01c0.25,0.26,0.49,0.06,0.73-0.05c1.23-0.56,2.37-1.32,3.51-2.03c0.68-0.42,1.37-0.81,2.05-1.24
				c0.34-0.21,0.67-0.43,0.99-0.67c0.16-0.12,0.32-0.24,0.47-0.36c0.11-0.09,0.29-0.19,0.36-0.32c0.02-0.04,0.03-0.09,0.04-0.14
				C31.32,10.07,31.15,9.78,30.96,9.49z M24.53,10.6c-0.18-0.54-0.37-1.11-0.45-1.67C24,8.35,23.88,7.49,24.7,7.5
				c0.41,0,0.72,0.24,0.99,0.5c0.54,0.51,0.89,1.12,1.24,1.77c-0.35,0.22-0.69,0.44-1.04,0.66c-0.37,0.23-0.76,0.46-1.14,0.69
				C24.68,10.92,24.58,10.74,24.53,10.6z M26.9,12.38c-1.11,0.69-2.28,1.32-3.28,2.17c-0.17-0.35-0.45-0.91-0.76-1.29
				c1.23-0.58,2.34-1.39,3.49-2.1c1.11-0.69,2.28-1.32,3.28-2.17c0.17,0.35,0.45,0.91,0.76,1.29C29.17,10.86,28.05,11.67,26.9,12.38
				z"/>
		</g>
	</g>
</g>
</svg>
