<?xml version="1.0" encoding="utf-8"?>
<!-- Generator: Adobe Illustrator 24.1.0, SVG Export Plug-In . SVG Version: 6.00 Build 0)  -->
<svg version="1.1" id="Layer_1" xmlns="http://www.w3.org/2000/svg" xmlns:xlink="http://www.w3.org/1999/xlink" x="0px" y="0px"
	 viewBox="0 0 35.7 37.6" style="enable-background:new 0 0 35.7 37.6;" xml:space="preserve">
<style type="text/css">
	.st0{fill:url(#SVGID_1_);}
	.st1{fill:url(#SVGID_2_);}
	.st2{fill:url(#SVGID_3_);}
	.st3{fill:url(#SVGID_4_);}
</style>
<g>
	<g>
		<g>
			
				<linearGradient id="SVGID_1_" gradientUnits="userSpaceOnUse" x1="0.8687" y1="1254.75" x2="17.8187" y2="1254.75" gradientTransform="matrix(1 0 0 1 0 -1240)">
				<stop  offset="0" style="stop-color:#2FAFCC"/>
				<stop  offset="1" style="stop-color:#1FB584"/>
			</linearGradient>
			<path class="st0" d="M17.8,13.5C13,10,7.2,7.7,0.9,7.2l8.6,15C11.7,18.9,14.6,15.9,17.8,13.5z"/>
			
				<linearGradient id="SVGID_2_" gradientUnits="userSpaceOnUse" x1="17.8187" y1="1254.85" x2="34.7687" y2="1254.85" gradientTransform="matrix(1 0 0 1 0 -1240)">
				<stop  offset="0" style="stop-color:#2FAFCC"/>
				<stop  offset="1" style="stop-color:#80D2EB"/>
			</linearGradient>
			<path class="st1" d="M26.1,22.3l8.7-15c-6.3,0.5-12.1,2.7-17,6.3C21.1,15.9,23.9,18.9,26.1,22.3z"/>
			
				<linearGradient id="SVGID_3_" gradientUnits="userSpaceOnUse" x1="17.7887" y1="1255.0109" x2="17.7887" y2="1277.2302" gradientTransform="matrix(1 0 0 1 0 -1240)">
				<stop  offset="1.198948e-03" style="stop-color:#0077BF"/>
				<stop  offset="1" style="stop-color:#191057"/>
			</linearGradient>
			<path class="st2" d="M9.5,22.3l8.3,14.4l8.3-14.4c-2.2-3.4-5-6.4-8.3-8.8C14.6,15.9,11.7,18.9,9.5,22.3z"/>
		</g>
		
			<linearGradient id="SVGID_4_" gradientUnits="userSpaceOnUse" x1="14.5787" y1="1245.25" x2="21.0587" y2="1245.25" gradientTransform="matrix(1 0 0 1 0 -1240)">
			<stop  offset="0" style="stop-color:#2FAFCC"/>
			<stop  offset="1" style="stop-color:#80D2EB"/>
		</linearGradient>
		<ellipse class="st3" cx="17.8" cy="5.2" rx="3.2" ry="4.4"/>
	</g>
</g>
</svg>
