<?xml version="1.0" encoding="utf-8"?>
<!-- Generator: Adobe Illustrator 24.1.0, SVG Export Plug-In . SVG Version: 6.00 Build 0)  -->
<svg version="1.1" id="Layer_1" xmlns="http://www.w3.org/2000/svg" xmlns:xlink="http://www.w3.org/1999/xlink" x="0px" y="0px"
	 viewBox="0 0 45.43 46" style="enable-background:new 0 0 45.43 46;" xml:space="preserve">
<style type="text/css">
	.st0{fill:#959696;}
	.st1{fill:#3A3A3A;}
	.st2{fill:#EAEAEA;}
	.st3{fill:#4DE2AC;}
	.st4{fill:#1FB584;}
	.st5{fill:#FCF2ED;}
	.st6{fill:#FFDDC9;}
	.st7{fill:#B38469;}
	.st8{fill:#191057;}
	.st9{fill:#0077BF;}
	.st10{fill:#2FAFCC;}
	.st11{fill:#80D2EB;}
	.st12{fill:#0087B0;}
	.st13{fill:none;stroke:#3A3A3A;stroke-miterlimit:10;}
	.st14{fill:#DD4B39;}
	.st15{fill:#FFFFFF;}
	.st16{fill:#3B5998;}
</style>
<g>
</g>
<g>
</g>
<g>
	<rect x="-935.45" y="37.16" class="st0" width="34.47" height="34.47"/>
	<rect x="-900.98" y="37.16" class="st1" width="34.47" height="34.47"/>
	<rect x="-969.92" y="37.16" class="st2" width="34.47" height="34.47"/>
	<rect x="-969.92" y="3.1" class="st3" width="34.47" height="34.47"/>
	<rect x="-935.45" y="3.1" class="st4" width="34.47" height="34.47"/>
	<rect x="-900.98" y="3.1" class="st5" width="34.47" height="34.47"/>
	<rect x="-866.51" y="3.1" class="st6" width="34.47" height="34.47"/>
	<rect x="-832.04" y="3.1" class="st7" width="34.47" height="34.47"/>
	<rect x="-832.04" y="-31.37" class="st8" width="34.47" height="34.47"/>
	<rect x="-900.98" y="-31.37" class="st9" width="34.47" height="34.47"/>
	<rect x="-935.45" y="-31.37" class="st10" width="34.47" height="34.47"/>
	<rect x="-969.92" y="-31.37" class="st11" width="34.47" height="34.47"/>
	<rect x="-866.51" y="-31.37" class="st12" width="34.47" height="34.47"/>
</g>
<text transform="matrix(1 0 0 1 -212.5287 -65.5266)" class="st1" style="font-family:'ArialMT'; font-size:17px;">X</text>
<g>
</g>
<g>
</g>
<text transform="matrix(1 0 0 1 -503.9342 -64.6936)" class="st1" style="font-family:'ArialMT'; font-size:15px;">Please Sign Up</text>
<text transform="matrix(1 0 0 1 -606.5201 -31.6936)" class="st1" style="font-family:'Arial-ItalicMT'; font-size:13px;">Enjoy the convenience of a single account across all</text>
<g>
	<text transform="matrix(1 0 0 1 -495.0772 84.3064)" class="st1" style="font-family:'ArialMT'; font-size:15px;">Or via email</text>
	<line class="st13" x1="-629.07" y1="78.13" x2="-504.07" y2="78.13"/>
	<line class="st13" x1="-407.07" y1="78.13" x2="-282.07" y2="78.13"/>
</g>
<g>
	<g>
		<g>
			<polygon class="st12" points="-614.22,121.65 -627.59,121.65 -629.09,130.22 -612.72,130.22 			"/>
			<path class="st12" d="M-620.91,112.85c2.02,0,3.65,1.64,3.65,3.65c0,2.02-1.63,3.65-3.65,3.65c-2.02,0-3.65-1.63-3.65-3.65
				C-624.56,114.48-622.92,112.85-620.91,112.85z"/>
		</g>
		<g>
			<text transform="matrix(1 0 0 1 -580.8054 121.7141)" class="st0" style="font-family:'ArialMT'; font-size:12px;">Enter Full Name</text>
		</g>
		<line class="st12" x1="-579.29" y1="130.02" x2="-461.53" y2="130.02"/>
	</g>
	<g>
		<g>
			<polygon class="st12" points="-629.18,192.59 -624.17,186.59 -629.18,182.57 			"/>
			<polygon class="st12" points="-612.1,192.59 -612.1,182.57 -617.11,186.59 			"/>
			<polygon class="st12" points="-612.14,193.01 -612.1,193.01 -612.1,192.98 			"/>
			<polygon class="st12" points="-629.18,193.01 -629.14,193.01 -629.18,192.98 			"/>
			<polygon class="st12" points="-612.39,193.01 -612.42,192.98 -617.5,186.9 -620.64,189.43 -623.78,186.9 -628.86,192.98 
				-628.89,193.01 			"/>
			<polygon class="st12" points="-623.85,186.22 -623.66,186.37 -623.47,186.53 -620.64,188.8 -617.81,186.53 -617.62,186.37 
				-617.43,186.22 -612.49,182.25 -628.78,182.25 			"/>
		</g>
		<g>
			<g>
				<g>
					<text transform="matrix(1 0 0 1 -580.49 184.3571)" class="st0" style="font-family:'ArialMT'; font-size:12px;">Email Address</text>
				</g>
			</g>
		</g>
		<line class="st12" x1="-579.18" y1="192.78" x2="-461.42" y2="192.78"/>
		<g>
			<path class="st12" d="M-437.29,177.32v-0.83v-1.39h-1.98v1.36h-8.25v16.29h10.23V177.32z M-444.5,191.7h-1.98v-1.25h1.98V191.7z
				 M-438.34,191.7h-1.98v-1.25h1.98V191.7z M-438.34,189.2h-8.15v-11.59h8.15V189.2z"/>
		</g>
		<g>
			<text transform="matrix(1 0 0 1 -402.5896 182.9846)" class="st0" style="font-family:'ArialMT'; font-size:12px;">Phone Number</text>
		</g>
		<line class="st12" x1="-401.14" y1="192.78" x2="-283.38" y2="192.78"/>
	</g>
	<g>
		<g>
			<path class="st12" d="M-615.21,246.32c0-1.69-1.01-3.06-2.24-3.06h-7.5c-1.24,0-2.25,1.37-2.25,3.06v5.11h-1.52v10.87h15.03
				v-10.87h-1.52V246.32z M-620.4,260.14h-1.62v-0.54v-2.27c-0.09-0.04-0.18-0.1-0.27-0.16c-0.48-0.34-0.79-0.89-0.79-1.52
				c0-1.03,0.84-1.87,1.87-1.87c1.03,0,1.87,0.84,1.87,1.87c0,0.63-0.31,1.19-0.79,1.52c-0.08,0.06-0.17,0.11-0.27,0.16v2.27V260.14
				z M-625.42,251.43v-5.11c0-0.35,0.21-0.64,0.47-0.64h7.5c0.26,0,0.47,0.28,0.47,0.64v5.11H-625.42z"/>
		</g>
		<g>
			<g>
				<g>
					<text transform="matrix(1 0 0 1 -581.1648 253.3562)" class="st0" style="font-family:'ArialMT'; font-size:12px;">Create Password</text>
				</g>
			</g>
		</g>
		<line class="st12" x1="-579.72" y1="261.94" x2="-461.96" y2="261.94"/>
		<g>
			<path class="st12" d="M-435.21,246.32c0-1.69-1.01-3.06-2.24-3.06h-7.5c-1.24,0-2.25,1.37-2.25,3.06v5.11h-1.52v10.87h15.03
				v-10.87h-1.52V246.32z M-440.4,260.14h-1.62v-0.54v-2.27c-0.09-0.04-0.18-0.1-0.27-0.16c-0.48-0.34-0.79-0.89-0.79-1.52
				c0-1.03,0.84-1.87,1.87-1.87c1.03,0,1.87,0.84,1.87,1.87c0,0.63-0.31,1.19-0.79,1.52c-0.08,0.06-0.17,0.11-0.27,0.16v2.27V260.14
				z M-445.42,251.43v-5.11c0-0.35,0.21-0.64,0.47-0.64h7.5c0.26,0,0.47,0.28,0.47,0.64v5.11H-445.42z"/>
		</g>
		<g>
			<g>
				<g>
					<text transform="matrix(1 0 0 1 -401.1648 253.3562)" class="st0" style="font-family:'ArialMT'; font-size:12px;">Confirm Password</text>
				</g>
			</g>
		</g>
		<line class="st12" x1="-399.72" y1="261.94" x2="-281.96" y2="261.94"/>
	</g>
</g>
<g>
	<g>
		<text transform="matrix(1 0 0 1 -499.0907 319.3816)" class="st12" style="font-family:'ArialMT'; font-size:11.7467px;">Terms And Conditions</text>
	</g>
	<g>
		<path class="st12" d="M-525.7,311.5c-0.11-0.21-0.04-0.48,0.18-0.61c0.21-0.12,0.48-0.05,0.61,0.16l3.42,5.92l12.2-12.2
			c0.18-0.18,0.47-0.18,0.64,0c0.18,0.18,0.18,0.46,0,0.63l-12.63,12.63l-0.09,0.07c-0.21,0.12-0.48,0.05-0.61-0.16L-525.7,311.5z"
			/>
		<g>
			<path class="st12" d="M-514.55,321.66h-13.7v-13.31h13.7V321.66z M-527.47,320.88h12.14v-11.75h-12.14V320.88z"/>
		</g>
	</g>
</g>
<rect x="-572.14" y="355.44" class="st12" width="233.14" height="46"/>
<g>
	<text transform="matrix(1 0 0 1 -515.588 384.0178)" class="st15" style="font-family:'ArialMT'; font-size:20px;">Register Now</text>
</g>
<g>
	<rect class="st14" width="45.43" height="46"/>
	<g>
		<path class="st15" d="M28.33,6.25c-1.68,0.51-3.36,1.02-5.01,1.52c0.5,0.62,1.23,1.35,1.76,2.21c1.97,3.16,1.2,7.03-1.85,9.65
			c-3.23,2.77-3.17,3.5,0.12,6.26c1.34,1.12,2.7,2.37,3.6,3.84c1.74,2.84,0.64,6.67-2.31,9.13c-3.88,3.24-12,3.83-16.34,1.18
			c-3.72-2.27-4.19-6.65-1.03-9.65c2.19-2.07,4.97-2.68,7.82-3.09c0.81-0.12,1.63-0.19,2.66-0.3c-1.12-1.5-1.73-3.02-0.92-4.92
			c-0.49,0-0.85,0-1.21,0c-3.73,0.01-6.62-1.89-7.67-5.04c-1.08-3.25,0.17-6.92,3.08-9.06c1.83-1.35,3.95-2.05,6.16-2.13
			c3.66-0.13,7.33-0.04,10.99-0.04C28.24,5.94,28.28,6.09,28.33,6.25z M17.4,40.11c1.77-0.56,3.51-0.83,4.97-1.63
			c2.62-1.44,2.99-4.85,0.87-6.97c-1.03-1.03-2.24-1.88-3.39-2.79c-0.22-0.18-0.54-0.34-0.81-0.34c-2.47,0-4.94,0.14-7.13,1.46
			c-3.44,2.06-3.51,6.42,0,8.39C13.54,39.13,15.5,39.48,17.4,40.11z M21.99,15.96c-0.02-2.81-1.28-5.91-3.04-7.48
			c-2.55-2.28-6.38-1.11-7.06,2.24c-0.62,3.06,0.21,5.84,2.13,8.24c1.36,1.7,3.39,2.16,5.23,1.43
			C21.05,19.66,22.01,18.12,21.99,15.96z"/>
		<path class="st15" d="M35.86,28.65c-0.4,0.05-0.57,0.08-0.74,0.09c-1.86,0.07-1.86,0.07-1.86-1.74c0-1.07,0-2.14,0-3.37
			c-1.72,0-3.34,0-5.01,0c0-0.91,0-1.67,0-2.58c1.66,0,3.28,0,5.01,0c0-1.31,0.09-2.47-0.02-3.62c-0.13-1.3,0.4-1.71,1.61-1.51
			c0.25,0.04,0.51,0.03,0.91,0.06c0,1.65,0,3.26,0,5c1.76,0,3.38,0,5.11,0c0,0.91,0,1.7,0,2.61c-1.62,0-3.24,0-5,0
			C35.86,25.32,35.86,26.94,35.86,28.65z"/>
	</g>
</g>
<path class="st16" d="M110.75,45.9c-4.34,0-8.61,0-12.98,0c0-5.98,0-11.93,0-18.03c1.64,0,3.28,0,5.07,0
	c0.24-2.05,0.47-3.98,0.73-6.13c-1.99,0-3.87,0-5.86,0c0-1.61-0.08-3.01,0.02-4.4c0.11-1.46,1.13-2.05,2.49-2.09
	c1.09-0.03,2.19-0.01,3.38-0.01c0-2.37,0-4.56,0-6.99c-2.92,0.12-5.83-0.49-8.65,0.52c-2.9,1.04-4.11,3.44-4.49,6.27
	c-0.28,2.08-0.27,4.19-0.4,6.44c-1.33,0-2.67,0-4.1,0c0,2.13,0,4.11,0,6.27c1.4,0,2.73,0,4.14,0c0,6.05,0,11.92,0,17.91
	c-0.46,0.04-0.89,0.12-1.32,0.12c-7.45,0.01-14.9-0.01-22.36,0.02c-1.02,0-1.54-0.15-1.54-1.37c0.04-14.55,0.03-29.1,0.03-43.66
	c0-0.2,0.04-0.39,0.07-0.67c15.25,0,30.48,0,45.76,0C110.75,15.38,110.75,30.61,110.75,45.9z"/>
</svg>
