<?xml version="1.0" encoding="utf-8"?>
<!-- Generator: Adobe Illustrator 24.1.0, SVG Export Plug-In . SVG Version: 6.00 Build 0)  -->
<svg version="1.1" id="Layer_1" xmlns="http://www.w3.org/2000/svg" xmlns:xlink="http://www.w3.org/1999/xlink" x="0px" y="0px"
	 viewBox="0 0 233.14 46" style="enable-background:new 0 0 233.14 46;" xml:space="preserve">
<style type="text/css">
	.st0{fill:#959696;}
	.st1{fill:#3A3A3A;}
	.st2{fill:#EAEAEA;}
	.st3{fill:#4DE2AC;}
	.st4{fill:#1FB584;}
	.st5{fill:#FCF2ED;}
	.st6{fill:#FFDDC9;}
	.st7{fill:#B38469;}
	.st8{fill:#191057;}
	.st9{fill:#0077BF;}
	.st10{fill:#2FAFCC;}
	.st11{fill:#80D2EB;}
	.st12{fill:#0087B0;}
	.st13{fill:none;stroke:#3A3A3A;stroke-miterlimit:10;}
	.st14{fill:#FFFFFF;}
	.st15{font-family:'ArialMT';}
	.st16{font-size:20px;}
	.st17{fill:#DD4B39;}
	.st18{fill:#3B5998;}
</style>
<g>
</g>
<g>
</g>
<g>
	<rect x="-843.18" y="-318.47" class="st0" width="34.47" height="34.47"/>
	<rect x="-808.71" y="-318.47" class="st1" width="34.47" height="34.47"/>
	<rect x="-877.65" y="-318.47" class="st2" width="34.47" height="34.47"/>
	<rect x="-877.65" y="-352.53" class="st3" width="34.47" height="34.47"/>
	<rect x="-843.18" y="-352.53" class="st4" width="34.47" height="34.47"/>
	<rect x="-808.71" y="-352.53" class="st5" width="34.47" height="34.47"/>
	<rect x="-774.24" y="-352.53" class="st6" width="34.47" height="34.47"/>
	<rect x="-739.77" y="-352.53" class="st7" width="34.47" height="34.47"/>
	<rect x="-739.77" y="-387" class="st8" width="34.47" height="34.47"/>
	<rect x="-808.71" y="-387" class="st9" width="34.47" height="34.47"/>
	<rect x="-843.18" y="-387" class="st10" width="34.47" height="34.47"/>
	<rect x="-877.65" y="-387" class="st11" width="34.47" height="34.47"/>
	<rect x="-774.24" y="-387" class="st12" width="34.47" height="34.47"/>
</g>
<text transform="matrix(1 0 0 1 -120.2561 -421.1602)" class="st1 st15" style="font-size:17px;">X</text>
<g>
</g>
<g>
</g>
<text transform="matrix(1 0 0 1 -411.6616 -420.3271)" class="st1 st15" style="font-size:15px;">Please Sign Up</text>
<text transform="matrix(1 0 0 1 -514.2475 -387.3271)" class="st1" style="font-family:'Arial-ItalicMT'; font-size:13px;">Enjoy the convenience of a single account across all</text>
<g>
	<text transform="matrix(1 0 0 1 -402.8046 -271.3271)" class="st1 st15" style="font-size:15px;">Or via email</text>
	<line class="st13" x1="-536.8" y1="-277.5" x2="-411.8" y2="-277.5"/>
	<line class="st13" x1="-314.8" y1="-277.5" x2="-189.8" y2="-277.5"/>
</g>
<g>
	<g>
		<g>
			<polygon class="st12" points="-521.95,-233.98 -535.32,-233.98 -536.82,-225.42 -520.45,-225.42 			"/>
			<path class="st12" d="M-528.63-242.79c2.02,0,3.65,1.64,3.65,3.65c0,2.02-1.63,3.65-3.65,3.65c-2.02,0-3.65-1.63-3.65-3.65
				C-532.28-241.15-530.65-242.79-528.63-242.79z"/>
		</g>
		<g>
			<text transform="matrix(1 0 0 1 -488.5328 -233.9194)" class="st0 st15" style="font-size:12px;">Enter Full Name</text>
		</g>
		<line class="st12" x1="-487.01" y1="-225.62" x2="-369.25" y2="-225.62"/>
	</g>
	<g>
		<g>
			<polygon class="st12" points="-536.91,-163.04 -531.89,-169.04 -536.91,-173.06 			"/>
			<polygon class="st12" points="-519.83,-163.04 -519.83,-173.06 -524.84,-169.04 			"/>
			<polygon class="st12" points="-519.87,-162.62 -519.83,-162.62 -519.83,-162.66 			"/>
			<polygon class="st12" points="-536.91,-162.62 -536.86,-162.62 -536.91,-162.66 			"/>
			<polygon class="st12" points="-520.12,-162.62 -520.15,-162.66 -525.22,-168.73 -528.37,-166.2 -531.51,-168.73 -536.58,-162.66 
				-536.61,-162.62 			"/>
			<polygon class="st12" points="-531.58,-169.42 -531.39,-169.26 -531.19,-169.11 -528.37,-166.84 -525.54,-169.11 
				-525.35,-169.26 -525.16,-169.42 -520.22,-173.38 -536.51,-173.38 			"/>
		</g>
		<g>
			<g>
				<g>
					<text transform="matrix(1 0 0 1 -488.2174 -171.2764)" class="st0 st15" style="font-size:12px;">Email Address</text>
				</g>
			</g>
		</g>
		<line class="st12" x1="-486.91" y1="-162.86" x2="-369.15" y2="-162.86"/>
		<g>
			<path class="st12" d="M-345.02-178.32v-0.83v-1.39H-347v1.36h-8.25v16.29h10.23V-178.32z M-352.22-163.93h-1.98v-1.25h1.98
				V-163.93z M-346.06-163.93h-1.98v-1.25h1.98V-163.93z M-346.06-166.44h-8.15v-11.59h8.15V-166.44z"/>
		</g>
		<g>
			<text transform="matrix(1 0 0 1 -310.317 -172.6489)" class="st0 st15" style="font-size:12px;">Phone Number</text>
		</g>
		<line class="st12" x1="-308.87" y1="-162.86" x2="-191.11" y2="-162.86"/>
	</g>
	<g>
		<g>
			<path class="st12" d="M-522.94-109.31c0-1.69-1.01-3.06-2.24-3.06h-7.5c-1.24,0-2.25,1.37-2.25,3.06v5.11h-1.52v10.87h15.03
				v-10.87h-1.52V-109.31z M-528.12-95.49h-1.62v-0.54v-2.27c-0.09-0.04-0.18-0.1-0.27-0.16c-0.48-0.34-0.79-0.89-0.79-1.52
				c0-1.03,0.84-1.87,1.87-1.87c1.03,0,1.87,0.84,1.87,1.87c0,0.63-0.31,1.19-0.79,1.52c-0.08,0.06-0.17,0.11-0.27,0.16v2.27V-95.49
				z M-533.15-104.2v-5.11c0-0.35,0.21-0.64,0.47-0.64h7.5c0.26,0,0.47,0.28,0.47,0.64v5.11H-533.15z"/>
		</g>
		<g>
			<g>
				<g>
					<text transform="matrix(1 0 0 1 -488.8922 -102.2773)" class="st0 st15" style="font-size:12px;">Create Password</text>
				</g>
			</g>
		</g>
		<line class="st12" x1="-487.45" y1="-93.69" x2="-369.69" y2="-93.69"/>
		<g>
			<path class="st12" d="M-342.94-109.31c0-1.69-1.01-3.06-2.24-3.06h-7.5c-1.24,0-2.25,1.37-2.25,3.06v5.11h-1.52v10.87h15.03
				v-10.87h-1.52V-109.31z M-348.12-95.49h-1.62v-0.54v-2.27c-0.09-0.04-0.18-0.1-0.27-0.16c-0.48-0.34-0.79-0.89-0.79-1.52
				c0-1.03,0.84-1.87,1.87-1.87c1.03,0,1.87,0.84,1.87,1.87c0,0.63-0.31,1.19-0.79,1.52c-0.08,0.06-0.17,0.11-0.27,0.16v2.27V-95.49
				z M-353.15-104.2v-5.11c0-0.35,0.21-0.64,0.47-0.64h7.5c0.26,0,0.47,0.28,0.47,0.64v5.11H-353.15z"/>
		</g>
		<g>
			<g>
				<g>
					<text transform="matrix(1 0 0 1 -308.8922 -102.2773)" class="st0 st15" style="font-size:12px;">Confirm Password</text>
				</g>
			</g>
		</g>
		<line class="st12" x1="-307.45" y1="-93.69" x2="-189.69" y2="-93.69"/>
	</g>
</g>
<g>
	<g>
		<text transform="matrix(1 0 0 1 -406.8181 -36.252)" class="st12 st15" style="font-size:11.7467px;">Terms And Conditions</text>
	</g>
	<g>
		<path class="st12" d="M-433.43-44.13c-0.11-0.21-0.04-0.48,0.18-0.61c0.21-0.12,0.48-0.05,0.61,0.16l3.42,5.92l12.2-12.2
			c0.18-0.18,0.47-0.18,0.64,0c0.18,0.18,0.18,0.46,0,0.63l-12.63,12.63l-0.09,0.07c-0.21,0.12-0.48,0.05-0.61-0.16L-433.43-44.13z"
			/>
		<g>
			<path class="st12" d="M-422.28-33.97h-13.7v-13.31h13.7V-33.97z M-435.2-34.75h12.14V-46.5h-12.14V-34.75z"/>
		</g>
	</g>
</g>
<rect class="st12" width="233.14" height="46"/>
<g>
	<text transform="matrix(1 0 0 1 56.5521 28.5745)" class="st14 st15 st16">Register Now</text>
</g>
<g>
	<rect x="92.27" y="-355.63" class="st17" width="45.43" height="46"/>
	<g>
		<path class="st14" d="M120.6-349.38c-1.68,0.51-3.36,1.02-5.01,1.52c0.5,0.62,1.23,1.35,1.76,2.21c1.97,3.16,1.2,7.03-1.85,9.65
			c-3.23,2.77-3.17,3.5,0.12,6.26c1.34,1.12,2.7,2.37,3.6,3.84c1.74,2.84,0.64,6.67-2.31,9.13c-3.88,3.24-12,3.83-16.34,1.18
			c-3.72-2.27-4.19-6.65-1.03-9.65c2.19-2.07,4.97-2.68,7.82-3.09c0.81-0.12,1.63-0.19,2.66-0.3c-1.12-1.5-1.73-3.02-0.92-4.92
			c-0.49,0-0.85,0-1.21,0c-3.73,0.01-6.62-1.89-7.67-5.04c-1.08-3.25,0.17-6.92,3.08-9.06c1.83-1.35,3.95-2.05,6.16-2.13
			c3.66-0.13,7.33-0.04,10.99-0.04C120.51-349.7,120.56-349.54,120.6-349.38z M109.67-315.53c1.77-0.56,3.51-0.83,4.97-1.63
			c2.62-1.44,2.99-4.85,0.87-6.97c-1.03-1.03-2.24-1.88-3.39-2.79c-0.22-0.18-0.54-0.34-0.81-0.34c-2.47,0-4.94,0.14-7.13,1.46
			c-3.44,2.06-3.51,6.42,0,8.39C105.81-316.5,107.78-316.16,109.67-315.53z M114.26-339.68c-0.02-2.81-1.28-5.91-3.04-7.48
			c-2.55-2.29-6.38-1.11-7.06,2.24c-0.62,3.06,0.21,5.84,2.13,8.24c1.36,1.7,3.39,2.16,5.23,1.43
			C113.33-335.97,114.28-337.51,114.26-339.68z"/>
		<path class="st14" d="M128.13-326.98c-0.4,0.05-0.57,0.08-0.74,0.09c-1.86,0.07-1.86,0.07-1.86-1.74c0-1.07,0-2.14,0-3.37
			c-1.72,0-3.34,0-5.01,0c0-0.91,0-1.67,0-2.58c1.66,0,3.28,0,5.01,0c0-1.31,0.09-2.47-0.02-3.62c-0.13-1.3,0.4-1.71,1.61-1.51
			c0.25,0.04,0.51,0.03,0.91,0.06c0,1.65,0,3.26,0,5c1.76,0,3.38,0,5.11,0c0,0.91,0,1.7,0,2.61c-1.62,0-3.24,0-5,0
			C128.13-330.31,128.13-328.69,128.13-326.98z"/>
	</g>
</g>
<path class="st18" d="M203.02-309.74c-4.34,0-8.61,0-12.98,0c0-5.98,0-11.93,0-18.03c1.64,0,3.28,0,5.07,0
	c0.24-2.05,0.47-3.98,0.73-6.13c-1.99,0-3.87,0-5.86,0c0-1.61-0.08-3.01,0.02-4.4c0.11-1.46,1.13-2.05,2.49-2.09
	c1.09-0.03,2.19-0.01,3.38-0.01c0-2.37,0-4.56,0-6.99c-2.92,0.12-5.83-0.49-8.65,0.52c-2.9,1.04-4.11,3.44-4.49,6.27
	c-0.28,2.08-0.27,4.19-0.4,6.44c-1.33,0-2.67,0-4.1,0c0,2.13,0,4.11,0,6.27c1.4,0,2.73,0,4.14,0c0,6.05,0,11.92,0,17.91
	c-0.46,0.04-0.89,0.12-1.32,0.12c-7.45,0.01-14.9-0.01-22.36,0.02c-1.02,0-1.54-0.15-1.54-1.37c0.04-14.55,0.03-29.1,0.03-43.66
	c0-0.2,0.04-0.39,0.07-0.67c15.25,0,30.48,0,45.76,0C203.02-340.25,203.02-325.02,203.02-309.74z"/>
</svg>
