<?xml version="1.0" encoding="utf-8"?>
<!-- Generator: Adobe Illustrator 24.1.0, SVG Export Plug-In . SVG Version: 6.00 Build 0)  -->
<svg version="1.1" id="Layer_1" xmlns="http://www.w3.org/2000/svg" xmlns:xlink="http://www.w3.org/1999/xlink" x="0px" y="0px"
	 viewBox="0 0 588 557.5" style="enable-background:new 0 0 588 557.5;" xml:space="preserve">
<style type="text/css">
	.st0{fill:#959696;}
	.st1{fill:#3A3A3A;}
	.st2{fill:#EAEAEA;}
	.st3{fill:#4DE2AC;}
	.st4{fill:#1FB584;}
	.st5{fill:#FCF2ED;}
	.st6{fill:#FFDDC9;}
	.st7{fill:#B38469;}
	.st8{fill:#191057;}
	.st9{fill:#0077BF;}
	.st10{fill:#2FAFCC;}
	.st11{fill:#80D2EB;}
	.st12{fill:#0087B0;}
	.st13{font-family:'ArialMT';}
	.st14{font-size:17px;}
	.st15{font-size:15px;}
	.st16{fill:#FFFFFF;}
	.st17{font-size:20px;}
</style>
<g>
</g>
<g>
</g>
<g>
	<rect x="-185.88" y="154.53" class="st0" width="34.47" height="34.47"/>
	<rect x="-151.41" y="154.53" class="st1" width="34.47" height="34.47"/>
	<rect x="-220.35" y="154.53" class="st2" width="34.47" height="34.47"/>
	<rect x="-220.35" y="120.47" class="st3" width="34.47" height="34.47"/>
	<rect x="-185.88" y="120.47" class="st4" width="34.47" height="34.47"/>
	<rect x="-151.41" y="120.47" class="st5" width="34.47" height="34.47"/>
	<rect x="-116.94" y="120.47" class="st6" width="34.47" height="34.47"/>
	<rect x="-82.47" y="120.47" class="st7" width="34.47" height="34.47"/>
	<rect x="-82.47" y="86" class="st8" width="34.47" height="34.47"/>
	<rect x="-151.41" y="86" class="st9" width="34.47" height="34.47"/>
	<rect x="-185.88" y="86" class="st10" width="34.47" height="34.47"/>
	<rect x="-220.35" y="86" class="st11" width="34.47" height="34.47"/>
	<rect x="-116.94" y="86" class="st12" width="34.47" height="34.47"/>
</g>
<text transform="matrix(1 0 0 1 537.04 51.8398)" class="st1 st13 st14">X</text>
<g>
</g>
<g>
</g>
<text transform="matrix(1 0 0 1 208.541 364.6729)" class="st1 st13 st15">Upload Your Prescription </text>
<rect x="177.43" y="472.81" class="st12" width="233.14" height="46"/>
<g>
	<text transform="matrix(1 0 0 1 205.6164 503.3843)" class="st16 st13 st17">Browse And Upload</text>
</g>
<g>
	<path class="st2" d="M333.73,161.23c0-5.71,0-11.29,0-17.03c0.37,0,0.7,0,1.03,0c5.12,0,10.25-0.01,15.37,0
		c7.1,0.01,12.84,5.74,12.87,12.86c0.02,4.35,0,8.7,0,13.06c0,47.27,0,94.54,0,141.82c0,7.74-5.61,13.32-13.36,13.32
		c-37.06,0-74.12,0-111.18,0c-7.9,0-13.45-5.51-13.45-13.44c0-41.66,0-83.31,0-124.97c0-9.83-0.02-19.65,0.01-29.48
		c0.01-6.36,4.04-11.48,10.06-12.85c0.75-0.17,1.52-0.3,2.29-0.3c5.44-0.03,10.88-0.02,16.32-0.01c0.17,0,0.34,0.03,0.58,0.05
		c0,5.63,0,11.22,0,16.99c-1.05,0-2.09-0.02-3.12,0c-7.08,0.18-13.24,5.05-14.91,11.92c-0.34,1.38-0.49,2.84-0.49,4.27
		c-0.03,38.88-0.03,77.77-0.02,116.65c0,9.42,6.88,16.24,16.31,16.24c24.88,0,49.76,0,74.65,0.02c1.04,0,1.82-0.27,2.63-0.98
		c7.02-6.16,14-12.35,21.2-18.29c1.51-1.24,1.8-2.36,1.8-4.03c-0.02-36.57-0.02-73.14-0.02-109.7c0-9.14-6.85-16.03-16.02-16.11
		C335.45,161.22,334.65,161.23,333.73,161.23z"/>
	<path class="st2" d="M257.37,161.16c0-7.82,0-15.56,0-23.46c0.4,0,0.77,0,1.14,0c5.75,0,11.51,0,17.26,0c1.8,0,2.17-0.35,2.23-2.11
		c0.28-8.49,7.93-15.27,16.68-14.89c8.53,0.37,15.25,7.17,15.34,15.29c0.01,1.26,0.57,1.71,1.99,1.71c5.75,0.01,11.51,0,17.26,0
		c0.41,0,0.83,0,1.32,0c0,7.86,0,15.63,0,23.46C306.2,161.16,281.84,161.16,257.37,161.16z M294,138.23c2.84,0,5.68,0.01,8.51,0
		c1.3-0.01,1.83-0.58,1.82-1.88c-0.06-5.45-4.72-9.97-10.28-10c-5.55-0.03-10.26,4.45-10.39,9.9c-0.03,1.42,0.49,1.98,1.93,1.98
		C288.39,138.24,291.2,138.24,294,138.23z"/>
	<path class="st2" d="M295.56,222.62c-11.9-0.03-21.41-9.61-21.4-21.55c0.02-11.81,9.63-21.35,21.5-21.33
		c11.82,0.02,21.41,9.67,21.35,21.48C316.96,213.1,307.39,222.64,295.56,222.62z M300.51,185.97c-3.35,0-6.56,0-9.9,0
		c0,3.44,0,6.82,0,10.3c-3.49,0-6.84,0-10.23,0c0,3.31,0,6.52,0,9.86c3.44,0,6.82,0,10.29,0c0,3.49,0,6.84,0,10.22
		c3.33,0,6.56,0,9.89,0c0-3.44,0-6.79,0-10.27c3.47,0,6.85,0,10.22,0c0-3.34,0-6.55,0-9.89c-3.45,0-6.82,0-10.26,0
		C300.51,192.72,300.51,189.39,300.51,185.97z"/>
	<path class="st2" d="M254.25,239.45c0-1.62,0-3.12,0-4.68c27.46,0,54.87,0,82.35,0c0,1.56,0,3.08,0,4.68
		C309.14,239.45,281.73,239.45,254.25,239.45z"/>
	<path class="st2" d="M337.3,271.39c0,1.61,0,3.11,0,4.69c-27.44,0-54.85,0-82.33,0c0-1.55,0-3.1,0-4.69
		C282.42,271.39,309.81,271.39,337.3,271.39z"/>
	<path class="st2" d="M254.42,248.59c0-1.58,0-3.08,0-4.66c27.43,0,54.84,0,82.31,0c0.03,0.3,0.07,0.57,0.07,0.85
		c0.01,1.25,0,2.51,0,3.81C309.3,248.59,281.92,248.59,254.42,248.59z"/>
	<path class="st2" d="M336.9,253.1c0,1.58,0,3.11,0,4.69c-27.44,0-54.82,0-82.27,0c0-1.57,0-3.09,0-4.69
		C282.02,253.1,309.41,253.1,336.9,253.1z"/>
	<path class="st2" d="M254.8,266.9c0-1.55,0-3.05,0-4.63c27.45,0,54.87,0,82.32,0c0,1.55,0,3.05,0,4.63
		C309.7,266.9,282.31,266.9,254.8,266.9z"/>
	<path class="st2" d="M329.35,305.28c0-6.16,0-12.22,0-18.41c6.06,0.95,11.9,1.87,17.97,2.83
		C341.21,294.99,335.27,300.14,329.35,305.28z"/>
</g>
</svg>
