<?xml version="1.0" encoding="utf-8"?>
<!-- Generator: Adobe Illustrator 24.1.0, SVG Export Plug-In . SVG Version: 6.00 Build 0)  -->
<svg version="1.1" id="Layer_1" xmlns="http://www.w3.org/2000/svg" xmlns:xlink="http://www.w3.org/1999/xlink" x="0px" y="0px"
	 viewBox="0 0 55 55" style="enable-background:new 0 0 55 55;" xml:space="preserve">
<style type="text/css">
	.st0{fill:#FFFFFF;}
	.st1{fill:#0087B0;}
	.st2{fill-rule:evenodd;clip-rule:evenodd;fill:#0087B0;}
</style>
<g>
	<path class="st0" d="M-275.38-16.74c-0.86,1.4-1.7,2.56-1.73,2.61l-0.62,0.85l-0.62-0.85c-0.03-0.05-0.88-1.21-1.74-2.61
		c-1.21-1.98-1.8-3.35-1.8-4.19c0-2.08,1.86-3.78,4.16-3.78c2.29,0,4.15,1.7,4.15,3.78C-273.58-20.08-274.17-18.71-275.38-16.74z"/>
	<path class="st1" d="M-277.73-22.95c-1.19,0-2.16,0.88-2.16,1.96c0,1.08,0.97,1.96,2.16,1.96c1.19,0,2.15-0.88,2.15-1.96
		C-275.58-22.07-276.55-22.95-277.73-22.95z"/>
</g>
<g>
	<circle class="st2" cx="27.5" cy="27.5" r="27"/>
	<g>
		<path class="st0" d="M26.79,25.15c0.26,0.41,0.61,0.78,0.84,1.21c0.2,0.37,0.34,0.79,0.39,1.21c0.04,0.32-0.1,0.65-0.16,0.98
			c-0.22,1.16-0.7,1.49-1.85,1.28c-0.46-0.08-0.58-0.36-0.31-0.74c0.14-0.2,0.3-0.39,0.43-0.6c0.35-0.58,0.29-0.92-0.22-1.35
			c-0.08-0.07-0.15-0.15-0.22-0.22c-0.52-0.55-1.05-1.11-1.66-1.76c0.03,0.33,0.04,0.53,0.06,0.73c0.1,1.23,0.24,2.45,0.28,3.68
			c0.13,4.2,0.22,8.4,0.32,12.59c0.04,1.46-0.09,1.63-1.51,2.02c-0.22,0.06-0.44,0.11-0.67,0.14c-0.83,0.1-1.66,0.18-2.5,0.27
			c-0.1,1.52-0.22,1.67,1.46,2.07c0.17,0.04,0.35,0.06,0.52,0.11c0.19,0.05,0.44,0.07,0.54,0.19c0.27,0.34,0.47,0.74,0.7,1.11
			c-0.31,0.13-0.61,0.25-0.92,0.37c-0.06,0.02-0.14,0.02-0.21,0.02c-1.93-0.01-3.87-0.03-5.8-0.02c-0.44,0-0.57-0.24-0.52-0.6
			c0.07-0.5,0.24-0.99,0.3-1.5c0.08-0.65,0.09-1.31,0.13-1.94c-0.41-0.08-0.7-0.13-0.99-0.21c-0.3-0.09-0.6-0.21-0.89-0.33
			c-0.49-0.21-0.82-0.5-0.76-1.11c0.03-0.38-0.06-0.77-0.05-1.16c0.07-5.22,0.12-10.44,0.24-15.65c0.04-1.82,0.43-3.59,1.7-4.98
			c0.54-0.6,1.09-1.11,1.15-1.98c0.02-0.26,0.2-0.52,0.35-0.76c0.49-0.77,0.96-1.56,1.5-2.29c1.08-1.45,2.5-2.42,4.28-2.76
			c0.84-0.16,1.71-0.17,2.56-0.26c0.22-0.02,0.43-0.1,0.64-0.17c0.4-0.14,0.8-0.28,1.19-0.44c0.12-0.05,0.24-0.13,0.33-0.22
			c0.02-0.03-0.1-0.17-0.16-0.27c-0.57,0.49-1.15,0.57-1.74,0.27c-1.19-0.61-1.56-2.67-0.62-3.62c0.23-0.23,0.59-0.4,0.92-0.45
			c0.31-0.05,0.64,0.08,0.97,0.14c0.01-0.02,0.04-0.04,0.06-0.07c1.33-2.62,4.42-3.63,7.08-2.34c1.48,0.72,2.46,2.67,0.84,3.92
			c0.03,0.48,0.06,0.91,0.09,1.35c0.04,0.69,0.09,1.38,0.1,2.08c0,0.26-0.02,0.61-0.18,0.75c-0.63,0.55-1.32,1.02-1.99,1.53
			c-0.54,0.4-1.13,0.47-1.75,0.23c-0.4-0.16-0.79-0.36-1.34-0.61c0.09,0.3,0.13,0.51,0.21,0.7c0.18,0.47,0.47,0.92,0.55,1.4
			c0.11,0.65,0.06,1.33,0.09,1.99c0.04,0.99,0.5,1.5,1.47,1.66c0.15,0.03,0.29,0.12,0.43,0.16c0.19,0.05,0.41,0.15,0.58,0.11
			c1.11-0.25,2.22-0.54,3.33-0.79c0.77-0.18,0.99-0.07,1.23,0.67c0.12,0.37,0.31,0.51,0.69,0.57c0.84,0.15,1.46,1.19,1.18,1.99
			c-0.08,0.22-0.4,0.47-0.62,0.49c-0.16,0.01-0.39-0.31-0.52-0.52c-0.09-0.15-0.06-0.37-0.07-0.44c-0.48-0.06-0.91-0.12-1.41-0.18
			c-0.44,0.53-0.36,1.27-0.36,1.98c0.03,6.66,0.06,13.32,0.1,19.98c0.01,1.05,0.02,2.11,0,3.16c0,0.17-0.12,0.43-0.25,0.49
			c-0.7,0.29-1.1,0-1.1-0.74c0.02-5.82,0.05-11.63,0.08-17.45c0.01-2.13,0.02-4.25,0.03-6.38c0-0.49,0.23-1.01-0.23-1.42
			c-0.71,0.2-1.41,0.41-2.12,0.6c-0.56,0.15-1.19,0.16-1.67,0.45c-0.68,0.4-1.22,0.16-1.76-0.14c-0.42-0.23-0.77-0.6-1.12-0.94
			c-0.19-0.17-0.32-0.4-0.4-0.51c-0.95,0.29-1.83,0.55-2.77,0.83C25.8,23.54,26.28,24.35,26.79,25.15z M23.33,43.13
			c0.49-0.01,0.58-0.27,0.57-0.74c-0.07-3.72-0.09-7.45-0.15-11.17c-0.03-1.91-0.09-3.83-0.14-5.74c-0.01-0.32-0.06-0.64-0.09-0.97
			c-0.04,0-0.09,0.01-0.13,0.01c0,1.67,0,3.33,0,5c-0.05,0-0.09,0-0.14,0c0-1.42,0-2.83,0-4.25c0-0.26,0-0.53-0.03-0.79
			c-0.02-0.14-0.12-0.27-0.29-0.36c0,0.74,0,1.48,0,2.22c-0.01,0-0.02,0-0.03,0c-0.04-0.63-0.08-1.26-0.14-1.89
			c-0.05-0.62-0.38-0.85-1.01-0.7c-1.72,0.41-4.55-0.2-5.8-2.23c-0.02-0.04-0.06-0.07-0.08-0.09c-0.99,1.24-1.36,2.68-1.42,4.21
			c-0.17,4.85-0.3,9.69-0.45,14.54c-0.02,0.77-0.06,1.55-0.16,2.31c-0.08,0.56,0.09,0.83,0.64,0.88c0.16,0.01,0.31,0.05,0.46,0.08
			c0-3.02,0-6.01,0-8.64c0.06,2.63,0.14,5.62,0.21,8.65c0.2,0.04,0.37,0.06,0.58,0.1c0-1.55,0-3.05,0-4.55c0.05,0,0.1,0,0.14,0
			c0,1.5,0,3.01,0,4.55c0.3,0.02,0.51,0.03,0.74,0.04c0.02-0.13,0.05-0.24,0.07-0.36c0.02,0.01,0.04,0.02,0.06,0.04
			c0.1,0.11,0.2,0.31,0.3,0.31c1.68-0.01,3.37-0.04,5.05-0.08c0.39-0.01,0.52-0.17,0.5-0.59c-0.05-0.93-0.02-1.86-0.02-2.79
			c0.05,0,0.1,0,0.14,0c0,1.06,0,2.12,0,3.19c0.08,0.01,0.16,0.03,0.23,0.04c0.05-0.17,0.15-0.34,0.15-0.51
			c0.01-2.27,0.01-4.53,0.01-6.8c0.01,0,0.02,0,0.03,0C23.21,38.4,23.27,40.76,23.33,43.13z M24.35,22.23
			c-0.03-0.04-0.12-0.17-0.2-0.3c-0.6-0.87-0.64-1.52-0.03-2.38c0.59-0.84,0.88-1.7,0.47-2.73c0.07-0.03,0.13-0.06,0.2-0.09
			c0.14,0.17,0.34,0.31,0.39,0.5c0.22,0.71,0.08,1.39-0.28,2.03c-0.17,0.29-0.36,0.56-0.51,0.86c-0.48,0.95,0.26,1.84,1.09,1.89
			c0.65,0.04,1.35-0.23,1.99-0.47c0.59-0.23,0.82-0.8,0.91-1.39c0.06-0.4,0.04-0.81,0.11-1.21c0.09-0.53,0.24-1.05,0.36-1.57
			c0.02-0.1,0.03-0.2,0.05-0.36c-0.8,0.54-1.26,0.49-1.9-0.17c-1-1.02-1.59-2.22-1.52-3.72c-1.88,0.36-3.8,0.4-5.35,1.71
			c-0.79,0.67-1.46,1.41-1.89,2.36c-0.13,0.29-0.42,0.5-0.59,0.78c-0.27,0.47-0.55,0.94-0.72,1.45c-0.18,0.56-0.04,1.09,0.42,1.53
			c0.88,0.85,1.91,1.35,3.12,1.49c0.26,0.03,0.54-0.03,0.86-0.05c-0.25-0.23-0.49-0.46-0.79-0.73c0.15,0.02,0.23,0.04,0.36,0.06
			c-0.3-0.81-0.13-1.57,0.18-2.33c0.09-0.21-0.11-0.54-0.19-0.87c0.13,0.09,0.23,0.16,0.39,0.27c-0.02-0.25-0.03-0.45-0.05-0.64
			c0.05-0.01,0.1-0.02,0.14-0.03c0.06,0.3,0.17,0.6,0.15,0.89c-0.03,0.43-0.14,0.87-0.24,1.29c-0.2,0.83,0.18,1.47,0.67,2.08
			c0.28,0.36,0.57,0.71,0.79,0.97C23.41,22.9,23.87,22.57,24.35,22.23z M31.5,9.31c0.71,0.04,1.3,0.12,1.89,0.09
			c0.69-0.03,1.36-0.24,1.6-0.98c0.24-0.74-0.12-1.36-0.68-1.81c-1.12-0.89-2.44-1.04-3.8-0.85c-2.06,0.29-3.48,1.79-3.7,3.87
			c-0.05,0.43,0.04,0.92,0.19,1.33c0.29,0.77,0.71,0.96,1.75,0.93c-0.02-0.15-0.04-0.29-0.07-0.53c0.11,0.18,0.18,0.28,0.24,0.39
			c0.03-0.01,0.05-0.02,0.08-0.03c-0.01-0.08,0-0.15-0.02-0.23c-0.17-0.78-0.03-0.92,0.61-1.47c0.61-0.53,1.28-0.83,2.04-1
			c0.07-0.01,0.14-0.01,0.21-0.02c0.01,0.02,0.02,0.05,0.04,0.07C31.79,9.13,31.7,9.19,31.5,9.31z M33.81,9.97
			c0.07,0.13,0.12,0.24,0.19,0.36c-0.53,0.08-1,0.15-1.6,0.23c0.15-0.25,0.22-0.37,0.33-0.56c-0.5-0.04-1-0.19-1.46-0.1
			c-0.59,0.12-1.15,0.4-1.69,0.67c-0.25,0.12-0.16,0.72,0.09,0.93c0.09,0.08,0.16,0.19,0.24,0.28c-0.12,0.08-0.22,0.21-0.35,0.25
			c-0.54,0.13-1.09,0.23-1.64,0.34c0.01,0.01,0.06,0.07,0.06,0.06c-0.28,0.09-0.61,0.2-0.95,0.31c0.15,1.07,0.35,2.07,1.29,2.7
			c0.16,0.1,0.47,0.1,0.64,0.01c0.23-0.12,0.55-0.3,0.37-0.69c-0.01-0.02,0.07-0.09,0.12-0.14c-0.12-0.3-0.27-0.65-0.37-1.01
			c-0.03-0.11,0.1-0.26,0.15-0.39c0.11,0.09,0.28,0.16,0.31,0.27c0.3,0.99,1.09,1.37,1.98,1.6c0.58,0.15,1-0.22,1.41-0.56
			c-0.17-0.26-0.33-0.51-0.49-0.76c0.03-0.02,0.05-0.05,0.08-0.07c0.1,0.08,0.2,0.16,0.31,0.22c0.27,0.18,0.5,0.16,0.81-0.02
			c0.63-0.36,0.94-0.73,0.65-1.51c-0.12-0.32,0.05-0.76,0.08-1.14c0.03-0.46,0.06-0.92,0.09-1.44C34.14,9.88,33.98,9.93,33.81,9.97z
			 M28.91,20.98c-0.18,0.21-0.3,0.36-0.35,0.42c0.06,0.2,0.07,0.36,0.14,0.44c0.48,0.54,0.91,1.15,1.64,1.39
			c0.35,0.11,0.5-0.05,0.64-0.35c0.24-0.55,0.52-1.09,0.78-1.62c-0.52,0.01-0.93-0.34-1.29-0.79c-0.4-0.49-0.5-1.07-0.5-1.68
			c0.01-0.59,0-1.19-0.02-1.78c0-0.13-0.08-0.25-0.17-0.53c0.04,0.62,0.06,1.08,0.09,1.55c-0.03,0-0.06,0.01-0.09,0.01
			c-0.05-0.34-0.11-0.68-0.16-1.01c-0.04-0.02-0.09-0.04-0.13-0.07c-0.16,0.23-0.41,0.43-0.46,0.68c-0.12,0.53-0.14,1.08-0.2,1.62
			c-0.07,0.61-0.13,1.21-0.2,1.83C28.69,21.07,28.76,21.04,28.91,20.98z M26.19,29.03c0.36,0,0.61,0,0.85,0
			c0.01,0.03,0.01,0.05,0.02,0.08c-0.17,0.07-0.33,0.13-0.48,0.19c0.55,0.07,0.72-0.04,0.83-0.61c0.17-0.9,0.16-1.71-0.5-2.51
			c-0.71-0.88-1.25-1.9-1.82-2.88c-0.19-0.33-0.36-0.43-0.7-0.31c-0.21,0.08-0.43,0.15-0.63,0.26c-0.28,0.14-0.33,0.35-0.12,0.59
			c0.9,1.06,1.84,2.1,2.69,3.21c0.22,0.29,0.19,0.77,0.27,1.16c0.03,0.15,0.03,0.31,0.06,0.55C26.58,28.8,26.44,28.89,26.19,29.03z
			 M36.1,40.49c0.02-4.81,0.05-9.62,0.07-14.44c0-0.65-0.03-1.3-0.01-1.95c0.02-0.6,0.09-1.2,0.56-1.65
			c0.03-0.03,0.02-0.1,0.01-0.14c-0.01-0.03-0.04-0.05-0.17-0.18c-0.24,0.5-0.46,0.95-0.7,1.45c0.11-0.41,0.21-0.79,0.34-1.28
			c-0.47,0.54-0.48,1.08-0.48,1.62c0,1.12,0.02,2.25,0.02,3.37c0.02,4.39,0.03,8.78,0.04,13.17c0,0.18,0.05,0.37,0.08,0.55
			c0.08-0.01,0.15-0.02,0.23-0.03C36.1,40.82,36.09,40.66,36.1,40.49z M37.33,22.26c-0.08-0.25-0.14-0.42-0.2-0.59
			c0.02-0.01,0.03-0.02,0.05-0.02c0.15,0.24,0.29,0.49,0.44,0.73c0.02-0.01,0.05-0.02,0.07-0.03c-0.24-0.57-0.47-1.13-0.73-1.75
			c-0.87,0.2-1.72,0.39-2.57,0.58c-0.46,0.1-0.93,0.2-1.4,0.25c-0.86,0.09-1.2,0.38-1.48,1.44c1.28-0.34,2.48-0.65,3.67-0.98
			c0.12-0.03,0.18-0.21,0.3-0.27c0.15-0.09,0.32-0.13,0.48-0.19c-0.03,0.15-0.05,0.3-0.09,0.45c-0.02,0.08-0.08,0.15-0.11,0.22
			C36.38,21.63,36.72,21.41,37.33,22.26z M26.45,8.65c-0.28,0.04-0.65,0.1-1.02,0.16c0.32-0.43,0.78-0.39,1.26-0.29
			c0.01-0.05,0.02-0.09,0.03-0.14c-0.17-0.06-0.36-0.2-0.49-0.16c-0.34,0.1-0.73,0.21-0.96,0.46c-0.71,0.73-0.45,2.44,0.44,2.93
			c0.29,0.16,0.7,0.11,0.99,0.15C26.62,10.69,26.54,9.72,26.45,8.65z M16.49,21.76c0.89,1.07,2.07,1.61,3.42,1.76
			c0.72,0.08,1.46,0.01,2.34,0.01c-0.44-0.31-0.57-0.71-1.14-0.64c-1.24,0.16-2.42-0.14-3.43-0.9c-0.49-0.37-0.88-0.87-1.35-1.34
			C15.82,21.01,16.19,21.39,16.49,21.76z M26.01,13.9c0.1,1.12,0.68,2.05,1.49,2.81c0.17,0.16,0.54,0.32,0.67,0.24
			c0.18-0.11,0.26-0.44,0.33-0.69c0.09-0.32-0.16-0.4-0.37-0.57c-0.41-0.33-0.84-0.71-1.07-1.16c-0.29-0.58-0.39-1.25-0.62-2.03
			C26.27,13.02,25.98,13.47,26.01,13.9z M17.8,47.06c-0.03,0.04-0.05,0.08-0.08,0.12c-0.43-0.19-0.86-0.39-1.3-0.58
			c-0.03,0.33-0.05,0.57-0.08,0.95c1.46,0.05,2.96,0.11,4.46,0.16c0.02-0.05,0.04-0.1,0.06-0.15c-0.23-0.12-0.44-0.29-0.68-0.35
			c-0.68-0.16-1.37-0.25-1.88-0.82c-0.11-0.13-0.49-0.02-0.83-0.02C17.64,46.69,17.72,46.87,17.8,47.06z M16.44,46.08
			c0.18,0.09,0.49-0.03,0.41,0.31c0.16-0.03,0.34-0.02,0.47-0.1c0.23-0.13,0.44-0.32,0.69-0.5c-0.05-0.38-0.12-0.83-0.19-1.32
			c-0.37,0-0.74,0-1.11,0C16.61,44.99,16.53,45.53,16.44,46.08z M19.74,45.79c-0.07-0.36-0.15-0.79-0.24-1.29
			c-0.37-0.02-0.78-0.04-1.15-0.06c-0.03,0.37-0.04,0.68-0.07,0.98c-0.06,0.48,0.12,0.81,0.57,0.94
			C19.17,46.16,19.44,45.98,19.74,45.79z M36.12,41.28c-0.06-0.01-0.12-0.03-0.18-0.04c-0.05,0.08-0.16,0.17-0.16,0.25
			c0,2.07,0.01,4.14,0.03,6.2c0,0.04,0.04,0.08,0.13,0.24C36.01,45.62,36.07,43.45,36.12,41.28z M38.67,23.19
			c0.04,0.08,0.16,0.13,0.25,0.19c0.05-0.09,0.15-0.19,0.15-0.28c0.04-0.72-0.28-1.16-1.09-1.45C38.23,22.2,38.44,22.7,38.67,23.19z
			 M19.88,47.88c-1.1-0.06-2.19-0.13-3.29-0.19c-0.12-0.01-0.24,0.09-0.37,0.13c0.02,0.05,0.04,0.1,0.06,0.15c1.55,0,3.1,0,4.66,0
			c0-0.03,0-0.06,0-0.09C20.58,47.89,20.23,47.9,19.88,47.88z M22.6,47.73c-0.34-0.64-0.94-0.52-1.46-0.67
			C21.38,47.9,22,47.7,22.6,47.73z M28.74,15.82c0.08,0.34,0.16,0.67,0.24,1.05c0.62-0.34,0.16-0.79,0.36-1.15
			C29.13,15.76,28.98,15.78,28.74,15.82z M19.22,46.52c0.37,0.09,0.69,0.16,1.12,0.26C19.89,46.21,19.67,46.16,19.22,46.52z"/>
	</g>
</g>
</svg>
