<?xml version="1.0" encoding="utf-8"?>
<!-- Generator: Adobe Illustrator 24.1.0, SVG Export Plug-In . SVG Version: 6.00 Build 0)  -->
<svg version="1.1" id="Layer_1" xmlns="http://www.w3.org/2000/svg" xmlns:xlink="http://www.w3.org/1999/xlink" x="0px" y="0px"
	 viewBox="0 0 55 55" style="enable-background:new 0 0 55 55;" xml:space="preserve">
<style type="text/css">
	.st0{fill:#FFFFFF;}
	.st1{fill:#0087B0;}
	.st2{fill-rule:evenodd;clip-rule:evenodd;fill:#0087B0;}
</style>
<g>
	<path class="st0" d="M-275.38-16.74c-0.86,1.4-1.7,2.56-1.73,2.61l-0.62,0.85l-0.62-0.85c-0.03-0.05-0.88-1.21-1.74-2.61
		c-1.21-1.98-1.8-3.35-1.8-4.19c0-2.08,1.86-3.78,4.16-3.78c2.29,0,4.15,1.7,4.15,3.78C-273.58-20.08-274.17-18.71-275.38-16.74z"/>
	<path class="st1" d="M-277.73-22.95c-1.19,0-2.16,0.88-2.16,1.96c0,1.08,0.97,1.96,2.16,1.96c1.19,0,2.15-0.88,2.15-1.96
		C-275.58-22.07-276.55-22.95-277.73-22.95z"/>
</g>
<g>
	<circle class="st2" cx="27.5" cy="27.5" r="27"/>
	<g>
		<g>
			<path class="st0" d="M13.24,26.16c-0.04,0.04-0.06,0.1-0.05,0.15c0.44,2.67,3.69,6.75,6.77,6.15c0.33,3.19,2.31,6.65,4.41,8.96
				c2.16,2.38,5.5,3.34,8.65,3.24c3.41-0.11,5.79-1.68,6.77-4.94c0.44-1.47,0.61-2.96,0.62-4.5c0.01-1.7-0.22-3.86,0.87-5.09
				c0.41,1.38,2.05,1.99,3.41,1.88c1.69-0.14,2.92-1.45,2.78-3.19c-0.14-1.79-1.62-3.44-3.47-3.44c-1.23,0-3.04,0.92-2.95,2.35
				c-1.49,0.33-2.42,1.93-2.57,3.58c-0.26,2.98,0.68,5.9-0.75,8.74c-1.95,3.88-7.32,3.1-10.31,1.16c-3.34-2.17-4.73-5.45-5.22-9.25
				c1.59-0.21,2.92-1.71,3.66-3.04c0.4-0.72,1.74-3.21,1.01-4.09c-0.03-0.16-0.29-0.24-0.49-0.28c0.38-3.88,1.35-8.81,0.54-12.1
				c-0.3-1.22-1.28-1.69-2.46-1.87c-1.31-0.2-3.04-0.54-4.4-0.25c0.02-0.11-0.02-0.23-0.11-0.3C19.59,9.74,19,9.91,18.69,10.2
				c-0.29,0.28-0.39,0.67-0.37,1.06c0.04,0.75,0.63,1.57,1.47,1.33c0.21-0.06,0.31-0.19,0.3-0.41c0-0.14,0-0.28,0.01-0.41
				c0.75-0.05,1.89,0.05,2.79,0.27c1.94,0.47,2.31,1.29,2.39,3.08c0.12,2.68-0.14,6.36-0.63,9.01c-0.13-0.03-0.25-0.05-0.38-0.08
				c-0.14-0.02-0.24,0.03-0.3,0.12c-0.08,0.02-0.14,0.09-0.14,0.19c-0.01,1.71-0.18,3.95-1.83,4.9c-2.93,1.68-4.73-1.82-5.72-3.89
				c0.03-0.14-0.07-0.27-0.24-0.27c-0.28,0.01-0.56,0.11-0.83,0.22c-1.17-2.38-2.3-5.18-2.92-7.75c-0.42-1.74-0.85-2.99,0.88-3.99
				c0.81-0.46,2.07-1.05,3.04-1.28c0.04,0.13,0.08,0.26,0.12,0.4c0.06,0.21,0.19,0.31,0.41,0.3c0.87-0.01,1.21-0.96,1.04-1.69
				c-0.09-0.38-0.3-0.73-0.65-0.92c-0.37-0.2-0.99-0.2-1.26,0.17c-0.07,0.1-0.07,0.22-0.03,0.32c-1.39,0.09-2.96,0.91-4.16,1.46
				c-1.09,0.5-1.66,0.97-1.66,2.22c-0.02,3.89,2.06,7.83,3.52,11.34c-0.03,0.01-0.06,0.02-0.09,0.03
				C13.34,26.01,13.28,26.08,13.24,26.16z M16.48,11.05c0.11-0.02,0.21-0.02,0.31,0.04c0.15,0.08,0.23,0.26,0.27,0.42
				c0.07,0.26,0.04,0.57-0.15,0.72C16.78,11.83,16.63,11.44,16.48,11.05z M19.48,10.62c-0.03,0.42-0.07,0.84-0.09,1.25
				c-0.22-0.09-0.34-0.38-0.35-0.65c-0.01-0.16,0.03-0.36,0.15-0.48C19.27,10.66,19.37,10.63,19.48,10.62z M14.58,25.57
				c-0.19,0.07-0.39,0.13-0.58,0.2c-1.06-2.85-2.48-5.51-3.16-8.48c-0.17-0.76-0.58-2.02-0.43-2.79c0.21-1.09,1.23-1.42,2.09-1.78
				c1.13-0.48,2.3-0.94,3.42-1.46c0.03,0.21,0.08,0.41,0.14,0.61c-1.84,0.71-4.79,1.47-4.77,3.73c0.01,1.47,0.78,3.23,1.27,4.59
				C13.21,22,13.71,23.86,14.58,25.57z M25.92,24.44c-0.21-0.05-0.42-0.1-0.63-0.15c0.41-1.97,0.36-3.96,0.49-5.96
				c0.09-1.45,0.26-3.61-0.17-5.01c-0.49-1.58-3.49-2.21-5.49-2.01c0-0.21,0-0.42-0.03-0.62c1.22,0.19,2.47,0.3,3.69,0.45
				c0.93,0.11,1.91,0.17,2.42,1.16c0.36,0.7,0.33,1.88,0.38,2.66C26.74,18.12,26.13,21.28,25.92,24.44z M41.92,29.61
				c0.09-0.05,0.17-0.1,0.26-0.14c0.05,0.65,1.25,1.18,1.77,1.23c1.07,0.1,1.94-0.68,1.97-1.75c0.04-1.14-0.89-2.21-2.05-2.27
				c-0.58-0.03-1.55,0.39-1.57,1.05c-0.26-0.06-0.51-0.08-0.75-0.07c0.54-0.81,1-1.48,2.15-1.56c1.28-0.09,2.41,0.86,2.82,2.04
				C47.7,31.47,42.43,32.69,41.92,29.61z M13.92,26.64c0.43-0.16,0.86-0.3,1.28-0.48c0.19-0.08,0.39-0.16,0.57-0.26
				c0.7,2.47,2.94,4.97,5.73,4.32c2.28-0.53,3.05-3.35,2.86-5.47c0.49,0.1,0.98,0.22,1.47,0.32c0.16,0.03,0.38,0.09,0.58,0.09
				c-0.44,2.28-1.37,4.34-3.16,5.68c-0.39,0.29-1.81,0.86-1.77,1.16c0.44,3.43,1.59,6.43,4.27,8.75c2.25,1.95,5.25,2.97,8.19,2.37
				c2.65-0.54,4.67-2.34,5.2-5.03c0.55-2.81-1.55-10.44,3.27-9.81c0.27,0.03,0.29-0.33,0.38-0.5c0.11-0.21,0.29-0.38,0.5-0.48
				c0.29-0.14,0.62-0.1,0.91,0.02c0.59,0.26,1.05,0.92,1.02,1.58c0,0.05-0.01,0.11-0.02,0.16c-0.1,0.54-0.57,0.9-1.11,0.9
				c-0.59,0-1.08-0.36-1.23-0.93c-0.04-0.14-0.1-0.24-0.26-0.22c-2.5,0.27-2.69,2.7-2.76,4.77c-0.12,3.23,0.11,8.05-3.37,9.69
				c-3.68,1.74-8.8,0.64-11.55-2.28c-1.28-1.36-2.32-2.99-3.03-4.71c-0.57-1.39-0.8-2.88-1.35-4.26c-0.11-0.28-1.73-0.22-2.37-0.47
				c-0.86-0.33-1.65-1.04-2.26-1.7c-0.64-0.7-1.18-1.49-1.57-2.35C14.17,27.17,14.06,26.89,13.92,26.64z"/>
		</g>
	</g>
</g>
</svg>
