<?xml version="1.0" encoding="utf-8"?>
<!-- Generator: Adobe Illustrator 24.1.1, SVG Export Plug-In . SVG Version: 6.00 Build 0)  -->
<svg version="1.1" id="Layer_1" xmlns="http://www.w3.org/2000/svg" xmlns:xlink="http://www.w3.org/1999/xlink" x="0px" y="0px"
	 viewBox="0 0 284 264" style="enable-background:new 0 0 284 264;" xml:space="preserve">
<style type="text/css">
	.st0{fill:#1FB584;}
	.st1{fill:#50E0ED;}
	.st2{fill:#FFFFFF;}
	.st3{fill:#F68A70;}
	.st4{fill:#FF2B00;}
	.st5{fill:none;stroke:#F4F1F1;stroke-width:1.9236;stroke-linecap:round;stroke-linejoin:round;stroke-miterlimit:10;}
	.st6{fill:none;stroke:#606060;stroke-width:1.2824;stroke-miterlimit:10;}
</style>
<g>
	<circle class="st0" cx="142.5" cy="133" r="123"/>
	<g>
		<g>
			<path class="st1" d="M77.9,187.1C77.9,187.1,77.9,187.1,77.9,187.1C77.9,187.1,77.9,187.1,77.9,187.1
				C77.9,187.1,77.9,187.1,77.9,187.1z"/>
			<path class="st1" d="M206.6,78.3c0.2,0.1,0.4,0.1,0.7,0.2c-0.4-0.4-0.7-0.8-1.1-1.2c0.1,0.2,0.2,0.5,0.4,0.7
				C206.6,78.1,206.7,78.2,206.6,78.3z"/>
			<path class="st2" d="M61.4,178.4l-0.5-0.4c-0.2,0.3-0.2,0.7,0.1,0.9c5.2,4.8,11.9,6.9,16.9,8.2c-0.3-0.3-0.5-0.6-0.7-0.9
				C72.3,184.9,66.2,182.8,61.4,178.4z"/>
			<path class="st2" d="M78,186.8c0.1-0.1,0.2-0.2,0.3-0.2c-0.4-0.1-0.8-0.2-1.2-0.3c0.2,0.3,0.5,0.6,0.7,0.9c0,0,0,0,0,0
				C77.9,187,78,186.9,78,186.8z"/>
			<path class="st2" d="M60.1,149.8c-0.1-0.3-0.1-0.6-0.2-0.8c-4.7-1.9-10.6-3.2-17.9-3.8c-11.3-0.9-21.6,0.1-21.7,0.1
				c-0.4,0-0.7,0.4-0.6,0.8c0,0.4,0.4,0.7,0.8,0.6c0,0,0.3,0,0.7-0.1l-0.8-0.6C20.3,146,45,143.4,60.1,149.8z"/>
			<path class="st2" d="M69.9,158c5.9,11.3,17.5,19.7,28,26.4c1.8,1.1,3.6,2.2,5.4,3.3c2.9,1.6,4.7,5.2,1.6,7.6
				c-3.5,2.7-16-4.8-20.5-6.9c0.1,0.3,0.2,0.6,0.4,1c0.6,0.3,1.3,0.7,2.1,1.1c6,3.2,12.1,6.1,15.9,6.1c1,0,1.9-0.2,2.6-0.7
				c1.7-1.3,2-2.8,1.9-3.9c-0.1-1.9-1.5-3.8-3.6-4.9c-1.6-0.9-3.3-1.9-5.4-3.2c-10.5-6.7-22-15-27.7-26.1c-1.9-3.7-5.4-6.6-10.6-8.7
				c0.1,0.3,0.1,0.6,0.2,0.8C64.4,151.7,68,154.3,69.9,158z"/>
			<path class="st2" d="M77.1,186.2c-0.2-0.3-0.5-0.6-0.7-0.9c-4.6-1.3-10.1-3.4-14.5-7.4c-0.3-0.3-0.7-0.2-1,0c0,0,0,0,0,0l0.5,0.4
				C66.2,182.8,72.3,184.9,77.1,186.2z"/>
			<path class="st2" d="M60.2,150.7c-0.1-0.3-0.1-0.6-0.2-0.8c-15-6.4-39.8-3.8-39.8-3.8l0.8,0.6C25.3,146.3,47,144.8,60.2,150.7z"
				/>
			<path class="st2" d="M78.7,186.5l5,0.8c0.3,0,0.5,0.3,0.6,0.6c0,0.2,0.1,0.3,0.1,0.5c4.4,2.2,16.9,9.7,20.5,6.9
				c3.1-2.4,1.3-6.1-1.6-7.6c-1.9-1-3.6-2.1-5.4-3.3c-10.5-6.7-22.1-15.1-28-26.4c-1.9-3.7-5.4-6.3-9.8-8.1c0.1,0.3,0.1,0.6,0.2,0.8
				c4,1.8,7.3,4.3,9,7.6c5.9,11.4,17.6,19.9,28.2,26.7c2.1,1.3,3.8,2.4,5.5,3.3c1.6,0.9,2.7,2.4,2.8,3.8c0.1,1-0.4,1.9-1.4,2.7
				c-2.6,2-11.9-2.9-16.9-5.5c-1.6-0.8-2.8-1.5-3.6-1.8c-0.9-0.4-2.3-0.7-4-1.2c-1.1-0.3-2.3-0.6-3.5-0.9c0.2,0.3,0.5,0.6,0.7,0.9
				c0.4,0.1,0.8,0.2,1.2,0.3C78.5,186.5,78.6,186.5,78.7,186.5z"/>
			<path class="st2" d="M52.4,178.1c2.6,2.9,6.4,8.2,10.8,13.6l1.4,0.6c-2.4-2.9-4.6-5.7-6.5-8.2c-2-2.6-3.8-4.8-5.1-6.4
				c-6.3-7.2-31.6-4.7-32.7-4.6c-0.4,0-0.7,0.4-0.6,0.8c0,0.4,0.4,0.7,0.8,0.6c0,0,0.5,0,1.3-0.1l-1.4-0.6
				C20.3,173.7,46.3,171.1,52.4,178.1z"/>
			<path class="st2" d="M115.1,213.5l0.3,0.1c-0.1-0.1-0.2-0.2-0.3-0.3L115.1,213.5z"/>
			<path class="st2" d="M79.6,189.2c-0.6-0.7-1.2-1.3-1.7-2c0,0.1,0,0.2,0.1,0.3c2.2,4.5,4.7,7.8,11.1,11.6v-0.8
				C83.7,195,81.4,192.3,79.6,189.2z"/>
			<path class="st2" d="M78.7,187.3c-0.2-0.1-0.5-0.1-0.8-0.2c0,0,0,0,0,0c0.6,0.7,1.1,1.3,1.7,2C79.3,188.6,79,187.9,78.7,187.3z"
				/>
			<path class="st2" d="M115.6,213.7l-0.1,0c4.1,4.4,4.6,8.1,4.2,9c-0.1,0.2-0.5,0.2-1.3,0c-1.5-0.4-4.2-1.4-7.4-2.7l0,0l0,0
				c-8.6-3.5-21.4-9.2-28.3-11.2c-6.3-1.9-13.4-9.5-19.5-17l-1.4-0.6c6.4,7.9,13.9,16.2,20.6,18.2c5,1.5,13.4,5,20.7,8.1
				c10.7,4.5,14.7,6.1,16.2,6.1c0.2,0,0.4,0,0.5-0.1c0.2-0.1,0.4-0.3,0.5-0.5c0.5-1.1,0-4.5-3.3-8.5h2.5c-0.8-0.2-1.5-0.5-2.3-0.7
				H115.6z"/>
			<path class="st2" d="M120.6,213.8c0-0.1,0.7-6.4-5-9.2c-1.3-0.7-3.7-1.5-6.8-2.5c-8.1-2.7-21.3-7.2-24.1-12.7
				c-0.4-0.2-0.7-0.3-1-0.5c2.9,8.3,26.5,13.8,31.5,16.3c5.2,2.6,4.6,8.5,4.6,8.5h-2.7c0.8,0.2,1.5,0.5,2.3,0.7h0.4
				C120.3,214.4,120.6,214.2,120.6,213.8z"/>
			<path class="st2" d="M83.6,188c0,0.3,0.1,0.6,0.2,0.9c0.3,0.1,0.6,0.3,1,0.5c-0.2-0.3-0.3-0.6-0.4-1
				C84.1,188.2,83.8,188.1,83.6,188z"/>
			<path class="st2" d="M83.6,188c-1.1-0.5-3-0.9-5.2-1.5c-0.1,0-0.2,0.1-0.3,0.2c-0.1,0.1-0.1,0.2-0.1,0.4c0.3,0.1,0.5,0.1,0.8,0.2
				c0,0,0-0.1-0.1-0.1L83.6,188z"/>
			<path class="st2" d="M84.4,188.4c0-0.2-0.1-0.3-0.1-0.5c0-0.3-0.3-0.5-0.6-0.6l-5-0.8c-0.1,0-0.2,0-0.3,0c2.3,0.6,4.1,1,5.2,1.5
				C83.8,188.1,84.1,188.2,84.4,188.4z"/>
			<path class="st2" d="M89.1,198.3C89.1,198.3,89,198.3,89.1,198.3l-0.1,0.8c1.1,0.7,2.4,1.4,3.7,2.1
				C91.5,200.3,90.3,199.3,89.1,198.3z"/>
			<path class="st2" d="M115.2,213.4c-0.2-0.2-0.3-0.4-0.5-0.5c-0.5-0.2-1.1-0.4-1.6-0.6c0.3,0.3,0.6,0.5,0.8,0.7l1.3,0.5
				L115.2,213.4z"/>
			<path class="st2" d="M101.7,204.6c-5.5-2.4-9.5-4.4-12.6-6.3c1.2,1,2.4,2,3.7,2.9c2.4,1.3,5.3,2.6,8.7,4.1c5.3,2.3,9,4.7,11.6,7
				c0.5,0.2,1.1,0.4,1.6,0.6C111.9,210.2,107.8,207.3,101.7,204.6z"/>
			<path class="st2" d="M115.2,213.4c0.1,0.1,0.2,0.2,0.3,0.3l0.1,0h1.7c-0.6-0.2-1.3-0.4-1.9-0.6L115.2,213.4z"/>
			<path class="st2" d="M79.6,189.2c1.7,3.1,4.1,5.9,9.4,9.1v0C85.7,195.5,82.5,192.4,79.6,189.2z"/>
			<path class="st2" d="M79.5,187.5c-0.3-0.1-0.6-0.1-0.9-0.2c0.3,0.6,0.6,1.2,1,1.8c2.9,3.3,6,6.3,9.4,9.1v-0.8
				c-5.4-3.4-7.6-6.2-9.2-9.4l3.2,0.5c1.7,6.8,15.9,11.6,25.4,14.8c2.9,1,5.4,1.8,6.6,2.4c3.8,1.9,4.2,5.7,4.2,7.2h-0.5
				c0.1,0.1,0.1,0.2,0.1,0.2l-3.1-0.2l-0.3-0.3l-0.1,0.3c0.6,0.2,1.3,0.4,1.9,0.6h2.7c0,0,0.7-5.9-4.6-8.5
				c-5.1-2.5-28.7-8.1-31.5-16.3c-0.2-0.1-0.3-0.2-0.5-0.2C82.5,188.3,81.1,187.9,79.5,187.5z"/>
			<path class="st2" d="M118.4,222.6l-7.4-2.7C114.3,221.2,116.9,222.3,118.4,222.6z"/>
			<path class="st2" d="M82.7,208.7c6.8,2,19.7,7.7,28.3,11.2c0.1-0.2,0.2-0.4,0.3-0.6c-2.4-1-5-2.1-7.5-3.1
				c-7.4-3.1-15.8-6.6-20.9-8.1c-5.8-1.7-12.5-8.7-18.3-15.7l-1.4-0.6C69.3,199.2,76.4,206.8,82.7,208.7z"/>
			<path class="st2" d="M114.9,214c3.6,3.8,4.3,7,4.2,8.1c-0.2,0-0.5-0.1-0.9-0.2c0.2,0.5,0.2,0.8,0.2,0.8c0.8,0.2,1.2,0.2,1.3,0
				c0.4-0.9-0.1-4.6-4.2-9l-0.3-0.1L114.9,214z"/>
			<path class="st2" d="M52.4,178.1c-6.1-7-32.1-4.4-32.1-4.4l1.4,0.6c2.2-0.2,7.1-0.5,12.4-0.3c9.3,0.3,15.4,1.9,17.8,4.6
				c1.4,1.6,3.1,3.8,5.1,6.4c1.5,2,3.2,4.1,4.9,6.2l1.4,0.6C58.8,186.3,55,181,52.4,178.1z"/>
			<path class="st2" d="M111.3,219.3c-0.1,0.2-0.2,0.4-0.3,0.6c0,0,0,0,0,0l7.4,2.7c0,0,0-0.3-0.2-0.8
				C116.8,221.5,114.2,220.5,111.3,219.3z"/>
			<polygon class="st2" points="111,219.9 111,219.9 111,219.9 			"/>
			<path class="st2" d="M115.5,212.7L115.5,212.7l0.3,0.4l3.1,0.2c0,0,0-0.1-0.1-0.2h-3C115.7,212.9,115.6,212.8,115.5,212.7z"/>
			<path class="st2" d="M78.6,187.2c0,0,0,0.1,0.1,0.1c0.3,0.1,0.6,0.2,0.9,0.2c1.6,0.4,2.9,0.8,3.8,1.1c0.1,0.1,0.3,0.1,0.5,0.2
				c-0.1-0.3-0.2-0.6-0.2-0.9L78.6,187.2z"/>
			<path class="st2" d="M113.9,213c0.4,0.3,0.7,0.7,1,1l0.2-0.5L113.9,213z"/>
			<path class="st2" d="M89,198.3C89,198.3,89.1,198.3,89,198.3C89.1,198.3,89,198.3,89,198.3L89,198.3z"/>
			<path class="st2" d="M115.2,213.4l0.1-0.3c-0.2-0.1-0.4-0.2-0.7-0.2C114.9,213,115,213.2,115.2,213.4z"/>
			<path class="st2" d="M114.7,212.9c0.2,0.1,0.4,0.2,0.7,0.2l0.1-0.3l-2.7-2.5c0,0,0,0,0.1,0c-2.7-2.1-6.2-4.3-10.8-6.3
				c-5.7-2.5-9.9-4.6-13-6.5v0.8c0,0,0,0,0.1,0c3.1,1.9,7.1,3.9,12.6,6.3C107.8,207.3,111.9,210.2,114.7,212.9z"/>
			<path class="st2" d="M112.8,210.3C112.8,210.3,112.8,210.3,112.8,210.3l2.7,2.5l0-0.1C114.7,211.9,113.8,211.1,112.8,210.3z"/>
			<path class="st2" d="M223.1,87l0.5,0.4c0.2-0.3,0.2-0.7-0.1-0.9c-5-4.6-11.4-6.7-16.3-8c0.3,0.3,0.5,0.6,0.8,0.9
				C212.8,80.7,218.6,82.8,223.1,87z"/>
			<path class="st2" d="M206.5,78.7c-0.1,0.1-0.2,0.2-0.3,0.2c0.6,0.2,1.3,0.3,1.9,0.5c-0.3-0.3-0.5-0.6-0.8-0.9
				c-0.2-0.1-0.4-0.1-0.7-0.2C206.6,78.4,206.6,78.6,206.5,78.7z"/>
			<path class="st2" d="M264.9,119.3c0-0.4-0.4-0.7-0.8-0.6c0,0-0.3,0-0.7,0.1l0.8,0.6c0,0-23.4,2.5-38.5-3.3
				c0.1,0.3,0.1,0.5,0.2,0.8c4.5,1.7,10.1,2.8,16.7,3.3c11.3,0.9,21.6-0.1,21.7-0.1C264.7,120,264.9,119.7,264.9,119.3z"/>
			<path class="st2" d="M214.7,107.4c-5.9-11.3-17.5-19.7-28-26.4c-1.8-1.1-3.6-2.2-5.4-3.3c-2.9-1.6-4.7-5.2-1.6-7.6
				c3.5-2.7,16,4.8,20.5,6.9c-0.1-0.3-0.2-0.6-0.4-1c-0.6-0.3-1.3-0.7-2.1-1.1c-6-3.2-12.1-6.1-15.9-6.1c-1,0-1.9,0.2-2.6,0.7
				c-1.7,1.3-2,2.8-1.9,3.9c0.1,1.9,1.5,3.8,3.6,4.9c1.6,0.9,3.3,1.9,5.4,3.2c10.5,6.7,22,15,27.7,26.1c2,3.9,6,7,11.8,9.1
				c-0.1-0.3-0.1-0.6-0.2-0.8C220.8,114.2,216.7,111.4,214.7,107.4z"/>
			<path class="st2" d="M225.5,115.3c0.1,0.3,0.1,0.5,0.2,0.8c15.1,5.8,38.5,3.3,38.5,3.3l-0.8-0.6
				C259.4,119.1,238.8,120.6,225.5,115.3z"/>
			<path class="st2" d="M208.1,79.4c0.3,0.3,0.5,0.6,0.8,0.9c4.4,1.3,9.7,3.4,13.8,7.2c0.3,0.3,0.7,0.2,1,0c0,0,0,0,0,0l-0.5-0.4
				C218.6,82.8,212.8,80.7,208.1,79.4z"/>
			<path class="st2" d="M215.3,107.1c-5.9-11.4-17.6-19.9-28.2-26.7c-2.1-1.3-3.8-2.4-5.5-3.3c-1.6-0.9-2.7-2.4-2.8-3.8
				c-0.1-1,0.4-1.9,1.4-2.7c2.6-2,11.9,2.9,16.9,5.5c1.6,0.8,2.8,1.5,3.6,1.8c0.9,0.4,2.3,0.7,4,1.2c1.3,0.3,2.7,0.7,4.2,1.1
				c-0.3-0.3-0.5-0.6-0.8-0.9c-0.7-0.2-1.3-0.4-1.9-0.5c-0.1,0-0.2,0.1-0.3,0l-5-0.8c-0.3,0-0.5-0.3-0.6-0.6c0-0.2-0.1-0.3-0.1-0.5
				c-4.4-2.2-16.9-9.7-20.5-6.9c-3.1,2.4-1.3,6.1,1.6,7.6c1.9,1,3.6,2.1,5.4,3.3c10.5,6.7,22.1,15.1,28,26.4c2.1,4,6.1,6.8,11,8.6
				c-0.1-0.3-0.1-0.5-0.2-0.8C220.9,113.4,217.2,110.8,215.3,107.1z"/>
			<path class="st3" d="M168.7,52.4h-1.1c0.4,0.1,0.9,0.3,1.3,0.4l0.1-0.1C168.9,52.6,168.8,52.5,168.7,52.4z"/>
			<path class="st2" d="M232.2,87.3c-2.6-2.9-6.4-8.2-10.8-13.6l-1.4-0.6c2.4,2.9,4.6,5.7,6.5,8.2c2,2.6,3.8,4.8,5.1,6.4
				c6.3,7.2,31.6,4.7,32.7,4.6c0.4,0,0.7-0.4,0.6-0.8c0-0.4-0.4-0.7-0.8-0.6c0,0-0.5,0-1.3,0.1l1.4,0.6
				C264.2,91.7,238.3,94.3,232.2,87.3z"/>
			<path class="st2" d="M169.4,51.9l-0.3-0.1c0.1,0.1,0.2,0.2,0.3,0.3L169.4,51.9z"/>
			<path class="st2" d="M195.9,67.4c4.3,2.7,6.6,5,8.2,7.6c0.7,0.8,1.4,1.5,2.1,2.3c-2.1-4.1-4.7-7.3-10.7-10.9v0.8
				C195.7,67.2,195.8,67.3,195.9,67.4z"/>
			<path class="st2" d="M205.9,78.1c0.2,0.1,0.5,0.1,0.8,0.2c0-0.1,0-0.2-0.1-0.4c-0.1-0.2-0.2-0.5-0.4-0.7
				c-0.7-0.8-1.4-1.5-2.1-2.3C204.8,76,205.4,77,205.9,78.1z"/>
			<path class="st2" d="M195.9,67.4c-0.1-0.1-0.3-0.2-0.4-0.3v0.1C195.7,67.2,195.8,67.3,195.9,67.4z"/>
			<path class="st2" d="M169,51.7l0.1,0c-4.1-4.4-4.6-8.1-4.2-9c0.1-0.2,0.5-0.2,1.3,0c1.5,0.4,4.2,1.4,7.4,2.7l0,0l0,0
				c8.6,3.5,21.4,9.2,28.3,11.2c6.3,1.9,13.4,9.5,19.5,17l1.4,0.6c-6.4-7.9-13.9-16.2-20.6-18.2c-5-1.5-13.4-5-20.7-8.1
				c-10.7-4.5-14.7-6.1-16.2-6.1c-0.2,0-0.4,0-0.5,0.1c-0.2,0.1-0.4,0.3-0.5,0.5c-0.5,1.1,0,4.5,3.3,8.5h-2.9
				c-0.3,0-0.5,0.1-0.6,0.4c0.4,0.1,0.8,0.2,1.2,0.3H169z"/>
			<path class="st2" d="M168.9,60.8c1.3,0.7,3.7,1.5,6.8,2.5c8.1,2.7,21.3,7.2,24.1,12.7c0.4,0.2,0.7,0.3,1,0.5
				c-2.9-8.3-26.5-13.8-31.5-16.3c-5.2-2.6-4.6-8.5-4.6-8.5h0.6c-0.4-0.1-0.8-0.2-1.2-0.3c0,0.1-0.1,0.2-0.1,0.3
				C163.9,51.7,163.3,58,168.9,60.8z"/>
			<path class="st2" d="M200.7,76.6c-0.3-0.1-0.6-0.3-1-0.5c0.2,0.3,0.3,0.6,0.4,1c0.3,0.1,0.6,0.3,0.8,0.4
				C200.9,77.1,200.8,76.8,200.7,76.6z"/>
			<path class="st2" d="M201,77.4c1.1,0.5,3,0.9,5.2,1.5c0.1,0,0.2-0.1,0.3-0.2c0.1-0.1,0.1-0.2,0.1-0.4c-0.3-0.1-0.5-0.1-0.8-0.2
				c0,0,0,0.1,0.1,0.1L201,77.4z"/>
			<path class="st2" d="M200.9,78.1l5,0.8c0.1,0,0.2,0,0.3,0c-2.3-0.6-4.1-1-5.2-1.5c-0.2-0.1-0.5-0.2-0.8-0.4
				c0,0.2,0.1,0.3,0.1,0.5C200.3,77.8,200.6,78.1,200.9,78.1z"/>
			<path class="st2" d="M195.5,67.1v-0.8c-1.2-0.7-2.5-1.4-3.9-2.2C192.9,65.1,194.2,66.1,195.5,67.1z"/>
			<path class="st2" d="M169.3,52c0.4,0.5,0.9,0.9,1.4,1.4c0.6,0.2,1.2,0.4,1.8,0.6c-0.7-0.6-1.3-1.1-1.9-1.6l-1.3-0.5L169.3,52z"/>
			<path class="st2" d="M182.8,60.8c5.5,2.4,9.6,4.4,12.7,6.3v-0.1c-1.3-1-2.6-2-3.9-2.9c-2.4-1.2-5.2-2.5-8.5-4
				c-4.6-2-8-4.1-10.6-6.1c-0.6-0.2-1.2-0.4-1.8-0.6C173.5,55.9,177.4,58.4,182.8,60.8z"/>
			<path class="st2" d="M204.1,74.9c-1.6-2.5-4-4.9-8.2-7.6C198.8,69.7,201.6,72.2,204.1,74.9z"/>
			<path class="st2" d="M168.7,52.3l0.3,0.3l0.3-0.6c-0.1-0.1-0.2-0.2-0.3-0.3l-0.1,0h-3.7c0.6,0.2,1.3,0.4,1.9,0.5L168.7,52.3z"/>
			<path class="st2" d="M205,77.9c0.3,0.1,0.6,0.1,0.9,0.2c-0.5-1.1-1.1-2.1-1.8-3.2c-2.6-2.7-5.3-5.2-8.2-7.6
				c-0.1-0.1-0.3-0.2-0.4-0.2V68c5.4,3.4,7.6,6.2,9.2,9.4l-3.2-0.5c-1.7-6.8-15.9-11.6-25.4-14.8c-2.9-1-5.4-1.8-6.6-2.4
				c-3.8-1.9-4.2-5.7-4.2-7.2h0.5c-0.1-0.1-0.1-0.2-0.1-0.2l1.5,0.1c-0.6-0.2-1.3-0.4-1.9-0.5h-0.6c0,0-0.7,5.9,4.6,8.5
				c5.1,2.5,28.7,8.1,31.5,16.3c0.2,0.1,0.3,0.2,0.5,0.2C202.1,77.1,203.4,77.5,205,77.9z"/>
			<path class="st2" d="M166.1,42.8l7.4,2.7C170.3,44.2,167.6,43.2,166.1,42.8z"/>
			<path class="st2" d="M201.8,56.7c-6.8-2-19.7-7.7-28.3-11.2c-0.1,0.2-0.2,0.4-0.3,0.6c2.4,1,5,2.1,7.5,3.1
				c7.4,3.1,15.8,6.6,20.9,8.1c5.8,1.7,12.5,8.7,18.3,15.7l1.4,0.6C215.2,66.2,208.1,58.6,201.8,56.7z"/>
			<path class="st2" d="M169.6,51.4c-3.6-3.8-4.3-7-4.2-8.1c0.2,0,0.5,0.1,0.9,0.2c-0.2-0.5-0.2-0.8-0.2-0.8c-0.8-0.2-1.2-0.2-1.3,0
				c-0.4,0.9,0.1,4.6,4.2,9l0.3,0.1L169.6,51.4z"/>
			<path class="st2" d="M232.2,87.3c6.1,7,32.1,4.4,32.1,4.4l-1.4-0.6c-2.2,0.2-7.1,0.5-12.4,0.3c-9.3-0.3-15.4-1.9-17.8-4.6
				c-1.4-1.6-3.1-3.8-5.1-6.4c-1.5-2-3.2-4.1-4.9-6.2l-1.4-0.6C225.7,79.1,229.6,84.4,232.2,87.3z"/>
			<path class="st2" d="M173.3,46.1c0.1-0.2,0.2-0.4,0.3-0.6c0,0,0,0,0,0l-7.4-2.7c0,0,0,0.3,0.2,0.8
				C167.8,44,170.3,44.9,173.3,46.1z"/>
			<polygon class="st2" points="173.5,45.5 173.5,45.5 173.5,45.5 			"/>
			<path class="st2" d="M168.7,52.4c0.1,0.1,0.2,0.2,0.3,0.3l0-0.1L168.7,52.4l-1.6-0.1c0.2,0,0.3,0.1,0.5,0.1H168.7z"/>
			<path class="st2" d="M167.2,52.3l-1.5-0.1c0,0,0,0.1,0.1,0.2h1.9C167.5,52.3,167.3,52.3,167.2,52.3z"/>
			<path class="st2" d="M206,78.3c0,0,0-0.1-0.1-0.1c-0.3-0.1-0.6-0.2-0.9-0.2c-1.6-0.4-2.9-0.8-3.8-1.1c-0.1-0.1-0.3-0.1-0.5-0.2
				c0.1,0.3,0.2,0.6,0.2,0.9L206,78.3z"/>
			<path class="st2" d="M170.7,52.4c-0.4-0.3-0.7-0.7-1-1l-0.2,0.5L170.7,52.4z"/>
			<path class="st2" d="M170.8,53.4c-0.5-0.5-1-0.9-1.4-1.4l-0.3,0.6l0.3,0.3C169.8,53.1,170.3,53.2,170.8,53.4z"/>
			<path class="st2" d="M170.8,53.4c-0.5-0.2-0.9-0.3-1.4-0.5l2.4,2.2c0,0,0,0-0.1,0c2.7,2.1,6.2,4.3,10.8,6.3
				c5.7,2.5,9.9,4.6,13,6.5v-0.8c-3.1-1.9-7.2-4-12.7-6.3C177.4,58.4,173.5,55.9,170.8,53.4z"/>
			<path class="st2" d="M169.2,52.9c0,0,0.1,0,0.1,0l-0.3-0.3l0,0.1C169.1,52.8,169.2,52.8,169.2,52.9z"/>
			<path class="st2" d="M171.7,55.1C171.8,55.1,171.8,55.1,171.7,55.1l-2.4-2.2c0,0-0.1,0-0.1,0C170,53.6,170.8,54.4,171.7,55.1z"/>
		</g>
		<g>
			<path class="st4" d="M143,113.1c0,0-12.9-31.9-42.6-17.8s-14.7,59.2,42.6,93.2V113.1z"/>
			<path class="st4" d="M142.9,113.1c0,0,12.9-31.9,42.6-17.8s14.7,59.2-42.6,93.2V113.1z"/>
		</g>
		<g>
			<path class="st2" d="M77.1,103.7c0-1-0.8-1.8-1.8-1.8h-7.6c-1,0-1.8-0.8-1.8-1.8v-7.6c0-1-0.8-1.8-1.8-1.8h-5
				c-1,0-1.8,0.8-1.8,1.8v7.6c0,1-0.8,1.8-1.8,1.8H48c-1,0-1.8,0.8-1.8,1.8v5c0,1,0.8,1.8,1.8,1.8h7.6c1,0,1.8,0.8,1.8,1.8v7.6
				c0,1,0.8,1.8,1.8,1.8h5c1,0,1.8-0.8,1.8-1.8v-7.6c0-1,0.8-1.8,1.8-1.8h7.6c1,0,1.8-0.8,1.8-1.8V103.7z"/>
		</g>
		<g>
			<path class="st2" d="M142.4,48.1c0-1-0.8-1.8-1.8-1.8h-3.5c-1,0-1.8-0.8-1.8-1.8v-3.5c0-1-0.8-1.8-1.8-1.8h-1.8
				c-1,0-1.8,0.8-1.8,1.8v3.5c0,1-0.8,1.8-1.8,1.8h-3.5c-1,0-1.8,0.8-1.8,1.8v1.8c0,1,0.8,1.8,1.8,1.8h3.5c1,0,1.8,0.8,1.8,1.8v3.5
				c0,1,0.8,1.8,1.8,1.8h1.8c1,0,1.8-0.8,1.8-1.8v-3.5c0-1,0.8-1.8,1.8-1.8h3.5c1,0,1.8-0.8,1.8-1.8V48.1z"/>
		</g>
		<g>
			<path class="st2" d="M183.3,193.3c0-1-0.8-1.8-1.8-1.8H178c-1,0-1.8-0.8-1.8-1.8v-3.5c0-1-0.8-1.8-1.8-1.8h-1.8
				c-1,0-1.8,0.8-1.8,1.8v3.5c0,1-0.8,1.8-1.8,1.8h-3.5c-1,0-1.8,0.8-1.8,1.8v1.8c0,1,0.8,1.8,1.8,1.8h3.5c1,0,1.8,0.8,1.8,1.8v3.5
				c0,1,0.8,1.8,1.8,1.8h1.8c1,0,1.8-0.8,1.8-1.8v-3.5c0-1,0.8-1.8,1.8-1.8h3.5c1,0,1.8-0.8,1.8-1.8V193.3z"/>
		</g>
		<g>
			<path class="st2" d="M72.5,52.4c0-0.7-0.7-1.3-1.7-1.3c-0.9,0-1.7-0.7-1.7-1.7s-0.6-1.7-1.3-1.7s-1.3,0.7-1.3,1.7
				s-0.7,1.7-1.7,1.7s-1.7,0.6-1.7,1.3s0.7,1.3,1.7,1.3s1.7,0.7,1.7,1.7s0.6,1.7,1.3,1.7s1.3-0.7,1.3-1.7s0.7-1.7,1.7-1.7
				C71.7,53.7,72.5,53.1,72.5,52.4z"/>
		</g>
		<g>
			<path class="st2" d="M244.4,64.9c0-0.7-0.7-1.3-1.7-1.3c-0.9,0-1.7-0.7-1.7-1.7s-0.6-1.7-1.3-1.7s-1.3,0.7-1.3,1.7
				s-0.7,1.7-1.7,1.7c-0.9,0-1.7,0.6-1.7,1.3s0.7,1.3,1.7,1.3c0.9,0,1.7,0.7,1.7,1.7s0.6,1.7,1.3,1.7s1.3-0.7,1.3-1.7
				s0.7-1.7,1.7-1.7C243.7,66.2,244.4,65.6,244.4,64.9z"/>
		</g>
		<g>
			<path class="st2" d="M244.4,171.7c0-0.7-0.7-1.3-1.7-1.3c-0.9,0-1.7-0.7-1.7-1.7c0-0.9-0.6-1.7-1.3-1.7s-1.3,0.7-1.3,1.7
				c0,0.9-0.7,1.7-1.7,1.7c-0.9,0-1.7,0.6-1.7,1.3s0.7,1.3,1.7,1.3c0.9,0,1.7,0.7,1.7,1.7c0,0.9,0.6,1.7,1.3,1.7s1.3-0.7,1.3-1.7
				c0-0.9,0.7-1.7,1.7-1.7C243.7,172.9,244.4,172.4,244.4,171.7z"/>
		</g>
		<g>
			<path class="st2" d="M100.3,238.4c0-0.7-0.7-1.3-1.7-1.3s-1.7-0.7-1.7-1.7c0-0.9-0.6-1.7-1.3-1.7c-0.7,0-1.3,0.7-1.3,1.7
				c0,0.9-0.7,1.7-1.7,1.7s-1.7,0.6-1.7,1.3c0,0.7,0.7,1.3,1.7,1.3s1.7,0.7,1.7,1.7c0,0.9,0.6,1.7,1.3,1.7c0.7,0,1.3-0.7,1.3-1.7
				c0-0.9,0.7-1.7,1.7-1.7S100.3,239.1,100.3,238.4z"/>
		</g>
		<polyline class="st5" points="47.8,137 118.6,137 126.9,113.4 144.4,167.1 153.3,135.8 232.7,135.8 		"/>
		<path class="st2" d="M109.6,72.7c0,1.5-1.2,2.7-2.7,2.7c-1.5,0-2.7-1.2-2.7-2.7c0-1.5,1.2-2.7,2.7-2.7
			C108.4,70.1,109.6,71.3,109.6,72.7z"/>
		<path class="st6" d="M207.2,154.5c0,1.5-1.2,2.7-2.7,2.7c-1.5,0-2.7-1.2-2.7-2.7s1.2-2.7,2.7-2.7
			C206,151.9,207.2,153.1,207.2,154.5z"/>
		<path class="st2" d="M204.5,37c0,1.5-1.2,2.7-2.7,2.7c-1.5,0-2.7-1.2-2.7-2.7c0-1.5,1.2-2.7,2.7-2.7
			C203.3,34.4,204.5,35.5,204.5,37z"/>
		<g>
			<path class="st2" d="M104,33.2v3.5c0,0.2,0.2,0.4,0.4,0.4c0.2,0,0.4-0.2,0.4-0.4v-3.5c-0.1,0-0.2,0-0.4,0
				C104.2,33.2,104.1,33.2,104,33.2z"/>
			<path class="st2" d="M104.7,25.7v-3.5c0-0.2-0.2-0.4-0.4-0.4c-0.2,0-0.4,0.2-0.4,0.4v3.5c0.1,0,0.2,0,0.4,0
				C104.5,25.7,104.6,25.7,104.7,25.7z"/>
			<path class="st2" d="M100.6,29.1h-3.5c-0.2,0-0.4,0.2-0.4,0.4c0,0.2,0.2,0.4,0.4,0.4h3.5c0-0.1,0-0.2,0-0.4
				S100.6,29.2,100.6,29.1z"/>
			<path class="st2" d="M111.5,29.1h-3.5c0,0.1,0,0.2,0,0.4s0,0.2,0,0.4h3.5c0.2,0,0.4-0.2,0.4-0.4
				C111.9,29.2,111.8,29.1,111.5,29.1z"/>
			<path class="st2" d="M101.4,31.8L99,34.3c-0.1,0.1-0.1,0.4,0,0.5c0.1,0.1,0.2,0.1,0.3,0.1c0.1,0,0.2,0,0.3-0.1l2.5-2.5
				C101.8,32.2,101.6,32,101.4,31.8z"/>
			<path class="st2" d="M107.2,27l2.5-2.5c0.1-0.1,0.1-0.4,0-0.5c-0.1-0.1-0.4-0.1-0.5,0l-2.5,2.5C106.9,26.7,107.1,26.9,107.2,27z"
				/>
			<path class="st2" d="M106.7,32.3l2.5,2.5c0.1,0.1,0.2,0.1,0.3,0.1c0.1,0,0.2,0,0.3-0.1c0.1-0.1,0.1-0.4,0-0.5l-2.5-2.5
				C107.1,32,106.9,32.2,106.7,32.3z"/>
			<path class="st2" d="M101.9,26.5l-2.5-2.5c-0.1-0.1-0.4-0.1-0.5,0c-0.1,0.1-0.1,0.4,0,0.5l2.5,2.5
				C101.6,26.9,101.8,26.7,101.9,26.5z"/>
		</g>
		<g>
			<path class="st2" d="M17.2,129.5v3.5c0,0.2,0.2,0.4,0.4,0.4c0.2,0,0.4-0.2,0.4-0.4v-3.5c-0.1,0-0.2,0-0.4,0
				S17.3,129.5,17.2,129.5z"/>
			<path class="st2" d="M18,122v-3.5c0-0.2-0.2-0.4-0.4-0.4c-0.2,0-0.4,0.2-0.4,0.4v3.5c0.1,0,0.2,0,0.4,0S17.8,122,18,122z"/>
			<path class="st2" d="M13.9,125.4h-3.5c-0.2,0-0.4,0.2-0.4,0.4c0,0.2,0.2,0.4,0.4,0.4h3.5c0-0.1,0-0.2,0-0.4
				C13.8,125.6,13.8,125.5,13.9,125.4z"/>
			<path class="st2" d="M24.8,125.4h-3.5c0,0.1,0,0.2,0,0.4c0,0.1,0,0.2,0,0.4h3.5c0.2,0,0.4-0.2,0.4-0.4
				C25.2,125.6,25,125.4,24.8,125.4z"/>
			<path class="st2" d="M14.7,128.1l-2.5,2.5c-0.1,0.1-0.1,0.4,0,0.5c0.1,0.1,0.2,0.1,0.3,0.1c0.1,0,0.2,0,0.3-0.1l2.5-2.5
				C15,128.5,14.8,128.3,14.7,128.1z"/>
			<path class="st2" d="M20.5,123.4l2.5-2.5c0.1-0.1,0.1-0.4,0-0.5c-0.1-0.1-0.4-0.1-0.5,0l-2.5,2.5C20.2,123,20.3,123.2,20.5,123.4
				z"/>
			<path class="st2" d="M20,128.7l2.5,2.5c0.1,0.1,0.2,0.1,0.3,0.1c0.1,0,0.2,0,0.3-0.1c0.1-0.1,0.1-0.4,0-0.5l-2.5-2.5
				C20.3,128.3,20.2,128.5,20,128.7z"/>
			<path class="st2" d="M15.2,122.9l-2.5-2.5c-0.1-0.1-0.4-0.1-0.5,0c-0.1,0.1-0.1,0.4,0,0.5l2.5,2.5C14.8,123.2,15,123,15.2,122.9z
				"/>
		</g>
		<g>
			<path class="st2" d="M267,151.6v3.5c0,0.2,0.2,0.4,0.4,0.4c0.2,0,0.4-0.2,0.4-0.4v-3.5c-0.1,0-0.2,0-0.4,0S267.1,151.6,267,151.6
				z"/>
			<path class="st2" d="M267.7,144.1v-3.5c0-0.2-0.2-0.4-0.4-0.4c-0.2,0-0.4,0.2-0.4,0.4v3.5c0.1,0,0.2,0,0.4,0
				S267.6,144.1,267.7,144.1z"/>
			<path class="st2" d="M263.6,147.4h-3.5c-0.2,0-0.4,0.2-0.4,0.4c0,0.2,0.2,0.4,0.4,0.4h3.5c0-0.1,0-0.2,0-0.4
				S263.6,147.6,263.6,147.4z"/>
			<path class="st2" d="M274.6,147.4h-3.5c0,0.1,0,0.2,0,0.4s0,0.2,0,0.4h3.5c0.2,0,0.4-0.2,0.4-0.4
				C275,147.6,274.8,147.4,274.6,147.4z"/>
			<path class="st2" d="M264.5,150.2l-2.5,2.5c-0.1,0.1-0.1,0.4,0,0.5c0.1,0.1,0.2,0.1,0.3,0.1c0.1,0,0.2,0,0.3-0.1l2.5-2.5
				C264.8,150.6,264.6,150.4,264.5,150.2z"/>
			<path class="st2" d="M270.3,145.4l2.5-2.5c0.1-0.1,0.1-0.4,0-0.5c-0.1-0.1-0.4-0.1-0.5,0l-2.5,2.5
				C269.9,145.1,270.1,145.2,270.3,145.4z"/>
			<path class="st2" d="M269.7,150.7l2.5,2.5c0.1,0.1,0.2,0.1,0.3,0.1c0.1,0,0.2,0,0.3-0.1c0.1-0.1,0.1-0.4,0-0.5l-2.5-2.5
				C270.1,150.4,269.9,150.6,269.7,150.7z"/>
			<path class="st2" d="M265,144.9l-2.5-2.5c-0.1-0.1-0.4-0.1-0.5,0c-0.1,0.1-0.1,0.4,0,0.5l2.5,2.5
				C264.6,145.2,264.8,145.1,265,144.9z"/>
		</g>
		<g>
			<path class="st2" d="M210.3,211.9v5.2c0,0.3,0.2,0.6,0.6,0.6s0.6-0.2,0.6-0.6v-5.2c-0.2,0-0.4,0-0.6,0
				C210.7,211.9,210.5,211.9,210.3,211.9z"/>
			<path class="st2" d="M211.4,200.7v-5.2c0-0.3-0.2-0.6-0.6-0.6s-0.6,0.2-0.6,0.6v5.2c0.2,0,0.4,0,0.6,0
				C211,200.7,211.2,200.7,211.4,200.7z"/>
			<path class="st2" d="M205.2,205.8H200c-0.3,0-0.6,0.2-0.6,0.6c0,0.3,0.2,0.6,0.6,0.6h5.2c0-0.2,0-0.4,0-0.6
				C205.2,206.1,205.2,205.9,205.2,205.8z"/>
			<path class="st2" d="M221.6,205.8h-5.2c0,0.2,0,0.4,0,0.6c0,0.2,0,0.4,0,0.6h5.2c0.3,0,0.6-0.2,0.6-0.6
				C222.2,206,222,205.8,221.6,205.8z"/>
			<path class="st2" d="M206.5,209.9l-3.7,3.7c-0.2,0.2-0.2,0.6,0,0.8c0.1,0.1,0.2,0.2,0.4,0.2c0.1,0,0.3-0.1,0.4-0.2l3.7-3.7
				C207,210.4,206.7,210.2,206.5,209.9z"/>
			<path class="st2" d="M215.2,202.7l3.7-3.7c0.2-0.2,0.2-0.6,0-0.8c-0.2-0.2-0.6-0.2-0.8,0l-3.7,3.7
				C214.7,202.2,215,202.5,215.2,202.7z"/>
			<path class="st2" d="M214.4,210.7l3.7,3.7c0.1,0.1,0.2,0.2,0.4,0.2s0.3-0.1,0.4-0.2c0.2-0.2,0.2-0.6,0-0.8l-3.7-3.7
				C215,210.2,214.7,210.4,214.4,210.7z"/>
			<path class="st2" d="M207.3,202l-3.7-3.7c-0.2-0.2-0.6-0.2-0.8,0c-0.2,0.2-0.2,0.6,0,0.8l3.7,3.7
				C206.7,202.5,207,202.2,207.3,202z"/>
		</g>
		<path class="st2" d="M170.6,17.1c-4.2-2-6.2,2.3-6.3,2.6c-0.1-0.3-2.1-4.6-6.3-2.6c-4.4,2.1-2.2,8.8,6.3,13.8v0c0,0,0,0,0,0
			c0,0,0,0,0,0v0C172.8,25.9,175,19.2,170.6,17.1z"/>
		<path class="st2" d="M158.9,230.5c-2.1-1-3.1,1.1-3.2,1.3c-0.1-0.2-1-2.3-3.2-1.3c-2.2,1-1.1,4.4,3.2,6.9v0c0,0,0,0,0,0
			c0,0,0,0,0,0v0C160,234.9,161.1,231.5,158.9,230.5z"/>
	</g>
</g>
</svg>
